<?xml version="1.0" encoding="utf-8" standalone="no"?>
<!DOCTYPE svg PUBLIC "-//W3C//DTD SVG 1.1//EN"
  "http://www.w3.org/Graphics/SVG/1.1/DTD/svg11.dtd">
<svg xmlns:xlink="http://www.w3.org/1999/xlink" width="850.944979pt" height="562.8175pt" viewBox="0 0 850.944979 562.8175" xmlns="http://www.w3.org/2000/svg" version="1.1">
 <metadata>
  <rdf:RDF xmlns:dc="http://purl.org/dc/elements/1.1/" xmlns:cc="http://creativecommons.org/ns#" xmlns:rdf="http://www.w3.org/1999/02/22-rdf-syntax-ns#">
   <cc:Work>
    <dc:type rdf:resource="http://purl.org/dc/dcmitype/StillImage"/>
    <dc:date>2026-05-21T17:55:45.756763</dc:date>
    <dc:format>image/svg+xml</dc:format>
    <dc:creator>
     <cc:Agent>
      <dc:title>Matplotlib v3.10.9, https://matplotlib.org/</dc:title>
     </cc:Agent>
    </dc:creator>
   </cc:Work>
  </rdf:RDF>
 </metadata>
 <defs>
  <style type="text/css">*{stroke-linejoin: round; stroke-linecap: butt}</style>
 </defs>
 <g id="figure_1">
  <g id="patch_1">
   <path d="M 0 562.8175 
L 850.944979 562.8175 
L 850.944979 0 
L 0 0 
z
" style="fill: #ffffff"/>
  </g>
  <g id="axes_1">
   <g id="patch_2">
    <path d="M 51.7675 519.857813 
L 843.744979 519.857813 
L 843.744979 23.837812 
L 51.7675 23.837812 
z
" style="fill: #ffffff"/>
   </g>
   <g id="matplotlib.axis_1">
    <g id="xtick_1">
     <g id="line2d_1">
      <path d="M 76.802321 519.857813 
L 76.802321 23.837812 
" clip-path="url(#p4d4b8ff9b1)" style="fill: none; stroke: #cccccc; stroke-opacity: 0.3; stroke-linecap: round"/>
     </g>
     <g id="text_1">
      <!-- 0 -->
      <g style="fill: #262626" transform="translate(73.302946 537.716094) scale(0.11 -0.11)">
       <defs>
        <path id="DejaVuSans-30" d="M 2034 4250 
Q 1547 4250 1301 3770 
Q 1056 3291 1056 2328 
Q 1056 1369 1301 889 
Q 1547 409 2034 409 
Q 2525 409 2770 889 
Q 3016 1369 3016 2328 
Q 3016 3291 2770 3770 
Q 2525 4250 2034 4250 
z
M 2034 4750 
Q 2819 4750 3233 4129 
Q 3647 3509 3647 2328 
Q 3647 1150 3233 529 
Q 2819 -91 2034 -91 
Q 1250 -91 836 529 
Q 422 1150 422 2328 
Q 422 3509 836 4129 
Q 1250 4750 2034 4750 
z
" transform="scale(0.015625)"/>
       </defs>
       <use xlink:href="#DejaVuSans-30"/>
      </g>
     </g>
    </g>
    <g id="xtick_2">
     <g id="line2d_2">
      <path d="M 168.170281 519.857813 
L 168.170281 23.837812 
" clip-path="url(#p4d4b8ff9b1)" style="fill: none; stroke: #cccccc; stroke-opacity: 0.3; stroke-linecap: round"/>
     </g>
     <g id="text_2">
      <!-- 25 -->
      <g style="fill: #262626" transform="translate(161.171531 537.716094) scale(0.11 -0.11)">
       <defs>
        <path id="DejaVuSans-32" d="M 1228 531 
L 3431 531 
L 3431 0 
L 469 0 
L 469 531 
Q 828 903 1448 1529 
Q 2069 2156 2228 2338 
Q 2531 2678 2651 2914 
Q 2772 3150 2772 3378 
Q 2772 3750 2511 3984 
Q 2250 4219 1831 4219 
Q 1534 4219 1204 4116 
Q 875 4013 500 3803 
L 500 4441 
Q 881 4594 1212 4672 
Q 1544 4750 1819 4750 
Q 2544 4750 2975 4387 
Q 3406 4025 3406 3419 
Q 3406 3131 3298 2873 
Q 3191 2616 2906 2266 
Q 2828 2175 2409 1742 
Q 1991 1309 1228 531 
z
" transform="scale(0.015625)"/>
        <path id="DejaVuSans-35" d="M 691 4666 
L 3169 4666 
L 3169 4134 
L 1269 4134 
L 1269 2991 
Q 1406 3038 1543 3061 
Q 1681 3084 1819 3084 
Q 2600 3084 3056 2656 
Q 3513 2228 3513 1497 
Q 3513 744 3044 326 
Q 2575 -91 1722 -91 
Q 1428 -91 1123 -41 
Q 819 9 494 109 
L 494 744 
Q 775 591 1075 516 
Q 1375 441 1709 441 
Q 2250 441 2565 725 
Q 2881 1009 2881 1497 
Q 2881 1984 2565 2268 
Q 2250 2553 1709 2553 
Q 1456 2553 1204 2497 
Q 953 2441 691 2322 
L 691 4666 
z
" transform="scale(0.015625)"/>
       </defs>
       <use xlink:href="#DejaVuSans-32"/>
       <use xlink:href="#DejaVuSans-35" transform="translate(63.623047 0)"/>
      </g>
     </g>
    </g>
    <g id="xtick_3">
     <g id="line2d_3">
      <path d="M 259.538241 519.857813 
L 259.538241 23.837812 
" clip-path="url(#p4d4b8ff9b1)" style="fill: none; stroke: #cccccc; stroke-opacity: 0.3; stroke-linecap: round"/>
     </g>
     <g id="text_3">
      <!-- 50 -->
      <g style="fill: #262626" transform="translate(252.539491 537.716094) scale(0.11 -0.11)">
       <use xlink:href="#DejaVuSans-35"/>
       <use xlink:href="#DejaVuSans-30" transform="translate(63.623047 0)"/>
      </g>
     </g>
    </g>
    <g id="xtick_4">
     <g id="line2d_4">
      <path d="M 350.906202 519.857813 
L 350.906202 23.837812 
" clip-path="url(#p4d4b8ff9b1)" style="fill: none; stroke: #cccccc; stroke-opacity: 0.3; stroke-linecap: round"/>
     </g>
     <g id="text_4">
      <!-- 75 -->
      <g style="fill: #262626" transform="translate(343.907452 537.716094) scale(0.11 -0.11)">
       <defs>
        <path id="DejaVuSans-37" d="M 525 4666 
L 3525 4666 
L 3525 4397 
L 1831 0 
L 1172 0 
L 2766 4134 
L 525 4134 
L 525 4666 
z
" transform="scale(0.015625)"/>
       </defs>
       <use xlink:href="#DejaVuSans-37"/>
       <use xlink:href="#DejaVuSans-35" transform="translate(63.623047 0)"/>
      </g>
     </g>
    </g>
    <g id="xtick_5">
     <g id="line2d_5">
      <path d="M 442.274162 519.857813 
L 442.274162 23.837812 
" clip-path="url(#p4d4b8ff9b1)" style="fill: none; stroke: #cccccc; stroke-opacity: 0.3; stroke-linecap: round"/>
     </g>
     <g id="text_5">
      <!-- 100 -->
      <g style="fill: #262626" transform="translate(431.776037 537.716094) scale(0.11 -0.11)">
       <defs>
        <path id="DejaVuSans-31" d="M 794 531 
L 1825 531 
L 1825 4091 
L 703 3866 
L 703 4441 
L 1819 4666 
L 2450 4666 
L 2450 531 
L 3481 531 
L 3481 0 
L 794 0 
L 794 531 
z
" transform="scale(0.015625)"/>
       </defs>
       <use xlink:href="#DejaVuSans-31"/>
       <use xlink:href="#DejaVuSans-30" transform="translate(63.623047 0)"/>
       <use xlink:href="#DejaVuSans-30" transform="translate(127.246094 0)"/>
      </g>
     </g>
    </g>
    <g id="xtick_6">
     <g id="line2d_6">
      <path d="M 533.642122 519.857813 
L 533.642122 23.837812 
" clip-path="url(#p4d4b8ff9b1)" style="fill: none; stroke: #cccccc; stroke-opacity: 0.3; stroke-linecap: round"/>
     </g>
     <g id="text_6">
      <!-- 125 -->
      <g style="fill: #262626" transform="translate(523.143997 537.716094) scale(0.11 -0.11)">
       <use xlink:href="#DejaVuSans-31"/>
       <use xlink:href="#DejaVuSans-32" transform="translate(63.623047 0)"/>
       <use xlink:href="#DejaVuSans-35" transform="translate(127.246094 0)"/>
      </g>
     </g>
    </g>
    <g id="xtick_7">
     <g id="line2d_7">
      <path d="M 625.010082 519.857813 
L 625.010082 23.837812 
" clip-path="url(#p4d4b8ff9b1)" style="fill: none; stroke: #cccccc; stroke-opacity: 0.3; stroke-linecap: round"/>
     </g>
     <g id="text_7">
      <!-- 150 -->
      <g style="fill: #262626" transform="translate(614.511957 537.716094) scale(0.11 -0.11)">
       <use xlink:href="#DejaVuSans-31"/>
       <use xlink:href="#DejaVuSans-35" transform="translate(63.623047 0)"/>
       <use xlink:href="#DejaVuSans-30" transform="translate(127.246094 0)"/>
      </g>
     </g>
    </g>
    <g id="xtick_8">
     <g id="line2d_8">
      <path d="M 716.378042 519.857813 
L 716.378042 23.837812 
" clip-path="url(#p4d4b8ff9b1)" style="fill: none; stroke: #cccccc; stroke-opacity: 0.3; stroke-linecap: round"/>
     </g>
     <g id="text_8">
      <!-- 175 -->
      <g style="fill: #262626" transform="translate(705.879917 537.716094) scale(0.11 -0.11)">
       <use xlink:href="#DejaVuSans-31"/>
       <use xlink:href="#DejaVuSans-37" transform="translate(63.623047 0)"/>
       <use xlink:href="#DejaVuSans-35" transform="translate(127.246094 0)"/>
      </g>
     </g>
    </g>
    <g id="xtick_9">
     <g id="line2d_9">
      <path d="M 807.746003 519.857813 
L 807.746003 23.837812 
" clip-path="url(#p4d4b8ff9b1)" style="fill: none; stroke: #cccccc; stroke-opacity: 0.3; stroke-linecap: round"/>
     </g>
     <g id="text_9">
      <!-- 200 -->
      <g style="fill: #262626" transform="translate(797.247878 537.716094) scale(0.11 -0.11)">
       <use xlink:href="#DejaVuSans-32"/>
       <use xlink:href="#DejaVuSans-30" transform="translate(63.623047 0)"/>
       <use xlink:href="#DejaVuSans-30" transform="translate(127.246094 0)"/>
      </g>
     </g>
    </g>
    <g id="text_10">
     <!-- Order (k) -->
     <g style="fill: #262626" transform="translate(416.810302 553.121875) scale(0.12 -0.12)">
      <defs>
       <path id="DejaVuSans-Bold-4f" d="M 2719 3878 
Q 2169 3878 1866 3472 
Q 1563 3066 1563 2328 
Q 1563 1594 1866 1187 
Q 2169 781 2719 781 
Q 3272 781 3575 1187 
Q 3878 1594 3878 2328 
Q 3878 3066 3575 3472 
Q 3272 3878 2719 3878 
z
M 2719 4750 
Q 3844 4750 4481 4106 
Q 5119 3463 5119 2328 
Q 5119 1197 4481 553 
Q 3844 -91 2719 -91 
Q 1597 -91 958 553 
Q 319 1197 319 2328 
Q 319 3463 958 4106 
Q 1597 4750 2719 4750 
z
" transform="scale(0.015625)"/>
       <path id="DejaVuSans-Bold-72" d="M 3138 2547 
Q 2991 2616 2845 2648 
Q 2700 2681 2553 2681 
Q 2122 2681 1889 2404 
Q 1656 2128 1656 1613 
L 1656 0 
L 538 0 
L 538 3500 
L 1656 3500 
L 1656 2925 
Q 1872 3269 2151 3426 
Q 2431 3584 2822 3584 
Q 2878 3584 2943 3579 
Q 3009 3575 3134 3559 
L 3138 2547 
z
" transform="scale(0.015625)"/>
       <path id="DejaVuSans-Bold-64" d="M 2919 2988 
L 2919 4863 
L 4044 4863 
L 4044 0 
L 2919 0 
L 2919 506 
Q 2688 197 2409 53 
Q 2131 -91 1766 -91 
Q 1119 -91 703 423 
Q 288 938 288 1747 
Q 288 2556 703 3070 
Q 1119 3584 1766 3584 
Q 2128 3584 2408 3439 
Q 2688 3294 2919 2988 
z
M 2181 722 
Q 2541 722 2730 984 
Q 2919 1247 2919 1747 
Q 2919 2247 2730 2509 
Q 2541 2772 2181 2772 
Q 1825 2772 1636 2509 
Q 1447 2247 1447 1747 
Q 1447 1247 1636 984 
Q 1825 722 2181 722 
z
" transform="scale(0.015625)"/>
       <path id="DejaVuSans-Bold-65" d="M 4031 1759 
L 4031 1441 
L 1416 1441 
Q 1456 1047 1700 850 
Q 1944 653 2381 653 
Q 2734 653 3104 758 
Q 3475 863 3866 1075 
L 3866 213 
Q 3469 63 3072 -14 
Q 2675 -91 2278 -91 
Q 1328 -91 801 392 
Q 275 875 275 1747 
Q 275 2603 792 3093 
Q 1309 3584 2216 3584 
Q 3041 3584 3536 3087 
Q 4031 2591 4031 1759 
z
M 2881 2131 
Q 2881 2450 2695 2645 
Q 2509 2841 2209 2841 
Q 1884 2841 1681 2658 
Q 1478 2475 1428 2131 
L 2881 2131 
z
" transform="scale(0.015625)"/>
       <path id="DejaVuSans-Bold-20" transform="scale(0.015625)"/>
       <path id="DejaVuSans-Bold-28" d="M 2413 -844 
L 1484 -844 
Q 1006 -72 778 623 
Q 550 1319 550 2003 
Q 550 2688 779 3389 
Q 1009 4091 1484 4856 
L 2413 4856 
Q 2013 4116 1813 3408 
Q 1613 2700 1613 2009 
Q 1613 1319 1811 609 
Q 2009 -100 2413 -844 
z
" transform="scale(0.015625)"/>
       <path id="DejaVuSans-Bold-6b" d="M 538 4863 
L 1656 4863 
L 1656 2216 
L 2944 3500 
L 4244 3500 
L 2534 1894 
L 4378 0 
L 3022 0 
L 1656 1459 
L 1656 0 
L 538 0 
L 538 4863 
z
" transform="scale(0.015625)"/>
       <path id="DejaVuSans-Bold-29" d="M 513 -844 
Q 913 -100 1113 609 
Q 1313 1319 1313 2009 
Q 1313 2700 1113 3408 
Q 913 4116 513 4856 
L 1441 4856 
Q 1916 4091 2145 3389 
Q 2375 2688 2375 2003 
Q 2375 1319 2147 623 
Q 1919 -72 1441 -844 
L 513 -844 
z
" transform="scale(0.015625)"/>
      </defs>
      <use xlink:href="#DejaVuSans-Bold-4f"/>
      <use xlink:href="#DejaVuSans-Bold-72" transform="translate(85.009766 0)"/>
      <use xlink:href="#DejaVuSans-Bold-64" transform="translate(134.326172 0)"/>
      <use xlink:href="#DejaVuSans-Bold-65" transform="translate(205.908203 0)"/>
      <use xlink:href="#DejaVuSans-Bold-72" transform="translate(273.730469 0)"/>
      <use xlink:href="#DejaVuSans-Bold-20" transform="translate(323.046875 0)"/>
      <use xlink:href="#DejaVuSans-Bold-28" transform="translate(357.861328 0)"/>
      <use xlink:href="#DejaVuSans-Bold-6b" transform="translate(403.564453 0)"/>
      <use xlink:href="#DejaVuSans-Bold-29" transform="translate(470.068359 0)"/>
     </g>
    </g>
   </g>
   <g id="matplotlib.axis_2">
    <g id="ytick_1">
     <g id="line2d_10">
      <path d="M 51.7675 128.057327 
L 843.744979 128.057327 
" clip-path="url(#p4d4b8ff9b1)" style="fill: none; stroke: #cccccc; stroke-opacity: 0.3; stroke-linecap: round"/>
     </g>
     <g id="text_11">
      <!-- $\mathdefault{10^{1}}$ -->
      <g style="fill: #262626" transform="translate(22.9075 132.236468) scale(0.11 -0.11)">
       <use xlink:href="#DejaVuSans-31" transform="translate(0 0.684375)"/>
       <use xlink:href="#DejaVuSans-30" transform="translate(63.623047 0.684375)"/>
       <use xlink:href="#DejaVuSans-31" transform="translate(128.203125 38.965625) scale(0.7)"/>
      </g>
     </g>
    </g>
    <g id="ytick_2">
     <g id="line2d_11">
      <path d="M 51.7675 446.752115 
L 843.744979 446.752115 
" clip-path="url(#p4d4b8ff9b1)" style="fill: none; stroke: #cccccc; stroke-opacity: 0.3; stroke-linecap: round"/>
     </g>
    </g>
    <g id="ytick_3">
     <g id="line2d_12">
      <path d="M 51.7675 366.463453 
L 843.744979 366.463453 
" clip-path="url(#p4d4b8ff9b1)" style="fill: none; stroke: #cccccc; stroke-opacity: 0.3; stroke-linecap: round"/>
     </g>
    </g>
    <g id="ytick_4">
     <g id="line2d_13">
      <path d="M 51.7675 309.497741 
L 843.744979 309.497741 
" clip-path="url(#p4d4b8ff9b1)" style="fill: none; stroke: #cccccc; stroke-opacity: 0.3; stroke-linecap: round"/>
     </g>
    </g>
    <g id="ytick_5">
     <g id="line2d_14">
      <path d="M 51.7675 265.311702 
L 843.744979 265.311702 
" clip-path="url(#p4d4b8ff9b1)" style="fill: none; stroke: #cccccc; stroke-opacity: 0.3; stroke-linecap: round"/>
     </g>
    </g>
    <g id="ytick_6">
     <g id="line2d_15">
      <path d="M 51.7675 229.209079 
L 843.744979 229.209079 
" clip-path="url(#p4d4b8ff9b1)" style="fill: none; stroke: #cccccc; stroke-opacity: 0.3; stroke-linecap: round"/>
     </g>
    </g>
    <g id="ytick_7">
     <g id="line2d_16">
      <path d="M 51.7675 198.684746 
L 843.744979 198.684746 
" clip-path="url(#p4d4b8ff9b1)" style="fill: none; stroke: #cccccc; stroke-opacity: 0.3; stroke-linecap: round"/>
     </g>
    </g>
    <g id="ytick_8">
     <g id="line2d_17">
      <path d="M 51.7675 172.243366 
L 843.744979 172.243366 
" clip-path="url(#p4d4b8ff9b1)" style="fill: none; stroke: #cccccc; stroke-opacity: 0.3; stroke-linecap: round"/>
     </g>
    </g>
    <g id="ytick_9">
     <g id="line2d_18">
      <path d="M 51.7675 148.920417 
L 843.744979 148.920417 
" clip-path="url(#p4d4b8ff9b1)" style="fill: none; stroke: #cccccc; stroke-opacity: 0.3; stroke-linecap: round"/>
     </g>
    </g>
    <g id="text_12">
     <!-- Time (μs, log scale) -->
     <g style="fill: #262626" transform="translate(16.318125 338.112188) rotate(-90) scale(0.12 -0.12)">
      <defs>
       <path id="DejaVuSans-Bold-54" d="M 31 4666 
L 4331 4666 
L 4331 3756 
L 2784 3756 
L 2784 0 
L 1581 0 
L 1581 3756 
L 31 3756 
L 31 4666 
z
" transform="scale(0.015625)"/>
       <path id="DejaVuSans-Bold-69" d="M 538 3500 
L 1656 3500 
L 1656 0 
L 538 0 
L 538 3500 
z
M 538 4863 
L 1656 4863 
L 1656 3950 
L 538 3950 
L 538 4863 
z
" transform="scale(0.015625)"/>
       <path id="DejaVuSans-Bold-6d" d="M 3781 2919 
Q 3994 3244 4286 3414 
Q 4578 3584 4928 3584 
Q 5531 3584 5847 3212 
Q 6163 2841 6163 2131 
L 6163 0 
L 5038 0 
L 5038 1825 
Q 5041 1866 5042 1909 
Q 5044 1953 5044 2034 
Q 5044 2406 4934 2573 
Q 4825 2741 4581 2741 
Q 4263 2741 4089 2478 
Q 3916 2216 3909 1719 
L 3909 0 
L 2784 0 
L 2784 1825 
Q 2784 2406 2684 2573 
Q 2584 2741 2328 2741 
Q 2006 2741 1831 2477 
Q 1656 2213 1656 1722 
L 1656 0 
L 531 0 
L 531 3500 
L 1656 3500 
L 1656 2988 
Q 1863 3284 2130 3434 
Q 2397 3584 2719 3584 
Q 3081 3584 3359 3409 
Q 3638 3234 3781 2919 
z
" transform="scale(0.015625)"/>
       <path id="DejaVuSans-Bold-3bc" d="M 544 -1338 
L 544 3500 
L 1672 3500 
L 1672 1466 
Q 1672 1103 1828 926 
Q 1984 750 2303 750 
Q 2625 750 2781 926 
Q 2938 1103 2938 1466 
L 2938 3500 
L 4063 3500 
L 4063 1159 
Q 4063 938 4114 850 
Q 4166 763 4288 763 
Q 4344 763 4395 778 
Q 4447 794 4506 831 
L 4506 50 
Q 4341 -22 4195 -56 
Q 4050 -91 3909 -91 
Q 3631 -91 3454 26 
Q 3278 144 3169 403 
Q 3022 156 2811 32 
Q 2600 -91 2322 -91 
Q 2091 -91 1928 -17 
Q 1766 56 1672 206 
L 1672 -1338 
L 544 -1338 
z
" transform="scale(0.015625)"/>
       <path id="DejaVuSans-Bold-73" d="M 3272 3391 
L 3272 2541 
Q 2913 2691 2578 2766 
Q 2244 2841 1947 2841 
Q 1628 2841 1473 2761 
Q 1319 2681 1319 2516 
Q 1319 2381 1436 2309 
Q 1553 2238 1856 2203 
L 2053 2175 
Q 2913 2066 3209 1816 
Q 3506 1566 3506 1031 
Q 3506 472 3093 190 
Q 2681 -91 1863 -91 
Q 1516 -91 1145 -36 
Q 775 19 384 128 
L 384 978 
Q 719 816 1070 734 
Q 1422 653 1784 653 
Q 2113 653 2278 743 
Q 2444 834 2444 1013 
Q 2444 1163 2330 1236 
Q 2216 1309 1875 1350 
L 1678 1375 
Q 931 1469 631 1722 
Q 331 1975 331 2491 
Q 331 3047 712 3315 
Q 1094 3584 1881 3584 
Q 2191 3584 2531 3537 
Q 2872 3491 3272 3391 
z
" transform="scale(0.015625)"/>
       <path id="DejaVuSans-Bold-2c" d="M 653 1209 
L 1778 1209 
L 1778 256 
L 1006 -909 
L 341 -909 
L 653 256 
L 653 1209 
z
" transform="scale(0.015625)"/>
       <path id="DejaVuSans-Bold-6c" d="M 538 4863 
L 1656 4863 
L 1656 0 
L 538 0 
L 538 4863 
z
" transform="scale(0.015625)"/>
       <path id="DejaVuSans-Bold-6f" d="M 2203 2784 
Q 1831 2784 1636 2517 
Q 1441 2250 1441 1747 
Q 1441 1244 1636 976 
Q 1831 709 2203 709 
Q 2569 709 2762 976 
Q 2956 1244 2956 1747 
Q 2956 2250 2762 2517 
Q 2569 2784 2203 2784 
z
M 2203 3584 
Q 3106 3584 3614 3096 
Q 4122 2609 4122 1747 
Q 4122 884 3614 396 
Q 3106 -91 2203 -91 
Q 1297 -91 786 396 
Q 275 884 275 1747 
Q 275 2609 786 3096 
Q 1297 3584 2203 3584 
z
" transform="scale(0.015625)"/>
       <path id="DejaVuSans-Bold-67" d="M 2919 594 
Q 2688 288 2409 144 
Q 2131 0 1766 0 
Q 1125 0 706 504 
Q 288 1009 288 1791 
Q 288 2575 706 3076 
Q 1125 3578 1766 3578 
Q 2131 3578 2409 3434 
Q 2688 3291 2919 2981 
L 2919 3500 
L 4044 3500 
L 4044 353 
Q 4044 -491 3511 -936 
Q 2978 -1381 1966 -1381 
Q 1638 -1381 1331 -1331 
Q 1025 -1281 716 -1178 
L 716 -306 
Q 1009 -475 1290 -558 
Q 1572 -641 1856 -641 
Q 2406 -641 2662 -400 
Q 2919 -159 2919 353 
L 2919 594 
z
M 2181 2772 
Q 1834 2772 1640 2515 
Q 1447 2259 1447 1791 
Q 1447 1309 1634 1061 
Q 1822 813 2181 813 
Q 2531 813 2725 1069 
Q 2919 1325 2919 1791 
Q 2919 2259 2725 2515 
Q 2531 2772 2181 2772 
z
" transform="scale(0.015625)"/>
       <path id="DejaVuSans-Bold-63" d="M 3366 3391 
L 3366 2478 
Q 3138 2634 2908 2709 
Q 2678 2784 2431 2784 
Q 1963 2784 1702 2511 
Q 1441 2238 1441 1747 
Q 1441 1256 1702 982 
Q 1963 709 2431 709 
Q 2694 709 2930 787 
Q 3166 866 3366 1019 
L 3366 103 
Q 3103 6 2833 -42 
Q 2563 -91 2291 -91 
Q 1344 -91 809 395 
Q 275 881 275 1747 
Q 275 2613 809 3098 
Q 1344 3584 2291 3584 
Q 2566 3584 2833 3536 
Q 3100 3488 3366 3391 
z
" transform="scale(0.015625)"/>
       <path id="DejaVuSans-Bold-61" d="M 2106 1575 
Q 1756 1575 1579 1456 
Q 1403 1338 1403 1106 
Q 1403 894 1545 773 
Q 1688 653 1941 653 
Q 2256 653 2472 879 
Q 2688 1106 2688 1447 
L 2688 1575 
L 2106 1575 
z
M 3816 1997 
L 3816 0 
L 2688 0 
L 2688 519 
Q 2463 200 2181 54 
Q 1900 -91 1497 -91 
Q 953 -91 614 226 
Q 275 544 275 1050 
Q 275 1666 698 1953 
Q 1122 2241 2028 2241 
L 2688 2241 
L 2688 2328 
Q 2688 2594 2478 2717 
Q 2269 2841 1825 2841 
Q 1466 2841 1156 2769 
Q 847 2697 581 2553 
L 581 3406 
Q 941 3494 1303 3539 
Q 1666 3584 2028 3584 
Q 2975 3584 3395 3211 
Q 3816 2838 3816 1997 
z
" transform="scale(0.015625)"/>
      </defs>
      <use xlink:href="#DejaVuSans-Bold-54"/>
      <use xlink:href="#DejaVuSans-Bold-69" transform="translate(68.212891 0)"/>
      <use xlink:href="#DejaVuSans-Bold-6d" transform="translate(102.490234 0)"/>
      <use xlink:href="#DejaVuSans-Bold-65" transform="translate(206.689453 0)"/>
      <use xlink:href="#DejaVuSans-Bold-20" transform="translate(274.511719 0)"/>
      <use xlink:href="#DejaVuSans-Bold-28" transform="translate(309.326172 0)"/>
      <use xlink:href="#DejaVuSans-Bold-3bc" transform="translate(355.029297 0)"/>
      <use xlink:href="#DejaVuSans-Bold-73" transform="translate(428.613281 0)"/>
      <use xlink:href="#DejaVuSans-Bold-2c" transform="translate(488.134766 0)"/>
      <use xlink:href="#DejaVuSans-Bold-20" transform="translate(526.123047 0)"/>
      <use xlink:href="#DejaVuSans-Bold-6c" transform="translate(560.9375 0)"/>
      <use xlink:href="#DejaVuSans-Bold-6f" transform="translate(595.214844 0)"/>
      <use xlink:href="#DejaVuSans-Bold-67" transform="translate(663.916016 0)"/>
      <use xlink:href="#DejaVuSans-Bold-20" transform="translate(735.498047 0)"/>
      <use xlink:href="#DejaVuSans-Bold-73" transform="translate(770.3125 0)"/>
      <use xlink:href="#DejaVuSans-Bold-63" transform="translate(829.833984 0)"/>
      <use xlink:href="#DejaVuSans-Bold-61" transform="translate(889.111328 0)"/>
      <use xlink:href="#DejaVuSans-Bold-6c" transform="translate(956.591797 0)"/>
      <use xlink:href="#DejaVuSans-Bold-65" transform="translate(990.869141 0)"/>
      <use xlink:href="#DejaVuSans-Bold-29" transform="translate(1058.691406 0)"/>
     </g>
    </g>
   </g>
   <g id="line2d_19">
    <path d="M 87.766476 76.35344 
L 95.075913 215.551437 
L 113.349505 278.22379 
L 131.623097 310.470127 
L 149.896689 315.244018 
L 168.170281 318.206911 
L 186.443873 323.626052 
L 259.538241 317.656359 
L 350.906202 320.27447 
L 442.274162 310.221675 
L 625.010082 321.796589 
L 807.746003 323.109023 
" clip-path="url(#p4d4b8ff9b1)" style="fill: none; stroke: #2ecc71; stroke-width: 2.5; stroke-linecap: round"/>
    <defs>
     <path id="m2ce7f8536a" d="M 0 5 
C 1.326016 5 2.597899 4.473168 3.535534 3.535534 
C 4.473168 2.597899 5 1.326016 5 0 
C 5 -1.326016 4.473168 -2.597899 3.535534 -3.535534 
C 2.597899 -4.473168 1.326016 -5 0 -5 
C -1.326016 -5 -2.597899 -4.473168 -3.535534 -3.535534 
C -4.473168 -2.597899 -5 -1.326016 -5 0 
C -5 1.326016 -4.473168 2.597899 -3.535534 3.535534 
C -2.597899 4.473168 -1.326016 5 0 5 
z
" style="stroke: #2ecc71"/>
    </defs>
    <g clip-path="url(#p4d4b8ff9b1)">
     <use xlink:href="#m2ce7f8536a" x="87.766476" y="76.35344" style="fill: #2ecc71; stroke: #2ecc71"/>
     <use xlink:href="#m2ce7f8536a" x="95.075913" y="215.551437" style="fill: #2ecc71; stroke: #2ecc71"/>
     <use xlink:href="#m2ce7f8536a" x="113.349505" y="278.22379" style="fill: #2ecc71; stroke: #2ecc71"/>
     <use xlink:href="#m2ce7f8536a" x="131.623097" y="310.470127" style="fill: #2ecc71; stroke: #2ecc71"/>
     <use xlink:href="#m2ce7f8536a" x="149.896689" y="315.244018" style="fill: #2ecc71; stroke: #2ecc71"/>
     <use xlink:href="#m2ce7f8536a" x="168.170281" y="318.206911" style="fill: #2ecc71; stroke: #2ecc71"/>
     <use xlink:href="#m2ce7f8536a" x="186.443873" y="323.626052" style="fill: #2ecc71; stroke: #2ecc71"/>
     <use xlink:href="#m2ce7f8536a" x="259.538241" y="317.656359" style="fill: #2ecc71; stroke: #2ecc71"/>
     <use xlink:href="#m2ce7f8536a" x="350.906202" y="320.27447" style="fill: #2ecc71; stroke: #2ecc71"/>
     <use xlink:href="#m2ce7f8536a" x="442.274162" y="310.221675" style="fill: #2ecc71; stroke: #2ecc71"/>
     <use xlink:href="#m2ce7f8536a" x="625.010082" y="321.796589" style="fill: #2ecc71; stroke: #2ecc71"/>
     <use xlink:href="#m2ce7f8536a" x="807.746003" y="323.109023" style="fill: #2ecc71; stroke: #2ecc71"/>
    </g>
   </g>
   <g id="line2d_20">
    <path d="M 87.766476 46.384176 
L 95.075913 156.779076 
L 113.349505 249.878667 
L 131.623097 275.603351 
L 149.896689 291.477418 
L 168.170281 302.798577 
L 186.443873 310.575958 
L 259.538241 321.957044 
L 350.906202 334.967565 
L 442.274162 335.736646 
L 625.010082 346.50767 
L 807.746003 346.682818 
" clip-path="url(#p4d4b8ff9b1)" style="fill: none; stroke-dasharray: 9.25,4; stroke-dashoffset: 0; stroke: #e74c3c; stroke-width: 2.5"/>
    <defs>
     <path id="md56b4bdaab" d="M -5 5 
L 5 5 
L 5 -5 
L -5 -5 
z
" style="stroke: #e74c3c; stroke-linejoin: miter"/>
    </defs>
    <g clip-path="url(#p4d4b8ff9b1)">
     <use xlink:href="#md56b4bdaab" x="87.766476" y="46.384176" style="fill: #e74c3c; stroke: #e74c3c; stroke-linejoin: miter"/>
     <use xlink:href="#md56b4bdaab" x="95.075913" y="156.779076" style="fill: #e74c3c; stroke: #e74c3c; stroke-linejoin: miter"/>
     <use xlink:href="#md56b4bdaab" x="113.349505" y="249.878667" style="fill: #e74c3c; stroke: #e74c3c; stroke-linejoin: miter"/>
     <use xlink:href="#md56b4bdaab" x="131.623097" y="275.603351" style="fill: #e74c3c; stroke: #e74c3c; stroke-linejoin: miter"/>
     <use xlink:href="#md56b4bdaab" x="149.896689" y="291.477418" style="fill: #e74c3c; stroke: #e74c3c; stroke-linejoin: miter"/>
     <use xlink:href="#md56b4bdaab" x="168.170281" y="302.798577" style="fill: #e74c3c; stroke: #e74c3c; stroke-linejoin: miter"/>
     <use xlink:href="#md56b4bdaab" x="186.443873" y="310.575958" style="fill: #e74c3c; stroke: #e74c3c; stroke-linejoin: miter"/>
     <use xlink:href="#md56b4bdaab" x="259.538241" y="321.957044" style="fill: #e74c3c; stroke: #e74c3c; stroke-linejoin: miter"/>
     <use xlink:href="#md56b4bdaab" x="350.906202" y="334.967565" style="fill: #e74c3c; stroke: #e74c3c; stroke-linejoin: miter"/>
     <use xlink:href="#md56b4bdaab" x="442.274162" y="335.736646" style="fill: #e74c3c; stroke: #e74c3c; stroke-linejoin: miter"/>
     <use xlink:href="#md56b4bdaab" x="625.010082" y="346.50767" style="fill: #e74c3c; stroke: #e74c3c; stroke-linejoin: miter"/>
     <use xlink:href="#md56b4bdaab" x="807.746003" y="346.682818" style="fill: #e74c3c; stroke: #e74c3c; stroke-linejoin: miter"/>
    </g>
   </g>
   <g id="line2d_21">
    <path d="M 87.766476 207.749362 
L 95.075913 337.9201 
L 113.349505 405.248676 
L 131.623097 437.142934 
L 149.896689 455.307683 
L 168.170281 449.361413 
L 186.443873 472.726925 
L 259.538241 477.885058 
L 350.906202 485.488718 
L 442.274162 486.128365 
L 625.010082 497.311449 
L 807.746003 496.959595 
" clip-path="url(#p4d4b8ff9b1)" style="fill: none; stroke: #3498db; stroke-width: 2.5; stroke-linecap: round"/>
    <defs>
     <path id="m4da883727c" d="M 0 -5 
L -5 5 
L 5 5 
z
" style="stroke: #3498db; stroke-linejoin: miter"/>
    </defs>
    <g clip-path="url(#p4d4b8ff9b1)">
     <use xlink:href="#m4da883727c" x="87.766476" y="207.749362" style="fill: #3498db; stroke: #3498db; stroke-linejoin: miter"/>
     <use xlink:href="#m4da883727c" x="95.075913" y="337.9201" style="fill: #3498db; stroke: #3498db; stroke-linejoin: miter"/>
     <use xlink:href="#m4da883727c" x="113.349505" y="405.248676" style="fill: #3498db; stroke: #3498db; stroke-linejoin: miter"/>
     <use xlink:href="#m4da883727c" x="131.623097" y="437.142934" style="fill: #3498db; stroke: #3498db; stroke-linejoin: miter"/>
     <use xlink:href="#m4da883727c" x="149.896689" y="455.307683" style="fill: #3498db; stroke: #3498db; stroke-linejoin: miter"/>
     <use xlink:href="#m4da883727c" x="168.170281" y="449.361413" style="fill: #3498db; stroke: #3498db; stroke-linejoin: miter"/>
     <use xlink:href="#m4da883727c" x="186.443873" y="472.726925" style="fill: #3498db; stroke: #3498db; stroke-linejoin: miter"/>
     <use xlink:href="#m4da883727c" x="259.538241" y="477.885058" style="fill: #3498db; stroke: #3498db; stroke-linejoin: miter"/>
     <use xlink:href="#m4da883727c" x="350.906202" y="485.488718" style="fill: #3498db; stroke: #3498db; stroke-linejoin: miter"/>
     <use xlink:href="#m4da883727c" x="442.274162" y="486.128365" style="fill: #3498db; stroke: #3498db; stroke-linejoin: miter"/>
     <use xlink:href="#m4da883727c" x="625.010082" y="497.311449" style="fill: #3498db; stroke: #3498db; stroke-linejoin: miter"/>
     <use xlink:href="#m4da883727c" x="807.746003" y="496.959595" style="fill: #3498db; stroke: #3498db; stroke-linejoin: miter"/>
    </g>
   </g>
   <g id="line2d_22">
    <path d="M 87.766476 84.213307 
L 95.075913 229.791665 
L 113.349505 306.829601 
L 131.623097 359.764894 
L 149.896689 381.638482 
L 168.170281 379.11695 
L 186.443873 394.737665 
L 259.538241 398.193732 
L 350.906202 403.115414 
L 442.274162 402.082366 
L 625.010082 414.424026 
L 807.746003 415.545827 
" clip-path="url(#p4d4b8ff9b1)" style="fill: none; stroke-dasharray: 9.25,4; stroke-dashoffset: 0; stroke: #e67e22; stroke-width: 2.5"/>
    <defs>
     <path id="m5d8d13259f" d="M -0 7.071068 
L 7.071068 0 
L 0 -7.071068 
L -7.071068 -0 
z
" style="stroke: #e67e22; stroke-linejoin: miter"/>
    </defs>
    <g clip-path="url(#p4d4b8ff9b1)">
     <use xlink:href="#m5d8d13259f" x="87.766476" y="84.213307" style="fill: #e67e22; stroke: #e67e22; stroke-linejoin: miter"/>
     <use xlink:href="#m5d8d13259f" x="95.075913" y="229.791665" style="fill: #e67e22; stroke: #e67e22; stroke-linejoin: miter"/>
     <use xlink:href="#m5d8d13259f" x="113.349505" y="306.829601" style="fill: #e67e22; stroke: #e67e22; stroke-linejoin: miter"/>
     <use xlink:href="#m5d8d13259f" x="131.623097" y="359.764894" style="fill: #e67e22; stroke: #e67e22; stroke-linejoin: miter"/>
     <use xlink:href="#m5d8d13259f" x="149.896689" y="381.638482" style="fill: #e67e22; stroke: #e67e22; stroke-linejoin: miter"/>
     <use xlink:href="#m5d8d13259f" x="168.170281" y="379.11695" style="fill: #e67e22; stroke: #e67e22; stroke-linejoin: miter"/>
     <use xlink:href="#m5d8d13259f" x="186.443873" y="394.737665" style="fill: #e67e22; stroke: #e67e22; stroke-linejoin: miter"/>
     <use xlink:href="#m5d8d13259f" x="259.538241" y="398.193732" style="fill: #e67e22; stroke: #e67e22; stroke-linejoin: miter"/>
     <use xlink:href="#m5d8d13259f" x="350.906202" y="403.115414" style="fill: #e67e22; stroke: #e67e22; stroke-linejoin: miter"/>
     <use xlink:href="#m5d8d13259f" x="442.274162" y="402.082366" style="fill: #e67e22; stroke: #e67e22; stroke-linejoin: miter"/>
     <use xlink:href="#m5d8d13259f" x="625.010082" y="414.424026" style="fill: #e67e22; stroke: #e67e22; stroke-linejoin: miter"/>
     <use xlink:href="#m5d8d13259f" x="807.746003" y="415.545827" style="fill: #e67e22; stroke: #e67e22; stroke-linejoin: miter"/>
    </g>
   </g>
   <g id="patch_3">
    <path d="M 51.7675 519.857813 
L 51.7675 23.837812 
" style="fill: none; stroke: #cccccc; stroke-width: 1.25; stroke-linejoin: miter; stroke-linecap: square"/>
   </g>
   <g id="patch_4">
    <path d="M 843.744979 519.857813 
L 843.744979 23.837812 
" style="fill: none; stroke: #cccccc; stroke-width: 1.25; stroke-linejoin: miter; stroke-linecap: square"/>
   </g>
   <g id="patch_5">
    <path d="M 51.7675 519.857813 
L 843.744979 519.857813 
" style="fill: none; stroke: #cccccc; stroke-width: 1.25; stroke-linejoin: miter; stroke-linecap: square"/>
   </g>
   <g id="patch_6">
    <path d="M 51.7675 23.837812 
L 843.744979 23.837812 
" style="fill: none; stroke: #cccccc; stroke-width: 1.25; stroke-linejoin: miter; stroke-linecap: square"/>
   </g>
   <g id="text_13">
    <!-- All Insertion Modes - 100 intervals -->
    <g style="fill: #262626" transform="translate(311.866552 17.837812) scale(0.14 -0.14)">
     <defs>
      <path id="DejaVuSans-Bold-41" d="M 3419 850 
L 1538 850 
L 1241 0 
L 31 0 
L 1759 4666 
L 3194 4666 
L 4922 0 
L 3713 0 
L 3419 850 
z
M 1838 1716 
L 3116 1716 
L 2478 3572 
L 1838 1716 
z
" transform="scale(0.015625)"/>
      <path id="DejaVuSans-Bold-49" d="M 588 4666 
L 1791 4666 
L 1791 0 
L 588 0 
L 588 4666 
z
" transform="scale(0.015625)"/>
      <path id="DejaVuSans-Bold-6e" d="M 4056 2131 
L 4056 0 
L 2931 0 
L 2931 347 
L 2931 1631 
Q 2931 2084 2911 2256 
Q 2891 2428 2841 2509 
Q 2775 2619 2662 2680 
Q 2550 2741 2406 2741 
Q 2056 2741 1856 2470 
Q 1656 2200 1656 1722 
L 1656 0 
L 538 0 
L 538 3500 
L 1656 3500 
L 1656 2988 
Q 1909 3294 2193 3439 
Q 2478 3584 2822 3584 
Q 3428 3584 3742 3212 
Q 4056 2841 4056 2131 
z
" transform="scale(0.015625)"/>
      <path id="DejaVuSans-Bold-74" d="M 1759 4494 
L 1759 3500 
L 2913 3500 
L 2913 2700 
L 1759 2700 
L 1759 1216 
Q 1759 972 1856 886 
Q 1953 800 2241 800 
L 2816 800 
L 2816 0 
L 1856 0 
Q 1194 0 917 276 
Q 641 553 641 1216 
L 641 2700 
L 84 2700 
L 84 3500 
L 641 3500 
L 641 4494 
L 1759 4494 
z
" transform="scale(0.015625)"/>
      <path id="DejaVuSans-Bold-4d" d="M 588 4666 
L 2119 4666 
L 3181 2169 
L 4250 4666 
L 5778 4666 
L 5778 0 
L 4641 0 
L 4641 3413 
L 3566 897 
L 2803 897 
L 1728 3413 
L 1728 0 
L 588 0 
L 588 4666 
z
" transform="scale(0.015625)"/>
      <path id="DejaVuSans-Bold-2d" d="M 347 2297 
L 2309 2297 
L 2309 1388 
L 347 1388 
L 347 2297 
z
" transform="scale(0.015625)"/>
      <path id="DejaVuSans-Bold-31" d="M 750 831 
L 1813 831 
L 1813 3847 
L 722 3622 
L 722 4441 
L 1806 4666 
L 2950 4666 
L 2950 831 
L 4013 831 
L 4013 0 
L 750 0 
L 750 831 
z
" transform="scale(0.015625)"/>
      <path id="DejaVuSans-Bold-30" d="M 2944 2338 
Q 2944 3213 2780 3570 
Q 2616 3928 2228 3928 
Q 1841 3928 1675 3570 
Q 1509 3213 1509 2338 
Q 1509 1453 1675 1090 
Q 1841 728 2228 728 
Q 2613 728 2778 1090 
Q 2944 1453 2944 2338 
z
M 4147 2328 
Q 4147 1169 3647 539 
Q 3147 -91 2228 -91 
Q 1306 -91 806 539 
Q 306 1169 306 2328 
Q 306 3491 806 4120 
Q 1306 4750 2228 4750 
Q 3147 4750 3647 4120 
Q 4147 3491 4147 2328 
z
" transform="scale(0.015625)"/>
      <path id="DejaVuSans-Bold-76" d="M 97 3500 
L 1216 3500 
L 2088 1081 
L 2956 3500 
L 4078 3500 
L 2700 0 
L 1472 0 
L 97 3500 
z
" transform="scale(0.015625)"/>
     </defs>
     <use xlink:href="#DejaVuSans-Bold-41"/>
     <use xlink:href="#DejaVuSans-Bold-6c" transform="translate(77.392578 0)"/>
     <use xlink:href="#DejaVuSans-Bold-6c" transform="translate(111.669922 0)"/>
     <use xlink:href="#DejaVuSans-Bold-20" transform="translate(145.947266 0)"/>
     <use xlink:href="#DejaVuSans-Bold-49" transform="translate(180.761719 0)"/>
     <use xlink:href="#DejaVuSans-Bold-6e" transform="translate(217.96875 0)"/>
     <use xlink:href="#DejaVuSans-Bold-73" transform="translate(289.160156 0)"/>
     <use xlink:href="#DejaVuSans-Bold-65" transform="translate(348.681641 0)"/>
     <use xlink:href="#DejaVuSans-Bold-72" transform="translate(416.503906 0)"/>
     <use xlink:href="#DejaVuSans-Bold-74" transform="translate(465.820312 0)"/>
     <use xlink:href="#DejaVuSans-Bold-69" transform="translate(513.623047 0)"/>
     <use xlink:href="#DejaVuSans-Bold-6f" transform="translate(547.900391 0)"/>
     <use xlink:href="#DejaVuSans-Bold-6e" transform="translate(616.601562 0)"/>
     <use xlink:href="#DejaVuSans-Bold-20" transform="translate(687.792969 0)"/>
     <use xlink:href="#DejaVuSans-Bold-4d" transform="translate(722.607422 0)"/>
     <use xlink:href="#DejaVuSans-Bold-6f" transform="translate(822.119141 0)"/>
     <use xlink:href="#DejaVuSans-Bold-64" transform="translate(890.820312 0)"/>
     <use xlink:href="#DejaVuSans-Bold-65" transform="translate(962.402344 0)"/>
     <use xlink:href="#DejaVuSans-Bold-73" transform="translate(1030.224609 0)"/>
     <use xlink:href="#DejaVuSans-Bold-20" transform="translate(1089.746094 0)"/>
     <use xlink:href="#DejaVuSans-Bold-2d" transform="translate(1124.560547 0)"/>
     <use xlink:href="#DejaVuSans-Bold-20" transform="translate(1166.064453 0)"/>
     <use xlink:href="#DejaVuSans-Bold-31" transform="translate(1200.878906 0)"/>
     <use xlink:href="#DejaVuSans-Bold-30" transform="translate(1270.458984 0)"/>
     <use xlink:href="#DejaVuSans-Bold-30" transform="translate(1340.039062 0)"/>
     <use xlink:href="#DejaVuSans-Bold-20" transform="translate(1409.619141 0)"/>
     <use xlink:href="#DejaVuSans-Bold-69" transform="translate(1444.433594 0)"/>
     <use xlink:href="#DejaVuSans-Bold-6e" transform="translate(1478.710938 0)"/>
     <use xlink:href="#DejaVuSans-Bold-74" transform="translate(1549.902344 0)"/>
     <use xlink:href="#DejaVuSans-Bold-65" transform="translate(1597.705078 0)"/>
     <use xlink:href="#DejaVuSans-Bold-72" transform="translate(1665.527344 0)"/>
     <use xlink:href="#DejaVuSans-Bold-76" transform="translate(1714.84375 0)"/>
     <use xlink:href="#DejaVuSans-Bold-61" transform="translate(1780.029297 0)"/>
     <use xlink:href="#DejaVuSans-Bold-6c" transform="translate(1847.509766 0)"/>
     <use xlink:href="#DejaVuSans-Bold-73" transform="translate(1881.787109 0)"/>
    </g>
   </g>
   <g id="legend_1">
    <g id="patch_7">
     <path d="M 723.336229 97.221562 
L 836.044979 97.221562 
Q 838.244979 97.221562 838.244979 95.021562 
L 838.244979 31.537812 
Q 838.244979 29.337812 836.044979 29.337812 
L 723.336229 29.337812 
Q 721.136229 29.337812 721.136229 31.537812 
L 721.136229 95.021562 
Q 721.136229 97.221562 723.336229 97.221562 
z
" style="fill: #ffffff; opacity: 0.8; stroke: #cccccc; stroke-linejoin: miter"/>
    </g>
    <g id="line2d_23">
     <path d="M 725.536229 38.246094 
L 736.536229 38.246094 
L 747.536229 38.246094 
" style="fill: none; stroke: #2ecc71; stroke-width: 2.5; stroke-linecap: round"/>
     <g>
      <use xlink:href="#m2ce7f8536a" x="736.536229" y="38.246094" style="fill: #2ecc71; stroke: #2ecc71"/>
     </g>
    </g>
    <g id="text_14">
     <!-- Sorted -->
     <g style="fill: #262626" transform="translate(756.336229 42.096094) scale(0.11 -0.11)">
      <defs>
       <path id="DejaVuSans-53" d="M 3425 4513 
L 3425 3897 
Q 3066 4069 2747 4153 
Q 2428 4238 2131 4238 
Q 1616 4238 1336 4038 
Q 1056 3838 1056 3469 
Q 1056 3159 1242 3001 
Q 1428 2844 1947 2747 
L 2328 2669 
Q 3034 2534 3370 2195 
Q 3706 1856 3706 1288 
Q 3706 609 3251 259 
Q 2797 -91 1919 -91 
Q 1588 -91 1214 -16 
Q 841 59 441 206 
L 441 856 
Q 825 641 1194 531 
Q 1563 422 1919 422 
Q 2459 422 2753 634 
Q 3047 847 3047 1241 
Q 3047 1584 2836 1778 
Q 2625 1972 2144 2069 
L 1759 2144 
Q 1053 2284 737 2584 
Q 422 2884 422 3419 
Q 422 4038 858 4394 
Q 1294 4750 2059 4750 
Q 2388 4750 2728 4690 
Q 3069 4631 3425 4513 
z
" transform="scale(0.015625)"/>
       <path id="DejaVuSans-6f" d="M 1959 3097 
Q 1497 3097 1228 2736 
Q 959 2375 959 1747 
Q 959 1119 1226 758 
Q 1494 397 1959 397 
Q 2419 397 2687 759 
Q 2956 1122 2956 1747 
Q 2956 2369 2687 2733 
Q 2419 3097 1959 3097 
z
M 1959 3584 
Q 2709 3584 3137 3096 
Q 3566 2609 3566 1747 
Q 3566 888 3137 398 
Q 2709 -91 1959 -91 
Q 1206 -91 779 398 
Q 353 888 353 1747 
Q 353 2609 779 3096 
Q 1206 3584 1959 3584 
z
" transform="scale(0.015625)"/>
       <path id="DejaVuSans-72" d="M 2631 2963 
Q 2534 3019 2420 3045 
Q 2306 3072 2169 3072 
Q 1681 3072 1420 2755 
Q 1159 2438 1159 1844 
L 1159 0 
L 581 0 
L 581 3500 
L 1159 3500 
L 1159 2956 
Q 1341 3275 1631 3429 
Q 1922 3584 2338 3584 
Q 2397 3584 2469 3576 
Q 2541 3569 2628 3553 
L 2631 2963 
z
" transform="scale(0.015625)"/>
       <path id="DejaVuSans-74" d="M 1172 4494 
L 1172 3500 
L 2356 3500 
L 2356 3053 
L 1172 3053 
L 1172 1153 
Q 1172 725 1289 603 
Q 1406 481 1766 481 
L 2356 481 
L 2356 0 
L 1766 0 
Q 1100 0 847 248 
Q 594 497 594 1153 
L 594 3053 
L 172 3053 
L 172 3500 
L 594 3500 
L 594 4494 
L 1172 4494 
z
" transform="scale(0.015625)"/>
       <path id="DejaVuSans-65" d="M 3597 1894 
L 3597 1613 
L 953 1613 
Q 991 1019 1311 708 
Q 1631 397 2203 397 
Q 2534 397 2845 478 
Q 3156 559 3463 722 
L 3463 178 
Q 3153 47 2828 -22 
Q 2503 -91 2169 -91 
Q 1331 -91 842 396 
Q 353 884 353 1716 
Q 353 2575 817 3079 
Q 1281 3584 2069 3584 
Q 2775 3584 3186 3129 
Q 3597 2675 3597 1894 
z
M 3022 2063 
Q 3016 2534 2758 2815 
Q 2500 3097 2075 3097 
Q 1594 3097 1305 2825 
Q 1016 2553 972 2059 
L 3022 2063 
z
" transform="scale(0.015625)"/>
       <path id="DejaVuSans-64" d="M 2906 2969 
L 2906 4863 
L 3481 4863 
L 3481 0 
L 2906 0 
L 2906 525 
Q 2725 213 2448 61 
Q 2172 -91 1784 -91 
Q 1150 -91 751 415 
Q 353 922 353 1747 
Q 353 2572 751 3078 
Q 1150 3584 1784 3584 
Q 2172 3584 2448 3432 
Q 2725 3281 2906 2969 
z
M 947 1747 
Q 947 1113 1208 752 
Q 1469 391 1925 391 
Q 2381 391 2643 752 
Q 2906 1113 2906 1747 
Q 2906 2381 2643 2742 
Q 2381 3103 1925 3103 
Q 1469 3103 1208 2742 
Q 947 2381 947 1747 
z
" transform="scale(0.015625)"/>
      </defs>
      <use xlink:href="#DejaVuSans-53"/>
      <use xlink:href="#DejaVuSans-6f" transform="translate(63.476562 0)"/>
      <use xlink:href="#DejaVuSans-72" transform="translate(124.658203 0)"/>
      <use xlink:href="#DejaVuSans-74" transform="translate(165.771484 0)"/>
      <use xlink:href="#DejaVuSans-65" transform="translate(204.980469 0)"/>
      <use xlink:href="#DejaVuSans-64" transform="translate(266.503906 0)"/>
     </g>
    </g>
    <g id="line2d_24">
     <path d="M 725.536229 54.392031 
L 736.536229 54.392031 
L 747.536229 54.392031 
" style="fill: none; stroke-dasharray: 9.25,4; stroke-dashoffset: 0; stroke: #e74c3c; stroke-width: 2.5"/>
     <g>
      <use xlink:href="#md56b4bdaab" x="736.536229" y="54.392031" style="fill: #e74c3c; stroke: #e74c3c; stroke-linejoin: miter"/>
     </g>
    </g>
    <g id="text_15">
     <!-- Unsorted -->
     <g style="fill: #262626" transform="translate(756.336229 58.242031) scale(0.11 -0.11)">
      <defs>
       <path id="DejaVuSans-55" d="M 556 4666 
L 1191 4666 
L 1191 1831 
Q 1191 1081 1462 751 
Q 1734 422 2344 422 
Q 2950 422 3222 751 
Q 3494 1081 3494 1831 
L 3494 4666 
L 4128 4666 
L 4128 1753 
Q 4128 841 3676 375 
Q 3225 -91 2344 -91 
Q 1459 -91 1007 375 
Q 556 841 556 1753 
L 556 4666 
z
" transform="scale(0.015625)"/>
       <path id="DejaVuSans-6e" d="M 3513 2113 
L 3513 0 
L 2938 0 
L 2938 2094 
Q 2938 2591 2744 2837 
Q 2550 3084 2163 3084 
Q 1697 3084 1428 2787 
Q 1159 2491 1159 1978 
L 1159 0 
L 581 0 
L 581 3500 
L 1159 3500 
L 1159 2956 
Q 1366 3272 1645 3428 
Q 1925 3584 2291 3584 
Q 2894 3584 3203 3211 
Q 3513 2838 3513 2113 
z
" transform="scale(0.015625)"/>
       <path id="DejaVuSans-73" d="M 2834 3397 
L 2834 2853 
Q 2591 2978 2328 3040 
Q 2066 3103 1784 3103 
Q 1356 3103 1142 2972 
Q 928 2841 928 2578 
Q 928 2378 1081 2264 
Q 1234 2150 1697 2047 
L 1894 2003 
Q 2506 1872 2764 1633 
Q 3022 1394 3022 966 
Q 3022 478 2636 193 
Q 2250 -91 1575 -91 
Q 1294 -91 989 -36 
Q 684 19 347 128 
L 347 722 
Q 666 556 975 473 
Q 1284 391 1588 391 
Q 1994 391 2212 530 
Q 2431 669 2431 922 
Q 2431 1156 2273 1281 
Q 2116 1406 1581 1522 
L 1381 1569 
Q 847 1681 609 1914 
Q 372 2147 372 2553 
Q 372 3047 722 3315 
Q 1072 3584 1716 3584 
Q 2034 3584 2315 3537 
Q 2597 3491 2834 3397 
z
" transform="scale(0.015625)"/>
      </defs>
      <use xlink:href="#DejaVuSans-55"/>
      <use xlink:href="#DejaVuSans-6e" transform="translate(73.193359 0)"/>
      <use xlink:href="#DejaVuSans-73" transform="translate(136.572266 0)"/>
      <use xlink:href="#DejaVuSans-6f" transform="translate(188.671875 0)"/>
      <use xlink:href="#DejaVuSans-72" transform="translate(249.853516 0)"/>
      <use xlink:href="#DejaVuSans-74" transform="translate(290.966797 0)"/>
      <use xlink:href="#DejaVuSans-65" transform="translate(330.175781 0)"/>
      <use xlink:href="#DejaVuSans-64" transform="translate(391.699219 0)"/>
     </g>
    </g>
    <g id="line2d_25">
     <path d="M 725.536229 70.537969 
L 736.536229 70.537969 
L 747.536229 70.537969 
" style="fill: none; stroke: #3498db; stroke-width: 2.5; stroke-linecap: round"/>
     <g>
      <use xlink:href="#m4da883727c" x="736.536229" y="70.537969" style="fill: #3498db; stroke: #3498db; stroke-linejoin: miter"/>
     </g>
    </g>
    <g id="text_16">
     <!-- Bulk Sorted -->
     <g style="fill: #262626" transform="translate(756.336229 74.387969) scale(0.11 -0.11)">
      <defs>
       <path id="DejaVuSans-42" d="M 1259 2228 
L 1259 519 
L 2272 519 
Q 2781 519 3026 730 
Q 3272 941 3272 1375 
Q 3272 1813 3026 2020 
Q 2781 2228 2272 2228 
L 1259 2228 
z
M 1259 4147 
L 1259 2741 
L 2194 2741 
Q 2656 2741 2882 2914 
Q 3109 3088 3109 3444 
Q 3109 3797 2882 3972 
Q 2656 4147 2194 4147 
L 1259 4147 
z
M 628 4666 
L 2241 4666 
Q 2963 4666 3353 4366 
Q 3744 4066 3744 3513 
Q 3744 3084 3544 2831 
Q 3344 2578 2956 2516 
Q 3422 2416 3680 2098 
Q 3938 1781 3938 1306 
Q 3938 681 3513 340 
Q 3088 0 2303 0 
L 628 0 
L 628 4666 
z
" transform="scale(0.015625)"/>
       <path id="DejaVuSans-75" d="M 544 1381 
L 544 3500 
L 1119 3500 
L 1119 1403 
Q 1119 906 1312 657 
Q 1506 409 1894 409 
Q 2359 409 2629 706 
Q 2900 1003 2900 1516 
L 2900 3500 
L 3475 3500 
L 3475 0 
L 2900 0 
L 2900 538 
Q 2691 219 2414 64 
Q 2138 -91 1772 -91 
Q 1169 -91 856 284 
Q 544 659 544 1381 
z
M 1991 3584 
L 1991 3584 
z
" transform="scale(0.015625)"/>
       <path id="DejaVuSans-6c" d="M 603 4863 
L 1178 4863 
L 1178 0 
L 603 0 
L 603 4863 
z
" transform="scale(0.015625)"/>
       <path id="DejaVuSans-6b" d="M 581 4863 
L 1159 4863 
L 1159 1991 
L 2875 3500 
L 3609 3500 
L 1753 1863 
L 3688 0 
L 2938 0 
L 1159 1709 
L 1159 0 
L 581 0 
L 581 4863 
z
" transform="scale(0.015625)"/>
       <path id="DejaVuSans-20" transform="scale(0.015625)"/>
      </defs>
      <use xlink:href="#DejaVuSans-42"/>
      <use xlink:href="#DejaVuSans-75" transform="translate(68.603516 0)"/>
      <use xlink:href="#DejaVuSans-6c" transform="translate(131.982422 0)"/>
      <use xlink:href="#DejaVuSans-6b" transform="translate(159.765625 0)"/>
      <use xlink:href="#DejaVuSans-20" transform="translate(217.675781 0)"/>
      <use xlink:href="#DejaVuSans-53" transform="translate(249.462891 0)"/>
      <use xlink:href="#DejaVuSans-6f" transform="translate(312.939453 0)"/>
      <use xlink:href="#DejaVuSans-72" transform="translate(374.121094 0)"/>
      <use xlink:href="#DejaVuSans-74" transform="translate(415.234375 0)"/>
      <use xlink:href="#DejaVuSans-65" transform="translate(454.443359 0)"/>
      <use xlink:href="#DejaVuSans-64" transform="translate(515.966797 0)"/>
     </g>
    </g>
    <g id="line2d_26">
     <path d="M 725.536229 86.683906 
L 736.536229 86.683906 
L 747.536229 86.683906 
" style="fill: none; stroke-dasharray: 9.25,4; stroke-dashoffset: 0; stroke: #e67e22; stroke-width: 2.5"/>
     <g>
      <use xlink:href="#m5d8d13259f" x="736.536229" y="86.683906" style="fill: #e67e22; stroke: #e67e22; stroke-linejoin: miter"/>
     </g>
    </g>
    <g id="text_17">
     <!-- Bulk Unsorted -->
     <g style="fill: #262626" transform="translate(756.336229 90.533906) scale(0.11 -0.11)">
      <use xlink:href="#DejaVuSans-42"/>
      <use xlink:href="#DejaVuSans-75" transform="translate(68.603516 0)"/>
      <use xlink:href="#DejaVuSans-6c" transform="translate(131.982422 0)"/>
      <use xlink:href="#DejaVuSans-6b" transform="translate(159.765625 0)"/>
      <use xlink:href="#DejaVuSans-20" transform="translate(217.675781 0)"/>
      <use xlink:href="#DejaVuSans-55" transform="translate(249.462891 0)"/>
      <use xlink:href="#DejaVuSans-6e" transform="translate(322.65625 0)"/>
      <use xlink:href="#DejaVuSans-73" transform="translate(386.035156 0)"/>
      <use xlink:href="#DejaVuSans-6f" transform="translate(438.134766 0)"/>
      <use xlink:href="#DejaVuSans-72" transform="translate(499.316406 0)"/>
      <use xlink:href="#DejaVuSans-74" transform="translate(540.429688 0)"/>
      <use xlink:href="#DejaVuSans-65" transform="translate(579.638672 0)"/>
      <use xlink:href="#DejaVuSans-64" transform="translate(641.162109 0)"/>
     </g>
    </g>
   </g>
  </g>
 </g>
 <defs>
  <clipPath id="p4d4b8ff9b1">
   <rect x="51.7675" y="23.837812" width="791.977479" height="496.02"/>
  </clipPath>
 </defs>
</svg>
