<?xml version="1.0" encoding="utf-8" standalone="no"?>
<!DOCTYPE svg PUBLIC "-//W3C//DTD SVG 1.1//EN"
  "http://www.w3.org/Graphics/SVG/1.1/DTD/svg11.dtd">
<svg xmlns:xlink="http://www.w3.org/1999/xlink" width="852.158125pt" height="564.239219pt" viewBox="0 0 852.158125 564.239219" xmlns="http://www.w3.org/2000/svg" version="1.1">
 <metadata>
  <rdf:RDF xmlns:dc="http://purl.org/dc/elements/1.1/" xmlns:cc="http://creativecommons.org/ns#" xmlns:rdf="http://www.w3.org/1999/02/22-rdf-syntax-ns#">
   <cc:Work>
    <dc:type rdf:resource="http://purl.org/dc/dcmitype/StillImage"/>
    <dc:date>2026-07-16T02:57:09.439566</dc:date>
    <dc:format>image/svg+xml</dc:format>
    <dc:creator>
     <cc:Agent>
      <dc:title>Matplotlib v3.11.0, https://matplotlib.org/</dc:title>
     </cc:Agent>
    </dc:creator>
   </cc:Work>
  </rdf:RDF>
 </metadata>
 <defs>
  <style type="text/css">*{stroke-linejoin: round; stroke-linecap: butt}</style>
 </defs>
 <g id="figure_1">
  <g id="patch_1">
   <path d="M 0 564.239219 
L 852.158125 564.239219 
L 852.158125 0 
L 0 0 
z
" style="fill: #ffffff"/>
  </g>
  <g id="axes_1">
   <g id="patch_2">
    <path d="M 52.060938 520.538281 
L 844.958125 520.538281 
L 844.958125 23.837812 
L 52.060938 23.837812 
z
" style="fill: #ffffff"/>
   </g>
   <g id="matplotlib.axis_1">
    <g id="xtick_1">
     <g id="line2d_1">
      <path d="M 73.391196 520.538281 
L 73.391196 23.837812 
" clip-path="url(#p2f9cf82a7c)" style="fill: none; stroke: #cccccc; stroke-opacity: 0.3; stroke-linecap: round"/>
     </g>
     <g id="text_1">
      <!-- 0 -->
      <g style="fill: #262626" transform="translate(69.891821 538.395703) scale(0.11 -0.11)">
       <defs>
        <path id="DejaVuSans-13" d="M 2034 4250 
Q 1547 4250 1301 3770 
Q 1056 3291 1056 2328 
Q 1056 1369 1301 889 
Q 1547 409 2034 409 
Q 2525 409 2770 889 
Q 3016 1369 3016 2328 
Q 3016 3291 2770 3770 
Q 2525 4250 2034 4250 
z
M 2034 4750 
Q 2819 4750 3233 4129 
Q 3647 3509 3647 2328 
Q 3647 1150 3233 529 
Q 2819 -91 2034 -91 
Q 1250 -91 836 529 
Q 422 1150 422 2328 
Q 422 3509 836 4129 
Q 1250 4750 2034 4750 
z
" transform="scale(0.015625)"/>
       </defs>
       <use xlink:href="#DejaVuSans-13"/>
      </g>
     </g>
    </g>
    <g id="xtick_2">
     <g id="line2d_2">
      <path d="M 220.496425 520.538281 
L 220.496425 23.837812 
" clip-path="url(#p2f9cf82a7c)" style="fill: none; stroke: #cccccc; stroke-opacity: 0.3; stroke-linecap: round"/>
     </g>
     <g id="text_2">
      <!-- 1000 -->
      <g style="fill: #262626" transform="translate(206.498925 538.395703) scale(0.11 -0.11)">
       <defs>
        <path id="DejaVuSans-14" d="M 794 531 
L 1825 531 
L 1825 4091 
L 703 3866 
L 703 4441 
L 1819 4666 
L 2450 4666 
L 2450 531 
L 3481 531 
L 3481 0 
L 794 0 
L 794 531 
z
" transform="scale(0.015625)"/>
       </defs>
       <use xlink:href="#DejaVuSans-14"/>
       <use xlink:href="#DejaVuSans-13" transform="translate(63.625 0)"/>
       <use xlink:href="#DejaVuSans-13" transform="translate(127.25 0)"/>
       <use xlink:href="#DejaVuSans-13" transform="translate(190.875 0)"/>
      </g>
     </g>
    </g>
    <g id="xtick_3">
     <g id="line2d_3">
      <path d="M 367.601655 520.538281 
L 367.601655 23.837812 
" clip-path="url(#p2f9cf82a7c)" style="fill: none; stroke: #cccccc; stroke-opacity: 0.3; stroke-linecap: round"/>
     </g>
     <g id="text_3">
      <!-- 2000 -->
      <g style="fill: #262626" transform="translate(353.604155 538.395703) scale(0.11 -0.11)">
       <defs>
        <path id="DejaVuSans-15" d="M 1228 531 
L 3431 531 
L 3431 0 
L 469 0 
L 469 531 
Q 828 903 1448 1529 
Q 2069 2156 2228 2338 
Q 2531 2678 2651 2914 
Q 2772 3150 2772 3378 
Q 2772 3750 2511 3984 
Q 2250 4219 1831 4219 
Q 1534 4219 1204 4116 
Q 875 4013 500 3803 
L 500 4441 
Q 881 4594 1212 4672 
Q 1544 4750 1819 4750 
Q 2544 4750 2975 4387 
Q 3406 4025 3406 3419 
Q 3406 3131 3298 2873 
Q 3191 2616 2906 2266 
Q 2828 2175 2409 1742 
Q 1991 1309 1228 531 
z
" transform="scale(0.015625)"/>
       </defs>
       <use xlink:href="#DejaVuSans-15"/>
       <use xlink:href="#DejaVuSans-13" transform="translate(63.625 0)"/>
       <use xlink:href="#DejaVuSans-13" transform="translate(127.25 0)"/>
       <use xlink:href="#DejaVuSans-13" transform="translate(190.875 0)"/>
      </g>
     </g>
    </g>
    <g id="xtick_4">
     <g id="line2d_4">
      <path d="M 514.706885 520.538281 
L 514.706885 23.837812 
" clip-path="url(#p2f9cf82a7c)" style="fill: none; stroke: #cccccc; stroke-opacity: 0.3; stroke-linecap: round"/>
     </g>
     <g id="text_4">
      <!-- 3000 -->
      <g style="fill: #262626" transform="translate(500.709385 538.395703) scale(0.11 -0.11)">
       <defs>
        <path id="DejaVuSans-16" d="M 2597 2516 
Q 3050 2419 3304 2112 
Q 3559 1806 3559 1356 
Q 3559 666 3084 287 
Q 2609 -91 1734 -91 
Q 1441 -91 1130 -33 
Q 819 25 488 141 
L 488 750 
Q 750 597 1062 519 
Q 1375 441 1716 441 
Q 2309 441 2620 675 
Q 2931 909 2931 1356 
Q 2931 1769 2642 2001 
Q 2353 2234 1838 2234 
L 1294 2234 
L 1294 2753 
L 1863 2753 
Q 2328 2753 2575 2939 
Q 2822 3125 2822 3475 
Q 2822 3834 2567 4026 
Q 2313 4219 1838 4219 
Q 1578 4219 1281 4162 
Q 984 4106 628 3988 
L 628 4550 
Q 988 4650 1302 4700 
Q 1616 4750 1894 4750 
Q 2613 4750 3031 4423 
Q 3450 4097 3450 3541 
Q 3450 3153 3228 2886 
Q 3006 2619 2597 2516 
z
" transform="scale(0.015625)"/>
       </defs>
       <use xlink:href="#DejaVuSans-16"/>
       <use xlink:href="#DejaVuSans-13" transform="translate(63.625 0)"/>
       <use xlink:href="#DejaVuSans-13" transform="translate(127.25 0)"/>
       <use xlink:href="#DejaVuSans-13" transform="translate(190.875 0)"/>
      </g>
     </g>
    </g>
    <g id="xtick_5">
     <g id="line2d_5">
      <path d="M 661.812114 520.538281 
L 661.812114 23.837812 
" clip-path="url(#p2f9cf82a7c)" style="fill: none; stroke: #cccccc; stroke-opacity: 0.3; stroke-linecap: round"/>
     </g>
     <g id="text_5">
      <!-- 4000 -->
      <g style="fill: #262626" transform="translate(647.814614 538.395703) scale(0.11 -0.11)">
       <defs>
        <path id="DejaVuSans-17" d="M 2419 4116 
L 825 1625 
L 2419 1625 
L 2419 4116 
z
M 2253 4666 
L 3047 4666 
L 3047 1625 
L 3713 1625 
L 3713 1100 
L 3047 1100 
L 3047 0 
L 2419 0 
L 2419 1100 
L 313 1100 
L 313 1709 
L 2253 4666 
z
" transform="scale(0.015625)"/>
       </defs>
       <use xlink:href="#DejaVuSans-17"/>
       <use xlink:href="#DejaVuSans-13" transform="translate(63.625 0)"/>
       <use xlink:href="#DejaVuSans-13" transform="translate(127.25 0)"/>
       <use xlink:href="#DejaVuSans-13" transform="translate(190.875 0)"/>
      </g>
     </g>
    </g>
    <g id="xtick_6">
     <g id="line2d_6">
      <path d="M 808.917344 520.538281 
L 808.917344 23.837812 
" clip-path="url(#p2f9cf82a7c)" style="fill: none; stroke: #cccccc; stroke-opacity: 0.3; stroke-linecap: round"/>
     </g>
     <g id="text_6">
      <!-- 5000 -->
      <g style="fill: #262626" transform="translate(794.919844 538.395703) scale(0.11 -0.11)">
       <defs>
        <path id="DejaVuSans-18" d="M 691 4666 
L 3169 4666 
L 3169 4134 
L 1269 4134 
L 1269 2991 
Q 1406 3038 1543 3061 
Q 1681 3084 1819 3084 
Q 2600 3084 3056 2656 
Q 3513 2228 3513 1497 
Q 3513 744 3044 326 
Q 2575 -91 1722 -91 
Q 1428 -91 1123 -41 
Q 819 9 494 109 
L 494 744 
Q 775 591 1075 516 
Q 1375 441 1709 441 
Q 2250 441 2565 725 
Q 2881 1009 2881 1497 
Q 2881 1984 2565 2268 
Q 2250 2553 1709 2553 
Q 1456 2553 1204 2497 
Q 953 2441 691 2322 
L 691 4666 
z
" transform="scale(0.015625)"/>
       </defs>
       <use xlink:href="#DejaVuSans-18"/>
       <use xlink:href="#DejaVuSans-13" transform="translate(63.625 0)"/>
       <use xlink:href="#DejaVuSans-13" transform="translate(127.25 0)"/>
       <use xlink:href="#DejaVuSans-13" transform="translate(190.875 0)"/>
      </g>
     </g>
    </g>
    <g id="text_7">
     <!-- Dataset Size (# intervals) -->
     <g style="fill: #262626" transform="translate(361.523594 554.156406) scale(0.12 -0.12)">
      <defs>
       <path id="DejaVuSans-Bold-27" d="M 1791 3756 
L 1791 909 
L 2222 909 
Q 2959 909 3348 1275 
Q 3738 1641 3738 2338 
Q 3738 3031 3350 3393 
Q 2963 3756 2222 3756 
L 1791 3756 
z
M 588 4666 
L 1856 4666 
Q 2919 4666 3439 4514 
Q 3959 4363 4331 4000 
Q 4659 3684 4818 3271 
Q 4978 2859 4978 2338 
Q 4978 1809 4818 1395 
Q 4659 981 4331 666 
Q 3956 303 3431 151 
Q 2906 0 1856 0 
L 588 0 
L 588 4666 
z
" transform="scale(0.015625)"/>
       <path id="DejaVuSans-Bold-44" d="M 2106 1575 
Q 1756 1575 1579 1456 
Q 1403 1338 1403 1106 
Q 1403 894 1545 773 
Q 1688 653 1941 653 
Q 2256 653 2472 879 
Q 2688 1106 2688 1447 
L 2688 1575 
L 2106 1575 
z
M 3816 1997 
L 3816 0 
L 2688 0 
L 2688 519 
Q 2463 200 2181 54 
Q 1900 -91 1497 -91 
Q 953 -91 614 226 
Q 275 544 275 1050 
Q 275 1666 698 1953 
Q 1122 2241 2028 2241 
L 2688 2241 
L 2688 2328 
Q 2688 2594 2478 2717 
Q 2269 2841 1825 2841 
Q 1466 2841 1156 2769 
Q 847 2697 581 2553 
L 581 3406 
Q 941 3494 1303 3539 
Q 1666 3584 2028 3584 
Q 2975 3584 3395 3211 
Q 3816 2838 3816 1997 
z
" transform="scale(0.015625)"/>
       <path id="DejaVuSans-Bold-57" d="M 1759 4494 
L 1759 3500 
L 2913 3500 
L 2913 2700 
L 1759 2700 
L 1759 1216 
Q 1759 972 1856 886 
Q 1953 800 2241 800 
L 2816 800 
L 2816 0 
L 1856 0 
Q 1194 0 917 276 
Q 641 553 641 1216 
L 641 2700 
L 84 2700 
L 84 3500 
L 641 3500 
L 641 4494 
L 1759 4494 
z
" transform="scale(0.015625)"/>
       <path id="DejaVuSans-Bold-56" d="M 3272 3391 
L 3272 2541 
Q 2913 2691 2578 2766 
Q 2244 2841 1947 2841 
Q 1628 2841 1473 2761 
Q 1319 2681 1319 2516 
Q 1319 2381 1436 2309 
Q 1553 2238 1856 2203 
L 2053 2175 
Q 2913 2066 3209 1816 
Q 3506 1566 3506 1031 
Q 3506 472 3093 190 
Q 2681 -91 1863 -91 
Q 1516 -91 1145 -36 
Q 775 19 384 128 
L 384 978 
Q 719 816 1070 734 
Q 1422 653 1784 653 
Q 2113 653 2278 743 
Q 2444 834 2444 1013 
Q 2444 1163 2330 1236 
Q 2216 1309 1875 1350 
L 1678 1375 
Q 931 1469 631 1722 
Q 331 1975 331 2491 
Q 331 3047 712 3315 
Q 1094 3584 1881 3584 
Q 2191 3584 2531 3537 
Q 2872 3491 3272 3391 
z
" transform="scale(0.015625)"/>
       <path id="DejaVuSans-Bold-48" d="M 4031 1759 
L 4031 1441 
L 1416 1441 
Q 1456 1047 1700 850 
Q 1944 653 2381 653 
Q 2734 653 3104 758 
Q 3475 863 3866 1075 
L 3866 213 
Q 3469 63 3072 -14 
Q 2675 -91 2278 -91 
Q 1328 -91 801 392 
Q 275 875 275 1747 
Q 275 2603 792 3093 
Q 1309 3584 2216 3584 
Q 3041 3584 3536 3087 
Q 4031 2591 4031 1759 
z
M 2881 2131 
Q 2881 2450 2695 2645 
Q 2509 2841 2209 2841 
Q 1884 2841 1681 2658 
Q 1478 2475 1428 2131 
L 2881 2131 
z
" transform="scale(0.015625)"/>
       <path id="DejaVuSans-Bold-3" transform="scale(0.015625)"/>
       <path id="DejaVuSans-Bold-36" d="M 3834 4519 
L 3834 3531 
Q 3450 3703 3084 3790 
Q 2719 3878 2394 3878 
Q 1963 3878 1756 3759 
Q 1550 3641 1550 3391 
Q 1550 3203 1689 3098 
Q 1828 2994 2194 2919 
L 2706 2816 
Q 3484 2659 3812 2340 
Q 4141 2022 4141 1434 
Q 4141 663 3683 286 
Q 3225 -91 2284 -91 
Q 1841 -91 1394 -6 
Q 947 78 500 244 
L 500 1259 
Q 947 1022 1364 901 
Q 1781 781 2169 781 
Q 2563 781 2772 912 
Q 2981 1044 2981 1288 
Q 2981 1506 2839 1625 
Q 2697 1744 2272 1838 
L 1806 1941 
Q 1106 2091 782 2419 
Q 459 2747 459 3303 
Q 459 4000 909 4375 
Q 1359 4750 2203 4750 
Q 2588 4750 2994 4692 
Q 3400 4634 3834 4519 
z
" transform="scale(0.015625)"/>
       <path id="DejaVuSans-Bold-4c" d="M 538 3500 
L 1656 3500 
L 1656 0 
L 538 0 
L 538 3500 
z
M 538 4863 
L 1656 4863 
L 1656 3950 
L 538 3950 
L 538 4863 
z
" transform="scale(0.015625)"/>
       <path id="DejaVuSans-Bold-5d" d="M 366 3500 
L 3419 3500 
L 3419 2719 
L 1575 800 
L 3419 800 
L 3419 0 
L 288 0 
L 288 781 
L 2131 2700 
L 366 2700 
L 366 3500 
z
" transform="scale(0.015625)"/>
       <path id="DejaVuSans-Bold-b" d="M 2413 -844 
L 1484 -844 
Q 1006 -72 778 623 
Q 550 1319 550 2003 
Q 550 2688 779 3389 
Q 1009 4091 1484 4856 
L 2413 4856 
Q 2013 4116 1813 3408 
Q 1613 2700 1613 2009 
Q 1613 1319 1811 609 
Q 2009 -100 2413 -844 
z
" transform="scale(0.015625)"/>
       <path id="DejaVuSans-Bold-6" d="M 2847 4594 
L 2547 3391 
L 3372 3391 
L 3675 4594 
L 4366 4594 
L 4063 3391 
L 4928 3391 
L 4928 2725 
L 3897 2725 
L 3681 1869 
L 4569 1869 
L 4569 1197 
L 3519 1197 
L 3219 0 
L 2528 0 
L 2828 1197 
L 2003 1197 
L 1703 0 
L 1006 0 
L 1306 1197 
L 434 1197 
L 434 1869 
L 1459 1869 
L 1678 2725 
L 794 2725 
L 794 3391 
L 1850 3391 
L 2150 4594 
L 2847 4594 
z
M 3200 2725 
L 2375 2725 
L 2156 1869 
L 2981 1869 
L 3200 2725 
z
" transform="scale(0.015625)"/>
       <path id="DejaVuSans-Bold-51" d="M 4056 2131 
L 4056 0 
L 2931 0 
L 2931 347 
L 2931 1631 
Q 2931 2084 2911 2256 
Q 2891 2428 2841 2509 
Q 2775 2619 2662 2680 
Q 2550 2741 2406 2741 
Q 2056 2741 1856 2470 
Q 1656 2200 1656 1722 
L 1656 0 
L 538 0 
L 538 3500 
L 1656 3500 
L 1656 2988 
Q 1909 3294 2193 3439 
Q 2478 3584 2822 3584 
Q 3428 3584 3742 3212 
Q 4056 2841 4056 2131 
z
" transform="scale(0.015625)"/>
       <path id="DejaVuSans-Bold-55" d="M 3138 2547 
Q 2991 2616 2845 2648 
Q 2700 2681 2553 2681 
Q 2122 2681 1889 2404 
Q 1656 2128 1656 1613 
L 1656 0 
L 538 0 
L 538 3500 
L 1656 3500 
L 1656 2925 
Q 1872 3269 2151 3426 
Q 2431 3584 2822 3584 
Q 2878 3584 2943 3579 
Q 3009 3575 3134 3559 
L 3138 2547 
z
" transform="scale(0.015625)"/>
       <path id="DejaVuSans-Bold-59" d="M 97 3500 
L 1216 3500 
L 2088 1081 
L 2956 3500 
L 4078 3500 
L 2700 0 
L 1472 0 
L 97 3500 
z
" transform="scale(0.015625)"/>
       <path id="DejaVuSans-Bold-4f" d="M 538 4863 
L 1656 4863 
L 1656 0 
L 538 0 
L 538 4863 
z
" transform="scale(0.015625)"/>
       <path id="DejaVuSans-Bold-c" d="M 513 -844 
Q 913 -100 1113 609 
Q 1313 1319 1313 2009 
Q 1313 2700 1113 3408 
Q 913 4116 513 4856 
L 1441 4856 
Q 1916 4091 2145 3389 
Q 2375 2688 2375 2003 
Q 2375 1319 2147 623 
Q 1919 -72 1441 -844 
L 513 -844 
z
" transform="scale(0.015625)"/>
      </defs>
      <use xlink:href="#DejaVuSans-Bold-27"/>
      <use xlink:href="#DejaVuSans-Bold-44" transform="translate(83.015625 0)"/>
      <use xlink:href="#DejaVuSans-Bold-57" transform="translate(150.5 0)"/>
      <use xlink:href="#DejaVuSans-Bold-44" transform="translate(198.296875 0)"/>
      <use xlink:href="#DejaVuSans-Bold-56" transform="translate(265.78125 0)"/>
      <use xlink:href="#DejaVuSans-Bold-48" transform="translate(325.296875 0)"/>
      <use xlink:href="#DejaVuSans-Bold-57" transform="translate(393.125 0)"/>
      <use xlink:href="#DejaVuSans-Bold-3" transform="translate(440.921875 0)"/>
      <use xlink:href="#DejaVuSans-Bold-36" transform="translate(475.734375 0)"/>
      <use xlink:href="#DejaVuSans-Bold-4c" transform="translate(547.75 0)"/>
      <use xlink:href="#DejaVuSans-Bold-5d" transform="translate(582.03125 0)"/>
      <use xlink:href="#DejaVuSans-Bold-48" transform="translate(640.234375 0)"/>
      <use xlink:href="#DejaVuSans-Bold-3" transform="translate(708.0625 0)"/>
      <use xlink:href="#DejaVuSans-Bold-b" transform="translate(742.875 0)"/>
      <use xlink:href="#DejaVuSans-Bold-6" transform="translate(788.578125 0)"/>
      <use xlink:href="#DejaVuSans-Bold-3" transform="translate(872.375 0)"/>
      <use xlink:href="#DejaVuSans-Bold-4c" transform="translate(907.1875 0)"/>
      <use xlink:href="#DejaVuSans-Bold-51" transform="translate(941.46875 0)"/>
      <use xlink:href="#DejaVuSans-Bold-57" transform="translate(1012.65625 0)"/>
      <use xlink:href="#DejaVuSans-Bold-48" transform="translate(1060.453125 0)"/>
      <use xlink:href="#DejaVuSans-Bold-55" transform="translate(1128.28125 0)"/>
      <use xlink:href="#DejaVuSans-Bold-59" transform="translate(1177.59375 0)"/>
      <use xlink:href="#DejaVuSans-Bold-44" transform="translate(1242.78125 0)"/>
      <use xlink:href="#DejaVuSans-Bold-4f" transform="translate(1310.265625 0)"/>
      <use xlink:href="#DejaVuSans-Bold-56" transform="translate(1344.546875 0)"/>
      <use xlink:href="#DejaVuSans-Bold-c" transform="translate(1404.0625 0)"/>
     </g>
    </g>
   </g>
   <g id="matplotlib.axis_2">
    <g id="ytick_1">
     <g id="line2d_7">
      <path d="M 52.060938 326.698969 
L 844.958125 326.698969 
" clip-path="url(#p2f9cf82a7c)" style="fill: none; stroke: #cccccc; stroke-opacity: 0.3; stroke-linecap: round"/>
     </g>
     <g id="text_8">
      <!-- $\mathdefault{10^{2}}$ -->
      <g style="fill: #262626" transform="translate(23.200938 331.868969) scale(0.11 -0.11)">
       <use xlink:href="#DejaVuSans-14" transform="translate(0 0.746875)"/>
       <use xlink:href="#DejaVuSans-13" transform="translate(63.623047 0.746875)"/>
       <use xlink:href="#DejaVuSans-15" transform="translate(128.203125 42.046875) scale(0.7)"/>
      </g>
     </g>
    </g>
    <g id="ytick_2">
     <g id="line2d_8">
      <path d="M 52.060938 127.889692 
L 844.958125 127.889692 
" clip-path="url(#p2f9cf82a7c)" style="fill: none; stroke: #cccccc; stroke-opacity: 0.3; stroke-linecap: round"/>
     </g>
     <g id="text_9">
      <!-- $\mathdefault{10^{3}}$ -->
      <g style="fill: #262626" transform="translate(23.200938 133.059692) scale(0.11 -0.11)">
       <use xlink:href="#DejaVuSans-14" transform="translate(0 0.746875)"/>
       <use xlink:href="#DejaVuSans-13" transform="translate(63.623047 0.746875)"/>
       <use xlink:href="#DejaVuSans-16" transform="translate(128.203125 42.046875) scale(0.7)"/>
      </g>
     </g>
    </g>
    <g id="ytick_3">
     <g id="line2d_9">
      <path d="M 52.060938 465.660691 
L 844.958125 465.660691 
" clip-path="url(#p2f9cf82a7c)" style="fill: none; stroke: #cccccc; stroke-opacity: 0.3; stroke-linecap: round"/>
     </g>
    </g>
    <g id="ytick_4">
     <g id="line2d_10">
      <path d="M 52.060938 430.652115 
L 844.958125 430.652115 
" clip-path="url(#p2f9cf82a7c)" style="fill: none; stroke: #cccccc; stroke-opacity: 0.3; stroke-linecap: round"/>
     </g>
    </g>
    <g id="ytick_5">
     <g id="line2d_11">
      <path d="M 52.060938 405.813135 
L 844.958125 405.813135 
" clip-path="url(#p2f9cf82a7c)" style="fill: none; stroke: #cccccc; stroke-opacity: 0.3; stroke-linecap: round"/>
     </g>
    </g>
    <g id="ytick_6">
     <g id="line2d_12">
      <path d="M 52.060938 386.546525 
L 844.958125 386.546525 
" clip-path="url(#p2f9cf82a7c)" style="fill: none; stroke: #cccccc; stroke-opacity: 0.3; stroke-linecap: round"/>
     </g>
    </g>
    <g id="ytick_7">
     <g id="line2d_13">
      <path d="M 52.060938 370.804559 
L 844.958125 370.804559 
" clip-path="url(#p2f9cf82a7c)" style="fill: none; stroke: #cccccc; stroke-opacity: 0.3; stroke-linecap: round"/>
     </g>
    </g>
    <g id="ytick_8">
     <g id="line2d_14">
      <path d="M 52.060938 357.494916 
L 844.958125 357.494916 
" clip-path="url(#p2f9cf82a7c)" style="fill: none; stroke: #cccccc; stroke-opacity: 0.3; stroke-linecap: round"/>
     </g>
    </g>
    <g id="ytick_9">
     <g id="line2d_15">
      <path d="M 52.060938 345.965579 
L 844.958125 345.965579 
" clip-path="url(#p2f9cf82a7c)" style="fill: none; stroke: #cccccc; stroke-opacity: 0.3; stroke-linecap: round"/>
     </g>
    </g>
    <g id="ytick_10">
     <g id="line2d_16">
      <path d="M 52.060938 335.795983 
L 844.958125 335.795983 
" clip-path="url(#p2f9cf82a7c)" style="fill: none; stroke: #cccccc; stroke-opacity: 0.3; stroke-linecap: round"/>
     </g>
    </g>
    <g id="ytick_11">
     <g id="line2d_17">
      <path d="M 52.060938 266.851413 
L 844.958125 266.851413 
" clip-path="url(#p2f9cf82a7c)" style="fill: none; stroke: #cccccc; stroke-opacity: 0.3; stroke-linecap: round"/>
     </g>
    </g>
    <g id="ytick_12">
     <g id="line2d_18">
      <path d="M 52.060938 231.842837 
L 844.958125 231.842837 
" clip-path="url(#p2f9cf82a7c)" style="fill: none; stroke: #cccccc; stroke-opacity: 0.3; stroke-linecap: round"/>
     </g>
    </g>
    <g id="ytick_13">
     <g id="line2d_19">
      <path d="M 52.060938 207.003857 
L 844.958125 207.003857 
" clip-path="url(#p2f9cf82a7c)" style="fill: none; stroke: #cccccc; stroke-opacity: 0.3; stroke-linecap: round"/>
     </g>
    </g>
    <g id="ytick_14">
     <g id="line2d_20">
      <path d="M 52.060938 187.737248 
L 844.958125 187.737248 
" clip-path="url(#p2f9cf82a7c)" style="fill: none; stroke: #cccccc; stroke-opacity: 0.3; stroke-linecap: round"/>
     </g>
    </g>
    <g id="ytick_15">
     <g id="line2d_21">
      <path d="M 52.060938 171.995281 
L 844.958125 171.995281 
" clip-path="url(#p2f9cf82a7c)" style="fill: none; stroke: #cccccc; stroke-opacity: 0.3; stroke-linecap: round"/>
     </g>
    </g>
    <g id="ytick_16">
     <g id="line2d_22">
      <path d="M 52.060938 158.685639 
L 844.958125 158.685639 
" clip-path="url(#p2f9cf82a7c)" style="fill: none; stroke: #cccccc; stroke-opacity: 0.3; stroke-linecap: round"/>
     </g>
    </g>
    <g id="ytick_17">
     <g id="line2d_23">
      <path d="M 52.060938 147.156301 
L 844.958125 147.156301 
" clip-path="url(#p2f9cf82a7c)" style="fill: none; stroke: #cccccc; stroke-opacity: 0.3; stroke-linecap: round"/>
     </g>
    </g>
    <g id="ytick_18">
     <g id="line2d_24">
      <path d="M 52.060938 136.986705 
L 844.958125 136.986705 
" clip-path="url(#p2f9cf82a7c)" style="fill: none; stroke: #cccccc; stroke-opacity: 0.3; stroke-linecap: round"/>
     </g>
    </g>
    <g id="ytick_19">
     <g id="line2d_25">
      <path d="M 52.060938 68.042136 
L 844.958125 68.042136 
" clip-path="url(#p2f9cf82a7c)" style="fill: none; stroke: #cccccc; stroke-opacity: 0.3; stroke-linecap: round"/>
     </g>
    </g>
    <g id="ytick_20">
     <g id="line2d_26">
      <path d="M 52.060938 33.03356 
L 844.958125 33.03356 
" clip-path="url(#p2f9cf82a7c)" style="fill: none; stroke: #cccccc; stroke-opacity: 0.3; stroke-linecap: round"/>
     </g>
    </g>
    <g id="text_10">
     <!-- Time (μs, log scale) -->
     <g style="fill: #262626" transform="translate(16.318125 338.452422) rotate(-90) scale(0.12 -0.12)">
      <defs>
       <path id="DejaVuSans-Bold-37" d="M 31 4666 
L 4331 4666 
L 4331 3756 
L 2784 3756 
L 2784 0 
L 1581 0 
L 1581 3756 
L 31 3756 
L 31 4666 
z
" transform="scale(0.015625)"/>
       <path id="DejaVuSans-Bold-50" d="M 3781 2919 
Q 3994 3244 4286 3414 
Q 4578 3584 4928 3584 
Q 5531 3584 5847 3212 
Q 6163 2841 6163 2131 
L 6163 0 
L 5038 0 
L 5038 1825 
Q 5041 1866 5042 1909 
Q 5044 1953 5044 2034 
Q 5044 2406 4934 2573 
Q 4825 2741 4581 2741 
Q 4263 2741 4089 2478 
Q 3916 2216 3909 1719 
L 3909 0 
L 2784 0 
L 2784 1825 
Q 2784 2406 2684 2573 
Q 2584 2741 2328 2741 
Q 2006 2741 1831 2477 
Q 1656 2213 1656 1722 
L 1656 0 
L 531 0 
L 531 3500 
L 1656 3500 
L 1656 2988 
Q 1863 3284 2130 3434 
Q 2397 3584 2719 3584 
Q 3081 3584 3359 3409 
Q 3638 3234 3781 2919 
z
" transform="scale(0.015625)"/>
       <path id="DejaVuSans-Bold-350" d="M 544 -1338 
L 544 3500 
L 1672 3500 
L 1672 1466 
Q 1672 1103 1828 926 
Q 1984 750 2303 750 
Q 2625 750 2781 926 
Q 2938 1103 2938 1466 
L 2938 3500 
L 4063 3500 
L 4063 1159 
Q 4063 938 4114 850 
Q 4166 763 4288 763 
Q 4344 763 4395 778 
Q 4447 794 4506 831 
L 4506 50 
Q 4341 -22 4195 -56 
Q 4050 -91 3909 -91 
Q 3631 -91 3454 26 
Q 3278 144 3169 403 
Q 3022 156 2811 32 
Q 2600 -91 2322 -91 
Q 2091 -91 1928 -17 
Q 1766 56 1672 206 
L 1672 -1338 
L 544 -1338 
z
" transform="scale(0.015625)"/>
       <path id="DejaVuSans-Bold-f" d="M 653 1209 
L 1778 1209 
L 1778 256 
L 1006 -909 
L 341 -909 
L 653 256 
L 653 1209 
z
" transform="scale(0.015625)"/>
       <path id="DejaVuSans-Bold-52" d="M 2203 2784 
Q 1831 2784 1636 2517 
Q 1441 2250 1441 1747 
Q 1441 1244 1636 976 
Q 1831 709 2203 709 
Q 2569 709 2762 976 
Q 2956 1244 2956 1747 
Q 2956 2250 2762 2517 
Q 2569 2784 2203 2784 
z
M 2203 3584 
Q 3106 3584 3614 3096 
Q 4122 2609 4122 1747 
Q 4122 884 3614 396 
Q 3106 -91 2203 -91 
Q 1297 -91 786 396 
Q 275 884 275 1747 
Q 275 2609 786 3096 
Q 1297 3584 2203 3584 
z
" transform="scale(0.015625)"/>
       <path id="DejaVuSans-Bold-4a" d="M 2919 594 
Q 2688 288 2409 144 
Q 2131 0 1766 0 
Q 1125 0 706 504 
Q 288 1009 288 1791 
Q 288 2575 706 3076 
Q 1125 3578 1766 3578 
Q 2131 3578 2409 3434 
Q 2688 3291 2919 2981 
L 2919 3500 
L 4044 3500 
L 4044 353 
Q 4044 -491 3511 -936 
Q 2978 -1381 1966 -1381 
Q 1638 -1381 1331 -1331 
Q 1025 -1281 716 -1178 
L 716 -306 
Q 1009 -475 1290 -558 
Q 1572 -641 1856 -641 
Q 2406 -641 2662 -400 
Q 2919 -159 2919 353 
L 2919 594 
z
M 2181 2772 
Q 1834 2772 1640 2515 
Q 1447 2259 1447 1791 
Q 1447 1309 1634 1061 
Q 1822 813 2181 813 
Q 2531 813 2725 1069 
Q 2919 1325 2919 1791 
Q 2919 2259 2725 2515 
Q 2531 2772 2181 2772 
z
" transform="scale(0.015625)"/>
       <path id="DejaVuSans-Bold-46" d="M 3366 3391 
L 3366 2478 
Q 3138 2634 2908 2709 
Q 2678 2784 2431 2784 
Q 1963 2784 1702 2511 
Q 1441 2238 1441 1747 
Q 1441 1256 1702 982 
Q 1963 709 2431 709 
Q 2694 709 2930 787 
Q 3166 866 3366 1019 
L 3366 103 
Q 3103 6 2833 -42 
Q 2563 -91 2291 -91 
Q 1344 -91 809 395 
Q 275 881 275 1747 
Q 275 2613 809 3098 
Q 1344 3584 2291 3584 
Q 2566 3584 2833 3536 
Q 3100 3488 3366 3391 
z
" transform="scale(0.015625)"/>
      </defs>
      <use xlink:href="#DejaVuSans-Bold-37"/>
      <use xlink:href="#DejaVuSans-Bold-4c" transform="translate(68.21875 0)"/>
      <use xlink:href="#DejaVuSans-Bold-50" transform="translate(102.5 0)"/>
      <use xlink:href="#DejaVuSans-Bold-48" transform="translate(206.703125 0)"/>
      <use xlink:href="#DejaVuSans-Bold-3" transform="translate(274.53125 0)"/>
      <use xlink:href="#DejaVuSans-Bold-b" transform="translate(309.34375 0)"/>
      <use xlink:href="#DejaVuSans-Bold-350" transform="translate(355.046875 0)"/>
      <use xlink:href="#DejaVuSans-Bold-56" transform="translate(428.625 0)"/>
      <use xlink:href="#DejaVuSans-Bold-f" transform="translate(488.140625 0)"/>
      <use xlink:href="#DejaVuSans-Bold-3" transform="translate(526.125 0)"/>
      <use xlink:href="#DejaVuSans-Bold-4f" transform="translate(560.9375 0)"/>
      <use xlink:href="#DejaVuSans-Bold-52" transform="translate(595.21875 0)"/>
      <use xlink:href="#DejaVuSans-Bold-4a" transform="translate(663.921875 0)"/>
      <use xlink:href="#DejaVuSans-Bold-3" transform="translate(735.5 0)"/>
      <use xlink:href="#DejaVuSans-Bold-56" transform="translate(770.3125 0)"/>
      <use xlink:href="#DejaVuSans-Bold-46" transform="translate(829.828125 0)"/>
      <use xlink:href="#DejaVuSans-Bold-44" transform="translate(889.109375 0)"/>
      <use xlink:href="#DejaVuSans-Bold-4f" transform="translate(956.59375 0)"/>
      <use xlink:href="#DejaVuSans-Bold-48" transform="translate(990.875 0)"/>
      <use xlink:href="#DejaVuSans-Bold-c" transform="translate(1058.703125 0)"/>
     </g>
    </g>
   </g>
   <g id="line2d_27">
    <path d="M 88.101719 385.473637 
L 146.943811 246.117716 
L 220.496425 186.239637 
L 808.917344 46.415107 
" clip-path="url(#p2f9cf82a7c)" style="fill: none; stroke: #f77189; stroke-width: 2; stroke-linecap: round"/>
    <defs>
     <path id="me11a1cee9a" d="M 0 4 
C 1.060812 4 2.078319 3.578535 2.828427 2.828427 
C 3.578535 2.078319 4 1.060812 4 0 
C 4 -1.060812 3.578535 -2.078319 2.828427 -2.828427 
C 2.078319 -3.578535 1.060812 -4 0 -4 
C -1.060812 -4 -2.078319 -3.578535 -2.828427 -2.828427 
C -3.578535 -2.078319 -4 -1.060812 -4 0 
C -4 1.060812 -3.578535 2.078319 -2.828427 2.828427 
C -2.078319 3.578535 -1.060812 4 0 4 
z
" style="stroke: #f77189"/>
    </defs>
    <g clip-path="url(#p2f9cf82a7c)">
     <use xlink:href="#me11a1cee9a" x="88.101719" y="385.473637" style="fill: #f77189; stroke: #f77189"/>
     <use xlink:href="#me11a1cee9a" x="146.943811" y="246.117716" style="fill: #f77189; stroke: #f77189"/>
     <use xlink:href="#me11a1cee9a" x="220.496425" y="186.239637" style="fill: #f77189; stroke: #f77189"/>
     <use xlink:href="#me11a1cee9a" x="808.917344" y="46.415107" style="fill: #f77189; stroke: #f77189"/>
    </g>
   </g>
   <g id="line2d_28">
    <path d="M 88.101719 444.401416 
L 146.943811 307.10525 
L 220.496425 246.539347 
L 808.917344 107.761926 
" clip-path="url(#p2f9cf82a7c)" style="fill: none; stroke: #e68332; stroke-width: 2; stroke-linecap: round"/>
    <defs>
     <path id="mc1f1fbc469" d="M 0 4 
C 1.060812 4 2.078319 3.578535 2.828427 2.828427 
C 3.578535 2.078319 4 1.060812 4 0 
C 4 -1.060812 3.578535 -2.078319 2.828427 -2.828427 
C 2.078319 -3.578535 1.060812 -4 0 -4 
C -1.060812 -4 -2.078319 -3.578535 -2.828427 -2.828427 
C -3.578535 -2.078319 -4 -1.060812 -4 0 
C -4 1.060812 -3.578535 2.078319 -2.828427 2.828427 
C -2.078319 3.578535 -1.060812 4 0 4 
z
" style="stroke: #e68332"/>
    </defs>
    <g clip-path="url(#p2f9cf82a7c)">
     <use xlink:href="#mc1f1fbc469" x="88.101719" y="444.401416" style="fill: #e68332; stroke: #e68332"/>
     <use xlink:href="#mc1f1fbc469" x="146.943811" y="307.10525" style="fill: #e68332; stroke: #e68332"/>
     <use xlink:href="#mc1f1fbc469" x="220.496425" y="246.539347" style="fill: #e68332; stroke: #e68332"/>
     <use xlink:href="#mc1f1fbc469" x="808.917344" y="107.761926" style="fill: #e68332; stroke: #e68332"/>
    </g>
   </g>
   <g id="line2d_29">
    <path d="M 88.101719 460.158253 
L 146.943811 317.951464 
L 220.496425 259.35105 
L 808.917344 116.142006 
" clip-path="url(#p2f9cf82a7c)" style="fill: none; stroke: #bb9832; stroke-width: 2; stroke-linecap: round"/>
    <defs>
     <path id="m758b249922" d="M 0 4 
C 1.060812 4 2.078319 3.578535 2.828427 2.828427 
C 3.578535 2.078319 4 1.060812 4 0 
C 4 -1.060812 3.578535 -2.078319 2.828427 -2.828427 
C 2.078319 -3.578535 1.060812 -4 0 -4 
C -1.060812 -4 -2.078319 -3.578535 -2.828427 -2.828427 
C -3.578535 -2.078319 -4 -1.060812 -4 0 
C -4 1.060812 -3.578535 2.078319 -2.828427 2.828427 
C -2.078319 3.578535 -1.060812 4 0 4 
z
" style="stroke: #bb9832"/>
    </defs>
    <g clip-path="url(#p2f9cf82a7c)">
     <use xlink:href="#m758b249922" x="88.101719" y="460.158253" style="fill: #bb9832; stroke: #bb9832"/>
     <use xlink:href="#m758b249922" x="146.943811" y="317.951464" style="fill: #bb9832; stroke: #bb9832"/>
     <use xlink:href="#m758b249922" x="220.496425" y="259.35105" style="fill: #bb9832; stroke: #bb9832"/>
     <use xlink:href="#m758b249922" x="808.917344" y="116.142006" style="fill: #bb9832; stroke: #bb9832"/>
    </g>
   </g>
   <g id="line2d_30">
    <path d="M 88.101719 456.339981 
L 146.943811 309.238123 
L 220.496425 248.657452 
L 808.917344 106.495588 
" clip-path="url(#p2f9cf82a7c)" style="fill: none; stroke: #97a431; stroke-width: 2; stroke-linecap: round"/>
    <defs>
     <path id="m8a9e46295d" d="M 0 4 
C 1.060812 4 2.078319 3.578535 2.828427 2.828427 
C 3.578535 2.078319 4 1.060812 4 0 
C 4 -1.060812 3.578535 -2.078319 2.828427 -2.828427 
C 2.078319 -3.578535 1.060812 -4 0 -4 
C -1.060812 -4 -2.078319 -3.578535 -2.828427 -2.828427 
C -3.578535 -2.078319 -4 -1.060812 -4 0 
C -4 1.060812 -3.578535 2.078319 -2.828427 2.828427 
C -2.078319 3.578535 -1.060812 4 0 4 
z
" style="stroke: #97a431"/>
    </defs>
    <g clip-path="url(#p2f9cf82a7c)">
     <use xlink:href="#m8a9e46295d" x="88.101719" y="456.339981" style="fill: #97a431; stroke: #97a431"/>
     <use xlink:href="#m8a9e46295d" x="146.943811" y="309.238123" style="fill: #97a431; stroke: #97a431"/>
     <use xlink:href="#m8a9e46295d" x="220.496425" y="248.657452" style="fill: #97a431; stroke: #97a431"/>
     <use xlink:href="#m8a9e46295d" x="808.917344" y="106.495588" style="fill: #97a431; stroke: #97a431"/>
    </g>
   </g>
   <g id="line2d_31">
    <path d="M 88.101719 458.827556 
L 146.943811 318.876257 
L 220.496425 258.230728 
L 808.917344 113.914846 
" clip-path="url(#p2f9cf82a7c)" style="fill: none; stroke: #50b131; stroke-width: 2; stroke-linecap: round"/>
    <defs>
     <path id="m7c23ecf5ae" d="M 0 4 
C 1.060812 4 2.078319 3.578535 2.828427 2.828427 
C 3.578535 2.078319 4 1.060812 4 0 
C 4 -1.060812 3.578535 -2.078319 2.828427 -2.828427 
C 2.078319 -3.578535 1.060812 -4 0 -4 
C -1.060812 -4 -2.078319 -3.578535 -2.828427 -2.828427 
C -3.578535 -2.078319 -4 -1.060812 -4 0 
C -4 1.060812 -3.578535 2.078319 -2.828427 2.828427 
C -2.078319 3.578535 -1.060812 4 0 4 
z
" style="stroke: #50b131"/>
    </defs>
    <g clip-path="url(#p2f9cf82a7c)">
     <use xlink:href="#m7c23ecf5ae" x="88.101719" y="458.827556" style="fill: #50b131; stroke: #50b131"/>
     <use xlink:href="#m7c23ecf5ae" x="146.943811" y="318.876257" style="fill: #50b131; stroke: #50b131"/>
     <use xlink:href="#m7c23ecf5ae" x="220.496425" y="258.230728" style="fill: #50b131; stroke: #50b131"/>
     <use xlink:href="#m7c23ecf5ae" x="808.917344" y="113.914846" style="fill: #50b131; stroke: #50b131"/>
    </g>
   </g>
   <g id="line2d_32">
    <path d="M 88.101719 464.959399 
L 146.943811 326.781476 
L 220.496425 267.030222 
L 808.917344 123.923517 
" clip-path="url(#p2f9cf82a7c)" style="fill: none; stroke: #34af84; stroke-width: 2; stroke-linecap: round"/>
    <defs>
     <path id="mb2f1eb9296" d="M 0 4 
C 1.060812 4 2.078319 3.578535 2.828427 2.828427 
C 3.578535 2.078319 4 1.060812 4 0 
C 4 -1.060812 3.578535 -2.078319 2.828427 -2.828427 
C 2.078319 -3.578535 1.060812 -4 0 -4 
C -1.060812 -4 -2.078319 -3.578535 -2.828427 -2.828427 
C -3.578535 -2.078319 -4 -1.060812 -4 0 
C -4 1.060812 -3.578535 2.078319 -2.828427 2.828427 
C -2.078319 3.578535 -1.060812 4 0 4 
z
" style="stroke: #34af84"/>
    </defs>
    <g clip-path="url(#p2f9cf82a7c)">
     <use xlink:href="#mb2f1eb9296" x="88.101719" y="464.959399" style="fill: #34af84; stroke: #34af84"/>
     <use xlink:href="#mb2f1eb9296" x="146.943811" y="326.781476" style="fill: #34af84; stroke: #34af84"/>
     <use xlink:href="#mb2f1eb9296" x="220.496425" y="267.030222" style="fill: #34af84; stroke: #34af84"/>
     <use xlink:href="#mb2f1eb9296" x="808.917344" y="123.923517" style="fill: #34af84; stroke: #34af84"/>
    </g>
   </g>
   <g id="line2d_33">
    <path d="M 88.101719 467.121776 
L 146.943811 333.54114 
L 220.496425 271.675667 
L 808.917344 128.512081 
" clip-path="url(#p2f9cf82a7c)" style="fill: none; stroke: #36ada4; stroke-width: 2; stroke-linecap: round"/>
    <defs>
     <path id="me535d06c58" d="M 0 4 
C 1.060812 4 2.078319 3.578535 2.828427 2.828427 
C 3.578535 2.078319 4 1.060812 4 0 
C 4 -1.060812 3.578535 -2.078319 2.828427 -2.828427 
C 2.078319 -3.578535 1.060812 -4 0 -4 
C -1.060812 -4 -2.078319 -3.578535 -2.828427 -2.828427 
C -3.578535 -2.078319 -4 -1.060812 -4 0 
C -4 1.060812 -3.578535 2.078319 -2.828427 2.828427 
C -2.078319 3.578535 -1.060812 4 0 4 
z
" style="stroke: #36ada4"/>
    </defs>
    <g clip-path="url(#p2f9cf82a7c)">
     <use xlink:href="#me535d06c58" x="88.101719" y="467.121776" style="fill: #36ada4; stroke: #36ada4"/>
     <use xlink:href="#me535d06c58" x="146.943811" y="333.54114" style="fill: #36ada4; stroke: #36ada4"/>
     <use xlink:href="#me535d06c58" x="220.496425" y="271.675667" style="fill: #36ada4; stroke: #36ada4"/>
     <use xlink:href="#me535d06c58" x="808.917344" y="128.512081" style="fill: #36ada4; stroke: #36ada4"/>
    </g>
   </g>
   <g id="line2d_34">
    <path d="M 88.101719 483.32769 
L 146.943811 347.727833 
L 220.496425 288.86803 
L 808.917344 147.082198 
" clip-path="url(#p2f9cf82a7c)" style="fill: none; stroke: #38aabf; stroke-width: 2; stroke-linecap: round"/>
    <defs>
     <path id="mfdf30ef289" d="M 0 4 
C 1.060812 4 2.078319 3.578535 2.828427 2.828427 
C 3.578535 2.078319 4 1.060812 4 0 
C 4 -1.060812 3.578535 -2.078319 2.828427 -2.828427 
C 2.078319 -3.578535 1.060812 -4 0 -4 
C -1.060812 -4 -2.078319 -3.578535 -2.828427 -2.828427 
C -3.578535 -2.078319 -4 -1.060812 -4 0 
C -4 1.060812 -3.578535 2.078319 -2.828427 2.828427 
C -2.078319 3.578535 -1.060812 4 0 4 
z
" style="stroke: #38aabf"/>
    </defs>
    <g clip-path="url(#p2f9cf82a7c)">
     <use xlink:href="#mfdf30ef289" x="88.101719" y="483.32769" style="fill: #38aabf; stroke: #38aabf"/>
     <use xlink:href="#mfdf30ef289" x="146.943811" y="347.727833" style="fill: #38aabf; stroke: #38aabf"/>
     <use xlink:href="#mfdf30ef289" x="220.496425" y="288.86803" style="fill: #38aabf; stroke: #38aabf"/>
     <use xlink:href="#mfdf30ef289" x="808.917344" y="147.082198" style="fill: #38aabf; stroke: #38aabf"/>
    </g>
   </g>
   <g id="line2d_35">
    <path d="M 88.101719 483.360545 
L 146.943811 353.277722 
L 220.496425 293.792104 
L 808.917344 153.558369 
" clip-path="url(#p2f9cf82a7c)" style="fill: none; stroke: #3ba3ec; stroke-width: 2; stroke-linecap: round"/>
    <defs>
     <path id="m036c461b50" d="M 0 4 
C 1.060812 4 2.078319 3.578535 2.828427 2.828427 
C 3.578535 2.078319 4 1.060812 4 0 
C 4 -1.060812 3.578535 -2.078319 2.828427 -2.828427 
C 2.078319 -3.578535 1.060812 -4 0 -4 
C -1.060812 -4 -2.078319 -3.578535 -2.828427 -2.828427 
C -3.578535 -2.078319 -4 -1.060812 -4 0 
C -4 1.060812 -3.578535 2.078319 -2.828427 2.828427 
C -2.078319 3.578535 -1.060812 4 0 4 
z
" style="stroke: #3ba3ec"/>
    </defs>
    <g clip-path="url(#p2f9cf82a7c)">
     <use xlink:href="#m036c461b50" x="88.101719" y="483.360545" style="fill: #3ba3ec; stroke: #3ba3ec"/>
     <use xlink:href="#m036c461b50" x="146.943811" y="353.277722" style="fill: #3ba3ec; stroke: #3ba3ec"/>
     <use xlink:href="#m036c461b50" x="220.496425" y="293.792104" style="fill: #3ba3ec; stroke: #3ba3ec"/>
     <use xlink:href="#m036c461b50" x="808.917344" y="153.558369" style="fill: #3ba3ec; stroke: #3ba3ec"/>
    </g>
   </g>
   <g id="line2d_36">
    <path d="M 88.101719 493.257986 
L 146.943811 360.256384 
L 220.496425 299.332252 
L 808.917344 160.914675 
" clip-path="url(#p2f9cf82a7c)" style="fill: none; stroke: #a48cf4; stroke-width: 2; stroke-linecap: round"/>
    <defs>
     <path id="mba3c530dae" d="M 0 4 
C 1.060812 4 2.078319 3.578535 2.828427 2.828427 
C 3.578535 2.078319 4 1.060812 4 0 
C 4 -1.060812 3.578535 -2.078319 2.828427 -2.828427 
C 2.078319 -3.578535 1.060812 -4 0 -4 
C -1.060812 -4 -2.078319 -3.578535 -2.828427 -2.828427 
C -3.578535 -2.078319 -4 -1.060812 -4 0 
C -4 1.060812 -3.578535 2.078319 -2.828427 2.828427 
C -2.078319 3.578535 -1.060812 4 0 4 
z
" style="stroke: #a48cf4"/>
    </defs>
    <g clip-path="url(#p2f9cf82a7c)">
     <use xlink:href="#mba3c530dae" x="88.101719" y="493.257986" style="fill: #a48cf4; stroke: #a48cf4"/>
     <use xlink:href="#mba3c530dae" x="146.943811" y="360.256384" style="fill: #a48cf4; stroke: #a48cf4"/>
     <use xlink:href="#mba3c530dae" x="220.496425" y="299.332252" style="fill: #a48cf4; stroke: #a48cf4"/>
     <use xlink:href="#mba3c530dae" x="808.917344" y="160.914675" style="fill: #a48cf4; stroke: #a48cf4"/>
    </g>
   </g>
   <g id="line2d_37">
    <path d="M 88.101719 497.960987 
L 146.943811 364.34842 
L 220.496425 306.669034 
L 808.917344 166.443027 
" clip-path="url(#p2f9cf82a7c)" style="fill: none; stroke: #e866f4; stroke-width: 2; stroke-linecap: round"/>
    <defs>
     <path id="m153ac09d47" d="M 0 4 
C 1.060812 4 2.078319 3.578535 2.828427 2.828427 
C 3.578535 2.078319 4 1.060812 4 0 
C 4 -1.060812 3.578535 -2.078319 2.828427 -2.828427 
C 2.078319 -3.578535 1.060812 -4 0 -4 
C -1.060812 -4 -2.078319 -3.578535 -2.828427 -2.828427 
C -3.578535 -2.078319 -4 -1.060812 -4 0 
C -4 1.060812 -3.578535 2.078319 -2.828427 2.828427 
C -2.078319 3.578535 -1.060812 4 0 4 
z
" style="stroke: #e866f4"/>
    </defs>
    <g clip-path="url(#p2f9cf82a7c)">
     <use xlink:href="#m153ac09d47" x="88.101719" y="497.960987" style="fill: #e866f4; stroke: #e866f4"/>
     <use xlink:href="#m153ac09d47" x="146.943811" y="364.34842" style="fill: #e866f4; stroke: #e866f4"/>
     <use xlink:href="#m153ac09d47" x="220.496425" y="306.669034" style="fill: #e866f4; stroke: #e866f4"/>
     <use xlink:href="#m153ac09d47" x="808.917344" y="166.443027" style="fill: #e866f4; stroke: #e866f4"/>
    </g>
   </g>
   <g id="line2d_38">
    <path d="M 88.101719 497.637974 
L 146.943811 368.462248 
L 220.496425 311.330463 
L 808.917344 172.263383 
" clip-path="url(#p2f9cf82a7c)" style="fill: none; stroke: #f668c2; stroke-width: 2; stroke-linecap: round"/>
    <defs>
     <path id="m885dec2ee0" d="M 0 4 
C 1.060812 4 2.078319 3.578535 2.828427 2.828427 
C 3.578535 2.078319 4 1.060812 4 0 
C 4 -1.060812 3.578535 -2.078319 2.828427 -2.828427 
C 2.078319 -3.578535 1.060812 -4 0 -4 
C -1.060812 -4 -2.078319 -3.578535 -2.828427 -2.828427 
C -3.578535 -2.078319 -4 -1.060812 -4 0 
C -4 1.060812 -3.578535 2.078319 -2.828427 2.828427 
C -2.078319 3.578535 -1.060812 4 0 4 
z
" style="stroke: #f668c2"/>
    </defs>
    <g clip-path="url(#p2f9cf82a7c)">
     <use xlink:href="#m885dec2ee0" x="88.101719" y="497.637974" style="fill: #f668c2; stroke: #f668c2"/>
     <use xlink:href="#m885dec2ee0" x="146.943811" y="368.462248" style="fill: #f668c2; stroke: #f668c2"/>
     <use xlink:href="#m885dec2ee0" x="220.496425" y="311.330463" style="fill: #f668c2; stroke: #f668c2"/>
     <use xlink:href="#m885dec2ee0" x="808.917344" y="172.263383" style="fill: #f668c2; stroke: #f668c2"/>
    </g>
   </g>
   <g id="patch_3">
    <path d="M 52.060938 520.538281 
L 52.060938 23.837812 
" style="fill: none; stroke: #cccccc; stroke-width: 1.25; stroke-linejoin: miter; stroke-linecap: square"/>
   </g>
   <g id="patch_4">
    <path d="M 844.958125 520.538281 
L 844.958125 23.837812 
" style="fill: none; stroke: #cccccc; stroke-width: 1.25; stroke-linejoin: miter; stroke-linecap: square"/>
   </g>
   <g id="patch_5">
    <path d="M 52.060937 520.538281 
L 844.958125 520.538281 
" style="fill: none; stroke: #cccccc; stroke-width: 1.25; stroke-linejoin: miter; stroke-linecap: square"/>
   </g>
   <g id="patch_6">
    <path d="M 52.060937 23.837812 
L 844.958125 23.837812 
" style="fill: none; stroke: #cccccc; stroke-width: 1.25; stroke-linejoin: miter; stroke-linecap: square"/>
   </g>
   <g id="text_11">
    <!-- Time vs Size - Deserialization -->
    <g style="fill: #262626" transform="translate(332.46375 17.837812) scale(0.14 -0.14)">
     <defs>
      <path id="DejaVuSans-Bold-10" d="M 347 2297 
L 2309 2297 
L 2309 1388 
L 347 1388 
L 347 2297 
z
" transform="scale(0.015625)"/>
     </defs>
     <use xlink:href="#DejaVuSans-Bold-37"/>
     <use xlink:href="#DejaVuSans-Bold-4c" transform="translate(68.21875 0)"/>
     <use xlink:href="#DejaVuSans-Bold-50" transform="translate(102.5 0)"/>
     <use xlink:href="#DejaVuSans-Bold-48" transform="translate(206.703125 0)"/>
     <use xlink:href="#DejaVuSans-Bold-3" transform="translate(274.53125 0)"/>
     <use xlink:href="#DejaVuSans-Bold-59" transform="translate(309.34375 0)"/>
     <use xlink:href="#DejaVuSans-Bold-56" transform="translate(374.53125 0)"/>
     <use xlink:href="#DejaVuSans-Bold-3" transform="translate(434.046875 0)"/>
     <use xlink:href="#DejaVuSans-Bold-36" transform="translate(468.859375 0)"/>
     <use xlink:href="#DejaVuSans-Bold-4c" transform="translate(540.875 0)"/>
     <use xlink:href="#DejaVuSans-Bold-5d" transform="translate(575.15625 0)"/>
     <use xlink:href="#DejaVuSans-Bold-48" transform="translate(633.359375 0)"/>
     <use xlink:href="#DejaVuSans-Bold-3" transform="translate(701.1875 0)"/>
     <use xlink:href="#DejaVuSans-Bold-10" transform="translate(736 0)"/>
     <use xlink:href="#DejaVuSans-Bold-3" transform="translate(777.5 0)"/>
     <use xlink:href="#DejaVuSans-Bold-27" transform="translate(812.3125 0)"/>
     <use xlink:href="#DejaVuSans-Bold-48" transform="translate(895.328125 0)"/>
     <use xlink:href="#DejaVuSans-Bold-56" transform="translate(963.15625 0)"/>
     <use xlink:href="#DejaVuSans-Bold-48" transform="translate(1022.671875 0)"/>
     <use xlink:href="#DejaVuSans-Bold-55" transform="translate(1090.5 0)"/>
     <use xlink:href="#DejaVuSans-Bold-4c" transform="translate(1139.8125 0)"/>
     <use xlink:href="#DejaVuSans-Bold-44" transform="translate(1174.09375 0)"/>
     <use xlink:href="#DejaVuSans-Bold-4f" transform="translate(1241.578125 0)"/>
     <use xlink:href="#DejaVuSans-Bold-4c" transform="translate(1275.859375 0)"/>
     <use xlink:href="#DejaVuSans-Bold-5d" transform="translate(1310.140625 0)"/>
     <use xlink:href="#DejaVuSans-Bold-44" transform="translate(1368.34375 0)"/>
     <use xlink:href="#DejaVuSans-Bold-57" transform="translate(1435.828125 0)"/>
     <use xlink:href="#DejaVuSans-Bold-4c" transform="translate(1483.625 0)"/>
     <use xlink:href="#DejaVuSans-Bold-52" transform="translate(1517.90625 0)"/>
     <use xlink:href="#DejaVuSans-Bold-51" transform="translate(1586.609375 0)"/>
    </g>
   </g>
   <g id="legend_1">
    <g id="patch_7">
     <path d="M 58.360937 126.542812 
L 222.076562 126.542812 
Q 223.876562 126.542812 223.876562 124.742812 
L 223.876562 30.137812 
Q 223.876562 28.337812 222.076562 28.337812 
L 58.360937 28.337812 
Q 56.560938 28.337812 56.560938 30.137812 
L 56.560938 124.742812 
Q 56.560938 126.542812 58.360937 126.542812 
z
" style="fill: #ffffff; opacity: 0.8; stroke: #cccccc; stroke-linejoin: miter"/>
    </g>
    <g id="text_12">
     <!-- Order -->
     <g style="fill: #262626" transform="translate(126.008594 39.53625) scale(0.1 -0.1)">
      <defs>
       <path id="DejaVuSans-32" d="M 2522 4238 
Q 1834 4238 1429 3725 
Q 1025 3213 1025 2328 
Q 1025 1447 1429 934 
Q 1834 422 2522 422 
Q 3209 422 3611 934 
Q 4013 1447 4013 2328 
Q 4013 3213 3611 3725 
Q 3209 4238 2522 4238 
z
M 2522 4750 
Q 3503 4750 4090 4092 
Q 4678 3434 4678 2328 
Q 4678 1225 4090 567 
Q 3503 -91 2522 -91 
Q 1538 -91 948 565 
Q 359 1222 359 2328 
Q 359 3434 948 4092 
Q 1538 4750 2522 4750 
z
" transform="scale(0.015625)"/>
       <path id="DejaVuSans-55" d="M 2631 2963 
Q 2534 3019 2420 3045 
Q 2306 3072 2169 3072 
Q 1681 3072 1420 2755 
Q 1159 2438 1159 1844 
L 1159 0 
L 581 0 
L 581 3500 
L 1159 3500 
L 1159 2956 
Q 1341 3275 1631 3429 
Q 1922 3584 2338 3584 
Q 2397 3584 2469 3576 
Q 2541 3569 2628 3553 
L 2631 2963 
z
" transform="scale(0.015625)"/>
       <path id="DejaVuSans-47" d="M 2906 2969 
L 2906 4863 
L 3481 4863 
L 3481 0 
L 2906 0 
L 2906 525 
Q 2725 213 2448 61 
Q 2172 -91 1784 -91 
Q 1150 -91 751 415 
Q 353 922 353 1747 
Q 353 2572 751 3078 
Q 1150 3584 1784 3584 
Q 2172 3584 2448 3432 
Q 2725 3281 2906 2969 
z
M 947 1747 
Q 947 1113 1208 752 
Q 1469 391 1925 391 
Q 2381 391 2643 752 
Q 2906 1113 2906 1747 
Q 2906 2381 2643 2742 
Q 2381 3103 1925 3103 
Q 1469 3103 1208 2742 
Q 947 2381 947 1747 
z
" transform="scale(0.015625)"/>
       <path id="DejaVuSans-48" d="M 3597 1894 
L 3597 1613 
L 953 1613 
Q 991 1019 1311 708 
Q 1631 397 2203 397 
Q 2534 397 2845 478 
Q 3156 559 3463 722 
L 3463 178 
Q 3153 47 2828 -22 
Q 2503 -91 2169 -91 
Q 1331 -91 842 396 
Q 353 884 353 1716 
Q 353 2575 817 3079 
Q 1281 3584 2069 3584 
Q 2775 3584 3186 3129 
Q 3597 2675 3597 1894 
z
M 3022 2063 
Q 3016 2534 2758 2815 
Q 2500 3097 2075 3097 
Q 1594 3097 1305 2825 
Q 1016 2553 972 2059 
L 3022 2063 
z
" transform="scale(0.015625)"/>
      </defs>
      <use xlink:href="#DejaVuSans-32"/>
      <use xlink:href="#DejaVuSans-55" transform="translate(78.71875 0)"/>
      <use xlink:href="#DejaVuSans-47" transform="translate(118.078125 0)"/>
      <use xlink:href="#DejaVuSans-48" transform="translate(181.5625 0)"/>
      <use xlink:href="#DejaVuSans-55" transform="translate(243.09375 0)"/>
     </g>
    </g>
    <g id="line2d_39">
     <path d="M 60.160938 50.127187 
L 69.160938 50.127187 
L 78.160938 50.127187 
" style="fill: none; stroke: #f77189; stroke-width: 2; stroke-linecap: round"/>
     <g>
      <use xlink:href="#me11a1cee9a" x="69.160938" y="50.127187" style="fill: #f77189; stroke: #f77189"/>
     </g>
    </g>
    <g id="text_13">
     <!-- order=3 -->
     <g style="fill: #262626" transform="translate(85.360938 53.277187) scale(0.09 -0.09)">
      <defs>
       <path id="DejaVuSans-52" d="M 1959 3097 
Q 1497 3097 1228 2736 
Q 959 2375 959 1747 
Q 959 1119 1226 758 
Q 1494 397 1959 397 
Q 2419 397 2687 759 
Q 2956 1122 2956 1747 
Q 2956 2369 2687 2733 
Q 2419 3097 1959 3097 
z
M 1959 3584 
Q 2709 3584 3137 3096 
Q 3566 2609 3566 1747 
Q 3566 888 3137 398 
Q 2709 -91 1959 -91 
Q 1206 -91 779 398 
Q 353 888 353 1747 
Q 353 2609 779 3096 
Q 1206 3584 1959 3584 
z
" transform="scale(0.015625)"/>
       <path id="DejaVuSans-20" d="M 678 2906 
L 4684 2906 
L 4684 2381 
L 678 2381 
L 678 2906 
z
M 678 1631 
L 4684 1631 
L 4684 1100 
L 678 1100 
L 678 1631 
z
" transform="scale(0.015625)"/>
      </defs>
      <use xlink:href="#DejaVuSans-52"/>
      <use xlink:href="#DejaVuSans-55" transform="translate(61.1875 0)"/>
      <use xlink:href="#DejaVuSans-47" transform="translate(100.546875 0)"/>
      <use xlink:href="#DejaVuSans-48" transform="translate(164.03125 0)"/>
      <use xlink:href="#DejaVuSans-55" transform="translate(225.5625 0)"/>
      <use xlink:href="#DejaVuSans-20" transform="translate(266.671875 0)"/>
      <use xlink:href="#DejaVuSans-16" transform="translate(350.46875 0)"/>
     </g>
    </g>
    <g id="line2d_40">
     <path d="M 60.160938 63.627891 
L 69.160938 63.627891 
L 78.160938 63.627891 
" style="fill: none; stroke: #e68332; stroke-width: 2; stroke-linecap: round"/>
     <g>
      <use xlink:href="#mc1f1fbc469" x="69.160938" y="63.627891" style="fill: #e68332; stroke: #e68332"/>
     </g>
    </g>
    <g id="text_14">
     <!-- order=5 -->
     <g style="fill: #262626" transform="translate(85.360938 66.777891) scale(0.09 -0.09)">
      <use xlink:href="#DejaVuSans-52"/>
      <use xlink:href="#DejaVuSans-55" transform="translate(61.1875 0)"/>
      <use xlink:href="#DejaVuSans-47" transform="translate(100.546875 0)"/>
      <use xlink:href="#DejaVuSans-48" transform="translate(164.03125 0)"/>
      <use xlink:href="#DejaVuSans-55" transform="translate(225.5625 0)"/>
      <use xlink:href="#DejaVuSans-20" transform="translate(266.671875 0)"/>
      <use xlink:href="#DejaVuSans-18" transform="translate(350.46875 0)"/>
     </g>
    </g>
    <g id="line2d_41">
     <path d="M 60.160938 77.128594 
L 69.160938 77.128594 
L 78.160938 77.128594 
" style="fill: none; stroke: #bb9832; stroke-width: 2; stroke-linecap: round"/>
     <g>
      <use xlink:href="#m758b249922" x="69.160938" y="77.128594" style="fill: #bb9832; stroke: #bb9832"/>
     </g>
    </g>
    <g id="text_15">
     <!-- order=10 -->
     <g style="fill: #262626" transform="translate(85.360938 80.278594) scale(0.09 -0.09)">
      <use xlink:href="#DejaVuSans-52"/>
      <use xlink:href="#DejaVuSans-55" transform="translate(61.1875 0)"/>
      <use xlink:href="#DejaVuSans-47" transform="translate(100.546875 0)"/>
      <use xlink:href="#DejaVuSans-48" transform="translate(164.03125 0)"/>
      <use xlink:href="#DejaVuSans-55" transform="translate(225.5625 0)"/>
      <use xlink:href="#DejaVuSans-20" transform="translate(266.671875 0)"/>
      <use xlink:href="#DejaVuSans-14" transform="translate(350.46875 0)"/>
      <use xlink:href="#DejaVuSans-13" transform="translate(414.09375 0)"/>
     </g>
    </g>
    <g id="line2d_42">
     <path d="M 60.160938 90.629297 
L 69.160938 90.629297 
L 78.160938 90.629297 
" style="fill: none; stroke: #97a431; stroke-width: 2; stroke-linecap: round"/>
     <g>
      <use xlink:href="#m8a9e46295d" x="69.160938" y="90.629297" style="fill: #97a431; stroke: #97a431"/>
     </g>
    </g>
    <g id="text_16">
     <!-- order=15 -->
     <g style="fill: #262626" transform="translate(85.360938 93.779297) scale(0.09 -0.09)">
      <use xlink:href="#DejaVuSans-52"/>
      <use xlink:href="#DejaVuSans-55" transform="translate(61.1875 0)"/>
      <use xlink:href="#DejaVuSans-47" transform="translate(100.546875 0)"/>
      <use xlink:href="#DejaVuSans-48" transform="translate(164.03125 0)"/>
      <use xlink:href="#DejaVuSans-55" transform="translate(225.5625 0)"/>
      <use xlink:href="#DejaVuSans-20" transform="translate(266.671875 0)"/>
      <use xlink:href="#DejaVuSans-14" transform="translate(350.46875 0)"/>
      <use xlink:href="#DejaVuSans-18" transform="translate(414.09375 0)"/>
     </g>
    </g>
    <g id="line2d_43">
     <path d="M 60.160938 104.13 
L 69.160938 104.13 
L 78.160938 104.13 
" style="fill: none; stroke: #50b131; stroke-width: 2; stroke-linecap: round"/>
     <g>
      <use xlink:href="#m7c23ecf5ae" x="69.160938" y="104.13" style="fill: #50b131; stroke: #50b131"/>
     </g>
    </g>
    <g id="text_17">
     <!-- order=20 -->
     <g style="fill: #262626" transform="translate(85.360938 107.28) scale(0.09 -0.09)">
      <use xlink:href="#DejaVuSans-52"/>
      <use xlink:href="#DejaVuSans-55" transform="translate(61.1875 0)"/>
      <use xlink:href="#DejaVuSans-47" transform="translate(100.546875 0)"/>
      <use xlink:href="#DejaVuSans-48" transform="translate(164.03125 0)"/>
      <use xlink:href="#DejaVuSans-55" transform="translate(225.5625 0)"/>
      <use xlink:href="#DejaVuSans-20" transform="translate(266.671875 0)"/>
      <use xlink:href="#DejaVuSans-15" transform="translate(350.46875 0)"/>
      <use xlink:href="#DejaVuSans-13" transform="translate(414.09375 0)"/>
     </g>
    </g>
    <g id="line2d_44">
     <path d="M 60.160938 117.630703 
L 69.160938 117.630703 
L 78.160938 117.630703 
" style="fill: none; stroke: #34af84; stroke-width: 2; stroke-linecap: round"/>
     <g>
      <use xlink:href="#mb2f1eb9296" x="69.160938" y="117.630703" style="fill: #34af84; stroke: #34af84"/>
     </g>
    </g>
    <g id="text_18">
     <!-- order=25 -->
     <g style="fill: #262626" transform="translate(85.360938 120.780703) scale(0.09 -0.09)">
      <use xlink:href="#DejaVuSans-52"/>
      <use xlink:href="#DejaVuSans-55" transform="translate(61.1875 0)"/>
      <use xlink:href="#DejaVuSans-47" transform="translate(100.546875 0)"/>
      <use xlink:href="#DejaVuSans-48" transform="translate(164.03125 0)"/>
      <use xlink:href="#DejaVuSans-55" transform="translate(225.5625 0)"/>
      <use xlink:href="#DejaVuSans-20" transform="translate(266.671875 0)"/>
      <use xlink:href="#DejaVuSans-15" transform="translate(350.46875 0)"/>
      <use xlink:href="#DejaVuSans-18" transform="translate(414.09375 0)"/>
     </g>
    </g>
    <g id="line2d_45">
     <path d="M 146.355625 50.127187 
L 155.355625 50.127187 
L 164.355625 50.127187 
" style="fill: none; stroke: #36ada4; stroke-width: 2; stroke-linecap: round"/>
     <g>
      <use xlink:href="#me535d06c58" x="155.355625" y="50.127187" style="fill: #36ada4; stroke: #36ada4"/>
     </g>
    </g>
    <g id="text_19">
     <!-- order=30 -->
     <g style="fill: #262626" transform="translate(171.555625 53.277187) scale(0.09 -0.09)">
      <use xlink:href="#DejaVuSans-52"/>
      <use xlink:href="#DejaVuSans-55" transform="translate(61.1875 0)"/>
      <use xlink:href="#DejaVuSans-47" transform="translate(100.546875 0)"/>
      <use xlink:href="#DejaVuSans-48" transform="translate(164.03125 0)"/>
      <use xlink:href="#DejaVuSans-55" transform="translate(225.5625 0)"/>
      <use xlink:href="#DejaVuSans-20" transform="translate(266.671875 0)"/>
      <use xlink:href="#DejaVuSans-16" transform="translate(350.46875 0)"/>
      <use xlink:href="#DejaVuSans-13" transform="translate(414.09375 0)"/>
     </g>
    </g>
    <g id="line2d_46">
     <path d="M 146.355625 63.627891 
L 155.355625 63.627891 
L 164.355625 63.627891 
" style="fill: none; stroke: #38aabf; stroke-width: 2; stroke-linecap: round"/>
     <g>
      <use xlink:href="#mfdf30ef289" x="155.355625" y="63.627891" style="fill: #38aabf; stroke: #38aabf"/>
     </g>
    </g>
    <g id="text_20">
     <!-- order=50 -->
     <g style="fill: #262626" transform="translate(171.555625 66.777891) scale(0.09 -0.09)">
      <use xlink:href="#DejaVuSans-52"/>
      <use xlink:href="#DejaVuSans-55" transform="translate(61.1875 0)"/>
      <use xlink:href="#DejaVuSans-47" transform="translate(100.546875 0)"/>
      <use xlink:href="#DejaVuSans-48" transform="translate(164.03125 0)"/>
      <use xlink:href="#DejaVuSans-55" transform="translate(225.5625 0)"/>
      <use xlink:href="#DejaVuSans-20" transform="translate(266.671875 0)"/>
      <use xlink:href="#DejaVuSans-18" transform="translate(350.46875 0)"/>
      <use xlink:href="#DejaVuSans-13" transform="translate(414.09375 0)"/>
     </g>
    </g>
    <g id="line2d_47">
     <path d="M 146.355625 77.128594 
L 155.355625 77.128594 
L 164.355625 77.128594 
" style="fill: none; stroke: #3ba3ec; stroke-width: 2; stroke-linecap: round"/>
     <g>
      <use xlink:href="#m036c461b50" x="155.355625" y="77.128594" style="fill: #3ba3ec; stroke: #3ba3ec"/>
     </g>
    </g>
    <g id="text_21">
     <!-- order=75 -->
     <g style="fill: #262626" transform="translate(171.555625 80.278594) scale(0.09 -0.09)">
      <defs>
       <path id="DejaVuSans-1a" d="M 525 4666 
L 3525 4666 
L 3525 4397 
L 1831 0 
L 1172 0 
L 2766 4134 
L 525 4134 
L 525 4666 
z
" transform="scale(0.015625)"/>
      </defs>
      <use xlink:href="#DejaVuSans-52"/>
      <use xlink:href="#DejaVuSans-55" transform="translate(61.1875 0)"/>
      <use xlink:href="#DejaVuSans-47" transform="translate(100.546875 0)"/>
      <use xlink:href="#DejaVuSans-48" transform="translate(164.03125 0)"/>
      <use xlink:href="#DejaVuSans-55" transform="translate(225.5625 0)"/>
      <use xlink:href="#DejaVuSans-20" transform="translate(266.671875 0)"/>
      <use xlink:href="#DejaVuSans-1a" transform="translate(350.46875 0)"/>
      <use xlink:href="#DejaVuSans-18" transform="translate(414.09375 0)"/>
     </g>
    </g>
    <g id="line2d_48">
     <path d="M 146.355625 90.629297 
L 155.355625 90.629297 
L 164.355625 90.629297 
" style="fill: none; stroke: #a48cf4; stroke-width: 2; stroke-linecap: round"/>
     <g>
      <use xlink:href="#mba3c530dae" x="155.355625" y="90.629297" style="fill: #a48cf4; stroke: #a48cf4"/>
     </g>
    </g>
    <g id="text_22">
     <!-- order=100 -->
     <g style="fill: #262626" transform="translate(171.555625 93.779297) scale(0.09 -0.09)">
      <use xlink:href="#DejaVuSans-52"/>
      <use xlink:href="#DejaVuSans-55" transform="translate(61.1875 0)"/>
      <use xlink:href="#DejaVuSans-47" transform="translate(100.546875 0)"/>
      <use xlink:href="#DejaVuSans-48" transform="translate(164.03125 0)"/>
      <use xlink:href="#DejaVuSans-55" transform="translate(225.5625 0)"/>
      <use xlink:href="#DejaVuSans-20" transform="translate(266.671875 0)"/>
      <use xlink:href="#DejaVuSans-14" transform="translate(350.46875 0)"/>
      <use xlink:href="#DejaVuSans-13" transform="translate(414.09375 0)"/>
      <use xlink:href="#DejaVuSans-13" transform="translate(477.71875 0)"/>
     </g>
    </g>
    <g id="line2d_49">
     <path d="M 146.355625 104.13 
L 155.355625 104.13 
L 164.355625 104.13 
" style="fill: none; stroke: #e866f4; stroke-width: 2; stroke-linecap: round"/>
     <g>
      <use xlink:href="#m153ac09d47" x="155.355625" y="104.13" style="fill: #e866f4; stroke: #e866f4"/>
     </g>
    </g>
    <g id="text_23">
     <!-- order=150 -->
     <g style="fill: #262626" transform="translate(171.555625 107.28) scale(0.09 -0.09)">
      <use xlink:href="#DejaVuSans-52"/>
      <use xlink:href="#DejaVuSans-55" transform="translate(61.1875 0)"/>
      <use xlink:href="#DejaVuSans-47" transform="translate(100.546875 0)"/>
      <use xlink:href="#DejaVuSans-48" transform="translate(164.03125 0)"/>
      <use xlink:href="#DejaVuSans-55" transform="translate(225.5625 0)"/>
      <use xlink:href="#DejaVuSans-20" transform="translate(266.671875 0)"/>
      <use xlink:href="#DejaVuSans-14" transform="translate(350.46875 0)"/>
      <use xlink:href="#DejaVuSans-18" transform="translate(414.09375 0)"/>
      <use xlink:href="#DejaVuSans-13" transform="translate(477.71875 0)"/>
     </g>
    </g>
    <g id="line2d_50">
     <path d="M 146.355625 117.630703 
L 155.355625 117.630703 
L 164.355625 117.630703 
" style="fill: none; stroke: #f668c2; stroke-width: 2; stroke-linecap: round"/>
     <g>
      <use xlink:href="#m885dec2ee0" x="155.355625" y="117.630703" style="fill: #f668c2; stroke: #f668c2"/>
     </g>
    </g>
    <g id="text_24">
     <!-- order=200 -->
     <g style="fill: #262626" transform="translate(171.555625 120.780703) scale(0.09 -0.09)">
      <use xlink:href="#DejaVuSans-52"/>
      <use xlink:href="#DejaVuSans-55" transform="translate(61.1875 0)"/>
      <use xlink:href="#DejaVuSans-47" transform="translate(100.546875 0)"/>
      <use xlink:href="#DejaVuSans-48" transform="translate(164.03125 0)"/>
      <use xlink:href="#DejaVuSans-55" transform="translate(225.5625 0)"/>
      <use xlink:href="#DejaVuSans-20" transform="translate(266.671875 0)"/>
      <use xlink:href="#DejaVuSans-15" transform="translate(350.46875 0)"/>
      <use xlink:href="#DejaVuSans-13" transform="translate(414.09375 0)"/>
      <use xlink:href="#DejaVuSans-13" transform="translate(477.71875 0)"/>
     </g>
    </g>
   </g>
  </g>
 </g>
 <defs>
  <clipPath id="p2f9cf82a7c">
   <rect x="52.060938" y="23.837812" width="792.897188" height="496.700469"/>
  </clipPath>
 </defs>
</svg>
