<?xml version="1.0" encoding="utf-8" standalone="no"?>
<!DOCTYPE svg PUBLIC "-//W3C//DTD SVG 1.1//EN"
  "http://www.w3.org/Graphics/SVG/1.1/DTD/svg11.dtd">
<svg xmlns:xlink="http://www.w3.org/1999/xlink" width="850.832479pt" height="562.8175pt" viewBox="0 0 850.832479 562.8175" xmlns="http://www.w3.org/2000/svg" version="1.1">
 <metadata>
  <rdf:RDF xmlns:dc="http://purl.org/dc/elements/1.1/" xmlns:cc="http://creativecommons.org/ns#" xmlns:rdf="http://www.w3.org/1999/02/22-rdf-syntax-ns#">
   <cc:Work>
    <dc:type rdf:resource="http://purl.org/dc/dcmitype/StillImage"/>
    <dc:date>2026-05-07T16:47:02.609570</dc:date>
    <dc:format>image/svg+xml</dc:format>
    <dc:creator>
     <cc:Agent>
      <dc:title>Matplotlib v3.10.9, https://matplotlib.org/</dc:title>
     </cc:Agent>
    </dc:creator>
   </cc:Work>
  </rdf:RDF>
 </metadata>
 <defs>
  <style type="text/css">*{stroke-linejoin: round; stroke-linecap: butt}</style>
 </defs>
 <g id="figure_1">
  <g id="patch_1">
   <path d="M 0 562.8175 
L 850.832479 562.8175 
L 850.832479 0 
L 0 0 
z
" style="fill: #ffffff"/>
  </g>
  <g id="axes_1">
   <g id="patch_2">
    <path d="M 51.7675 519.857813 
L 843.632479 519.857813 
L 843.632479 23.837812 
L 51.7675 23.837812 
z
" style="fill: #ffffff"/>
   </g>
   <g id="matplotlib.axis_1">
    <g id="xtick_1">
     <g id="line2d_1">
      <path d="M 76.798765 519.857813 
L 76.798765 23.837812 
" clip-path="url(#pe84224448e)" style="fill: none; stroke: #cccccc; stroke-opacity: 0.3; stroke-linecap: round"/>
     </g>
     <g id="text_1">
      <!-- 0 -->
      <g style="fill: #262626" transform="translate(73.29939 537.716094) scale(0.11 -0.11)">
       <defs>
        <path id="DejaVuSans-30" d="M 2034 4250 
Q 1547 4250 1301 3770 
Q 1056 3291 1056 2328 
Q 1056 1369 1301 889 
Q 1547 409 2034 409 
Q 2525 409 2770 889 
Q 3016 1369 3016 2328 
Q 3016 3291 2770 3770 
Q 2525 4250 2034 4250 
z
M 2034 4750 
Q 2819 4750 3233 4129 
Q 3647 3509 3647 2328 
Q 3647 1150 3233 529 
Q 2819 -91 2034 -91 
Q 1250 -91 836 529 
Q 422 1150 422 2328 
Q 422 3509 836 4129 
Q 1250 4750 2034 4750 
z
" transform="scale(0.015625)"/>
       </defs>
       <use xlink:href="#DejaVuSans-30"/>
      </g>
     </g>
    </g>
    <g id="xtick_2">
     <g id="line2d_2">
      <path d="M 168.153746 519.857813 
L 168.153746 23.837812 
" clip-path="url(#pe84224448e)" style="fill: none; stroke: #cccccc; stroke-opacity: 0.3; stroke-linecap: round"/>
     </g>
     <g id="text_2">
      <!-- 25 -->
      <g style="fill: #262626" transform="translate(161.154996 537.716094) scale(0.11 -0.11)">
       <defs>
        <path id="DejaVuSans-32" d="M 1228 531 
L 3431 531 
L 3431 0 
L 469 0 
L 469 531 
Q 828 903 1448 1529 
Q 2069 2156 2228 2338 
Q 2531 2678 2651 2914 
Q 2772 3150 2772 3378 
Q 2772 3750 2511 3984 
Q 2250 4219 1831 4219 
Q 1534 4219 1204 4116 
Q 875 4013 500 3803 
L 500 4441 
Q 881 4594 1212 4672 
Q 1544 4750 1819 4750 
Q 2544 4750 2975 4387 
Q 3406 4025 3406 3419 
Q 3406 3131 3298 2873 
Q 3191 2616 2906 2266 
Q 2828 2175 2409 1742 
Q 1991 1309 1228 531 
z
" transform="scale(0.015625)"/>
        <path id="DejaVuSans-35" d="M 691 4666 
L 3169 4666 
L 3169 4134 
L 1269 4134 
L 1269 2991 
Q 1406 3038 1543 3061 
Q 1681 3084 1819 3084 
Q 2600 3084 3056 2656 
Q 3513 2228 3513 1497 
Q 3513 744 3044 326 
Q 2575 -91 1722 -91 
Q 1428 -91 1123 -41 
Q 819 9 494 109 
L 494 744 
Q 775 591 1075 516 
Q 1375 441 1709 441 
Q 2250 441 2565 725 
Q 2881 1009 2881 1497 
Q 2881 1984 2565 2268 
Q 2250 2553 1709 2553 
Q 1456 2553 1204 2497 
Q 953 2441 691 2322 
L 691 4666 
z
" transform="scale(0.015625)"/>
       </defs>
       <use xlink:href="#DejaVuSans-32"/>
       <use xlink:href="#DejaVuSans-35" transform="translate(63.623047 0)"/>
      </g>
     </g>
    </g>
    <g id="xtick_3">
     <g id="line2d_3">
      <path d="M 259.508728 519.857813 
L 259.508728 23.837812 
" clip-path="url(#pe84224448e)" style="fill: none; stroke: #cccccc; stroke-opacity: 0.3; stroke-linecap: round"/>
     </g>
     <g id="text_3">
      <!-- 50 -->
      <g style="fill: #262626" transform="translate(252.509978 537.716094) scale(0.11 -0.11)">
       <use xlink:href="#DejaVuSans-35"/>
       <use xlink:href="#DejaVuSans-30" transform="translate(63.623047 0)"/>
      </g>
     </g>
    </g>
    <g id="xtick_4">
     <g id="line2d_4">
      <path d="M 350.863709 519.857813 
L 350.863709 23.837812 
" clip-path="url(#pe84224448e)" style="fill: none; stroke: #cccccc; stroke-opacity: 0.3; stroke-linecap: round"/>
     </g>
     <g id="text_4">
      <!-- 75 -->
      <g style="fill: #262626" transform="translate(343.864959 537.716094) scale(0.11 -0.11)">
       <defs>
        <path id="DejaVuSans-37" d="M 525 4666 
L 3525 4666 
L 3525 4397 
L 1831 0 
L 1172 0 
L 2766 4134 
L 525 4134 
L 525 4666 
z
" transform="scale(0.015625)"/>
       </defs>
       <use xlink:href="#DejaVuSans-37"/>
       <use xlink:href="#DejaVuSans-35" transform="translate(63.623047 0)"/>
      </g>
     </g>
    </g>
    <g id="xtick_5">
     <g id="line2d_5">
      <path d="M 442.218691 519.857813 
L 442.218691 23.837812 
" clip-path="url(#pe84224448e)" style="fill: none; stroke: #cccccc; stroke-opacity: 0.3; stroke-linecap: round"/>
     </g>
     <g id="text_5">
      <!-- 100 -->
      <g style="fill: #262626" transform="translate(431.720566 537.716094) scale(0.11 -0.11)">
       <defs>
        <path id="DejaVuSans-31" d="M 794 531 
L 1825 531 
L 1825 4091 
L 703 3866 
L 703 4441 
L 1819 4666 
L 2450 4666 
L 2450 531 
L 3481 531 
L 3481 0 
L 794 0 
L 794 531 
z
" transform="scale(0.015625)"/>
       </defs>
       <use xlink:href="#DejaVuSans-31"/>
       <use xlink:href="#DejaVuSans-30" transform="translate(63.623047 0)"/>
       <use xlink:href="#DejaVuSans-30" transform="translate(127.246094 0)"/>
      </g>
     </g>
    </g>
    <g id="xtick_6">
     <g id="line2d_6">
      <path d="M 533.573672 519.857813 
L 533.573672 23.837812 
" clip-path="url(#pe84224448e)" style="fill: none; stroke: #cccccc; stroke-opacity: 0.3; stroke-linecap: round"/>
     </g>
     <g id="text_6">
      <!-- 125 -->
      <g style="fill: #262626" transform="translate(523.075547 537.716094) scale(0.11 -0.11)">
       <use xlink:href="#DejaVuSans-31"/>
       <use xlink:href="#DejaVuSans-32" transform="translate(63.623047 0)"/>
       <use xlink:href="#DejaVuSans-35" transform="translate(127.246094 0)"/>
      </g>
     </g>
    </g>
    <g id="xtick_7">
     <g id="line2d_7">
      <path d="M 624.928653 519.857813 
L 624.928653 23.837812 
" clip-path="url(#pe84224448e)" style="fill: none; stroke: #cccccc; stroke-opacity: 0.3; stroke-linecap: round"/>
     </g>
     <g id="text_7">
      <!-- 150 -->
      <g style="fill: #262626" transform="translate(614.430528 537.716094) scale(0.11 -0.11)">
       <use xlink:href="#DejaVuSans-31"/>
       <use xlink:href="#DejaVuSans-35" transform="translate(63.623047 0)"/>
       <use xlink:href="#DejaVuSans-30" transform="translate(127.246094 0)"/>
      </g>
     </g>
    </g>
    <g id="xtick_8">
     <g id="line2d_8">
      <path d="M 716.283635 519.857813 
L 716.283635 23.837812 
" clip-path="url(#pe84224448e)" style="fill: none; stroke: #cccccc; stroke-opacity: 0.3; stroke-linecap: round"/>
     </g>
     <g id="text_8">
      <!-- 175 -->
      <g style="fill: #262626" transform="translate(705.78551 537.716094) scale(0.11 -0.11)">
       <use xlink:href="#DejaVuSans-31"/>
       <use xlink:href="#DejaVuSans-37" transform="translate(63.623047 0)"/>
       <use xlink:href="#DejaVuSans-35" transform="translate(127.246094 0)"/>
      </g>
     </g>
    </g>
    <g id="xtick_9">
     <g id="line2d_9">
      <path d="M 807.638616 519.857813 
L 807.638616 23.837812 
" clip-path="url(#pe84224448e)" style="fill: none; stroke: #cccccc; stroke-opacity: 0.3; stroke-linecap: round"/>
     </g>
     <g id="text_9">
      <!-- 200 -->
      <g style="fill: #262626" transform="translate(797.140491 537.716094) scale(0.11 -0.11)">
       <use xlink:href="#DejaVuSans-32"/>
       <use xlink:href="#DejaVuSans-30" transform="translate(63.623047 0)"/>
       <use xlink:href="#DejaVuSans-30" transform="translate(127.246094 0)"/>
      </g>
     </g>
    </g>
    <g id="text_10">
     <!-- Order (k) -->
     <g style="fill: #262626" transform="translate(416.754052 553.121875) scale(0.12 -0.12)">
      <defs>
       <path id="DejaVuSans-Bold-4f" d="M 2719 3878 
Q 2169 3878 1866 3472 
Q 1563 3066 1563 2328 
Q 1563 1594 1866 1187 
Q 2169 781 2719 781 
Q 3272 781 3575 1187 
Q 3878 1594 3878 2328 
Q 3878 3066 3575 3472 
Q 3272 3878 2719 3878 
z
M 2719 4750 
Q 3844 4750 4481 4106 
Q 5119 3463 5119 2328 
Q 5119 1197 4481 553 
Q 3844 -91 2719 -91 
Q 1597 -91 958 553 
Q 319 1197 319 2328 
Q 319 3463 958 4106 
Q 1597 4750 2719 4750 
z
" transform="scale(0.015625)"/>
       <path id="DejaVuSans-Bold-72" d="M 3138 2547 
Q 2991 2616 2845 2648 
Q 2700 2681 2553 2681 
Q 2122 2681 1889 2404 
Q 1656 2128 1656 1613 
L 1656 0 
L 538 0 
L 538 3500 
L 1656 3500 
L 1656 2925 
Q 1872 3269 2151 3426 
Q 2431 3584 2822 3584 
Q 2878 3584 2943 3579 
Q 3009 3575 3134 3559 
L 3138 2547 
z
" transform="scale(0.015625)"/>
       <path id="DejaVuSans-Bold-64" d="M 2919 2988 
L 2919 4863 
L 4044 4863 
L 4044 0 
L 2919 0 
L 2919 506 
Q 2688 197 2409 53 
Q 2131 -91 1766 -91 
Q 1119 -91 703 423 
Q 288 938 288 1747 
Q 288 2556 703 3070 
Q 1119 3584 1766 3584 
Q 2128 3584 2408 3439 
Q 2688 3294 2919 2988 
z
M 2181 722 
Q 2541 722 2730 984 
Q 2919 1247 2919 1747 
Q 2919 2247 2730 2509 
Q 2541 2772 2181 2772 
Q 1825 2772 1636 2509 
Q 1447 2247 1447 1747 
Q 1447 1247 1636 984 
Q 1825 722 2181 722 
z
" transform="scale(0.015625)"/>
       <path id="DejaVuSans-Bold-65" d="M 4031 1759 
L 4031 1441 
L 1416 1441 
Q 1456 1047 1700 850 
Q 1944 653 2381 653 
Q 2734 653 3104 758 
Q 3475 863 3866 1075 
L 3866 213 
Q 3469 63 3072 -14 
Q 2675 -91 2278 -91 
Q 1328 -91 801 392 
Q 275 875 275 1747 
Q 275 2603 792 3093 
Q 1309 3584 2216 3584 
Q 3041 3584 3536 3087 
Q 4031 2591 4031 1759 
z
M 2881 2131 
Q 2881 2450 2695 2645 
Q 2509 2841 2209 2841 
Q 1884 2841 1681 2658 
Q 1478 2475 1428 2131 
L 2881 2131 
z
" transform="scale(0.015625)"/>
       <path id="DejaVuSans-Bold-20" transform="scale(0.015625)"/>
       <path id="DejaVuSans-Bold-28" d="M 2413 -844 
L 1484 -844 
Q 1006 -72 778 623 
Q 550 1319 550 2003 
Q 550 2688 779 3389 
Q 1009 4091 1484 4856 
L 2413 4856 
Q 2013 4116 1813 3408 
Q 1613 2700 1613 2009 
Q 1613 1319 1811 609 
Q 2009 -100 2413 -844 
z
" transform="scale(0.015625)"/>
       <path id="DejaVuSans-Bold-6b" d="M 538 4863 
L 1656 4863 
L 1656 2216 
L 2944 3500 
L 4244 3500 
L 2534 1894 
L 4378 0 
L 3022 0 
L 1656 1459 
L 1656 0 
L 538 0 
L 538 4863 
z
" transform="scale(0.015625)"/>
       <path id="DejaVuSans-Bold-29" d="M 513 -844 
Q 913 -100 1113 609 
Q 1313 1319 1313 2009 
Q 1313 2700 1113 3408 
Q 913 4116 513 4856 
L 1441 4856 
Q 1916 4091 2145 3389 
Q 2375 2688 2375 2003 
Q 2375 1319 2147 623 
Q 1919 -72 1441 -844 
L 513 -844 
z
" transform="scale(0.015625)"/>
      </defs>
      <use xlink:href="#DejaVuSans-Bold-4f"/>
      <use xlink:href="#DejaVuSans-Bold-72" transform="translate(85.009766 0)"/>
      <use xlink:href="#DejaVuSans-Bold-64" transform="translate(134.326172 0)"/>
      <use xlink:href="#DejaVuSans-Bold-65" transform="translate(205.908203 0)"/>
      <use xlink:href="#DejaVuSans-Bold-72" transform="translate(273.730469 0)"/>
      <use xlink:href="#DejaVuSans-Bold-20" transform="translate(323.046875 0)"/>
      <use xlink:href="#DejaVuSans-Bold-28" transform="translate(357.861328 0)"/>
      <use xlink:href="#DejaVuSans-Bold-6b" transform="translate(403.564453 0)"/>
      <use xlink:href="#DejaVuSans-Bold-29" transform="translate(470.068359 0)"/>
     </g>
    </g>
   </g>
   <g id="matplotlib.axis_2">
    <g id="ytick_1">
     <g id="line2d_10">
      <path d="M 51.7675 415.153333 
L 843.632479 415.153333 
" clip-path="url(#pe84224448e)" style="fill: none; stroke: #cccccc; stroke-opacity: 0.3; stroke-linecap: round"/>
     </g>
     <g id="text_11">
      <!-- $\mathdefault{10^{1}}$ -->
      <g style="fill: #262626" transform="translate(22.9075 419.332474) scale(0.11 -0.11)">
       <use xlink:href="#DejaVuSans-31" transform="translate(0 0.684375)"/>
       <use xlink:href="#DejaVuSans-30" transform="translate(63.623047 0.684375)"/>
       <use xlink:href="#DejaVuSans-31" transform="translate(128.203125 38.965625) scale(0.7)"/>
      </g>
     </g>
    </g>
    <g id="ytick_2">
     <g id="line2d_11">
      <path d="M 51.7675 244.582505 
L 843.632479 244.582505 
" clip-path="url(#pe84224448e)" style="fill: none; stroke: #cccccc; stroke-opacity: 0.3; stroke-linecap: round"/>
     </g>
     <g id="text_12">
      <!-- $\mathdefault{10^{2}}$ -->
      <g style="fill: #262626" transform="translate(22.9075 248.761646) scale(0.11 -0.11)">
       <use xlink:href="#DejaVuSans-31" transform="translate(0 0.765625)"/>
       <use xlink:href="#DejaVuSans-30" transform="translate(63.623047 0.765625)"/>
       <use xlink:href="#DejaVuSans-32" transform="translate(128.203125 39.046875) scale(0.7)"/>
      </g>
     </g>
    </g>
    <g id="ytick_3">
     <g id="line2d_12">
      <path d="M 51.7675 74.011677 
L 843.632479 74.011677 
" clip-path="url(#pe84224448e)" style="fill: none; stroke: #cccccc; stroke-opacity: 0.3; stroke-linecap: round"/>
     </g>
     <g id="text_13">
      <!-- $\mathdefault{10^{3}}$ -->
      <g style="fill: #262626" transform="translate(22.9075 78.190818) scale(0.11 -0.11)">
       <defs>
        <path id="DejaVuSans-33" d="M 2597 2516 
Q 3050 2419 3304 2112 
Q 3559 1806 3559 1356 
Q 3559 666 3084 287 
Q 2609 -91 1734 -91 
Q 1441 -91 1130 -33 
Q 819 25 488 141 
L 488 750 
Q 750 597 1062 519 
Q 1375 441 1716 441 
Q 2309 441 2620 675 
Q 2931 909 2931 1356 
Q 2931 1769 2642 2001 
Q 2353 2234 1838 2234 
L 1294 2234 
L 1294 2753 
L 1863 2753 
Q 2328 2753 2575 2939 
Q 2822 3125 2822 3475 
Q 2822 3834 2567 4026 
Q 2313 4219 1838 4219 
Q 1578 4219 1281 4162 
Q 984 4106 628 3988 
L 628 4550 
Q 988 4650 1302 4700 
Q 1616 4750 1894 4750 
Q 2613 4750 3031 4423 
Q 3450 4097 3450 3541 
Q 3450 3153 3228 2886 
Q 3006 2619 2597 2516 
z
" transform="scale(0.015625)"/>
       </defs>
       <use xlink:href="#DejaVuSans-31" transform="translate(0 0.765625)"/>
       <use xlink:href="#DejaVuSans-30" transform="translate(63.623047 0.765625)"/>
       <use xlink:href="#DejaVuSans-33" transform="translate(128.203125 39.046875) scale(0.7)"/>
      </g>
     </g>
    </g>
    <g id="ytick_4">
     <g id="line2d_13">
      <path d="M 51.7675 504.341193 
L 843.632479 504.341193 
" clip-path="url(#pe84224448e)" style="fill: none; stroke: #cccccc; stroke-opacity: 0.3; stroke-linecap: round"/>
     </g>
    </g>
    <g id="ytick_5">
     <g id="line2d_14">
      <path d="M 51.7675 483.03029 
L 843.632479 483.03029 
" clip-path="url(#pe84224448e)" style="fill: none; stroke: #cccccc; stroke-opacity: 0.3; stroke-linecap: round"/>
     </g>
    </g>
    <g id="ytick_6">
     <g id="line2d_15">
      <path d="M 51.7675 466.500269 
L 843.632479 466.500269 
" clip-path="url(#pe84224448e)" style="fill: none; stroke: #cccccc; stroke-opacity: 0.3; stroke-linecap: round"/>
     </g>
    </g>
    <g id="ytick_7">
     <g id="line2d_16">
      <path d="M 51.7675 452.994258 
L 843.632479 452.994258 
" clip-path="url(#pe84224448e)" style="fill: none; stroke: #cccccc; stroke-opacity: 0.3; stroke-linecap: round"/>
     </g>
    </g>
    <g id="ytick_8">
     <g id="line2d_17">
      <path d="M 51.7675 441.575089 
L 843.632479 441.575089 
" clip-path="url(#pe84224448e)" style="fill: none; stroke: #cccccc; stroke-opacity: 0.3; stroke-linecap: round"/>
     </g>
    </g>
    <g id="ytick_9">
     <g id="line2d_18">
      <path d="M 51.7675 431.683354 
L 843.632479 431.683354 
" clip-path="url(#pe84224448e)" style="fill: none; stroke: #cccccc; stroke-opacity: 0.3; stroke-linecap: round"/>
     </g>
    </g>
    <g id="ytick_10">
     <g id="line2d_19">
      <path d="M 51.7675 422.958226 
L 843.632479 422.958226 
" clip-path="url(#pe84224448e)" style="fill: none; stroke: #cccccc; stroke-opacity: 0.3; stroke-linecap: round"/>
     </g>
    </g>
    <g id="ytick_11">
     <g id="line2d_20">
      <path d="M 51.7675 363.806397 
L 843.632479 363.806397 
" clip-path="url(#pe84224448e)" style="fill: none; stroke: #cccccc; stroke-opacity: 0.3; stroke-linecap: round"/>
     </g>
    </g>
    <g id="ytick_12">
     <g id="line2d_21">
      <path d="M 51.7675 333.770366 
L 843.632479 333.770366 
" clip-path="url(#pe84224448e)" style="fill: none; stroke: #cccccc; stroke-opacity: 0.3; stroke-linecap: round"/>
     </g>
    </g>
    <g id="ytick_13">
     <g id="line2d_22">
      <path d="M 51.7675 312.459462 
L 843.632479 312.459462 
" clip-path="url(#pe84224448e)" style="fill: none; stroke: #cccccc; stroke-opacity: 0.3; stroke-linecap: round"/>
     </g>
    </g>
    <g id="ytick_14">
     <g id="line2d_23">
      <path d="M 51.7675 295.929441 
L 843.632479 295.929441 
" clip-path="url(#pe84224448e)" style="fill: none; stroke: #cccccc; stroke-opacity: 0.3; stroke-linecap: round"/>
     </g>
    </g>
    <g id="ytick_15">
     <g id="line2d_24">
      <path d="M 51.7675 282.42343 
L 843.632479 282.42343 
" clip-path="url(#pe84224448e)" style="fill: none; stroke: #cccccc; stroke-opacity: 0.3; stroke-linecap: round"/>
     </g>
    </g>
    <g id="ytick_16">
     <g id="line2d_25">
      <path d="M 51.7675 271.004261 
L 843.632479 271.004261 
" clip-path="url(#pe84224448e)" style="fill: none; stroke: #cccccc; stroke-opacity: 0.3; stroke-linecap: round"/>
     </g>
    </g>
    <g id="ytick_17">
     <g id="line2d_26">
      <path d="M 51.7675 261.112526 
L 843.632479 261.112526 
" clip-path="url(#pe84224448e)" style="fill: none; stroke: #cccccc; stroke-opacity: 0.3; stroke-linecap: round"/>
     </g>
    </g>
    <g id="ytick_18">
     <g id="line2d_27">
      <path d="M 51.7675 252.387398 
L 843.632479 252.387398 
" clip-path="url(#pe84224448e)" style="fill: none; stroke: #cccccc; stroke-opacity: 0.3; stroke-linecap: round"/>
     </g>
    </g>
    <g id="ytick_19">
     <g id="line2d_28">
      <path d="M 51.7675 193.23557 
L 843.632479 193.23557 
" clip-path="url(#pe84224448e)" style="fill: none; stroke: #cccccc; stroke-opacity: 0.3; stroke-linecap: round"/>
     </g>
    </g>
    <g id="ytick_20">
     <g id="line2d_29">
      <path d="M 51.7675 163.199538 
L 843.632479 163.199538 
" clip-path="url(#pe84224448e)" style="fill: none; stroke: #cccccc; stroke-opacity: 0.3; stroke-linecap: round"/>
     </g>
    </g>
    <g id="ytick_21">
     <g id="line2d_30">
      <path d="M 51.7675 141.888634 
L 843.632479 141.888634 
" clip-path="url(#pe84224448e)" style="fill: none; stroke: #cccccc; stroke-opacity: 0.3; stroke-linecap: round"/>
     </g>
    </g>
    <g id="ytick_22">
     <g id="line2d_31">
      <path d="M 51.7675 125.358613 
L 843.632479 125.358613 
" clip-path="url(#pe84224448e)" style="fill: none; stroke: #cccccc; stroke-opacity: 0.3; stroke-linecap: round"/>
     </g>
    </g>
    <g id="ytick_23">
     <g id="line2d_32">
      <path d="M 51.7675 111.852602 
L 843.632479 111.852602 
" clip-path="url(#pe84224448e)" style="fill: none; stroke: #cccccc; stroke-opacity: 0.3; stroke-linecap: round"/>
     </g>
    </g>
    <g id="ytick_24">
     <g id="line2d_33">
      <path d="M 51.7675 100.433433 
L 843.632479 100.433433 
" clip-path="url(#pe84224448e)" style="fill: none; stroke: #cccccc; stroke-opacity: 0.3; stroke-linecap: round"/>
     </g>
    </g>
    <g id="ytick_25">
     <g id="line2d_34">
      <path d="M 51.7675 90.541699 
L 843.632479 90.541699 
" clip-path="url(#pe84224448e)" style="fill: none; stroke: #cccccc; stroke-opacity: 0.3; stroke-linecap: round"/>
     </g>
    </g>
    <g id="ytick_26">
     <g id="line2d_35">
      <path d="M 51.7675 81.81657 
L 843.632479 81.81657 
" clip-path="url(#pe84224448e)" style="fill: none; stroke: #cccccc; stroke-opacity: 0.3; stroke-linecap: round"/>
     </g>
    </g>
    <g id="text_14">
     <!-- Time (μs, log scale) -->
     <g style="fill: #262626" transform="translate(16.318125 338.112188) rotate(-90) scale(0.12 -0.12)">
      <defs>
       <path id="DejaVuSans-Bold-54" d="M 31 4666 
L 4331 4666 
L 4331 3756 
L 2784 3756 
L 2784 0 
L 1581 0 
L 1581 3756 
L 31 3756 
L 31 4666 
z
" transform="scale(0.015625)"/>
       <path id="DejaVuSans-Bold-69" d="M 538 3500 
L 1656 3500 
L 1656 0 
L 538 0 
L 538 3500 
z
M 538 4863 
L 1656 4863 
L 1656 3950 
L 538 3950 
L 538 4863 
z
" transform="scale(0.015625)"/>
       <path id="DejaVuSans-Bold-6d" d="M 3781 2919 
Q 3994 3244 4286 3414 
Q 4578 3584 4928 3584 
Q 5531 3584 5847 3212 
Q 6163 2841 6163 2131 
L 6163 0 
L 5038 0 
L 5038 1825 
Q 5041 1866 5042 1909 
Q 5044 1953 5044 2034 
Q 5044 2406 4934 2573 
Q 4825 2741 4581 2741 
Q 4263 2741 4089 2478 
Q 3916 2216 3909 1719 
L 3909 0 
L 2784 0 
L 2784 1825 
Q 2784 2406 2684 2573 
Q 2584 2741 2328 2741 
Q 2006 2741 1831 2477 
Q 1656 2213 1656 1722 
L 1656 0 
L 531 0 
L 531 3500 
L 1656 3500 
L 1656 2988 
Q 1863 3284 2130 3434 
Q 2397 3584 2719 3584 
Q 3081 3584 3359 3409 
Q 3638 3234 3781 2919 
z
" transform="scale(0.015625)"/>
       <path id="DejaVuSans-Bold-3bc" d="M 544 -1338 
L 544 3500 
L 1672 3500 
L 1672 1466 
Q 1672 1103 1828 926 
Q 1984 750 2303 750 
Q 2625 750 2781 926 
Q 2938 1103 2938 1466 
L 2938 3500 
L 4063 3500 
L 4063 1159 
Q 4063 938 4114 850 
Q 4166 763 4288 763 
Q 4344 763 4395 778 
Q 4447 794 4506 831 
L 4506 50 
Q 4341 -22 4195 -56 
Q 4050 -91 3909 -91 
Q 3631 -91 3454 26 
Q 3278 144 3169 403 
Q 3022 156 2811 32 
Q 2600 -91 2322 -91 
Q 2091 -91 1928 -17 
Q 1766 56 1672 206 
L 1672 -1338 
L 544 -1338 
z
" transform="scale(0.015625)"/>
       <path id="DejaVuSans-Bold-73" d="M 3272 3391 
L 3272 2541 
Q 2913 2691 2578 2766 
Q 2244 2841 1947 2841 
Q 1628 2841 1473 2761 
Q 1319 2681 1319 2516 
Q 1319 2381 1436 2309 
Q 1553 2238 1856 2203 
L 2053 2175 
Q 2913 2066 3209 1816 
Q 3506 1566 3506 1031 
Q 3506 472 3093 190 
Q 2681 -91 1863 -91 
Q 1516 -91 1145 -36 
Q 775 19 384 128 
L 384 978 
Q 719 816 1070 734 
Q 1422 653 1784 653 
Q 2113 653 2278 743 
Q 2444 834 2444 1013 
Q 2444 1163 2330 1236 
Q 2216 1309 1875 1350 
L 1678 1375 
Q 931 1469 631 1722 
Q 331 1975 331 2491 
Q 331 3047 712 3315 
Q 1094 3584 1881 3584 
Q 2191 3584 2531 3537 
Q 2872 3491 3272 3391 
z
" transform="scale(0.015625)"/>
       <path id="DejaVuSans-Bold-2c" d="M 653 1209 
L 1778 1209 
L 1778 256 
L 1006 -909 
L 341 -909 
L 653 256 
L 653 1209 
z
" transform="scale(0.015625)"/>
       <path id="DejaVuSans-Bold-6c" d="M 538 4863 
L 1656 4863 
L 1656 0 
L 538 0 
L 538 4863 
z
" transform="scale(0.015625)"/>
       <path id="DejaVuSans-Bold-6f" d="M 2203 2784 
Q 1831 2784 1636 2517 
Q 1441 2250 1441 1747 
Q 1441 1244 1636 976 
Q 1831 709 2203 709 
Q 2569 709 2762 976 
Q 2956 1244 2956 1747 
Q 2956 2250 2762 2517 
Q 2569 2784 2203 2784 
z
M 2203 3584 
Q 3106 3584 3614 3096 
Q 4122 2609 4122 1747 
Q 4122 884 3614 396 
Q 3106 -91 2203 -91 
Q 1297 -91 786 396 
Q 275 884 275 1747 
Q 275 2609 786 3096 
Q 1297 3584 2203 3584 
z
" transform="scale(0.015625)"/>
       <path id="DejaVuSans-Bold-67" d="M 2919 594 
Q 2688 288 2409 144 
Q 2131 0 1766 0 
Q 1125 0 706 504 
Q 288 1009 288 1791 
Q 288 2575 706 3076 
Q 1125 3578 1766 3578 
Q 2131 3578 2409 3434 
Q 2688 3291 2919 2981 
L 2919 3500 
L 4044 3500 
L 4044 353 
Q 4044 -491 3511 -936 
Q 2978 -1381 1966 -1381 
Q 1638 -1381 1331 -1331 
Q 1025 -1281 716 -1178 
L 716 -306 
Q 1009 -475 1290 -558 
Q 1572 -641 1856 -641 
Q 2406 -641 2662 -400 
Q 2919 -159 2919 353 
L 2919 594 
z
M 2181 2772 
Q 1834 2772 1640 2515 
Q 1447 2259 1447 1791 
Q 1447 1309 1634 1061 
Q 1822 813 2181 813 
Q 2531 813 2725 1069 
Q 2919 1325 2919 1791 
Q 2919 2259 2725 2515 
Q 2531 2772 2181 2772 
z
" transform="scale(0.015625)"/>
       <path id="DejaVuSans-Bold-63" d="M 3366 3391 
L 3366 2478 
Q 3138 2634 2908 2709 
Q 2678 2784 2431 2784 
Q 1963 2784 1702 2511 
Q 1441 2238 1441 1747 
Q 1441 1256 1702 982 
Q 1963 709 2431 709 
Q 2694 709 2930 787 
Q 3166 866 3366 1019 
L 3366 103 
Q 3103 6 2833 -42 
Q 2563 -91 2291 -91 
Q 1344 -91 809 395 
Q 275 881 275 1747 
Q 275 2613 809 3098 
Q 1344 3584 2291 3584 
Q 2566 3584 2833 3536 
Q 3100 3488 3366 3391 
z
" transform="scale(0.015625)"/>
       <path id="DejaVuSans-Bold-61" d="M 2106 1575 
Q 1756 1575 1579 1456 
Q 1403 1338 1403 1106 
Q 1403 894 1545 773 
Q 1688 653 1941 653 
Q 2256 653 2472 879 
Q 2688 1106 2688 1447 
L 2688 1575 
L 2106 1575 
z
M 3816 1997 
L 3816 0 
L 2688 0 
L 2688 519 
Q 2463 200 2181 54 
Q 1900 -91 1497 -91 
Q 953 -91 614 226 
Q 275 544 275 1050 
Q 275 1666 698 1953 
Q 1122 2241 2028 2241 
L 2688 2241 
L 2688 2328 
Q 2688 2594 2478 2717 
Q 2269 2841 1825 2841 
Q 1466 2841 1156 2769 
Q 847 2697 581 2553 
L 581 3406 
Q 941 3494 1303 3539 
Q 1666 3584 2028 3584 
Q 2975 3584 3395 3211 
Q 3816 2838 3816 1997 
z
" transform="scale(0.015625)"/>
      </defs>
      <use xlink:href="#DejaVuSans-Bold-54"/>
      <use xlink:href="#DejaVuSans-Bold-69" transform="translate(68.212891 0)"/>
      <use xlink:href="#DejaVuSans-Bold-6d" transform="translate(102.490234 0)"/>
      <use xlink:href="#DejaVuSans-Bold-65" transform="translate(206.689453 0)"/>
      <use xlink:href="#DejaVuSans-Bold-20" transform="translate(274.511719 0)"/>
      <use xlink:href="#DejaVuSans-Bold-28" transform="translate(309.326172 0)"/>
      <use xlink:href="#DejaVuSans-Bold-3bc" transform="translate(355.029297 0)"/>
      <use xlink:href="#DejaVuSans-Bold-73" transform="translate(428.613281 0)"/>
      <use xlink:href="#DejaVuSans-Bold-2c" transform="translate(488.134766 0)"/>
      <use xlink:href="#DejaVuSans-Bold-20" transform="translate(526.123047 0)"/>
      <use xlink:href="#DejaVuSans-Bold-6c" transform="translate(560.9375 0)"/>
      <use xlink:href="#DejaVuSans-Bold-6f" transform="translate(595.214844 0)"/>
      <use xlink:href="#DejaVuSans-Bold-67" transform="translate(663.916016 0)"/>
      <use xlink:href="#DejaVuSans-Bold-20" transform="translate(735.498047 0)"/>
      <use xlink:href="#DejaVuSans-Bold-73" transform="translate(770.3125 0)"/>
      <use xlink:href="#DejaVuSans-Bold-63" transform="translate(829.833984 0)"/>
      <use xlink:href="#DejaVuSans-Bold-61" transform="translate(889.111328 0)"/>
      <use xlink:href="#DejaVuSans-Bold-6c" transform="translate(956.591797 0)"/>
      <use xlink:href="#DejaVuSans-Bold-65" transform="translate(990.869141 0)"/>
      <use xlink:href="#DejaVuSans-Bold-29" transform="translate(1058.691406 0)"/>
     </g>
    </g>
   </g>
   <g id="line2d_36">
    <path d="M 87.761363 382.097454 
L 95.069761 425.367776 
L 113.340757 459.701962 
L 131.611754 469.590919 
L 149.88275 474.870986 
L 168.153746 480.15838 
L 186.424743 484.207274 
L 259.508728 486.954428 
L 350.863709 491.222393 
L 442.218691 491.923204 
L 624.928653 497.184076 
L 807.638616 497.311449 
" clip-path="url(#pe84224448e)" style="fill: none; stroke: #4c72b0; stroke-width: 2; stroke-linecap: round"/>
    <defs>
     <path id="mc9d2871d7a" d="M 0 4 
C 1.060812 4 2.078319 3.578535 2.828427 2.828427 
C 3.578535 2.078319 4 1.060812 4 0 
C 4 -1.060812 3.578535 -2.078319 2.828427 -2.828427 
C 2.078319 -3.578535 1.060812 -4 0 -4 
C -1.060812 -4 -2.078319 -3.578535 -2.828427 -2.828427 
C -3.578535 -2.078319 -4 -1.060812 -4 0 
C -4 1.060812 -3.578535 2.078319 -2.828427 2.828427 
C -2.078319 3.578535 -1.060812 4 0 4 
z
" style="stroke: #4c72b0"/>
    </defs>
    <g clip-path="url(#pe84224448e)">
     <use xlink:href="#mc9d2871d7a" x="87.761363" y="382.097454" style="fill: #4c72b0; stroke: #4c72b0"/>
     <use xlink:href="#mc9d2871d7a" x="95.069761" y="425.367776" style="fill: #4c72b0; stroke: #4c72b0"/>
     <use xlink:href="#mc9d2871d7a" x="113.340757" y="459.701962" style="fill: #4c72b0; stroke: #4c72b0"/>
     <use xlink:href="#mc9d2871d7a" x="131.611754" y="469.590919" style="fill: #4c72b0; stroke: #4c72b0"/>
     <use xlink:href="#mc9d2871d7a" x="149.88275" y="474.870986" style="fill: #4c72b0; stroke: #4c72b0"/>
     <use xlink:href="#mc9d2871d7a" x="168.153746" y="480.15838" style="fill: #4c72b0; stroke: #4c72b0"/>
     <use xlink:href="#mc9d2871d7a" x="186.424743" y="484.207274" style="fill: #4c72b0; stroke: #4c72b0"/>
     <use xlink:href="#mc9d2871d7a" x="259.508728" y="486.954428" style="fill: #4c72b0; stroke: #4c72b0"/>
     <use xlink:href="#mc9d2871d7a" x="350.863709" y="491.222393" style="fill: #4c72b0; stroke: #4c72b0"/>
     <use xlink:href="#mc9d2871d7a" x="442.218691" y="491.923204" style="fill: #4c72b0; stroke: #4c72b0"/>
     <use xlink:href="#mc9d2871d7a" x="624.928653" y="497.184076" style="fill: #4c72b0; stroke: #4c72b0"/>
     <use xlink:href="#mc9d2871d7a" x="807.638616" y="497.311449" style="fill: #4c72b0; stroke: #4c72b0"/>
    </g>
   </g>
   <g id="line2d_37">
    <path d="M 87.761363 259.204297 
L 95.069761 298.913365 
L 113.340757 328.635019 
L 131.611754 338.772774 
L 149.88275 341.631284 
L 168.153746 341.666303 
L 186.424743 345.551292 
L 259.508728 352.992689 
L 350.863709 353.528593 
L 442.218691 355.262883 
L 624.928653 355.139373 
L 807.638616 354.011312 
" clip-path="url(#pe84224448e)" style="fill: none; stroke: #dd8452; stroke-width: 2; stroke-linecap: round"/>
    <defs>
     <path id="m3b7831278b" d="M 0 4 
C 1.060812 4 2.078319 3.578535 2.828427 2.828427 
C 3.578535 2.078319 4 1.060812 4 0 
C 4 -1.060812 3.578535 -2.078319 2.828427 -2.828427 
C 2.078319 -3.578535 1.060812 -4 0 -4 
C -1.060812 -4 -2.078319 -3.578535 -2.828427 -2.828427 
C -3.578535 -2.078319 -4 -1.060812 -4 0 
C -4 1.060812 -3.578535 2.078319 -2.828427 2.828427 
C -2.078319 3.578535 -1.060812 4 0 4 
z
" style="stroke: #dd8452"/>
    </defs>
    <g clip-path="url(#pe84224448e)">
     <use xlink:href="#m3b7831278b" x="87.761363" y="259.204297" style="fill: #dd8452; stroke: #dd8452"/>
     <use xlink:href="#m3b7831278b" x="95.069761" y="298.913365" style="fill: #dd8452; stroke: #dd8452"/>
     <use xlink:href="#m3b7831278b" x="113.340757" y="328.635019" style="fill: #dd8452; stroke: #dd8452"/>
     <use xlink:href="#m3b7831278b" x="131.611754" y="338.772774" style="fill: #dd8452; stroke: #dd8452"/>
     <use xlink:href="#m3b7831278b" x="149.88275" y="341.631284" style="fill: #dd8452; stroke: #dd8452"/>
     <use xlink:href="#m3b7831278b" x="168.153746" y="341.666303" style="fill: #dd8452; stroke: #dd8452"/>
     <use xlink:href="#m3b7831278b" x="186.424743" y="345.551292" style="fill: #dd8452; stroke: #dd8452"/>
     <use xlink:href="#m3b7831278b" x="259.508728" y="352.992689" style="fill: #dd8452; stroke: #dd8452"/>
     <use xlink:href="#m3b7831278b" x="350.863709" y="353.528593" style="fill: #dd8452; stroke: #dd8452"/>
     <use xlink:href="#m3b7831278b" x="442.218691" y="355.262883" style="fill: #dd8452; stroke: #dd8452"/>
     <use xlink:href="#m3b7831278b" x="624.928653" y="355.139373" style="fill: #dd8452; stroke: #dd8452"/>
     <use xlink:href="#m3b7831278b" x="807.638616" y="354.011312" style="fill: #dd8452; stroke: #dd8452"/>
    </g>
   </g>
   <g id="line2d_38">
    <path d="M 87.761363 183.825608 
L 95.069761 235.070877 
L 113.340757 272.584035 
L 131.611754 281.798151 
L 149.88275 283.949402 
L 168.153746 286.084098 
L 186.424743 288.323494 
L 259.508728 292.204131 
L 350.863709 294.077655 
L 442.218691 296.583191 
L 624.928653 296.880841 
L 807.638616 295.790779 
" clip-path="url(#pe84224448e)" style="fill: none; stroke: #55a868; stroke-width: 2; stroke-linecap: round"/>
    <defs>
     <path id="mccbc7384e8" d="M 0 4 
C 1.060812 4 2.078319 3.578535 2.828427 2.828427 
C 3.578535 2.078319 4 1.060812 4 0 
C 4 -1.060812 3.578535 -2.078319 2.828427 -2.828427 
C 2.078319 -3.578535 1.060812 -4 0 -4 
C -1.060812 -4 -2.078319 -3.578535 -2.828427 -2.828427 
C -3.578535 -2.078319 -4 -1.060812 -4 0 
C -4 1.060812 -3.578535 2.078319 -2.828427 2.828427 
C -2.078319 3.578535 -1.060812 4 0 4 
z
" style="stroke: #55a868"/>
    </defs>
    <g clip-path="url(#pe84224448e)">
     <use xlink:href="#mccbc7384e8" x="87.761363" y="183.825608" style="fill: #55a868; stroke: #55a868"/>
     <use xlink:href="#mccbc7384e8" x="95.069761" y="235.070877" style="fill: #55a868; stroke: #55a868"/>
     <use xlink:href="#mccbc7384e8" x="113.340757" y="272.584035" style="fill: #55a868; stroke: #55a868"/>
     <use xlink:href="#mccbc7384e8" x="131.611754" y="281.798151" style="fill: #55a868; stroke: #55a868"/>
     <use xlink:href="#mccbc7384e8" x="149.88275" y="283.949402" style="fill: #55a868; stroke: #55a868"/>
     <use xlink:href="#mccbc7384e8" x="168.153746" y="286.084098" style="fill: #55a868; stroke: #55a868"/>
     <use xlink:href="#mccbc7384e8" x="186.424743" y="288.323494" style="fill: #55a868; stroke: #55a868"/>
     <use xlink:href="#mccbc7384e8" x="259.508728" y="292.204131" style="fill: #55a868; stroke: #55a868"/>
     <use xlink:href="#mccbc7384e8" x="350.863709" y="294.077655" style="fill: #55a868; stroke: #55a868"/>
     <use xlink:href="#mccbc7384e8" x="442.218691" y="296.583191" style="fill: #55a868; stroke: #55a868"/>
     <use xlink:href="#mccbc7384e8" x="624.928653" y="296.880841" style="fill: #55a868; stroke: #55a868"/>
     <use xlink:href="#mccbc7384e8" x="807.638616" y="295.790779" style="fill: #55a868; stroke: #55a868"/>
    </g>
   </g>
   <g id="line2d_39">
    <path d="M 87.761363 46.384176 
L 95.069761 85.394683 
L 113.340757 114.421959 
L 131.611754 123.517291 
L 149.88275 127.10919 
L 168.153746 128.881623 
L 186.424743 131.853556 
L 259.508728 130.691675 
L 350.863709 128.314279 
L 442.218691 126.114266 
L 624.928653 128.066465 
L 807.638616 128.188101 
" clip-path="url(#pe84224448e)" style="fill: none; stroke: #c44e52; stroke-width: 2; stroke-linecap: round"/>
    <defs>
     <path id="mb4ced74ab1" d="M 0 4 
C 1.060812 4 2.078319 3.578535 2.828427 2.828427 
C 3.578535 2.078319 4 1.060812 4 0 
C 4 -1.060812 3.578535 -2.078319 2.828427 -2.828427 
C 2.078319 -3.578535 1.060812 -4 0 -4 
C -1.060812 -4 -2.078319 -3.578535 -2.828427 -2.828427 
C -3.578535 -2.078319 -4 -1.060812 -4 0 
C -4 1.060812 -3.578535 2.078319 -2.828427 2.828427 
C -2.078319 3.578535 -1.060812 4 0 4 
z
" style="stroke: #c44e52"/>
    </defs>
    <g clip-path="url(#pe84224448e)">
     <use xlink:href="#mb4ced74ab1" x="87.761363" y="46.384176" style="fill: #c44e52; stroke: #c44e52"/>
     <use xlink:href="#mb4ced74ab1" x="95.069761" y="85.394683" style="fill: #c44e52; stroke: #c44e52"/>
     <use xlink:href="#mb4ced74ab1" x="113.340757" y="114.421959" style="fill: #c44e52; stroke: #c44e52"/>
     <use xlink:href="#mb4ced74ab1" x="131.611754" y="123.517291" style="fill: #c44e52; stroke: #c44e52"/>
     <use xlink:href="#mb4ced74ab1" x="149.88275" y="127.10919" style="fill: #c44e52; stroke: #c44e52"/>
     <use xlink:href="#mb4ced74ab1" x="168.153746" y="128.881623" style="fill: #c44e52; stroke: #c44e52"/>
     <use xlink:href="#mb4ced74ab1" x="186.424743" y="131.853556" style="fill: #c44e52; stroke: #c44e52"/>
     <use xlink:href="#mb4ced74ab1" x="259.508728" y="130.691675" style="fill: #c44e52; stroke: #c44e52"/>
     <use xlink:href="#mb4ced74ab1" x="350.863709" y="128.314279" style="fill: #c44e52; stroke: #c44e52"/>
     <use xlink:href="#mb4ced74ab1" x="442.218691" y="126.114266" style="fill: #c44e52; stroke: #c44e52"/>
     <use xlink:href="#mb4ced74ab1" x="624.928653" y="128.066465" style="fill: #c44e52; stroke: #c44e52"/>
     <use xlink:href="#mb4ced74ab1" x="807.638616" y="128.188101" style="fill: #c44e52; stroke: #c44e52"/>
    </g>
   </g>
   <g id="patch_3">
    <path d="M 51.7675 519.857813 
L 51.7675 23.837812 
" style="fill: none; stroke: #cccccc; stroke-width: 1.25; stroke-linejoin: miter; stroke-linecap: square"/>
   </g>
   <g id="patch_4">
    <path d="M 843.632479 519.857813 
L 843.632479 23.837812 
" style="fill: none; stroke: #cccccc; stroke-width: 1.25; stroke-linejoin: miter; stroke-linecap: square"/>
   </g>
   <g id="patch_5">
    <path d="M 51.7675 519.857813 
L 843.632479 519.857813 
" style="fill: none; stroke: #cccccc; stroke-width: 1.25; stroke-linejoin: miter; stroke-linecap: square"/>
   </g>
   <g id="patch_6">
    <path d="M 51.7675 23.837812 
L 843.632479 23.837812 
" style="fill: none; stroke: #cccccc; stroke-width: 1.25; stroke-linejoin: miter; stroke-linecap: square"/>
   </g>
   <g id="text_15">
    <!-- Time vs Order - Unsorted -->
    <g style="fill: #262626" transform="translate(348.289052 17.837812) scale(0.14 -0.14)">
     <defs>
      <path id="DejaVuSans-Bold-76" d="M 97 3500 
L 1216 3500 
L 2088 1081 
L 2956 3500 
L 4078 3500 
L 2700 0 
L 1472 0 
L 97 3500 
z
" transform="scale(0.015625)"/>
      <path id="DejaVuSans-Bold-2d" d="M 347 2297 
L 2309 2297 
L 2309 1388 
L 347 1388 
L 347 2297 
z
" transform="scale(0.015625)"/>
      <path id="DejaVuSans-Bold-55" d="M 588 4666 
L 1791 4666 
L 1791 1869 
Q 1791 1291 1980 1042 
Q 2169 794 2597 794 
Q 3028 794 3217 1042 
Q 3406 1291 3406 1869 
L 3406 4666 
L 4609 4666 
L 4609 1869 
Q 4609 878 4112 393 
Q 3616 -91 2597 -91 
Q 1581 -91 1084 393 
Q 588 878 588 1869 
L 588 4666 
z
" transform="scale(0.015625)"/>
      <path id="DejaVuSans-Bold-6e" d="M 4056 2131 
L 4056 0 
L 2931 0 
L 2931 347 
L 2931 1631 
Q 2931 2084 2911 2256 
Q 2891 2428 2841 2509 
Q 2775 2619 2662 2680 
Q 2550 2741 2406 2741 
Q 2056 2741 1856 2470 
Q 1656 2200 1656 1722 
L 1656 0 
L 538 0 
L 538 3500 
L 1656 3500 
L 1656 2988 
Q 1909 3294 2193 3439 
Q 2478 3584 2822 3584 
Q 3428 3584 3742 3212 
Q 4056 2841 4056 2131 
z
" transform="scale(0.015625)"/>
      <path id="DejaVuSans-Bold-74" d="M 1759 4494 
L 1759 3500 
L 2913 3500 
L 2913 2700 
L 1759 2700 
L 1759 1216 
Q 1759 972 1856 886 
Q 1953 800 2241 800 
L 2816 800 
L 2816 0 
L 1856 0 
Q 1194 0 917 276 
Q 641 553 641 1216 
L 641 2700 
L 84 2700 
L 84 3500 
L 641 3500 
L 641 4494 
L 1759 4494 
z
" transform="scale(0.015625)"/>
     </defs>
     <use xlink:href="#DejaVuSans-Bold-54"/>
     <use xlink:href="#DejaVuSans-Bold-69" transform="translate(68.212891 0)"/>
     <use xlink:href="#DejaVuSans-Bold-6d" transform="translate(102.490234 0)"/>
     <use xlink:href="#DejaVuSans-Bold-65" transform="translate(206.689453 0)"/>
     <use xlink:href="#DejaVuSans-Bold-20" transform="translate(274.511719 0)"/>
     <use xlink:href="#DejaVuSans-Bold-76" transform="translate(309.326172 0)"/>
     <use xlink:href="#DejaVuSans-Bold-73" transform="translate(374.511719 0)"/>
     <use xlink:href="#DejaVuSans-Bold-20" transform="translate(434.033203 0)"/>
     <use xlink:href="#DejaVuSans-Bold-4f" transform="translate(468.847656 0)"/>
     <use xlink:href="#DejaVuSans-Bold-72" transform="translate(553.857422 0)"/>
     <use xlink:href="#DejaVuSans-Bold-64" transform="translate(603.173828 0)"/>
     <use xlink:href="#DejaVuSans-Bold-65" transform="translate(674.755859 0)"/>
     <use xlink:href="#DejaVuSans-Bold-72" transform="translate(742.578125 0)"/>
     <use xlink:href="#DejaVuSans-Bold-20" transform="translate(791.894531 0)"/>
     <use xlink:href="#DejaVuSans-Bold-2d" transform="translate(826.708984 0)"/>
     <use xlink:href="#DejaVuSans-Bold-20" transform="translate(868.212891 0)"/>
     <use xlink:href="#DejaVuSans-Bold-55" transform="translate(903.027344 0)"/>
     <use xlink:href="#DejaVuSans-Bold-6e" transform="translate(984.228516 0)"/>
     <use xlink:href="#DejaVuSans-Bold-73" transform="translate(1055.419922 0)"/>
     <use xlink:href="#DejaVuSans-Bold-6f" transform="translate(1114.941406 0)"/>
     <use xlink:href="#DejaVuSans-Bold-72" transform="translate(1183.642578 0)"/>
     <use xlink:href="#DejaVuSans-Bold-74" transform="translate(1232.958984 0)"/>
     <use xlink:href="#DejaVuSans-Bold-65" transform="translate(1280.761719 0)"/>
     <use xlink:href="#DejaVuSans-Bold-64" transform="translate(1348.583984 0)"/>
    </g>
   </g>
   <g id="legend_1">
    <g id="patch_7">
     <path d="M 732.669979 106.19625 
L 836.632479 106.19625 
Q 838.632479 106.19625 838.632479 104.19625 
L 838.632479 30.837812 
Q 838.632479 28.837812 836.632479 28.837812 
L 732.669979 28.837812 
Q 730.669979 28.837812 730.669979 30.837812 
L 730.669979 104.19625 
Q 730.669979 106.19625 732.669979 106.19625 
z
" style="fill: #ffffff; opacity: 0.8; stroke: #cccccc; stroke-linejoin: miter"/>
    </g>
    <g id="text_16">
     <!-- Dataset Size -->
     <g style="fill: #262626" transform="translate(750.075135 41.196094) scale(0.11 -0.11)">
      <defs>
       <path id="DejaVuSans-44" d="M 1259 4147 
L 1259 519 
L 2022 519 
Q 2988 519 3436 956 
Q 3884 1394 3884 2338 
Q 3884 3275 3436 3711 
Q 2988 4147 2022 4147 
L 1259 4147 
z
M 628 4666 
L 1925 4666 
Q 3281 4666 3915 4102 
Q 4550 3538 4550 2338 
Q 4550 1131 3912 565 
Q 3275 0 1925 0 
L 628 0 
L 628 4666 
z
" transform="scale(0.015625)"/>
       <path id="DejaVuSans-61" d="M 2194 1759 
Q 1497 1759 1228 1600 
Q 959 1441 959 1056 
Q 959 750 1161 570 
Q 1363 391 1709 391 
Q 2188 391 2477 730 
Q 2766 1069 2766 1631 
L 2766 1759 
L 2194 1759 
z
M 3341 1997 
L 3341 0 
L 2766 0 
L 2766 531 
Q 2569 213 2275 61 
Q 1981 -91 1556 -91 
Q 1019 -91 701 211 
Q 384 513 384 1019 
Q 384 1609 779 1909 
Q 1175 2209 1959 2209 
L 2766 2209 
L 2766 2266 
Q 2766 2663 2505 2880 
Q 2244 3097 1772 3097 
Q 1472 3097 1187 3025 
Q 903 2953 641 2809 
L 641 3341 
Q 956 3463 1253 3523 
Q 1550 3584 1831 3584 
Q 2591 3584 2966 3190 
Q 3341 2797 3341 1997 
z
" transform="scale(0.015625)"/>
       <path id="DejaVuSans-74" d="M 1172 4494 
L 1172 3500 
L 2356 3500 
L 2356 3053 
L 1172 3053 
L 1172 1153 
Q 1172 725 1289 603 
Q 1406 481 1766 481 
L 2356 481 
L 2356 0 
L 1766 0 
Q 1100 0 847 248 
Q 594 497 594 1153 
L 594 3053 
L 172 3053 
L 172 3500 
L 594 3500 
L 594 4494 
L 1172 4494 
z
" transform="scale(0.015625)"/>
       <path id="DejaVuSans-73" d="M 2834 3397 
L 2834 2853 
Q 2591 2978 2328 3040 
Q 2066 3103 1784 3103 
Q 1356 3103 1142 2972 
Q 928 2841 928 2578 
Q 928 2378 1081 2264 
Q 1234 2150 1697 2047 
L 1894 2003 
Q 2506 1872 2764 1633 
Q 3022 1394 3022 966 
Q 3022 478 2636 193 
Q 2250 -91 1575 -91 
Q 1294 -91 989 -36 
Q 684 19 347 128 
L 347 722 
Q 666 556 975 473 
Q 1284 391 1588 391 
Q 1994 391 2212 530 
Q 2431 669 2431 922 
Q 2431 1156 2273 1281 
Q 2116 1406 1581 1522 
L 1381 1569 
Q 847 1681 609 1914 
Q 372 2147 372 2553 
Q 372 3047 722 3315 
Q 1072 3584 1716 3584 
Q 2034 3584 2315 3537 
Q 2597 3491 2834 3397 
z
" transform="scale(0.015625)"/>
       <path id="DejaVuSans-65" d="M 3597 1894 
L 3597 1613 
L 953 1613 
Q 991 1019 1311 708 
Q 1631 397 2203 397 
Q 2534 397 2845 478 
Q 3156 559 3463 722 
L 3463 178 
Q 3153 47 2828 -22 
Q 2503 -91 2169 -91 
Q 1331 -91 842 396 
Q 353 884 353 1716 
Q 353 2575 817 3079 
Q 1281 3584 2069 3584 
Q 2775 3584 3186 3129 
Q 3597 2675 3597 1894 
z
M 3022 2063 
Q 3016 2534 2758 2815 
Q 2500 3097 2075 3097 
Q 1594 3097 1305 2825 
Q 1016 2553 972 2059 
L 3022 2063 
z
" transform="scale(0.015625)"/>
       <path id="DejaVuSans-20" transform="scale(0.015625)"/>
       <path id="DejaVuSans-53" d="M 3425 4513 
L 3425 3897 
Q 3066 4069 2747 4153 
Q 2428 4238 2131 4238 
Q 1616 4238 1336 4038 
Q 1056 3838 1056 3469 
Q 1056 3159 1242 3001 
Q 1428 2844 1947 2747 
L 2328 2669 
Q 3034 2534 3370 2195 
Q 3706 1856 3706 1288 
Q 3706 609 3251 259 
Q 2797 -91 1919 -91 
Q 1588 -91 1214 -16 
Q 841 59 441 206 
L 441 856 
Q 825 641 1194 531 
Q 1563 422 1919 422 
Q 2459 422 2753 634 
Q 3047 847 3047 1241 
Q 3047 1584 2836 1778 
Q 2625 1972 2144 2069 
L 1759 2144 
Q 1053 2284 737 2584 
Q 422 2884 422 3419 
Q 422 4038 858 4394 
Q 1294 4750 2059 4750 
Q 2388 4750 2728 4690 
Q 3069 4631 3425 4513 
z
" transform="scale(0.015625)"/>
       <path id="DejaVuSans-69" d="M 603 3500 
L 1178 3500 
L 1178 0 
L 603 0 
L 603 3500 
z
M 603 4863 
L 1178 4863 
L 1178 4134 
L 603 4134 
L 603 4863 
z
" transform="scale(0.015625)"/>
       <path id="DejaVuSans-7a" d="M 353 3500 
L 3084 3500 
L 3084 2975 
L 922 459 
L 3084 459 
L 3084 0 
L 275 0 
L 275 525 
L 2438 3041 
L 353 3041 
L 353 3500 
z
" transform="scale(0.015625)"/>
      </defs>
      <use xlink:href="#DejaVuSans-44"/>
      <use xlink:href="#DejaVuSans-61" transform="translate(77.001953 0)"/>
      <use xlink:href="#DejaVuSans-74" transform="translate(138.28125 0)"/>
      <use xlink:href="#DejaVuSans-61" transform="translate(177.490234 0)"/>
      <use xlink:href="#DejaVuSans-73" transform="translate(238.769531 0)"/>
      <use xlink:href="#DejaVuSans-65" transform="translate(290.869141 0)"/>
      <use xlink:href="#DejaVuSans-74" transform="translate(352.392578 0)"/>
      <use xlink:href="#DejaVuSans-20" transform="translate(391.601562 0)"/>
      <use xlink:href="#DejaVuSans-53" transform="translate(423.388672 0)"/>
      <use xlink:href="#DejaVuSans-69" transform="translate(486.865234 0)"/>
      <use xlink:href="#DejaVuSans-7a" transform="translate(514.648438 0)"/>
      <use xlink:href="#DejaVuSans-65" transform="translate(567.138672 0)"/>
     </g>
    </g>
    <g id="line2d_40">
     <path d="M 734.669979 52.582187 
L 744.669979 52.582187 
L 754.669979 52.582187 
" style="fill: none; stroke: #4c72b0; stroke-width: 2; stroke-linecap: round"/>
     <g>
      <use xlink:href="#mc9d2871d7a" x="744.669979" y="52.582187" style="fill: #4c72b0; stroke: #4c72b0"/>
     </g>
    </g>
    <g id="text_17">
     <!-- 100 intervals -->
     <g style="fill: #262626" transform="translate(762.669979 56.082187) scale(0.1 -0.1)">
      <defs>
       <path id="DejaVuSans-6e" d="M 3513 2113 
L 3513 0 
L 2938 0 
L 2938 2094 
Q 2938 2591 2744 2837 
Q 2550 3084 2163 3084 
Q 1697 3084 1428 2787 
Q 1159 2491 1159 1978 
L 1159 0 
L 581 0 
L 581 3500 
L 1159 3500 
L 1159 2956 
Q 1366 3272 1645 3428 
Q 1925 3584 2291 3584 
Q 2894 3584 3203 3211 
Q 3513 2838 3513 2113 
z
" transform="scale(0.015625)"/>
       <path id="DejaVuSans-72" d="M 2631 2963 
Q 2534 3019 2420 3045 
Q 2306 3072 2169 3072 
Q 1681 3072 1420 2755 
Q 1159 2438 1159 1844 
L 1159 0 
L 581 0 
L 581 3500 
L 1159 3500 
L 1159 2956 
Q 1341 3275 1631 3429 
Q 1922 3584 2338 3584 
Q 2397 3584 2469 3576 
Q 2541 3569 2628 3553 
L 2631 2963 
z
" transform="scale(0.015625)"/>
       <path id="DejaVuSans-76" d="M 191 3500 
L 800 3500 
L 1894 563 
L 2988 3500 
L 3597 3500 
L 2284 0 
L 1503 0 
L 191 3500 
z
" transform="scale(0.015625)"/>
       <path id="DejaVuSans-6c" d="M 603 4863 
L 1178 4863 
L 1178 0 
L 603 0 
L 603 4863 
z
" transform="scale(0.015625)"/>
      </defs>
      <use xlink:href="#DejaVuSans-31"/>
      <use xlink:href="#DejaVuSans-30" transform="translate(63.623047 0)"/>
      <use xlink:href="#DejaVuSans-30" transform="translate(127.246094 0)"/>
      <use xlink:href="#DejaVuSans-20" transform="translate(190.869141 0)"/>
      <use xlink:href="#DejaVuSans-69" transform="translate(222.65625 0)"/>
      <use xlink:href="#DejaVuSans-6e" transform="translate(250.439453 0)"/>
      <use xlink:href="#DejaVuSans-74" transform="translate(313.818359 0)"/>
      <use xlink:href="#DejaVuSans-65" transform="translate(353.027344 0)"/>
      <use xlink:href="#DejaVuSans-72" transform="translate(414.550781 0)"/>
      <use xlink:href="#DejaVuSans-76" transform="translate(455.664062 0)"/>
      <use xlink:href="#DejaVuSans-61" transform="translate(514.84375 0)"/>
      <use xlink:href="#DejaVuSans-6c" transform="translate(576.123047 0)"/>
      <use xlink:href="#DejaVuSans-73" transform="translate(603.90625 0)"/>
     </g>
    </g>
    <g id="line2d_41">
     <path d="M 734.669979 67.260312 
L 744.669979 67.260312 
L 754.669979 67.260312 
" style="fill: none; stroke: #dd8452; stroke-width: 2; stroke-linecap: round"/>
     <g>
      <use xlink:href="#m3b7831278b" x="744.669979" y="67.260312" style="fill: #dd8452; stroke: #dd8452"/>
     </g>
    </g>
    <g id="text_18">
     <!-- 500 intervals -->
     <g style="fill: #262626" transform="translate(762.669979 70.760312) scale(0.1 -0.1)">
      <use xlink:href="#DejaVuSans-35"/>
      <use xlink:href="#DejaVuSans-30" transform="translate(63.623047 0)"/>
      <use xlink:href="#DejaVuSans-30" transform="translate(127.246094 0)"/>
      <use xlink:href="#DejaVuSans-20" transform="translate(190.869141 0)"/>
      <use xlink:href="#DejaVuSans-69" transform="translate(222.65625 0)"/>
      <use xlink:href="#DejaVuSans-6e" transform="translate(250.439453 0)"/>
      <use xlink:href="#DejaVuSans-74" transform="translate(313.818359 0)"/>
      <use xlink:href="#DejaVuSans-65" transform="translate(353.027344 0)"/>
      <use xlink:href="#DejaVuSans-72" transform="translate(414.550781 0)"/>
      <use xlink:href="#DejaVuSans-76" transform="translate(455.664062 0)"/>
      <use xlink:href="#DejaVuSans-61" transform="translate(514.84375 0)"/>
      <use xlink:href="#DejaVuSans-6c" transform="translate(576.123047 0)"/>
      <use xlink:href="#DejaVuSans-73" transform="translate(603.90625 0)"/>
     </g>
    </g>
    <g id="line2d_42">
     <path d="M 734.669979 81.938437 
L 744.669979 81.938437 
L 754.669979 81.938437 
" style="fill: none; stroke: #55a868; stroke-width: 2; stroke-linecap: round"/>
     <g>
      <use xlink:href="#mccbc7384e8" x="744.669979" y="81.938437" style="fill: #55a868; stroke: #55a868"/>
     </g>
    </g>
    <g id="text_19">
     <!-- 1000 intervals -->
     <g style="fill: #262626" transform="translate(762.669979 85.438437) scale(0.1 -0.1)">
      <use xlink:href="#DejaVuSans-31"/>
      <use xlink:href="#DejaVuSans-30" transform="translate(63.623047 0)"/>
      <use xlink:href="#DejaVuSans-30" transform="translate(127.246094 0)"/>
      <use xlink:href="#DejaVuSans-30" transform="translate(190.869141 0)"/>
      <use xlink:href="#DejaVuSans-20" transform="translate(254.492188 0)"/>
      <use xlink:href="#DejaVuSans-69" transform="translate(286.279297 0)"/>
      <use xlink:href="#DejaVuSans-6e" transform="translate(314.0625 0)"/>
      <use xlink:href="#DejaVuSans-74" transform="translate(377.441406 0)"/>
      <use xlink:href="#DejaVuSans-65" transform="translate(416.650391 0)"/>
      <use xlink:href="#DejaVuSans-72" transform="translate(478.173828 0)"/>
      <use xlink:href="#DejaVuSans-76" transform="translate(519.287109 0)"/>
      <use xlink:href="#DejaVuSans-61" transform="translate(578.466797 0)"/>
      <use xlink:href="#DejaVuSans-6c" transform="translate(639.746094 0)"/>
      <use xlink:href="#DejaVuSans-73" transform="translate(667.529297 0)"/>
     </g>
    </g>
    <g id="line2d_43">
     <path d="M 734.669979 96.616562 
L 744.669979 96.616562 
L 754.669979 96.616562 
" style="fill: none; stroke: #c44e52; stroke-width: 2; stroke-linecap: round"/>
     <g>
      <use xlink:href="#mb4ced74ab1" x="744.669979" y="96.616562" style="fill: #c44e52; stroke: #c44e52"/>
     </g>
    </g>
    <g id="text_20">
     <!-- 5000 intervals -->
     <g style="fill: #262626" transform="translate(762.669979 100.116562) scale(0.1 -0.1)">
      <use xlink:href="#DejaVuSans-35"/>
      <use xlink:href="#DejaVuSans-30" transform="translate(63.623047 0)"/>
      <use xlink:href="#DejaVuSans-30" transform="translate(127.246094 0)"/>
      <use xlink:href="#DejaVuSans-30" transform="translate(190.869141 0)"/>
      <use xlink:href="#DejaVuSans-20" transform="translate(254.492188 0)"/>
      <use xlink:href="#DejaVuSans-69" transform="translate(286.279297 0)"/>
      <use xlink:href="#DejaVuSans-6e" transform="translate(314.0625 0)"/>
      <use xlink:href="#DejaVuSans-74" transform="translate(377.441406 0)"/>
      <use xlink:href="#DejaVuSans-65" transform="translate(416.650391 0)"/>
      <use xlink:href="#DejaVuSans-72" transform="translate(478.173828 0)"/>
      <use xlink:href="#DejaVuSans-76" transform="translate(519.287109 0)"/>
      <use xlink:href="#DejaVuSans-61" transform="translate(578.466797 0)"/>
      <use xlink:href="#DejaVuSans-6c" transform="translate(639.746094 0)"/>
      <use xlink:href="#DejaVuSans-73" transform="translate(667.529297 0)"/>
     </g>
    </g>
   </g>
  </g>
 </g>
 <defs>
  <clipPath id="pe84224448e">
   <rect x="51.7675" y="23.837812" width="791.864979" height="496.02"/>
  </clipPath>
 </defs>
</svg>
