<?xml version="1.0" encoding="utf-8" standalone="no"?>
<!DOCTYPE svg PUBLIC "-//W3C//DTD SVG 1.1//EN"
  "http://www.w3.org/Graphics/SVG/1.1/DTD/svg11.dtd">
<svg xmlns:xlink="http://www.w3.org/1999/xlink" width="852.158125pt" height="564.239219pt" viewBox="0 0 852.158125 564.239219" xmlns="http://www.w3.org/2000/svg" version="1.1">
 <metadata>
  <rdf:RDF xmlns:dc="http://purl.org/dc/elements/1.1/" xmlns:cc="http://creativecommons.org/ns#" xmlns:rdf="http://www.w3.org/1999/02/22-rdf-syntax-ns#">
   <cc:Work>
    <dc:type rdf:resource="http://purl.org/dc/dcmitype/StillImage"/>
    <dc:date>2026-07-08T04:54:59.951485</dc:date>
    <dc:format>image/svg+xml</dc:format>
    <dc:creator>
     <cc:Agent>
      <dc:title>Matplotlib v3.11.0, https://matplotlib.org/</dc:title>
     </cc:Agent>
    </dc:creator>
   </cc:Work>
  </rdf:RDF>
 </metadata>
 <defs>
  <style type="text/css">*{stroke-linejoin: round; stroke-linecap: butt}</style>
 </defs>
 <g id="figure_1">
  <g id="patch_1">
   <path d="M 0 564.239219 
L 852.158125 564.239219 
L 852.158125 0 
L 0 0 
z
" style="fill: #ffffff"/>
  </g>
  <g id="axes_1">
   <g id="patch_2">
    <path d="M 52.060938 520.538281 
L 844.958125 520.538281 
L 844.958125 23.837812 
L 52.060938 23.837812 
z
" style="fill: #ffffff"/>
   </g>
   <g id="matplotlib.axis_1">
    <g id="xtick_1">
     <g id="line2d_1">
      <path d="M 77.124831 520.538281 
L 77.124831 23.837812 
" clip-path="url(#p6d34d10a0e)" style="fill: none; stroke: #cccccc; stroke-opacity: 0.3; stroke-linecap: round"/>
     </g>
     <g id="text_1">
      <!-- 0 -->
      <g style="fill: #262626" transform="translate(73.625456 538.395703) scale(0.11 -0.11)">
       <defs>
        <path id="DejaVuSans-13" d="M 2034 4250 
Q 1547 4250 1301 3770 
Q 1056 3291 1056 2328 
Q 1056 1369 1301 889 
Q 1547 409 2034 409 
Q 2525 409 2770 889 
Q 3016 1369 3016 2328 
Q 3016 3291 2770 3770 
Q 2525 4250 2034 4250 
z
M 2034 4750 
Q 2819 4750 3233 4129 
Q 3647 3509 3647 2328 
Q 3647 1150 3233 529 
Q 2819 -91 2034 -91 
Q 1250 -91 836 529 
Q 422 1150 422 2328 
Q 422 3509 836 4129 
Q 1250 4750 2034 4750 
z
" transform="scale(0.015625)"/>
       </defs>
       <use xlink:href="#DejaVuSans-13"/>
      </g>
     </g>
    </g>
    <g id="xtick_2">
     <g id="line2d_2">
      <path d="M 168.598895 520.538281 
L 168.598895 23.837812 
" clip-path="url(#p6d34d10a0e)" style="fill: none; stroke: #cccccc; stroke-opacity: 0.3; stroke-linecap: round"/>
     </g>
     <g id="text_2">
      <!-- 25 -->
      <g style="fill: #262626" transform="translate(161.600145 538.395703) scale(0.11 -0.11)">
       <defs>
        <path id="DejaVuSans-15" d="M 1228 531 
L 3431 531 
L 3431 0 
L 469 0 
L 469 531 
Q 828 903 1448 1529 
Q 2069 2156 2228 2338 
Q 2531 2678 2651 2914 
Q 2772 3150 2772 3378 
Q 2772 3750 2511 3984 
Q 2250 4219 1831 4219 
Q 1534 4219 1204 4116 
Q 875 4013 500 3803 
L 500 4441 
Q 881 4594 1212 4672 
Q 1544 4750 1819 4750 
Q 2544 4750 2975 4387 
Q 3406 4025 3406 3419 
Q 3406 3131 3298 2873 
Q 3191 2616 2906 2266 
Q 2828 2175 2409 1742 
Q 1991 1309 1228 531 
z
" transform="scale(0.015625)"/>
        <path id="DejaVuSans-18" d="M 691 4666 
L 3169 4666 
L 3169 4134 
L 1269 4134 
L 1269 2991 
Q 1406 3038 1543 3061 
Q 1681 3084 1819 3084 
Q 2600 3084 3056 2656 
Q 3513 2228 3513 1497 
Q 3513 744 3044 326 
Q 2575 -91 1722 -91 
Q 1428 -91 1123 -41 
Q 819 9 494 109 
L 494 744 
Q 775 591 1075 516 
Q 1375 441 1709 441 
Q 2250 441 2565 725 
Q 2881 1009 2881 1497 
Q 2881 1984 2565 2268 
Q 2250 2553 1709 2553 
Q 1456 2553 1204 2497 
Q 953 2441 691 2322 
L 691 4666 
z
" transform="scale(0.015625)"/>
       </defs>
       <use xlink:href="#DejaVuSans-15"/>
       <use xlink:href="#DejaVuSans-18" transform="translate(63.625 0)"/>
      </g>
     </g>
    </g>
    <g id="xtick_3">
     <g id="line2d_3">
      <path d="M 260.072959 520.538281 
L 260.072959 23.837812 
" clip-path="url(#p6d34d10a0e)" style="fill: none; stroke: #cccccc; stroke-opacity: 0.3; stroke-linecap: round"/>
     </g>
     <g id="text_3">
      <!-- 50 -->
      <g style="fill: #262626" transform="translate(253.074209 538.395703) scale(0.11 -0.11)">
       <use xlink:href="#DejaVuSans-18"/>
       <use xlink:href="#DejaVuSans-13" transform="translate(63.625 0)"/>
      </g>
     </g>
    </g>
    <g id="xtick_4">
     <g id="line2d_4">
      <path d="M 351.547023 520.538281 
L 351.547023 23.837812 
" clip-path="url(#p6d34d10a0e)" style="fill: none; stroke: #cccccc; stroke-opacity: 0.3; stroke-linecap: round"/>
     </g>
     <g id="text_4">
      <!-- 75 -->
      <g style="fill: #262626" transform="translate(344.548273 538.395703) scale(0.11 -0.11)">
       <defs>
        <path id="DejaVuSans-1a" d="M 525 4666 
L 3525 4666 
L 3525 4397 
L 1831 0 
L 1172 0 
L 2766 4134 
L 525 4134 
L 525 4666 
z
" transform="scale(0.015625)"/>
       </defs>
       <use xlink:href="#DejaVuSans-1a"/>
       <use xlink:href="#DejaVuSans-18" transform="translate(63.625 0)"/>
      </g>
     </g>
    </g>
    <g id="xtick_5">
     <g id="line2d_5">
      <path d="M 443.021087 520.538281 
L 443.021087 23.837812 
" clip-path="url(#p6d34d10a0e)" style="fill: none; stroke: #cccccc; stroke-opacity: 0.3; stroke-linecap: round"/>
     </g>
     <g id="text_5">
      <!-- 100 -->
      <g style="fill: #262626" transform="translate(432.522962 538.395703) scale(0.11 -0.11)">
       <defs>
        <path id="DejaVuSans-14" d="M 794 531 
L 1825 531 
L 1825 4091 
L 703 3866 
L 703 4441 
L 1819 4666 
L 2450 4666 
L 2450 531 
L 3481 531 
L 3481 0 
L 794 0 
L 794 531 
z
" transform="scale(0.015625)"/>
       </defs>
       <use xlink:href="#DejaVuSans-14"/>
       <use xlink:href="#DejaVuSans-13" transform="translate(63.625 0)"/>
       <use xlink:href="#DejaVuSans-13" transform="translate(127.25 0)"/>
      </g>
     </g>
    </g>
    <g id="xtick_6">
     <g id="line2d_6">
      <path d="M 534.495151 520.538281 
L 534.495151 23.837812 
" clip-path="url(#p6d34d10a0e)" style="fill: none; stroke: #cccccc; stroke-opacity: 0.3; stroke-linecap: round"/>
     </g>
     <g id="text_6">
      <!-- 125 -->
      <g style="fill: #262626" transform="translate(523.997026 538.395703) scale(0.11 -0.11)">
       <use xlink:href="#DejaVuSans-14"/>
       <use xlink:href="#DejaVuSans-15" transform="translate(63.625 0)"/>
       <use xlink:href="#DejaVuSans-18" transform="translate(127.25 0)"/>
      </g>
     </g>
    </g>
    <g id="xtick_7">
     <g id="line2d_7">
      <path d="M 625.969216 520.538281 
L 625.969216 23.837812 
" clip-path="url(#p6d34d10a0e)" style="fill: none; stroke: #cccccc; stroke-opacity: 0.3; stroke-linecap: round"/>
     </g>
     <g id="text_7">
      <!-- 150 -->
      <g style="fill: #262626" transform="translate(615.471091 538.395703) scale(0.11 -0.11)">
       <use xlink:href="#DejaVuSans-14"/>
       <use xlink:href="#DejaVuSans-18" transform="translate(63.625 0)"/>
       <use xlink:href="#DejaVuSans-13" transform="translate(127.25 0)"/>
      </g>
     </g>
    </g>
    <g id="xtick_8">
     <g id="line2d_8">
      <path d="M 717.44328 520.538281 
L 717.44328 23.837812 
" clip-path="url(#p6d34d10a0e)" style="fill: none; stroke: #cccccc; stroke-opacity: 0.3; stroke-linecap: round"/>
     </g>
     <g id="text_8">
      <!-- 175 -->
      <g style="fill: #262626" transform="translate(706.945155 538.395703) scale(0.11 -0.11)">
       <use xlink:href="#DejaVuSans-14"/>
       <use xlink:href="#DejaVuSans-1a" transform="translate(63.625 0)"/>
       <use xlink:href="#DejaVuSans-18" transform="translate(127.25 0)"/>
      </g>
     </g>
    </g>
    <g id="xtick_9">
     <g id="line2d_9">
      <path d="M 808.917344 520.538281 
L 808.917344 23.837812 
" clip-path="url(#p6d34d10a0e)" style="fill: none; stroke: #cccccc; stroke-opacity: 0.3; stroke-linecap: round"/>
     </g>
     <g id="text_9">
      <!-- 200 -->
      <g style="fill: #262626" transform="translate(798.419219 538.395703) scale(0.11 -0.11)">
       <use xlink:href="#DejaVuSans-15"/>
       <use xlink:href="#DejaVuSans-13" transform="translate(63.625 0)"/>
       <use xlink:href="#DejaVuSans-13" transform="translate(127.25 0)"/>
      </g>
     </g>
    </g>
    <g id="text_10">
     <!-- Order (k) -->
     <g style="fill: #262626" transform="translate(417.563594 554.156406) scale(0.12 -0.12)">
      <defs>
       <path id="DejaVuSans-Bold-32" d="M 2719 3878 
Q 2169 3878 1866 3472 
Q 1563 3066 1563 2328 
Q 1563 1594 1866 1187 
Q 2169 781 2719 781 
Q 3272 781 3575 1187 
Q 3878 1594 3878 2328 
Q 3878 3066 3575 3472 
Q 3272 3878 2719 3878 
z
M 2719 4750 
Q 3844 4750 4481 4106 
Q 5119 3463 5119 2328 
Q 5119 1197 4481 553 
Q 3844 -91 2719 -91 
Q 1597 -91 958 553 
Q 319 1197 319 2328 
Q 319 3463 958 4106 
Q 1597 4750 2719 4750 
z
" transform="scale(0.015625)"/>
       <path id="DejaVuSans-Bold-55" d="M 3138 2547 
Q 2991 2616 2845 2648 
Q 2700 2681 2553 2681 
Q 2122 2681 1889 2404 
Q 1656 2128 1656 1613 
L 1656 0 
L 538 0 
L 538 3500 
L 1656 3500 
L 1656 2925 
Q 1872 3269 2151 3426 
Q 2431 3584 2822 3584 
Q 2878 3584 2943 3579 
Q 3009 3575 3134 3559 
L 3138 2547 
z
" transform="scale(0.015625)"/>
       <path id="DejaVuSans-Bold-47" d="M 2919 2988 
L 2919 4863 
L 4044 4863 
L 4044 0 
L 2919 0 
L 2919 506 
Q 2688 197 2409 53 
Q 2131 -91 1766 -91 
Q 1119 -91 703 423 
Q 288 938 288 1747 
Q 288 2556 703 3070 
Q 1119 3584 1766 3584 
Q 2128 3584 2408 3439 
Q 2688 3294 2919 2988 
z
M 2181 722 
Q 2541 722 2730 984 
Q 2919 1247 2919 1747 
Q 2919 2247 2730 2509 
Q 2541 2772 2181 2772 
Q 1825 2772 1636 2509 
Q 1447 2247 1447 1747 
Q 1447 1247 1636 984 
Q 1825 722 2181 722 
z
" transform="scale(0.015625)"/>
       <path id="DejaVuSans-Bold-48" d="M 4031 1759 
L 4031 1441 
L 1416 1441 
Q 1456 1047 1700 850 
Q 1944 653 2381 653 
Q 2734 653 3104 758 
Q 3475 863 3866 1075 
L 3866 213 
Q 3469 63 3072 -14 
Q 2675 -91 2278 -91 
Q 1328 -91 801 392 
Q 275 875 275 1747 
Q 275 2603 792 3093 
Q 1309 3584 2216 3584 
Q 3041 3584 3536 3087 
Q 4031 2591 4031 1759 
z
M 2881 2131 
Q 2881 2450 2695 2645 
Q 2509 2841 2209 2841 
Q 1884 2841 1681 2658 
Q 1478 2475 1428 2131 
L 2881 2131 
z
" transform="scale(0.015625)"/>
       <path id="DejaVuSans-Bold-3" transform="scale(0.015625)"/>
       <path id="DejaVuSans-Bold-b" d="M 2413 -844 
L 1484 -844 
Q 1006 -72 778 623 
Q 550 1319 550 2003 
Q 550 2688 779 3389 
Q 1009 4091 1484 4856 
L 2413 4856 
Q 2013 4116 1813 3408 
Q 1613 2700 1613 2009 
Q 1613 1319 1811 609 
Q 2009 -100 2413 -844 
z
" transform="scale(0.015625)"/>
       <path id="DejaVuSans-Bold-4e" d="M 538 4863 
L 1656 4863 
L 1656 2216 
L 2944 3500 
L 4244 3500 
L 2534 1894 
L 4378 0 
L 3022 0 
L 1656 1459 
L 1656 0 
L 538 0 
L 538 4863 
z
" transform="scale(0.015625)"/>
       <path id="DejaVuSans-Bold-c" d="M 513 -844 
Q 913 -100 1113 609 
Q 1313 1319 1313 2009 
Q 1313 2700 1113 3408 
Q 913 4116 513 4856 
L 1441 4856 
Q 1916 4091 2145 3389 
Q 2375 2688 2375 2003 
Q 2375 1319 2147 623 
Q 1919 -72 1441 -844 
L 513 -844 
z
" transform="scale(0.015625)"/>
      </defs>
      <use xlink:href="#DejaVuSans-Bold-32"/>
      <use xlink:href="#DejaVuSans-Bold-55" transform="translate(85.015625 0)"/>
      <use xlink:href="#DejaVuSans-Bold-47" transform="translate(134.328125 0)"/>
      <use xlink:href="#DejaVuSans-Bold-48" transform="translate(205.90625 0)"/>
      <use xlink:href="#DejaVuSans-Bold-55" transform="translate(273.734375 0)"/>
      <use xlink:href="#DejaVuSans-Bold-3" transform="translate(323.046875 0)"/>
      <use xlink:href="#DejaVuSans-Bold-b" transform="translate(357.859375 0)"/>
      <use xlink:href="#DejaVuSans-Bold-4e" transform="translate(403.5625 0)"/>
      <use xlink:href="#DejaVuSans-Bold-c" transform="translate(470.0625 0)"/>
     </g>
    </g>
   </g>
   <g id="matplotlib.axis_2">
    <g id="ytick_1">
     <g id="line2d_10">
      <path d="M 52.060938 348.757533 
L 844.958125 348.757533 
" clip-path="url(#p6d34d10a0e)" style="fill: none; stroke: #cccccc; stroke-opacity: 0.3; stroke-linecap: round"/>
     </g>
     <g id="text_11">
      <!-- $\mathdefault{10^{1}}$ -->
      <g style="fill: #262626" transform="translate(23.200938 353.872533) scale(0.11 -0.11)">
       <use xlink:href="#DejaVuSans-14" transform="translate(0 0.665625)"/>
       <use xlink:href="#DejaVuSans-13" transform="translate(63.623047 0.665625)"/>
       <use xlink:href="#DejaVuSans-14" transform="translate(128.203125 41.965625) scale(0.7)"/>
      </g>
     </g>
    </g>
    <g id="ytick_2">
     <g id="line2d_11">
      <path d="M 52.060938 172.690127 
L 844.958125 172.690127 
" clip-path="url(#p6d34d10a0e)" style="fill: none; stroke: #cccccc; stroke-opacity: 0.3; stroke-linecap: round"/>
     </g>
     <g id="text_12">
      <!-- $\mathdefault{10^{2}}$ -->
      <g style="fill: #262626" transform="translate(23.200938 177.860127) scale(0.11 -0.11)">
       <use xlink:href="#DejaVuSans-14" transform="translate(0 0.746875)"/>
       <use xlink:href="#DejaVuSans-13" transform="translate(63.623047 0.746875)"/>
       <use xlink:href="#DejaVuSans-15" transform="translate(128.203125 42.046875) scale(0.7)"/>
      </g>
     </g>
    </g>
    <g id="ytick_3">
     <g id="line2d_12">
      <path d="M 52.060938 471.823367 
L 844.958125 471.823367 
" clip-path="url(#p6d34d10a0e)" style="fill: none; stroke: #cccccc; stroke-opacity: 0.3; stroke-linecap: round"/>
     </g>
    </g>
    <g id="ytick_4">
     <g id="line2d_13">
      <path d="M 52.060938 440.819436 
L 844.958125 440.819436 
" clip-path="url(#p6d34d10a0e)" style="fill: none; stroke: #cccccc; stroke-opacity: 0.3; stroke-linecap: round"/>
     </g>
    </g>
    <g id="ytick_5">
     <g id="line2d_14">
      <path d="M 52.060938 418.821797 
L 844.958125 418.821797 
" clip-path="url(#p6d34d10a0e)" style="fill: none; stroke: #cccccc; stroke-opacity: 0.3; stroke-linecap: round"/>
     </g>
    </g>
    <g id="ytick_6">
     <g id="line2d_15">
      <path d="M 52.060938 401.759103 
L 844.958125 401.759103 
" clip-path="url(#p6d34d10a0e)" style="fill: none; stroke: #cccccc; stroke-opacity: 0.3; stroke-linecap: round"/>
     </g>
    </g>
    <g id="ytick_7">
     <g id="line2d_16">
      <path d="M 52.060938 387.817866 
L 844.958125 387.817866 
" clip-path="url(#p6d34d10a0e)" style="fill: none; stroke: #cccccc; stroke-opacity: 0.3; stroke-linecap: round"/>
     </g>
    </g>
    <g id="ytick_8">
     <g id="line2d_17">
      <path d="M 52.060938 376.030719 
L 844.958125 376.030719 
" clip-path="url(#p6d34d10a0e)" style="fill: none; stroke: #cccccc; stroke-opacity: 0.3; stroke-linecap: round"/>
     </g>
    </g>
    <g id="ytick_9">
     <g id="line2d_18">
      <path d="M 52.060938 365.820227 
L 844.958125 365.820227 
" clip-path="url(#p6d34d10a0e)" style="fill: none; stroke: #cccccc; stroke-opacity: 0.3; stroke-linecap: round"/>
     </g>
    </g>
    <g id="ytick_10">
     <g id="line2d_19">
      <path d="M 52.060938 356.813935 
L 844.958125 356.813935 
" clip-path="url(#p6d34d10a0e)" style="fill: none; stroke: #cccccc; stroke-opacity: 0.3; stroke-linecap: round"/>
     </g>
    </g>
    <g id="ytick_11">
     <g id="line2d_20">
      <path d="M 52.060938 295.755962 
L 844.958125 295.755962 
" clip-path="url(#p6d34d10a0e)" style="fill: none; stroke: #cccccc; stroke-opacity: 0.3; stroke-linecap: round"/>
     </g>
    </g>
    <g id="ytick_12">
     <g id="line2d_21">
      <path d="M 52.060938 264.752031 
L 844.958125 264.752031 
" clip-path="url(#p6d34d10a0e)" style="fill: none; stroke: #cccccc; stroke-opacity: 0.3; stroke-linecap: round"/>
     </g>
    </g>
    <g id="ytick_13">
     <g id="line2d_22">
      <path d="M 52.060938 242.754392 
L 844.958125 242.754392 
" clip-path="url(#p6d34d10a0e)" style="fill: none; stroke: #cccccc; stroke-opacity: 0.3; stroke-linecap: round"/>
     </g>
    </g>
    <g id="ytick_14">
     <g id="line2d_23">
      <path d="M 52.060938 225.691698 
L 844.958125 225.691698 
" clip-path="url(#p6d34d10a0e)" style="fill: none; stroke: #cccccc; stroke-opacity: 0.3; stroke-linecap: round"/>
     </g>
    </g>
    <g id="ytick_15">
     <g id="line2d_24">
      <path d="M 52.060938 211.750461 
L 844.958125 211.750461 
" clip-path="url(#p6d34d10a0e)" style="fill: none; stroke: #cccccc; stroke-opacity: 0.3; stroke-linecap: round"/>
     </g>
    </g>
    <g id="ytick_16">
     <g id="line2d_25">
      <path d="M 52.060938 199.963314 
L 844.958125 199.963314 
" clip-path="url(#p6d34d10a0e)" style="fill: none; stroke: #cccccc; stroke-opacity: 0.3; stroke-linecap: round"/>
     </g>
    </g>
    <g id="ytick_17">
     <g id="line2d_26">
      <path d="M 52.060938 189.752822 
L 844.958125 189.752822 
" clip-path="url(#p6d34d10a0e)" style="fill: none; stroke: #cccccc; stroke-opacity: 0.3; stroke-linecap: round"/>
     </g>
    </g>
    <g id="ytick_18">
     <g id="line2d_27">
      <path d="M 52.060938 180.74653 
L 844.958125 180.74653 
" clip-path="url(#p6d34d10a0e)" style="fill: none; stroke: #cccccc; stroke-opacity: 0.3; stroke-linecap: round"/>
     </g>
    </g>
    <g id="ytick_19">
     <g id="line2d_28">
      <path d="M 52.060938 119.688557 
L 844.958125 119.688557 
" clip-path="url(#p6d34d10a0e)" style="fill: none; stroke: #cccccc; stroke-opacity: 0.3; stroke-linecap: round"/>
     </g>
    </g>
    <g id="ytick_20">
     <g id="line2d_29">
      <path d="M 52.060938 88.684626 
L 844.958125 88.684626 
" clip-path="url(#p6d34d10a0e)" style="fill: none; stroke: #cccccc; stroke-opacity: 0.3; stroke-linecap: round"/>
     </g>
    </g>
    <g id="ytick_21">
     <g id="line2d_30">
      <path d="M 52.060938 66.686987 
L 844.958125 66.686987 
" clip-path="url(#p6d34d10a0e)" style="fill: none; stroke: #cccccc; stroke-opacity: 0.3; stroke-linecap: round"/>
     </g>
    </g>
    <g id="ytick_22">
     <g id="line2d_31">
      <path d="M 52.060938 49.624293 
L 844.958125 49.624293 
" clip-path="url(#p6d34d10a0e)" style="fill: none; stroke: #cccccc; stroke-opacity: 0.3; stroke-linecap: round"/>
     </g>
    </g>
    <g id="ytick_23">
     <g id="line2d_32">
      <path d="M 52.060938 35.683056 
L 844.958125 35.683056 
" clip-path="url(#p6d34d10a0e)" style="fill: none; stroke: #cccccc; stroke-opacity: 0.3; stroke-linecap: round"/>
     </g>
    </g>
    <g id="ytick_24">
     <g id="line2d_33">
      <path d="M 52.060938 23.895909 
L 844.958125 23.895909 
" clip-path="url(#p6d34d10a0e)" style="fill: none; stroke: #cccccc; stroke-opacity: 0.3; stroke-linecap: round"/>
     </g>
    </g>
    <g id="text_13">
     <!-- Time (μs, log scale) -->
     <g style="fill: #262626" transform="translate(16.318125 338.452422) rotate(-90) scale(0.12 -0.12)">
      <defs>
       <path id="DejaVuSans-Bold-37" d="M 31 4666 
L 4331 4666 
L 4331 3756 
L 2784 3756 
L 2784 0 
L 1581 0 
L 1581 3756 
L 31 3756 
L 31 4666 
z
" transform="scale(0.015625)"/>
       <path id="DejaVuSans-Bold-4c" d="M 538 3500 
L 1656 3500 
L 1656 0 
L 538 0 
L 538 3500 
z
M 538 4863 
L 1656 4863 
L 1656 3950 
L 538 3950 
L 538 4863 
z
" transform="scale(0.015625)"/>
       <path id="DejaVuSans-Bold-50" d="M 3781 2919 
Q 3994 3244 4286 3414 
Q 4578 3584 4928 3584 
Q 5531 3584 5847 3212 
Q 6163 2841 6163 2131 
L 6163 0 
L 5038 0 
L 5038 1825 
Q 5041 1866 5042 1909 
Q 5044 1953 5044 2034 
Q 5044 2406 4934 2573 
Q 4825 2741 4581 2741 
Q 4263 2741 4089 2478 
Q 3916 2216 3909 1719 
L 3909 0 
L 2784 0 
L 2784 1825 
Q 2784 2406 2684 2573 
Q 2584 2741 2328 2741 
Q 2006 2741 1831 2477 
Q 1656 2213 1656 1722 
L 1656 0 
L 531 0 
L 531 3500 
L 1656 3500 
L 1656 2988 
Q 1863 3284 2130 3434 
Q 2397 3584 2719 3584 
Q 3081 3584 3359 3409 
Q 3638 3234 3781 2919 
z
" transform="scale(0.015625)"/>
       <path id="DejaVuSans-Bold-350" d="M 544 -1338 
L 544 3500 
L 1672 3500 
L 1672 1466 
Q 1672 1103 1828 926 
Q 1984 750 2303 750 
Q 2625 750 2781 926 
Q 2938 1103 2938 1466 
L 2938 3500 
L 4063 3500 
L 4063 1159 
Q 4063 938 4114 850 
Q 4166 763 4288 763 
Q 4344 763 4395 778 
Q 4447 794 4506 831 
L 4506 50 
Q 4341 -22 4195 -56 
Q 4050 -91 3909 -91 
Q 3631 -91 3454 26 
Q 3278 144 3169 403 
Q 3022 156 2811 32 
Q 2600 -91 2322 -91 
Q 2091 -91 1928 -17 
Q 1766 56 1672 206 
L 1672 -1338 
L 544 -1338 
z
" transform="scale(0.015625)"/>
       <path id="DejaVuSans-Bold-56" d="M 3272 3391 
L 3272 2541 
Q 2913 2691 2578 2766 
Q 2244 2841 1947 2841 
Q 1628 2841 1473 2761 
Q 1319 2681 1319 2516 
Q 1319 2381 1436 2309 
Q 1553 2238 1856 2203 
L 2053 2175 
Q 2913 2066 3209 1816 
Q 3506 1566 3506 1031 
Q 3506 472 3093 190 
Q 2681 -91 1863 -91 
Q 1516 -91 1145 -36 
Q 775 19 384 128 
L 384 978 
Q 719 816 1070 734 
Q 1422 653 1784 653 
Q 2113 653 2278 743 
Q 2444 834 2444 1013 
Q 2444 1163 2330 1236 
Q 2216 1309 1875 1350 
L 1678 1375 
Q 931 1469 631 1722 
Q 331 1975 331 2491 
Q 331 3047 712 3315 
Q 1094 3584 1881 3584 
Q 2191 3584 2531 3537 
Q 2872 3491 3272 3391 
z
" transform="scale(0.015625)"/>
       <path id="DejaVuSans-Bold-f" d="M 653 1209 
L 1778 1209 
L 1778 256 
L 1006 -909 
L 341 -909 
L 653 256 
L 653 1209 
z
" transform="scale(0.015625)"/>
       <path id="DejaVuSans-Bold-4f" d="M 538 4863 
L 1656 4863 
L 1656 0 
L 538 0 
L 538 4863 
z
" transform="scale(0.015625)"/>
       <path id="DejaVuSans-Bold-52" d="M 2203 2784 
Q 1831 2784 1636 2517 
Q 1441 2250 1441 1747 
Q 1441 1244 1636 976 
Q 1831 709 2203 709 
Q 2569 709 2762 976 
Q 2956 1244 2956 1747 
Q 2956 2250 2762 2517 
Q 2569 2784 2203 2784 
z
M 2203 3584 
Q 3106 3584 3614 3096 
Q 4122 2609 4122 1747 
Q 4122 884 3614 396 
Q 3106 -91 2203 -91 
Q 1297 -91 786 396 
Q 275 884 275 1747 
Q 275 2609 786 3096 
Q 1297 3584 2203 3584 
z
" transform="scale(0.015625)"/>
       <path id="DejaVuSans-Bold-4a" d="M 2919 594 
Q 2688 288 2409 144 
Q 2131 0 1766 0 
Q 1125 0 706 504 
Q 288 1009 288 1791 
Q 288 2575 706 3076 
Q 1125 3578 1766 3578 
Q 2131 3578 2409 3434 
Q 2688 3291 2919 2981 
L 2919 3500 
L 4044 3500 
L 4044 353 
Q 4044 -491 3511 -936 
Q 2978 -1381 1966 -1381 
Q 1638 -1381 1331 -1331 
Q 1025 -1281 716 -1178 
L 716 -306 
Q 1009 -475 1290 -558 
Q 1572 -641 1856 -641 
Q 2406 -641 2662 -400 
Q 2919 -159 2919 353 
L 2919 594 
z
M 2181 2772 
Q 1834 2772 1640 2515 
Q 1447 2259 1447 1791 
Q 1447 1309 1634 1061 
Q 1822 813 2181 813 
Q 2531 813 2725 1069 
Q 2919 1325 2919 1791 
Q 2919 2259 2725 2515 
Q 2531 2772 2181 2772 
z
" transform="scale(0.015625)"/>
       <path id="DejaVuSans-Bold-46" d="M 3366 3391 
L 3366 2478 
Q 3138 2634 2908 2709 
Q 2678 2784 2431 2784 
Q 1963 2784 1702 2511 
Q 1441 2238 1441 1747 
Q 1441 1256 1702 982 
Q 1963 709 2431 709 
Q 2694 709 2930 787 
Q 3166 866 3366 1019 
L 3366 103 
Q 3103 6 2833 -42 
Q 2563 -91 2291 -91 
Q 1344 -91 809 395 
Q 275 881 275 1747 
Q 275 2613 809 3098 
Q 1344 3584 2291 3584 
Q 2566 3584 2833 3536 
Q 3100 3488 3366 3391 
z
" transform="scale(0.015625)"/>
       <path id="DejaVuSans-Bold-44" d="M 2106 1575 
Q 1756 1575 1579 1456 
Q 1403 1338 1403 1106 
Q 1403 894 1545 773 
Q 1688 653 1941 653 
Q 2256 653 2472 879 
Q 2688 1106 2688 1447 
L 2688 1575 
L 2106 1575 
z
M 3816 1997 
L 3816 0 
L 2688 0 
L 2688 519 
Q 2463 200 2181 54 
Q 1900 -91 1497 -91 
Q 953 -91 614 226 
Q 275 544 275 1050 
Q 275 1666 698 1953 
Q 1122 2241 2028 2241 
L 2688 2241 
L 2688 2328 
Q 2688 2594 2478 2717 
Q 2269 2841 1825 2841 
Q 1466 2841 1156 2769 
Q 847 2697 581 2553 
L 581 3406 
Q 941 3494 1303 3539 
Q 1666 3584 2028 3584 
Q 2975 3584 3395 3211 
Q 3816 2838 3816 1997 
z
" transform="scale(0.015625)"/>
      </defs>
      <use xlink:href="#DejaVuSans-Bold-37"/>
      <use xlink:href="#DejaVuSans-Bold-4c" transform="translate(68.21875 0)"/>
      <use xlink:href="#DejaVuSans-Bold-50" transform="translate(102.5 0)"/>
      <use xlink:href="#DejaVuSans-Bold-48" transform="translate(206.703125 0)"/>
      <use xlink:href="#DejaVuSans-Bold-3" transform="translate(274.53125 0)"/>
      <use xlink:href="#DejaVuSans-Bold-b" transform="translate(309.34375 0)"/>
      <use xlink:href="#DejaVuSans-Bold-350" transform="translate(355.046875 0)"/>
      <use xlink:href="#DejaVuSans-Bold-56" transform="translate(428.625 0)"/>
      <use xlink:href="#DejaVuSans-Bold-f" transform="translate(488.140625 0)"/>
      <use xlink:href="#DejaVuSans-Bold-3" transform="translate(526.125 0)"/>
      <use xlink:href="#DejaVuSans-Bold-4f" transform="translate(560.9375 0)"/>
      <use xlink:href="#DejaVuSans-Bold-52" transform="translate(595.21875 0)"/>
      <use xlink:href="#DejaVuSans-Bold-4a" transform="translate(663.921875 0)"/>
      <use xlink:href="#DejaVuSans-Bold-3" transform="translate(735.5 0)"/>
      <use xlink:href="#DejaVuSans-Bold-56" transform="translate(770.3125 0)"/>
      <use xlink:href="#DejaVuSans-Bold-46" transform="translate(829.828125 0)"/>
      <use xlink:href="#DejaVuSans-Bold-44" transform="translate(889.109375 0)"/>
      <use xlink:href="#DejaVuSans-Bold-4f" transform="translate(956.59375 0)"/>
      <use xlink:href="#DejaVuSans-Bold-48" transform="translate(990.875 0)"/>
      <use xlink:href="#DejaVuSans-Bold-c" transform="translate(1058.703125 0)"/>
     </g>
    </g>
   </g>
   <g id="line2d_34">
    <path d="M 88.101719 380.530022 
L 95.419644 430.509823 
L 113.714457 456.412437 
L 132.00927 472.276228 
L 150.304082 479.000274 
L 168.598895 473.064033 
L 186.893708 486.717897 
L 260.072959 487.810765 
L 351.547023 491.071839 
L 443.021087 491.062008 
L 625.969216 497.960987 
L 808.917344 497.849893 
" clip-path="url(#p6d34d10a0e)" style="fill: none; stroke: #4c72b0; stroke-width: 2; stroke-linecap: round"/>
    <defs>
     <path id="m9db12ad349" d="M 0 4 
C 1.060812 4 2.078319 3.578535 2.828427 2.828427 
C 3.578535 2.078319 4 1.060812 4 0 
C 4 -1.060812 3.578535 -2.078319 2.828427 -2.828427 
C 2.078319 -3.578535 1.060812 -4 0 -4 
C -1.060812 -4 -2.078319 -3.578535 -2.828427 -2.828427 
C -3.578535 -2.078319 -4 -1.060812 -4 0 
C -4 1.060812 -3.578535 2.078319 -2.828427 2.828427 
C -2.078319 3.578535 -1.060812 4 0 4 
z
" style="stroke: #4c72b0"/>
    </defs>
    <g clip-path="url(#p6d34d10a0e)">
     <use xlink:href="#m9db12ad349" x="88.101719" y="380.530022" style="fill: #4c72b0; stroke: #4c72b0"/>
     <use xlink:href="#m9db12ad349" x="95.419644" y="430.509823" style="fill: #4c72b0; stroke: #4c72b0"/>
     <use xlink:href="#m9db12ad349" x="113.714457" y="456.412437" style="fill: #4c72b0; stroke: #4c72b0"/>
     <use xlink:href="#m9db12ad349" x="132.00927" y="472.276228" style="fill: #4c72b0; stroke: #4c72b0"/>
     <use xlink:href="#m9db12ad349" x="150.304082" y="479.000274" style="fill: #4c72b0; stroke: #4c72b0"/>
     <use xlink:href="#m9db12ad349" x="168.598895" y="473.064033" style="fill: #4c72b0; stroke: #4c72b0"/>
     <use xlink:href="#m9db12ad349" x="186.893708" y="486.717897" style="fill: #4c72b0; stroke: #4c72b0"/>
     <use xlink:href="#m9db12ad349" x="260.072959" y="487.810765" style="fill: #4c72b0; stroke: #4c72b0"/>
     <use xlink:href="#m9db12ad349" x="351.547023" y="491.071839" style="fill: #4c72b0; stroke: #4c72b0"/>
     <use xlink:href="#m9db12ad349" x="443.021087" y="491.062008" style="fill: #4c72b0; stroke: #4c72b0"/>
     <use xlink:href="#m9db12ad349" x="625.969216" y="497.960987" style="fill: #4c72b0; stroke: #4c72b0"/>
     <use xlink:href="#m9db12ad349" x="808.917344" y="497.849893" style="fill: #4c72b0; stroke: #4c72b0"/>
    </g>
   </g>
   <g id="line2d_35">
    <path d="M 88.101719 216.531994 
L 95.419644 274.428532 
L 113.714457 323.069108 
L 132.00927 339.398384 
L 150.304082 350.236518 
L 168.598895 358.386434 
L 186.893708 363.029405 
L 260.072959 371.943974 
L 351.547023 375.289633 
L 443.021087 377.351142 
L 625.969216 376.550982 
L 808.917344 378.074532 
" clip-path="url(#p6d34d10a0e)" style="fill: none; stroke: #dd8452; stroke-width: 2; stroke-linecap: round"/>
    <defs>
     <path id="mfad74c9f82" d="M 0 4 
C 1.060812 4 2.078319 3.578535 2.828427 2.828427 
C 3.578535 2.078319 4 1.060812 4 0 
C 4 -1.060812 3.578535 -2.078319 2.828427 -2.828427 
C 2.078319 -3.578535 1.060812 -4 0 -4 
C -1.060812 -4 -2.078319 -3.578535 -2.828427 -2.828427 
C -3.578535 -2.078319 -4 -1.060812 -4 0 
C -4 1.060812 -3.578535 2.078319 -2.828427 2.828427 
C -2.078319 3.578535 -1.060812 4 0 4 
z
" style="stroke: #dd8452"/>
    </defs>
    <g clip-path="url(#p6d34d10a0e)">
     <use xlink:href="#mfad74c9f82" x="88.101719" y="216.531994" style="fill: #dd8452; stroke: #dd8452"/>
     <use xlink:href="#mfad74c9f82" x="95.419644" y="274.428532" style="fill: #dd8452; stroke: #dd8452"/>
     <use xlink:href="#mfad74c9f82" x="113.714457" y="323.069108" style="fill: #dd8452; stroke: #dd8452"/>
     <use xlink:href="#mfad74c9f82" x="132.00927" y="339.398384" style="fill: #dd8452; stroke: #dd8452"/>
     <use xlink:href="#mfad74c9f82" x="150.304082" y="350.236518" style="fill: #dd8452; stroke: #dd8452"/>
     <use xlink:href="#mfad74c9f82" x="168.598895" y="358.386434" style="fill: #dd8452; stroke: #dd8452"/>
     <use xlink:href="#mfad74c9f82" x="186.893708" y="363.029405" style="fill: #dd8452; stroke: #dd8452"/>
     <use xlink:href="#mfad74c9f82" x="260.072959" y="371.943974" style="fill: #dd8452; stroke: #dd8452"/>
     <use xlink:href="#mfad74c9f82" x="351.547023" y="375.289633" style="fill: #dd8452; stroke: #dd8452"/>
     <use xlink:href="#mfad74c9f82" x="443.021087" y="377.351142" style="fill: #dd8452; stroke: #dd8452"/>
     <use xlink:href="#mfad74c9f82" x="625.969216" y="376.550982" style="fill: #dd8452; stroke: #dd8452"/>
     <use xlink:href="#mfad74c9f82" x="808.917344" y="378.074532" style="fill: #dd8452; stroke: #dd8452"/>
    </g>
   </g>
   <g id="line2d_36">
    <path d="M 88.101719 165.671278 
L 95.419644 220.389329 
L 113.714457 270.475209 
L 132.00927 288.200989 
L 150.304082 299.176752 
L 168.598895 305.173986 
L 186.893708 308.325777 
L 260.072959 319.735194 
L 351.547023 323.31815 
L 443.021087 326.344922 
L 625.969216 327.136082 
L 808.917344 327.18586 
" clip-path="url(#p6d34d10a0e)" style="fill: none; stroke: #55a868; stroke-width: 2; stroke-linecap: round"/>
    <defs>
     <path id="m44ec47d952" d="M 0 4 
C 1.060812 4 2.078319 3.578535 2.828427 2.828427 
C 3.578535 2.078319 4 1.060812 4 0 
C 4 -1.060812 3.578535 -2.078319 2.828427 -2.828427 
C 2.078319 -3.578535 1.060812 -4 0 -4 
C -1.060812 -4 -2.078319 -3.578535 -2.828427 -2.828427 
C -3.578535 -2.078319 -4 -1.060812 -4 0 
C -4 1.060812 -3.578535 2.078319 -2.828427 2.828427 
C -2.078319 3.578535 -1.060812 4 0 4 
z
" style="stroke: #55a868"/>
    </defs>
    <g clip-path="url(#p6d34d10a0e)">
     <use xlink:href="#m44ec47d952" x="88.101719" y="165.671278" style="fill: #55a868; stroke: #55a868"/>
     <use xlink:href="#m44ec47d952" x="95.419644" y="220.389329" style="fill: #55a868; stroke: #55a868"/>
     <use xlink:href="#m44ec47d952" x="113.714457" y="270.475209" style="fill: #55a868; stroke: #55a868"/>
     <use xlink:href="#m44ec47d952" x="132.00927" y="288.200989" style="fill: #55a868; stroke: #55a868"/>
     <use xlink:href="#m44ec47d952" x="150.304082" y="299.176752" style="fill: #55a868; stroke: #55a868"/>
     <use xlink:href="#m44ec47d952" x="168.598895" y="305.173986" style="fill: #55a868; stroke: #55a868"/>
     <use xlink:href="#m44ec47d952" x="186.893708" y="308.325777" style="fill: #55a868; stroke: #55a868"/>
     <use xlink:href="#m44ec47d952" x="260.072959" y="319.735194" style="fill: #55a868; stroke: #55a868"/>
     <use xlink:href="#m44ec47d952" x="351.547023" y="323.31815" style="fill: #55a868; stroke: #55a868"/>
     <use xlink:href="#m44ec47d952" x="443.021087" y="326.344922" style="fill: #55a868; stroke: #55a868"/>
     <use xlink:href="#m44ec47d952" x="625.969216" y="327.136082" style="fill: #55a868; stroke: #55a868"/>
     <use xlink:href="#m44ec47d952" x="808.917344" y="327.18586" style="fill: #55a868; stroke: #55a868"/>
    </g>
   </g>
   <g id="line2d_37">
    <path d="M 88.101719 46.415107 
L 95.419644 99.354113 
L 113.714457 146.812081 
L 132.00927 164.893511 
L 150.304082 175.060839 
L 168.598895 180.605651 
L 186.893708 183.981515 
L 260.072959 193.431075 
L 351.547023 198.410085 
L 443.021087 201.09372 
L 625.969216 201.609718 
L 808.917344 203.563289 
" clip-path="url(#p6d34d10a0e)" style="fill: none; stroke: #c44e52; stroke-width: 2; stroke-linecap: round"/>
    <defs>
     <path id="maeedcd48ca" d="M 0 4 
C 1.060812 4 2.078319 3.578535 2.828427 2.828427 
C 3.578535 2.078319 4 1.060812 4 0 
C 4 -1.060812 3.578535 -2.078319 2.828427 -2.828427 
C 2.078319 -3.578535 1.060812 -4 0 -4 
C -1.060812 -4 -2.078319 -3.578535 -2.828427 -2.828427 
C -3.578535 -2.078319 -4 -1.060812 -4 0 
C -4 1.060812 -3.578535 2.078319 -2.828427 2.828427 
C -2.078319 3.578535 -1.060812 4 0 4 
z
" style="stroke: #c44e52"/>
    </defs>
    <g clip-path="url(#p6d34d10a0e)">
     <use xlink:href="#maeedcd48ca" x="88.101719" y="46.415107" style="fill: #c44e52; stroke: #c44e52"/>
     <use xlink:href="#maeedcd48ca" x="95.419644" y="99.354113" style="fill: #c44e52; stroke: #c44e52"/>
     <use xlink:href="#maeedcd48ca" x="113.714457" y="146.812081" style="fill: #c44e52; stroke: #c44e52"/>
     <use xlink:href="#maeedcd48ca" x="132.00927" y="164.893511" style="fill: #c44e52; stroke: #c44e52"/>
     <use xlink:href="#maeedcd48ca" x="150.304082" y="175.060839" style="fill: #c44e52; stroke: #c44e52"/>
     <use xlink:href="#maeedcd48ca" x="168.598895" y="180.605651" style="fill: #c44e52; stroke: #c44e52"/>
     <use xlink:href="#maeedcd48ca" x="186.893708" y="183.981515" style="fill: #c44e52; stroke: #c44e52"/>
     <use xlink:href="#maeedcd48ca" x="260.072959" y="193.431075" style="fill: #c44e52; stroke: #c44e52"/>
     <use xlink:href="#maeedcd48ca" x="351.547023" y="198.410085" style="fill: #c44e52; stroke: #c44e52"/>
     <use xlink:href="#maeedcd48ca" x="443.021087" y="201.09372" style="fill: #c44e52; stroke: #c44e52"/>
     <use xlink:href="#maeedcd48ca" x="625.969216" y="201.609718" style="fill: #c44e52; stroke: #c44e52"/>
     <use xlink:href="#maeedcd48ca" x="808.917344" y="203.563289" style="fill: #c44e52; stroke: #c44e52"/>
    </g>
   </g>
   <g id="patch_3">
    <path d="M 52.060938 520.538281 
L 52.060938 23.837812 
" style="fill: none; stroke: #cccccc; stroke-width: 1.25; stroke-linejoin: miter; stroke-linecap: square"/>
   </g>
   <g id="patch_4">
    <path d="M 844.958125 520.538281 
L 844.958125 23.837812 
" style="fill: none; stroke: #cccccc; stroke-width: 1.25; stroke-linejoin: miter; stroke-linecap: square"/>
   </g>
   <g id="patch_5">
    <path d="M 52.060938 520.538281 
L 844.958125 520.538281 
" style="fill: none; stroke: #cccccc; stroke-width: 1.25; stroke-linejoin: miter; stroke-linecap: square"/>
   </g>
   <g id="patch_6">
    <path d="M 52.060938 23.837812 
L 844.958125 23.837812 
" style="fill: none; stroke: #cccccc; stroke-width: 1.25; stroke-linejoin: miter; stroke-linecap: square"/>
   </g>
   <g id="text_14">
    <!-- Time vs Order - Bulk Sorted -->
    <g style="fill: #262626" transform="translate(339.080938 17.837812) scale(0.14 -0.14)">
     <defs>
      <path id="DejaVuSans-Bold-59" d="M 97 3500 
L 1216 3500 
L 2088 1081 
L 2956 3500 
L 4078 3500 
L 2700 0 
L 1472 0 
L 97 3500 
z
" transform="scale(0.015625)"/>
      <path id="DejaVuSans-Bold-10" d="M 347 2297 
L 2309 2297 
L 2309 1388 
L 347 1388 
L 347 2297 
z
" transform="scale(0.015625)"/>
      <path id="DejaVuSans-Bold-25" d="M 2456 2859 
Q 2741 2859 2887 2984 
Q 3034 3109 3034 3353 
Q 3034 3594 2887 3720 
Q 2741 3847 2456 3847 
L 1791 3847 
L 1791 2859 
L 2456 2859 
z
M 2497 819 
Q 2859 819 3042 972 
Q 3225 1125 3225 1434 
Q 3225 1738 3044 1889 
Q 2863 2041 2497 2041 
L 1791 2041 
L 1791 819 
L 2497 819 
z
M 3616 2497 
Q 4003 2384 4215 2081 
Q 4428 1778 4428 1338 
Q 4428 663 3972 331 
Q 3516 0 2584 0 
L 588 0 
L 588 4666 
L 2394 4666 
Q 3366 4666 3802 4372 
Q 4238 4078 4238 3431 
Q 4238 3091 4078 2852 
Q 3919 2613 3616 2497 
z
" transform="scale(0.015625)"/>
      <path id="DejaVuSans-Bold-58" d="M 500 1363 
L 500 3500 
L 1625 3500 
L 1625 3150 
Q 1625 2866 1622 2436 
Q 1619 2006 1619 1863 
Q 1619 1441 1641 1255 
Q 1663 1069 1716 984 
Q 1784 875 1895 815 
Q 2006 756 2150 756 
Q 2500 756 2700 1025 
Q 2900 1294 2900 1772 
L 2900 3500 
L 4019 3500 
L 4019 0 
L 2900 0 
L 2900 506 
Q 2647 200 2364 54 
Q 2081 -91 1741 -91 
Q 1134 -91 817 281 
Q 500 653 500 1363 
z
" transform="scale(0.015625)"/>
      <path id="DejaVuSans-Bold-36" d="M 3834 4519 
L 3834 3531 
Q 3450 3703 3084 3790 
Q 2719 3878 2394 3878 
Q 1963 3878 1756 3759 
Q 1550 3641 1550 3391 
Q 1550 3203 1689 3098 
Q 1828 2994 2194 2919 
L 2706 2816 
Q 3484 2659 3812 2340 
Q 4141 2022 4141 1434 
Q 4141 663 3683 286 
Q 3225 -91 2284 -91 
Q 1841 -91 1394 -6 
Q 947 78 500 244 
L 500 1259 
Q 947 1022 1364 901 
Q 1781 781 2169 781 
Q 2563 781 2772 912 
Q 2981 1044 2981 1288 
Q 2981 1506 2839 1625 
Q 2697 1744 2272 1838 
L 1806 1941 
Q 1106 2091 782 2419 
Q 459 2747 459 3303 
Q 459 4000 909 4375 
Q 1359 4750 2203 4750 
Q 2588 4750 2994 4692 
Q 3400 4634 3834 4519 
z
" transform="scale(0.015625)"/>
      <path id="DejaVuSans-Bold-57" d="M 1759 4494 
L 1759 3500 
L 2913 3500 
L 2913 2700 
L 1759 2700 
L 1759 1216 
Q 1759 972 1856 886 
Q 1953 800 2241 800 
L 2816 800 
L 2816 0 
L 1856 0 
Q 1194 0 917 276 
Q 641 553 641 1216 
L 641 2700 
L 84 2700 
L 84 3500 
L 641 3500 
L 641 4494 
L 1759 4494 
z
" transform="scale(0.015625)"/>
     </defs>
     <use xlink:href="#DejaVuSans-Bold-37"/>
     <use xlink:href="#DejaVuSans-Bold-4c" transform="translate(68.21875 0)"/>
     <use xlink:href="#DejaVuSans-Bold-50" transform="translate(102.5 0)"/>
     <use xlink:href="#DejaVuSans-Bold-48" transform="translate(206.703125 0)"/>
     <use xlink:href="#DejaVuSans-Bold-3" transform="translate(274.53125 0)"/>
     <use xlink:href="#DejaVuSans-Bold-59" transform="translate(309.34375 0)"/>
     <use xlink:href="#DejaVuSans-Bold-56" transform="translate(374.53125 0)"/>
     <use xlink:href="#DejaVuSans-Bold-3" transform="translate(434.046875 0)"/>
     <use xlink:href="#DejaVuSans-Bold-32" transform="translate(468.859375 0)"/>
     <use xlink:href="#DejaVuSans-Bold-55" transform="translate(553.875 0)"/>
     <use xlink:href="#DejaVuSans-Bold-47" transform="translate(603.1875 0)"/>
     <use xlink:href="#DejaVuSans-Bold-48" transform="translate(674.765625 0)"/>
     <use xlink:href="#DejaVuSans-Bold-55" transform="translate(742.59375 0)"/>
     <use xlink:href="#DejaVuSans-Bold-3" transform="translate(791.90625 0)"/>
     <use xlink:href="#DejaVuSans-Bold-10" transform="translate(826.71875 0)"/>
     <use xlink:href="#DejaVuSans-Bold-3" transform="translate(868.21875 0)"/>
     <use xlink:href="#DejaVuSans-Bold-25" transform="translate(903.03125 0)"/>
     <use xlink:href="#DejaVuSans-Bold-58" transform="translate(979.25 0)"/>
     <use xlink:href="#DejaVuSans-Bold-4f" transform="translate(1050.4375 0)"/>
     <use xlink:href="#DejaVuSans-Bold-4e" transform="translate(1084.71875 0)"/>
     <use xlink:href="#DejaVuSans-Bold-3" transform="translate(1151.21875 0)"/>
     <use xlink:href="#DejaVuSans-Bold-36" transform="translate(1186.03125 0)"/>
     <use xlink:href="#DejaVuSans-Bold-52" transform="translate(1258.046875 0)"/>
     <use xlink:href="#DejaVuSans-Bold-55" transform="translate(1326.75 0)"/>
     <use xlink:href="#DejaVuSans-Bold-57" transform="translate(1376.0625 0)"/>
     <use xlink:href="#DejaVuSans-Bold-48" transform="translate(1423.859375 0)"/>
     <use xlink:href="#DejaVuSans-Bold-47" transform="translate(1491.6875 0)"/>
    </g>
   </g>
   <g id="legend_1">
    <g id="patch_7">
     <path d="M 733.995625 107.841797 
L 837.958125 107.841797 
Q 839.958125 107.841797 839.958125 105.841797 
L 839.958125 30.837812 
Q 839.958125 28.837812 837.958125 28.837812 
L 733.995625 28.837812 
Q 731.995625 28.837812 731.995625 30.837812 
L 731.995625 105.841797 
Q 731.995625 107.841797 733.995625 107.841797 
z
" style="fill: #ffffff; opacity: 0.8; stroke: #cccccc; stroke-linejoin: miter"/>
    </g>
    <g id="text_15">
     <!-- Dataset Size -->
     <g style="fill: #262626" transform="translate(751.400781 41.196094) scale(0.11 -0.11)">
      <defs>
       <path id="DejaVuSans-27" d="M 1259 4147 
L 1259 519 
L 2022 519 
Q 2988 519 3436 956 
Q 3884 1394 3884 2338 
Q 3884 3275 3436 3711 
Q 2988 4147 2022 4147 
L 1259 4147 
z
M 628 4666 
L 1925 4666 
Q 3281 4666 3915 4102 
Q 4550 3538 4550 2338 
Q 4550 1131 3912 565 
Q 3275 0 1925 0 
L 628 0 
L 628 4666 
z
" transform="scale(0.015625)"/>
       <path id="DejaVuSans-44" d="M 2194 1759 
Q 1497 1759 1228 1600 
Q 959 1441 959 1056 
Q 959 750 1161 570 
Q 1363 391 1709 391 
Q 2188 391 2477 730 
Q 2766 1069 2766 1631 
L 2766 1759 
L 2194 1759 
z
M 3341 1997 
L 3341 0 
L 2766 0 
L 2766 531 
Q 2569 213 2275 61 
Q 1981 -91 1556 -91 
Q 1019 -91 701 211 
Q 384 513 384 1019 
Q 384 1609 779 1909 
Q 1175 2209 1959 2209 
L 2766 2209 
L 2766 2266 
Q 2766 2663 2505 2880 
Q 2244 3097 1772 3097 
Q 1472 3097 1187 3025 
Q 903 2953 641 2809 
L 641 3341 
Q 956 3463 1253 3523 
Q 1550 3584 1831 3584 
Q 2591 3584 2966 3190 
Q 3341 2797 3341 1997 
z
" transform="scale(0.015625)"/>
       <path id="DejaVuSans-57" d="M 1172 4494 
L 1172 3500 
L 2356 3500 
L 2356 3053 
L 1172 3053 
L 1172 1153 
Q 1172 725 1289 603 
Q 1406 481 1766 481 
L 2356 481 
L 2356 0 
L 1766 0 
Q 1100 0 847 248 
Q 594 497 594 1153 
L 594 3053 
L 172 3053 
L 172 3500 
L 594 3500 
L 594 4494 
L 1172 4494 
z
" transform="scale(0.015625)"/>
       <path id="DejaVuSans-56" d="M 2834 3397 
L 2834 2853 
Q 2591 2978 2328 3040 
Q 2066 3103 1784 3103 
Q 1356 3103 1142 2972 
Q 928 2841 928 2578 
Q 928 2378 1081 2264 
Q 1234 2150 1697 2047 
L 1894 2003 
Q 2506 1872 2764 1633 
Q 3022 1394 3022 966 
Q 3022 478 2636 193 
Q 2250 -91 1575 -91 
Q 1294 -91 989 -36 
Q 684 19 347 128 
L 347 722 
Q 666 556 975 473 
Q 1284 391 1588 391 
Q 1994 391 2212 530 
Q 2431 669 2431 922 
Q 2431 1156 2273 1281 
Q 2116 1406 1581 1522 
L 1381 1569 
Q 847 1681 609 1914 
Q 372 2147 372 2553 
Q 372 3047 722 3315 
Q 1072 3584 1716 3584 
Q 2034 3584 2315 3537 
Q 2597 3491 2834 3397 
z
" transform="scale(0.015625)"/>
       <path id="DejaVuSans-48" d="M 3597 1894 
L 3597 1613 
L 953 1613 
Q 991 1019 1311 708 
Q 1631 397 2203 397 
Q 2534 397 2845 478 
Q 3156 559 3463 722 
L 3463 178 
Q 3153 47 2828 -22 
Q 2503 -91 2169 -91 
Q 1331 -91 842 396 
Q 353 884 353 1716 
Q 353 2575 817 3079 
Q 1281 3584 2069 3584 
Q 2775 3584 3186 3129 
Q 3597 2675 3597 1894 
z
M 3022 2063 
Q 3016 2534 2758 2815 
Q 2500 3097 2075 3097 
Q 1594 3097 1305 2825 
Q 1016 2553 972 2059 
L 3022 2063 
z
" transform="scale(0.015625)"/>
       <path id="DejaVuSans-3" transform="scale(0.015625)"/>
       <path id="DejaVuSans-36" d="M 3425 4513 
L 3425 3897 
Q 3066 4069 2747 4153 
Q 2428 4238 2131 4238 
Q 1616 4238 1336 4038 
Q 1056 3838 1056 3469 
Q 1056 3159 1242 3001 
Q 1428 2844 1947 2747 
L 2328 2669 
Q 3034 2534 3370 2195 
Q 3706 1856 3706 1288 
Q 3706 609 3251 259 
Q 2797 -91 1919 -91 
Q 1588 -91 1214 -16 
Q 841 59 441 206 
L 441 856 
Q 825 641 1194 531 
Q 1563 422 1919 422 
Q 2459 422 2753 634 
Q 3047 847 3047 1241 
Q 3047 1584 2836 1778 
Q 2625 1972 2144 2069 
L 1759 2144 
Q 1053 2284 737 2584 
Q 422 2884 422 3419 
Q 422 4038 858 4394 
Q 1294 4750 2059 4750 
Q 2388 4750 2728 4690 
Q 3069 4631 3425 4513 
z
" transform="scale(0.015625)"/>
       <path id="DejaVuSans-4c" d="M 603 3500 
L 1178 3500 
L 1178 0 
L 603 0 
L 603 3500 
z
M 603 4863 
L 1178 4863 
L 1178 4134 
L 603 4134 
L 603 4863 
z
" transform="scale(0.015625)"/>
       <path id="DejaVuSans-5d" d="M 353 3500 
L 3084 3500 
L 3084 2975 
L 922 459 
L 3084 459 
L 3084 0 
L 275 0 
L 275 525 
L 2438 3041 
L 353 3041 
L 353 3500 
z
" transform="scale(0.015625)"/>
      </defs>
      <use xlink:href="#DejaVuSans-27"/>
      <use xlink:href="#DejaVuSans-44" transform="translate(77 0)"/>
      <use xlink:href="#DejaVuSans-57" transform="translate(138.28125 0)"/>
      <use xlink:href="#DejaVuSans-44" transform="translate(177.484375 0)"/>
      <use xlink:href="#DejaVuSans-56" transform="translate(238.765625 0)"/>
      <use xlink:href="#DejaVuSans-48" transform="translate(290.859375 0)"/>
      <use xlink:href="#DejaVuSans-57" transform="translate(352.390625 0)"/>
      <use xlink:href="#DejaVuSans-3" transform="translate(391.59375 0)"/>
      <use xlink:href="#DejaVuSans-36" transform="translate(423.375 0)"/>
      <use xlink:href="#DejaVuSans-4c" transform="translate(486.859375 0)"/>
      <use xlink:href="#DejaVuSans-5d" transform="translate(514.640625 0)"/>
      <use xlink:href="#DejaVuSans-48" transform="translate(567.125 0)"/>
     </g>
    </g>
    <g id="line2d_38">
     <path d="M 735.995625 52.937109 
L 745.995625 52.937109 
L 755.995625 52.937109 
" style="fill: none; stroke: #4c72b0; stroke-width: 2; stroke-linecap: round"/>
     <g>
      <use xlink:href="#m9db12ad349" x="745.995625" y="52.937109" style="fill: #4c72b0; stroke: #4c72b0"/>
     </g>
    </g>
    <g id="text_16">
     <!-- 100 intervals -->
     <g style="fill: #262626" transform="translate(763.995625 56.437109) scale(0.1 -0.1)">
      <defs>
       <path id="DejaVuSans-51" d="M 3513 2113 
L 3513 0 
L 2938 0 
L 2938 2094 
Q 2938 2591 2744 2837 
Q 2550 3084 2163 3084 
Q 1697 3084 1428 2787 
Q 1159 2491 1159 1978 
L 1159 0 
L 581 0 
L 581 3500 
L 1159 3500 
L 1159 2956 
Q 1366 3272 1645 3428 
Q 1925 3584 2291 3584 
Q 2894 3584 3203 3211 
Q 3513 2838 3513 2113 
z
" transform="scale(0.015625)"/>
       <path id="DejaVuSans-55" d="M 2631 2963 
Q 2534 3019 2420 3045 
Q 2306 3072 2169 3072 
Q 1681 3072 1420 2755 
Q 1159 2438 1159 1844 
L 1159 0 
L 581 0 
L 581 3500 
L 1159 3500 
L 1159 2956 
Q 1341 3275 1631 3429 
Q 1922 3584 2338 3584 
Q 2397 3584 2469 3576 
Q 2541 3569 2628 3553 
L 2631 2963 
z
" transform="scale(0.015625)"/>
       <path id="DejaVuSans-59" d="M 191 3500 
L 800 3500 
L 1894 563 
L 2988 3500 
L 3597 3500 
L 2284 0 
L 1503 0 
L 191 3500 
z
" transform="scale(0.015625)"/>
       <path id="DejaVuSans-4f" d="M 603 4863 
L 1178 4863 
L 1178 0 
L 603 0 
L 603 4863 
z
" transform="scale(0.015625)"/>
      </defs>
      <use xlink:href="#DejaVuSans-14"/>
      <use xlink:href="#DejaVuSans-13" transform="translate(63.625 0)"/>
      <use xlink:href="#DejaVuSans-13" transform="translate(127.25 0)"/>
      <use xlink:href="#DejaVuSans-3" transform="translate(190.875 0)"/>
      <use xlink:href="#DejaVuSans-4c" transform="translate(222.65625 0)"/>
      <use xlink:href="#DejaVuSans-51" transform="translate(250.4375 0)"/>
      <use xlink:href="#DejaVuSans-57" transform="translate(313.8125 0)"/>
      <use xlink:href="#DejaVuSans-48" transform="translate(353.015625 0)"/>
      <use xlink:href="#DejaVuSans-55" transform="translate(414.546875 0)"/>
      <use xlink:href="#DejaVuSans-59" transform="translate(455.65625 0)"/>
      <use xlink:href="#DejaVuSans-44" transform="translate(514.84375 0)"/>
      <use xlink:href="#DejaVuSans-4f" transform="translate(576.125 0)"/>
      <use xlink:href="#DejaVuSans-56" transform="translate(603.90625 0)"/>
     </g>
    </g>
    <g id="line2d_39">
     <path d="M 735.995625 67.937891 
L 745.995625 67.937891 
L 755.995625 67.937891 
" style="fill: none; stroke: #dd8452; stroke-width: 2; stroke-linecap: round"/>
     <g>
      <use xlink:href="#mfad74c9f82" x="745.995625" y="67.937891" style="fill: #dd8452; stroke: #dd8452"/>
     </g>
    </g>
    <g id="text_17">
     <!-- 500 intervals -->
     <g style="fill: #262626" transform="translate(763.995625 71.437891) scale(0.1 -0.1)">
      <use xlink:href="#DejaVuSans-18"/>
      <use xlink:href="#DejaVuSans-13" transform="translate(63.625 0)"/>
      <use xlink:href="#DejaVuSans-13" transform="translate(127.25 0)"/>
      <use xlink:href="#DejaVuSans-3" transform="translate(190.875 0)"/>
      <use xlink:href="#DejaVuSans-4c" transform="translate(222.65625 0)"/>
      <use xlink:href="#DejaVuSans-51" transform="translate(250.4375 0)"/>
      <use xlink:href="#DejaVuSans-57" transform="translate(313.8125 0)"/>
      <use xlink:href="#DejaVuSans-48" transform="translate(353.015625 0)"/>
      <use xlink:href="#DejaVuSans-55" transform="translate(414.546875 0)"/>
      <use xlink:href="#DejaVuSans-59" transform="translate(455.65625 0)"/>
      <use xlink:href="#DejaVuSans-44" transform="translate(514.84375 0)"/>
      <use xlink:href="#DejaVuSans-4f" transform="translate(576.125 0)"/>
      <use xlink:href="#DejaVuSans-56" transform="translate(603.90625 0)"/>
     </g>
    </g>
    <g id="line2d_40">
     <path d="M 735.995625 82.938672 
L 745.995625 82.938672 
L 755.995625 82.938672 
" style="fill: none; stroke: #55a868; stroke-width: 2; stroke-linecap: round"/>
     <g>
      <use xlink:href="#m44ec47d952" x="745.995625" y="82.938672" style="fill: #55a868; stroke: #55a868"/>
     </g>
    </g>
    <g id="text_18">
     <!-- 1000 intervals -->
     <g style="fill: #262626" transform="translate(763.995625 86.438672) scale(0.1 -0.1)">
      <use xlink:href="#DejaVuSans-14"/>
      <use xlink:href="#DejaVuSans-13" transform="translate(63.625 0)"/>
      <use xlink:href="#DejaVuSans-13" transform="translate(127.25 0)"/>
      <use xlink:href="#DejaVuSans-13" transform="translate(190.875 0)"/>
      <use xlink:href="#DejaVuSans-3" transform="translate(254.5 0)"/>
      <use xlink:href="#DejaVuSans-4c" transform="translate(286.28125 0)"/>
      <use xlink:href="#DejaVuSans-51" transform="translate(314.0625 0)"/>
      <use xlink:href="#DejaVuSans-57" transform="translate(377.4375 0)"/>
      <use xlink:href="#DejaVuSans-48" transform="translate(416.640625 0)"/>
      <use xlink:href="#DejaVuSans-55" transform="translate(478.171875 0)"/>
      <use xlink:href="#DejaVuSans-59" transform="translate(519.28125 0)"/>
      <use xlink:href="#DejaVuSans-44" transform="translate(578.46875 0)"/>
      <use xlink:href="#DejaVuSans-4f" transform="translate(639.75 0)"/>
      <use xlink:href="#DejaVuSans-56" transform="translate(667.53125 0)"/>
     </g>
    </g>
    <g id="line2d_41">
     <path d="M 735.995625 97.939453 
L 745.995625 97.939453 
L 755.995625 97.939453 
" style="fill: none; stroke: #c44e52; stroke-width: 2; stroke-linecap: round"/>
     <g>
      <use xlink:href="#maeedcd48ca" x="745.995625" y="97.939453" style="fill: #c44e52; stroke: #c44e52"/>
     </g>
    </g>
    <g id="text_19">
     <!-- 5000 intervals -->
     <g style="fill: #262626" transform="translate(763.995625 101.439453) scale(0.1 -0.1)">
      <use xlink:href="#DejaVuSans-18"/>
      <use xlink:href="#DejaVuSans-13" transform="translate(63.625 0)"/>
      <use xlink:href="#DejaVuSans-13" transform="translate(127.25 0)"/>
      <use xlink:href="#DejaVuSans-13" transform="translate(190.875 0)"/>
      <use xlink:href="#DejaVuSans-3" transform="translate(254.5 0)"/>
      <use xlink:href="#DejaVuSans-4c" transform="translate(286.28125 0)"/>
      <use xlink:href="#DejaVuSans-51" transform="translate(314.0625 0)"/>
      <use xlink:href="#DejaVuSans-57" transform="translate(377.4375 0)"/>
      <use xlink:href="#DejaVuSans-48" transform="translate(416.640625 0)"/>
      <use xlink:href="#DejaVuSans-55" transform="translate(478.171875 0)"/>
      <use xlink:href="#DejaVuSans-59" transform="translate(519.28125 0)"/>
      <use xlink:href="#DejaVuSans-44" transform="translate(578.46875 0)"/>
      <use xlink:href="#DejaVuSans-4f" transform="translate(639.75 0)"/>
      <use xlink:href="#DejaVuSans-56" transform="translate(667.53125 0)"/>
     </g>
    </g>
   </g>
  </g>
 </g>
 <defs>
  <clipPath id="p6d34d10a0e">
   <rect x="52.060938" y="23.837812" width="792.897188" height="496.700469"/>
  </clipPath>
 </defs>
</svg>
