<?xml version="1.0" encoding="utf-8" standalone="no"?>
<!DOCTYPE svg PUBLIC "-//W3C//DTD SVG 1.1//EN"
  "http://www.w3.org/Graphics/SVG/1.1/DTD/svg11.dtd">
<svg xmlns:xlink="http://www.w3.org/1999/xlink" width="850.832479pt" height="562.8175pt" viewBox="0 0 850.832479 562.8175" xmlns="http://www.w3.org/2000/svg" version="1.1">
 <metadata>
  <rdf:RDF xmlns:dc="http://purl.org/dc/elements/1.1/" xmlns:cc="http://creativecommons.org/ns#" xmlns:rdf="http://www.w3.org/1999/02/22-rdf-syntax-ns#">
   <cc:Work>
    <dc:type rdf:resource="http://purl.org/dc/dcmitype/StillImage"/>
    <dc:date>2026-05-27T17:53:51.924912</dc:date>
    <dc:format>image/svg+xml</dc:format>
    <dc:creator>
     <cc:Agent>
      <dc:title>Matplotlib v3.10.9, https://matplotlib.org/</dc:title>
     </cc:Agent>
    </dc:creator>
   </cc:Work>
  </rdf:RDF>
 </metadata>
 <defs>
  <style type="text/css">*{stroke-linejoin: round; stroke-linecap: butt}</style>
 </defs>
 <g id="figure_1">
  <g id="patch_1">
   <path d="M 0 562.8175 
L 850.832479 562.8175 
L 850.832479 0 
L 0 0 
z
" style="fill: #ffffff"/>
  </g>
  <g id="axes_1">
   <g id="patch_2">
    <path d="M 51.7675 519.857813 
L 843.632479 519.857813 
L 843.632479 23.837812 
L 51.7675 23.837812 
z
" style="fill: #ffffff"/>
   </g>
   <g id="matplotlib.axis_1">
    <g id="xtick_1">
     <g id="line2d_1">
      <path d="M 73.06999 519.857813 
L 73.06999 23.837812 
" clip-path="url(#pe5edcdefd2)" style="fill: none; stroke: #cccccc; stroke-opacity: 0.3; stroke-linecap: round"/>
     </g>
     <g id="text_1">
      <!-- 0 -->
      <g style="fill: #262626" transform="translate(69.570615 537.716094) scale(0.11 -0.11)">
       <defs>
        <path id="DejaVuSans-30" d="M 2034 4250 
Q 1547 4250 1301 3770 
Q 1056 3291 1056 2328 
Q 1056 1369 1301 889 
Q 1547 409 2034 409 
Q 2525 409 2770 889 
Q 3016 1369 3016 2328 
Q 3016 3291 2770 3770 
Q 2525 4250 2034 4250 
z
M 2034 4750 
Q 2819 4750 3233 4129 
Q 3647 3509 3647 2328 
Q 3647 1150 3233 529 
Q 2819 -91 2034 -91 
Q 1250 -91 836 529 
Q 422 1150 422 2328 
Q 422 3509 836 4129 
Q 1250 4750 2034 4750 
z
" transform="scale(0.015625)"/>
       </defs>
       <use xlink:href="#DejaVuSans-30"/>
      </g>
     </g>
    </g>
    <g id="xtick_2">
     <g id="line2d_2">
      <path d="M 219.983715 519.857813 
L 219.983715 23.837812 
" clip-path="url(#pe5edcdefd2)" style="fill: none; stroke: #cccccc; stroke-opacity: 0.3; stroke-linecap: round"/>
     </g>
     <g id="text_2">
      <!-- 1000 -->
      <g style="fill: #262626" transform="translate(205.986215 537.716094) scale(0.11 -0.11)">
       <defs>
        <path id="DejaVuSans-31" d="M 794 531 
L 1825 531 
L 1825 4091 
L 703 3866 
L 703 4441 
L 1819 4666 
L 2450 4666 
L 2450 531 
L 3481 531 
L 3481 0 
L 794 0 
L 794 531 
z
" transform="scale(0.015625)"/>
       </defs>
       <use xlink:href="#DejaVuSans-31"/>
       <use xlink:href="#DejaVuSans-30" transform="translate(63.623047 0)"/>
       <use xlink:href="#DejaVuSans-30" transform="translate(127.246094 0)"/>
       <use xlink:href="#DejaVuSans-30" transform="translate(190.869141 0)"/>
      </g>
     </g>
    </g>
    <g id="xtick_3">
     <g id="line2d_3">
      <path d="M 366.897441 519.857813 
L 366.897441 23.837812 
" clip-path="url(#pe5edcdefd2)" style="fill: none; stroke: #cccccc; stroke-opacity: 0.3; stroke-linecap: round"/>
     </g>
     <g id="text_3">
      <!-- 2000 -->
      <g style="fill: #262626" transform="translate(352.899941 537.716094) scale(0.11 -0.11)">
       <defs>
        <path id="DejaVuSans-32" d="M 1228 531 
L 3431 531 
L 3431 0 
L 469 0 
L 469 531 
Q 828 903 1448 1529 
Q 2069 2156 2228 2338 
Q 2531 2678 2651 2914 
Q 2772 3150 2772 3378 
Q 2772 3750 2511 3984 
Q 2250 4219 1831 4219 
Q 1534 4219 1204 4116 
Q 875 4013 500 3803 
L 500 4441 
Q 881 4594 1212 4672 
Q 1544 4750 1819 4750 
Q 2544 4750 2975 4387 
Q 3406 4025 3406 3419 
Q 3406 3131 3298 2873 
Q 3191 2616 2906 2266 
Q 2828 2175 2409 1742 
Q 1991 1309 1228 531 
z
" transform="scale(0.015625)"/>
       </defs>
       <use xlink:href="#DejaVuSans-32"/>
       <use xlink:href="#DejaVuSans-30" transform="translate(63.623047 0)"/>
       <use xlink:href="#DejaVuSans-30" transform="translate(127.246094 0)"/>
       <use xlink:href="#DejaVuSans-30" transform="translate(190.869141 0)"/>
      </g>
     </g>
    </g>
    <g id="xtick_4">
     <g id="line2d_4">
      <path d="M 513.811166 519.857813 
L 513.811166 23.837812 
" clip-path="url(#pe5edcdefd2)" style="fill: none; stroke: #cccccc; stroke-opacity: 0.3; stroke-linecap: round"/>
     </g>
     <g id="text_4">
      <!-- 3000 -->
      <g style="fill: #262626" transform="translate(499.813666 537.716094) scale(0.11 -0.11)">
       <defs>
        <path id="DejaVuSans-33" d="M 2597 2516 
Q 3050 2419 3304 2112 
Q 3559 1806 3559 1356 
Q 3559 666 3084 287 
Q 2609 -91 1734 -91 
Q 1441 -91 1130 -33 
Q 819 25 488 141 
L 488 750 
Q 750 597 1062 519 
Q 1375 441 1716 441 
Q 2309 441 2620 675 
Q 2931 909 2931 1356 
Q 2931 1769 2642 2001 
Q 2353 2234 1838 2234 
L 1294 2234 
L 1294 2753 
L 1863 2753 
Q 2328 2753 2575 2939 
Q 2822 3125 2822 3475 
Q 2822 3834 2567 4026 
Q 2313 4219 1838 4219 
Q 1578 4219 1281 4162 
Q 984 4106 628 3988 
L 628 4550 
Q 988 4650 1302 4700 
Q 1616 4750 1894 4750 
Q 2613 4750 3031 4423 
Q 3450 4097 3450 3541 
Q 3450 3153 3228 2886 
Q 3006 2619 2597 2516 
z
" transform="scale(0.015625)"/>
       </defs>
       <use xlink:href="#DejaVuSans-33"/>
       <use xlink:href="#DejaVuSans-30" transform="translate(63.623047 0)"/>
       <use xlink:href="#DejaVuSans-30" transform="translate(127.246094 0)"/>
       <use xlink:href="#DejaVuSans-30" transform="translate(190.869141 0)"/>
      </g>
     </g>
    </g>
    <g id="xtick_5">
     <g id="line2d_5">
      <path d="M 660.724891 519.857813 
L 660.724891 23.837812 
" clip-path="url(#pe5edcdefd2)" style="fill: none; stroke: #cccccc; stroke-opacity: 0.3; stroke-linecap: round"/>
     </g>
     <g id="text_5">
      <!-- 4000 -->
      <g style="fill: #262626" transform="translate(646.727391 537.716094) scale(0.11 -0.11)">
       <defs>
        <path id="DejaVuSans-34" d="M 2419 4116 
L 825 1625 
L 2419 1625 
L 2419 4116 
z
M 2253 4666 
L 3047 4666 
L 3047 1625 
L 3713 1625 
L 3713 1100 
L 3047 1100 
L 3047 0 
L 2419 0 
L 2419 1100 
L 313 1100 
L 313 1709 
L 2253 4666 
z
" transform="scale(0.015625)"/>
       </defs>
       <use xlink:href="#DejaVuSans-34"/>
       <use xlink:href="#DejaVuSans-30" transform="translate(63.623047 0)"/>
       <use xlink:href="#DejaVuSans-30" transform="translate(127.246094 0)"/>
       <use xlink:href="#DejaVuSans-30" transform="translate(190.869141 0)"/>
      </g>
     </g>
    </g>
    <g id="xtick_6">
     <g id="line2d_6">
      <path d="M 807.638616 519.857813 
L 807.638616 23.837812 
" clip-path="url(#pe5edcdefd2)" style="fill: none; stroke: #cccccc; stroke-opacity: 0.3; stroke-linecap: round"/>
     </g>
     <g id="text_6">
      <!-- 5000 -->
      <g style="fill: #262626" transform="translate(793.641116 537.716094) scale(0.11 -0.11)">
       <defs>
        <path id="DejaVuSans-35" d="M 691 4666 
L 3169 4666 
L 3169 4134 
L 1269 4134 
L 1269 2991 
Q 1406 3038 1543 3061 
Q 1681 3084 1819 3084 
Q 2600 3084 3056 2656 
Q 3513 2228 3513 1497 
Q 3513 744 3044 326 
Q 2575 -91 1722 -91 
Q 1428 -91 1123 -41 
Q 819 9 494 109 
L 494 744 
Q 775 591 1075 516 
Q 1375 441 1709 441 
Q 2250 441 2565 725 
Q 2881 1009 2881 1497 
Q 2881 1984 2565 2268 
Q 2250 2553 1709 2553 
Q 1456 2553 1204 2497 
Q 953 2441 691 2322 
L 691 4666 
z
" transform="scale(0.015625)"/>
       </defs>
       <use xlink:href="#DejaVuSans-35"/>
       <use xlink:href="#DejaVuSans-30" transform="translate(63.623047 0)"/>
       <use xlink:href="#DejaVuSans-30" transform="translate(127.246094 0)"/>
       <use xlink:href="#DejaVuSans-30" transform="translate(190.869141 0)"/>
      </g>
     </g>
    </g>
    <g id="text_7">
     <!-- Dataset Size (# intervals) -->
     <g style="fill: #262626" transform="translate(360.714052 553.121875) scale(0.12 -0.12)">
      <defs>
       <path id="DejaVuSans-Bold-44" d="M 1791 3756 
L 1791 909 
L 2222 909 
Q 2959 909 3348 1275 
Q 3738 1641 3738 2338 
Q 3738 3031 3350 3393 
Q 2963 3756 2222 3756 
L 1791 3756 
z
M 588 4666 
L 1856 4666 
Q 2919 4666 3439 4514 
Q 3959 4363 4331 4000 
Q 4659 3684 4818 3271 
Q 4978 2859 4978 2338 
Q 4978 1809 4818 1395 
Q 4659 981 4331 666 
Q 3956 303 3431 151 
Q 2906 0 1856 0 
L 588 0 
L 588 4666 
z
" transform="scale(0.015625)"/>
       <path id="DejaVuSans-Bold-61" d="M 2106 1575 
Q 1756 1575 1579 1456 
Q 1403 1338 1403 1106 
Q 1403 894 1545 773 
Q 1688 653 1941 653 
Q 2256 653 2472 879 
Q 2688 1106 2688 1447 
L 2688 1575 
L 2106 1575 
z
M 3816 1997 
L 3816 0 
L 2688 0 
L 2688 519 
Q 2463 200 2181 54 
Q 1900 -91 1497 -91 
Q 953 -91 614 226 
Q 275 544 275 1050 
Q 275 1666 698 1953 
Q 1122 2241 2028 2241 
L 2688 2241 
L 2688 2328 
Q 2688 2594 2478 2717 
Q 2269 2841 1825 2841 
Q 1466 2841 1156 2769 
Q 847 2697 581 2553 
L 581 3406 
Q 941 3494 1303 3539 
Q 1666 3584 2028 3584 
Q 2975 3584 3395 3211 
Q 3816 2838 3816 1997 
z
" transform="scale(0.015625)"/>
       <path id="DejaVuSans-Bold-74" d="M 1759 4494 
L 1759 3500 
L 2913 3500 
L 2913 2700 
L 1759 2700 
L 1759 1216 
Q 1759 972 1856 886 
Q 1953 800 2241 800 
L 2816 800 
L 2816 0 
L 1856 0 
Q 1194 0 917 276 
Q 641 553 641 1216 
L 641 2700 
L 84 2700 
L 84 3500 
L 641 3500 
L 641 4494 
L 1759 4494 
z
" transform="scale(0.015625)"/>
       <path id="DejaVuSans-Bold-73" d="M 3272 3391 
L 3272 2541 
Q 2913 2691 2578 2766 
Q 2244 2841 1947 2841 
Q 1628 2841 1473 2761 
Q 1319 2681 1319 2516 
Q 1319 2381 1436 2309 
Q 1553 2238 1856 2203 
L 2053 2175 
Q 2913 2066 3209 1816 
Q 3506 1566 3506 1031 
Q 3506 472 3093 190 
Q 2681 -91 1863 -91 
Q 1516 -91 1145 -36 
Q 775 19 384 128 
L 384 978 
Q 719 816 1070 734 
Q 1422 653 1784 653 
Q 2113 653 2278 743 
Q 2444 834 2444 1013 
Q 2444 1163 2330 1236 
Q 2216 1309 1875 1350 
L 1678 1375 
Q 931 1469 631 1722 
Q 331 1975 331 2491 
Q 331 3047 712 3315 
Q 1094 3584 1881 3584 
Q 2191 3584 2531 3537 
Q 2872 3491 3272 3391 
z
" transform="scale(0.015625)"/>
       <path id="DejaVuSans-Bold-65" d="M 4031 1759 
L 4031 1441 
L 1416 1441 
Q 1456 1047 1700 850 
Q 1944 653 2381 653 
Q 2734 653 3104 758 
Q 3475 863 3866 1075 
L 3866 213 
Q 3469 63 3072 -14 
Q 2675 -91 2278 -91 
Q 1328 -91 801 392 
Q 275 875 275 1747 
Q 275 2603 792 3093 
Q 1309 3584 2216 3584 
Q 3041 3584 3536 3087 
Q 4031 2591 4031 1759 
z
M 2881 2131 
Q 2881 2450 2695 2645 
Q 2509 2841 2209 2841 
Q 1884 2841 1681 2658 
Q 1478 2475 1428 2131 
L 2881 2131 
z
" transform="scale(0.015625)"/>
       <path id="DejaVuSans-Bold-20" transform="scale(0.015625)"/>
       <path id="DejaVuSans-Bold-53" d="M 3834 4519 
L 3834 3531 
Q 3450 3703 3084 3790 
Q 2719 3878 2394 3878 
Q 1963 3878 1756 3759 
Q 1550 3641 1550 3391 
Q 1550 3203 1689 3098 
Q 1828 2994 2194 2919 
L 2706 2816 
Q 3484 2659 3812 2340 
Q 4141 2022 4141 1434 
Q 4141 663 3683 286 
Q 3225 -91 2284 -91 
Q 1841 -91 1394 -6 
Q 947 78 500 244 
L 500 1259 
Q 947 1022 1364 901 
Q 1781 781 2169 781 
Q 2563 781 2772 912 
Q 2981 1044 2981 1288 
Q 2981 1506 2839 1625 
Q 2697 1744 2272 1838 
L 1806 1941 
Q 1106 2091 782 2419 
Q 459 2747 459 3303 
Q 459 4000 909 4375 
Q 1359 4750 2203 4750 
Q 2588 4750 2994 4692 
Q 3400 4634 3834 4519 
z
" transform="scale(0.015625)"/>
       <path id="DejaVuSans-Bold-69" d="M 538 3500 
L 1656 3500 
L 1656 0 
L 538 0 
L 538 3500 
z
M 538 4863 
L 1656 4863 
L 1656 3950 
L 538 3950 
L 538 4863 
z
" transform="scale(0.015625)"/>
       <path id="DejaVuSans-Bold-7a" d="M 366 3500 
L 3419 3500 
L 3419 2719 
L 1575 800 
L 3419 800 
L 3419 0 
L 288 0 
L 288 781 
L 2131 2700 
L 366 2700 
L 366 3500 
z
" transform="scale(0.015625)"/>
       <path id="DejaVuSans-Bold-28" d="M 2413 -844 
L 1484 -844 
Q 1006 -72 778 623 
Q 550 1319 550 2003 
Q 550 2688 779 3389 
Q 1009 4091 1484 4856 
L 2413 4856 
Q 2013 4116 1813 3408 
Q 1613 2700 1613 2009 
Q 1613 1319 1811 609 
Q 2009 -100 2413 -844 
z
" transform="scale(0.015625)"/>
       <path id="DejaVuSans-Bold-23" d="M 2847 4594 
L 2547 3391 
L 3372 3391 
L 3675 4594 
L 4366 4594 
L 4063 3391 
L 4928 3391 
L 4928 2725 
L 3897 2725 
L 3681 1869 
L 4569 1869 
L 4569 1197 
L 3519 1197 
L 3219 0 
L 2528 0 
L 2828 1197 
L 2003 1197 
L 1703 0 
L 1006 0 
L 1306 1197 
L 434 1197 
L 434 1869 
L 1459 1869 
L 1678 2725 
L 794 2725 
L 794 3391 
L 1850 3391 
L 2150 4594 
L 2847 4594 
z
M 3200 2725 
L 2375 2725 
L 2156 1869 
L 2981 1869 
L 3200 2725 
z
" transform="scale(0.015625)"/>
       <path id="DejaVuSans-Bold-6e" d="M 4056 2131 
L 4056 0 
L 2931 0 
L 2931 347 
L 2931 1631 
Q 2931 2084 2911 2256 
Q 2891 2428 2841 2509 
Q 2775 2619 2662 2680 
Q 2550 2741 2406 2741 
Q 2056 2741 1856 2470 
Q 1656 2200 1656 1722 
L 1656 0 
L 538 0 
L 538 3500 
L 1656 3500 
L 1656 2988 
Q 1909 3294 2193 3439 
Q 2478 3584 2822 3584 
Q 3428 3584 3742 3212 
Q 4056 2841 4056 2131 
z
" transform="scale(0.015625)"/>
       <path id="DejaVuSans-Bold-72" d="M 3138 2547 
Q 2991 2616 2845 2648 
Q 2700 2681 2553 2681 
Q 2122 2681 1889 2404 
Q 1656 2128 1656 1613 
L 1656 0 
L 538 0 
L 538 3500 
L 1656 3500 
L 1656 2925 
Q 1872 3269 2151 3426 
Q 2431 3584 2822 3584 
Q 2878 3584 2943 3579 
Q 3009 3575 3134 3559 
L 3138 2547 
z
" transform="scale(0.015625)"/>
       <path id="DejaVuSans-Bold-76" d="M 97 3500 
L 1216 3500 
L 2088 1081 
L 2956 3500 
L 4078 3500 
L 2700 0 
L 1472 0 
L 97 3500 
z
" transform="scale(0.015625)"/>
       <path id="DejaVuSans-Bold-6c" d="M 538 4863 
L 1656 4863 
L 1656 0 
L 538 0 
L 538 4863 
z
" transform="scale(0.015625)"/>
       <path id="DejaVuSans-Bold-29" d="M 513 -844 
Q 913 -100 1113 609 
Q 1313 1319 1313 2009 
Q 1313 2700 1113 3408 
Q 913 4116 513 4856 
L 1441 4856 
Q 1916 4091 2145 3389 
Q 2375 2688 2375 2003 
Q 2375 1319 2147 623 
Q 1919 -72 1441 -844 
L 513 -844 
z
" transform="scale(0.015625)"/>
      </defs>
      <use xlink:href="#DejaVuSans-Bold-44"/>
      <use xlink:href="#DejaVuSans-Bold-61" transform="translate(83.007812 0)"/>
      <use xlink:href="#DejaVuSans-Bold-74" transform="translate(150.488281 0)"/>
      <use xlink:href="#DejaVuSans-Bold-61" transform="translate(198.291016 0)"/>
      <use xlink:href="#DejaVuSans-Bold-73" transform="translate(265.771484 0)"/>
      <use xlink:href="#DejaVuSans-Bold-65" transform="translate(325.292969 0)"/>
      <use xlink:href="#DejaVuSans-Bold-74" transform="translate(393.115234 0)"/>
      <use xlink:href="#DejaVuSans-Bold-20" transform="translate(440.917969 0)"/>
      <use xlink:href="#DejaVuSans-Bold-53" transform="translate(475.732422 0)"/>
      <use xlink:href="#DejaVuSans-Bold-69" transform="translate(547.753906 0)"/>
      <use xlink:href="#DejaVuSans-Bold-7a" transform="translate(582.03125 0)"/>
      <use xlink:href="#DejaVuSans-Bold-65" transform="translate(640.234375 0)"/>
      <use xlink:href="#DejaVuSans-Bold-20" transform="translate(708.056641 0)"/>
      <use xlink:href="#DejaVuSans-Bold-28" transform="translate(742.871094 0)"/>
      <use xlink:href="#DejaVuSans-Bold-23" transform="translate(788.574219 0)"/>
      <use xlink:href="#DejaVuSans-Bold-20" transform="translate(872.363281 0)"/>
      <use xlink:href="#DejaVuSans-Bold-69" transform="translate(907.177734 0)"/>
      <use xlink:href="#DejaVuSans-Bold-6e" transform="translate(941.455078 0)"/>
      <use xlink:href="#DejaVuSans-Bold-74" transform="translate(1012.646484 0)"/>
      <use xlink:href="#DejaVuSans-Bold-65" transform="translate(1060.449219 0)"/>
      <use xlink:href="#DejaVuSans-Bold-72" transform="translate(1128.271484 0)"/>
      <use xlink:href="#DejaVuSans-Bold-76" transform="translate(1177.587891 0)"/>
      <use xlink:href="#DejaVuSans-Bold-61" transform="translate(1242.773438 0)"/>
      <use xlink:href="#DejaVuSans-Bold-6c" transform="translate(1310.253906 0)"/>
      <use xlink:href="#DejaVuSans-Bold-73" transform="translate(1344.53125 0)"/>
      <use xlink:href="#DejaVuSans-Bold-29" transform="translate(1404.052734 0)"/>
     </g>
    </g>
   </g>
   <g id="matplotlib.axis_2">
    <g id="ytick_1">
     <g id="line2d_7">
      <path d="M 51.7675 384.680335 
L 843.632479 384.680335 
" clip-path="url(#pe5edcdefd2)" style="fill: none; stroke: #cccccc; stroke-opacity: 0.3; stroke-linecap: round"/>
     </g>
     <g id="text_8">
      <!-- $\mathdefault{10^{1}}$ -->
      <g style="fill: #262626" transform="translate(22.9075 388.859476) scale(0.11 -0.11)">
       <use xlink:href="#DejaVuSans-31" transform="translate(0 0.684375)"/>
       <use xlink:href="#DejaVuSans-30" transform="translate(63.623047 0.684375)"/>
       <use xlink:href="#DejaVuSans-31" transform="translate(128.203125 38.965625) scale(0.7)"/>
      </g>
     </g>
    </g>
    <g id="ytick_2">
     <g id="line2d_8">
      <path d="M 51.7675 206.350301 
L 843.632479 206.350301 
" clip-path="url(#pe5edcdefd2)" style="fill: none; stroke: #cccccc; stroke-opacity: 0.3; stroke-linecap: round"/>
     </g>
     <g id="text_9">
      <!-- $\mathdefault{10^{2}}$ -->
      <g style="fill: #262626" transform="translate(22.9075 210.529442) scale(0.11 -0.11)">
       <use xlink:href="#DejaVuSans-31" transform="translate(0 0.765625)"/>
       <use xlink:href="#DejaVuSans-30" transform="translate(63.623047 0.765625)"/>
       <use xlink:href="#DejaVuSans-32" transform="translate(128.203125 39.046875) scale(0.7)"/>
      </g>
     </g>
    </g>
    <g id="ytick_3">
     <g id="line2d_9">
      <path d="M 51.7675 28.020267 
L 843.632479 28.020267 
" clip-path="url(#pe5edcdefd2)" style="fill: none; stroke: #cccccc; stroke-opacity: 0.3; stroke-linecap: round"/>
     </g>
     <g id="text_10">
      <!-- $\mathdefault{10^{3}}$ -->
      <g style="fill: #262626" transform="translate(22.9075 32.199408) scale(0.11 -0.11)">
       <use xlink:href="#DejaVuSans-31" transform="translate(0 0.765625)"/>
       <use xlink:href="#DejaVuSans-30" transform="translate(63.623047 0.765625)"/>
       <use xlink:href="#DejaVuSans-33" transform="translate(128.203125 39.046875) scale(0.7)"/>
      </g>
     </g>
    </g>
    <g id="ytick_4">
     <g id="line2d_10">
      <path d="M 51.7675 509.327679 
L 843.632479 509.327679 
" clip-path="url(#pe5edcdefd2)" style="fill: none; stroke: #cccccc; stroke-opacity: 0.3; stroke-linecap: round"/>
     </g>
    </g>
    <g id="ytick_5">
     <g id="line2d_11">
      <path d="M 51.7675 477.925319 
L 843.632479 477.925319 
" clip-path="url(#pe5edcdefd2)" style="fill: none; stroke: #cccccc; stroke-opacity: 0.3; stroke-linecap: round"/>
     </g>
    </g>
    <g id="ytick_6">
     <g id="line2d_12">
      <path d="M 51.7675 455.64499 
L 843.632479 455.64499 
" clip-path="url(#pe5edcdefd2)" style="fill: none; stroke: #cccccc; stroke-opacity: 0.3; stroke-linecap: round"/>
     </g>
    </g>
    <g id="ytick_7">
     <g id="line2d_13">
      <path d="M 51.7675 438.363024 
L 843.632479 438.363024 
" clip-path="url(#pe5edcdefd2)" style="fill: none; stroke: #cccccc; stroke-opacity: 0.3; stroke-linecap: round"/>
     </g>
    </g>
    <g id="ytick_8">
     <g id="line2d_14">
      <path d="M 51.7675 424.24263 
L 843.632479 424.24263 
" clip-path="url(#pe5edcdefd2)" style="fill: none; stroke: #cccccc; stroke-opacity: 0.3; stroke-linecap: round"/>
     </g>
    </g>
    <g id="ytick_9">
     <g id="line2d_15">
      <path d="M 51.7675 412.304007 
L 843.632479 412.304007 
" clip-path="url(#pe5edcdefd2)" style="fill: none; stroke: #cccccc; stroke-opacity: 0.3; stroke-linecap: round"/>
     </g>
    </g>
    <g id="ytick_10">
     <g id="line2d_16">
      <path d="M 51.7675 401.962301 
L 843.632479 401.962301 
" clip-path="url(#pe5edcdefd2)" style="fill: none; stroke: #cccccc; stroke-opacity: 0.3; stroke-linecap: round"/>
     </g>
    </g>
    <g id="ytick_11">
     <g id="line2d_17">
      <path d="M 51.7675 392.84027 
L 843.632479 392.84027 
" clip-path="url(#pe5edcdefd2)" style="fill: none; stroke: #cccccc; stroke-opacity: 0.3; stroke-linecap: round"/>
     </g>
    </g>
    <g id="ytick_12">
     <g id="line2d_18">
      <path d="M 51.7675 330.997646 
L 843.632479 330.997646 
" clip-path="url(#pe5edcdefd2)" style="fill: none; stroke: #cccccc; stroke-opacity: 0.3; stroke-linecap: round"/>
     </g>
    </g>
    <g id="ytick_13">
     <g id="line2d_19">
      <path d="M 51.7675 299.595285 
L 843.632479 299.595285 
" clip-path="url(#pe5edcdefd2)" style="fill: none; stroke: #cccccc; stroke-opacity: 0.3; stroke-linecap: round"/>
     </g>
    </g>
    <g id="ytick_14">
     <g id="line2d_20">
      <path d="M 51.7675 277.314956 
L 843.632479 277.314956 
" clip-path="url(#pe5edcdefd2)" style="fill: none; stroke: #cccccc; stroke-opacity: 0.3; stroke-linecap: round"/>
     </g>
    </g>
    <g id="ytick_15">
     <g id="line2d_21">
      <path d="M 51.7675 260.03299 
L 843.632479 260.03299 
" clip-path="url(#pe5edcdefd2)" style="fill: none; stroke: #cccccc; stroke-opacity: 0.3; stroke-linecap: round"/>
     </g>
    </g>
    <g id="ytick_16">
     <g id="line2d_22">
      <path d="M 51.7675 245.912596 
L 843.632479 245.912596 
" clip-path="url(#pe5edcdefd2)" style="fill: none; stroke: #cccccc; stroke-opacity: 0.3; stroke-linecap: round"/>
     </g>
    </g>
    <g id="ytick_17">
     <g id="line2d_23">
      <path d="M 51.7675 233.973973 
L 843.632479 233.973973 
" clip-path="url(#pe5edcdefd2)" style="fill: none; stroke: #cccccc; stroke-opacity: 0.3; stroke-linecap: round"/>
     </g>
    </g>
    <g id="ytick_18">
     <g id="line2d_24">
      <path d="M 51.7675 223.632267 
L 843.632479 223.632267 
" clip-path="url(#pe5edcdefd2)" style="fill: none; stroke: #cccccc; stroke-opacity: 0.3; stroke-linecap: round"/>
     </g>
    </g>
    <g id="ytick_19">
     <g id="line2d_25">
      <path d="M 51.7675 214.510236 
L 843.632479 214.510236 
" clip-path="url(#pe5edcdefd2)" style="fill: none; stroke: #cccccc; stroke-opacity: 0.3; stroke-linecap: round"/>
     </g>
    </g>
    <g id="ytick_20">
     <g id="line2d_26">
      <path d="M 51.7675 152.667612 
L 843.632479 152.667612 
" clip-path="url(#pe5edcdefd2)" style="fill: none; stroke: #cccccc; stroke-opacity: 0.3; stroke-linecap: round"/>
     </g>
    </g>
    <g id="ytick_21">
     <g id="line2d_27">
      <path d="M 51.7675 121.265252 
L 843.632479 121.265252 
" clip-path="url(#pe5edcdefd2)" style="fill: none; stroke: #cccccc; stroke-opacity: 0.3; stroke-linecap: round"/>
     </g>
    </g>
    <g id="ytick_22">
     <g id="line2d_28">
      <path d="M 51.7675 98.984923 
L 843.632479 98.984923 
" clip-path="url(#pe5edcdefd2)" style="fill: none; stroke: #cccccc; stroke-opacity: 0.3; stroke-linecap: round"/>
     </g>
    </g>
    <g id="ytick_23">
     <g id="line2d_29">
      <path d="M 51.7675 81.702957 
L 843.632479 81.702957 
" clip-path="url(#pe5edcdefd2)" style="fill: none; stroke: #cccccc; stroke-opacity: 0.3; stroke-linecap: round"/>
     </g>
    </g>
    <g id="ytick_24">
     <g id="line2d_30">
      <path d="M 51.7675 67.582562 
L 843.632479 67.582562 
" clip-path="url(#pe5edcdefd2)" style="fill: none; stroke: #cccccc; stroke-opacity: 0.3; stroke-linecap: round"/>
     </g>
    </g>
    <g id="ytick_25">
     <g id="line2d_31">
      <path d="M 51.7675 55.643939 
L 843.632479 55.643939 
" clip-path="url(#pe5edcdefd2)" style="fill: none; stroke: #cccccc; stroke-opacity: 0.3; stroke-linecap: round"/>
     </g>
    </g>
    <g id="ytick_26">
     <g id="line2d_32">
      <path d="M 51.7675 45.302233 
L 843.632479 45.302233 
" clip-path="url(#pe5edcdefd2)" style="fill: none; stroke: #cccccc; stroke-opacity: 0.3; stroke-linecap: round"/>
     </g>
    </g>
    <g id="ytick_27">
     <g id="line2d_33">
      <path d="M 51.7675 36.180202 
L 843.632479 36.180202 
" clip-path="url(#pe5edcdefd2)" style="fill: none; stroke: #cccccc; stroke-opacity: 0.3; stroke-linecap: round"/>
     </g>
    </g>
    <g id="text_11">
     <!-- Time (μs, log scale) -->
     <g style="fill: #262626" transform="translate(16.318125 338.112188) rotate(-90) scale(0.12 -0.12)">
      <defs>
       <path id="DejaVuSans-Bold-54" d="M 31 4666 
L 4331 4666 
L 4331 3756 
L 2784 3756 
L 2784 0 
L 1581 0 
L 1581 3756 
L 31 3756 
L 31 4666 
z
" transform="scale(0.015625)"/>
       <path id="DejaVuSans-Bold-6d" d="M 3781 2919 
Q 3994 3244 4286 3414 
Q 4578 3584 4928 3584 
Q 5531 3584 5847 3212 
Q 6163 2841 6163 2131 
L 6163 0 
L 5038 0 
L 5038 1825 
Q 5041 1866 5042 1909 
Q 5044 1953 5044 2034 
Q 5044 2406 4934 2573 
Q 4825 2741 4581 2741 
Q 4263 2741 4089 2478 
Q 3916 2216 3909 1719 
L 3909 0 
L 2784 0 
L 2784 1825 
Q 2784 2406 2684 2573 
Q 2584 2741 2328 2741 
Q 2006 2741 1831 2477 
Q 1656 2213 1656 1722 
L 1656 0 
L 531 0 
L 531 3500 
L 1656 3500 
L 1656 2988 
Q 1863 3284 2130 3434 
Q 2397 3584 2719 3584 
Q 3081 3584 3359 3409 
Q 3638 3234 3781 2919 
z
" transform="scale(0.015625)"/>
       <path id="DejaVuSans-Bold-3bc" d="M 544 -1338 
L 544 3500 
L 1672 3500 
L 1672 1466 
Q 1672 1103 1828 926 
Q 1984 750 2303 750 
Q 2625 750 2781 926 
Q 2938 1103 2938 1466 
L 2938 3500 
L 4063 3500 
L 4063 1159 
Q 4063 938 4114 850 
Q 4166 763 4288 763 
Q 4344 763 4395 778 
Q 4447 794 4506 831 
L 4506 50 
Q 4341 -22 4195 -56 
Q 4050 -91 3909 -91 
Q 3631 -91 3454 26 
Q 3278 144 3169 403 
Q 3022 156 2811 32 
Q 2600 -91 2322 -91 
Q 2091 -91 1928 -17 
Q 1766 56 1672 206 
L 1672 -1338 
L 544 -1338 
z
" transform="scale(0.015625)"/>
       <path id="DejaVuSans-Bold-2c" d="M 653 1209 
L 1778 1209 
L 1778 256 
L 1006 -909 
L 341 -909 
L 653 256 
L 653 1209 
z
" transform="scale(0.015625)"/>
       <path id="DejaVuSans-Bold-6f" d="M 2203 2784 
Q 1831 2784 1636 2517 
Q 1441 2250 1441 1747 
Q 1441 1244 1636 976 
Q 1831 709 2203 709 
Q 2569 709 2762 976 
Q 2956 1244 2956 1747 
Q 2956 2250 2762 2517 
Q 2569 2784 2203 2784 
z
M 2203 3584 
Q 3106 3584 3614 3096 
Q 4122 2609 4122 1747 
Q 4122 884 3614 396 
Q 3106 -91 2203 -91 
Q 1297 -91 786 396 
Q 275 884 275 1747 
Q 275 2609 786 3096 
Q 1297 3584 2203 3584 
z
" transform="scale(0.015625)"/>
       <path id="DejaVuSans-Bold-67" d="M 2919 594 
Q 2688 288 2409 144 
Q 2131 0 1766 0 
Q 1125 0 706 504 
Q 288 1009 288 1791 
Q 288 2575 706 3076 
Q 1125 3578 1766 3578 
Q 2131 3578 2409 3434 
Q 2688 3291 2919 2981 
L 2919 3500 
L 4044 3500 
L 4044 353 
Q 4044 -491 3511 -936 
Q 2978 -1381 1966 -1381 
Q 1638 -1381 1331 -1331 
Q 1025 -1281 716 -1178 
L 716 -306 
Q 1009 -475 1290 -558 
Q 1572 -641 1856 -641 
Q 2406 -641 2662 -400 
Q 2919 -159 2919 353 
L 2919 594 
z
M 2181 2772 
Q 1834 2772 1640 2515 
Q 1447 2259 1447 1791 
Q 1447 1309 1634 1061 
Q 1822 813 2181 813 
Q 2531 813 2725 1069 
Q 2919 1325 2919 1791 
Q 2919 2259 2725 2515 
Q 2531 2772 2181 2772 
z
" transform="scale(0.015625)"/>
       <path id="DejaVuSans-Bold-63" d="M 3366 3391 
L 3366 2478 
Q 3138 2634 2908 2709 
Q 2678 2784 2431 2784 
Q 1963 2784 1702 2511 
Q 1441 2238 1441 1747 
Q 1441 1256 1702 982 
Q 1963 709 2431 709 
Q 2694 709 2930 787 
Q 3166 866 3366 1019 
L 3366 103 
Q 3103 6 2833 -42 
Q 2563 -91 2291 -91 
Q 1344 -91 809 395 
Q 275 881 275 1747 
Q 275 2613 809 3098 
Q 1344 3584 2291 3584 
Q 2566 3584 2833 3536 
Q 3100 3488 3366 3391 
z
" transform="scale(0.015625)"/>
      </defs>
      <use xlink:href="#DejaVuSans-Bold-54"/>
      <use xlink:href="#DejaVuSans-Bold-69" transform="translate(68.212891 0)"/>
      <use xlink:href="#DejaVuSans-Bold-6d" transform="translate(102.490234 0)"/>
      <use xlink:href="#DejaVuSans-Bold-65" transform="translate(206.689453 0)"/>
      <use xlink:href="#DejaVuSans-Bold-20" transform="translate(274.511719 0)"/>
      <use xlink:href="#DejaVuSans-Bold-28" transform="translate(309.326172 0)"/>
      <use xlink:href="#DejaVuSans-Bold-3bc" transform="translate(355.029297 0)"/>
      <use xlink:href="#DejaVuSans-Bold-73" transform="translate(428.613281 0)"/>
      <use xlink:href="#DejaVuSans-Bold-2c" transform="translate(488.134766 0)"/>
      <use xlink:href="#DejaVuSans-Bold-20" transform="translate(526.123047 0)"/>
      <use xlink:href="#DejaVuSans-Bold-6c" transform="translate(560.9375 0)"/>
      <use xlink:href="#DejaVuSans-Bold-6f" transform="translate(595.214844 0)"/>
      <use xlink:href="#DejaVuSans-Bold-67" transform="translate(663.916016 0)"/>
      <use xlink:href="#DejaVuSans-Bold-20" transform="translate(735.498047 0)"/>
      <use xlink:href="#DejaVuSans-Bold-73" transform="translate(770.3125 0)"/>
      <use xlink:href="#DejaVuSans-Bold-63" transform="translate(829.833984 0)"/>
      <use xlink:href="#DejaVuSans-Bold-61" transform="translate(889.111328 0)"/>
      <use xlink:href="#DejaVuSans-Bold-6c" transform="translate(956.591797 0)"/>
      <use xlink:href="#DejaVuSans-Bold-65" transform="translate(990.869141 0)"/>
      <use xlink:href="#DejaVuSans-Bold-29" transform="translate(1058.691406 0)"/>
     </g>
    </g>
   </g>
   <g id="line2d_34">
    <path d="M 87.761363 365.456999 
L 146.526853 240.854211 
L 219.983715 192.893513 
L 807.638616 46.384176 
" clip-path="url(#pe5edcdefd2)" style="fill: none; stroke: #f77189; stroke-width: 2; stroke-linecap: round"/>
    <defs>
     <path id="mf51d6a92ec" d="M 0 4 
C 1.060812 4 2.078319 3.578535 2.828427 2.828427 
C 3.578535 2.078319 4 1.060812 4 0 
C 4 -1.060812 3.578535 -2.078319 2.828427 -2.828427 
C 2.078319 -3.578535 1.060812 -4 0 -4 
C -1.060812 -4 -2.078319 -3.578535 -2.828427 -2.828427 
C -3.578535 -2.078319 -4 -1.060812 -4 0 
C -4 1.060812 -3.578535 2.078319 -2.828427 2.828427 
C -2.078319 3.578535 -1.060812 4 0 4 
z
" style="stroke: #f77189"/>
    </defs>
    <g clip-path="url(#pe5edcdefd2)">
     <use xlink:href="#mf51d6a92ec" x="87.761363" y="365.456999" style="fill: #f77189; stroke: #f77189"/>
     <use xlink:href="#mf51d6a92ec" x="146.526853" y="240.854211" style="fill: #f77189; stroke: #f77189"/>
     <use xlink:href="#mf51d6a92ec" x="219.983715" y="192.893513" style="fill: #f77189; stroke: #f77189"/>
     <use xlink:href="#mf51d6a92ec" x="807.638616" y="46.384176" style="fill: #f77189; stroke: #f77189"/>
    </g>
   </g>
   <g id="line2d_35">
    <path d="M 87.761363 425.100591 
L 146.526853 292.129147 
L 219.983715 237.912237 
L 807.638616 80.429548 
" clip-path="url(#pe5edcdefd2)" style="fill: none; stroke: #e68332; stroke-width: 2; stroke-linecap: round"/>
    <defs>
     <path id="mdda6a5cef6" d="M 0 4 
C 1.060812 4 2.078319 3.578535 2.828427 2.828427 
C 3.578535 2.078319 4 1.060812 4 0 
C 4 -1.060812 3.578535 -2.078319 2.828427 -2.828427 
C 2.078319 -3.578535 1.060812 -4 0 -4 
C -1.060812 -4 -2.078319 -3.578535 -2.828427 -2.828427 
C -3.578535 -2.078319 -4 -1.060812 -4 0 
C -4 1.060812 -3.578535 2.078319 -2.828427 2.828427 
C -2.078319 3.578535 -1.060812 4 0 4 
z
" style="stroke: #e68332"/>
    </defs>
    <g clip-path="url(#pe5edcdefd2)">
     <use xlink:href="#mdda6a5cef6" x="87.761363" y="425.100591" style="fill: #e68332; stroke: #e68332"/>
     <use xlink:href="#mdda6a5cef6" x="146.526853" y="292.129147" style="fill: #e68332; stroke: #e68332"/>
     <use xlink:href="#mdda6a5cef6" x="219.983715" y="237.912237" style="fill: #e68332; stroke: #e68332"/>
     <use xlink:href="#mdda6a5cef6" x="807.638616" y="80.429548" style="fill: #e68332; stroke: #e68332"/>
    </g>
   </g>
   <g id="line2d_36">
    <path d="M 87.761363 456.20293 
L 146.526853 329.160924 
L 219.983715 274.351308 
L 807.638616 138.356565 
" clip-path="url(#pe5edcdefd2)" style="fill: none; stroke: #bb9832; stroke-width: 2; stroke-linecap: round"/>
    <defs>
     <path id="m1ddfc0ea39" d="M 0 4 
C 1.060812 4 2.078319 3.578535 2.828427 2.828427 
C 3.578535 2.078319 4 1.060812 4 0 
C 4 -1.060812 3.578535 -2.078319 2.828427 -2.828427 
C 2.078319 -3.578535 1.060812 -4 0 -4 
C -1.060812 -4 -2.078319 -3.578535 -2.828427 -2.828427 
C -3.578535 -2.078319 -4 -1.060812 -4 0 
C -4 1.060812 -3.578535 2.078319 -2.828427 2.828427 
C -2.078319 3.578535 -1.060812 4 0 4 
z
" style="stroke: #bb9832"/>
    </defs>
    <g clip-path="url(#pe5edcdefd2)">
     <use xlink:href="#m1ddfc0ea39" x="87.761363" y="456.20293" style="fill: #bb9832; stroke: #bb9832"/>
     <use xlink:href="#m1ddfc0ea39" x="146.526853" y="329.160924" style="fill: #bb9832; stroke: #bb9832"/>
     <use xlink:href="#m1ddfc0ea39" x="219.983715" y="274.351308" style="fill: #bb9832; stroke: #bb9832"/>
     <use xlink:href="#m1ddfc0ea39" x="807.638616" y="138.356565" style="fill: #bb9832; stroke: #bb9832"/>
    </g>
   </g>
   <g id="line2d_37">
    <path d="M 87.761363 475.497933 
L 146.526853 340.447251 
L 219.983715 284.72598 
L 807.638616 153.50515 
" clip-path="url(#pe5edcdefd2)" style="fill: none; stroke: #97a431; stroke-width: 2; stroke-linecap: round"/>
    <defs>
     <path id="m6e6d5b0c33" d="M 0 4 
C 1.060812 4 2.078319 3.578535 2.828427 2.828427 
C 3.578535 2.078319 4 1.060812 4 0 
C 4 -1.060812 3.578535 -2.078319 2.828427 -2.828427 
C 2.078319 -3.578535 1.060812 -4 0 -4 
C -1.060812 -4 -2.078319 -3.578535 -2.828427 -2.828427 
C -3.578535 -2.078319 -4 -1.060812 -4 0 
C -4 1.060812 -3.578535 2.078319 -2.828427 2.828427 
C -2.078319 3.578535 -1.060812 4 0 4 
z
" style="stroke: #97a431"/>
    </defs>
    <g clip-path="url(#pe5edcdefd2)">
     <use xlink:href="#m6e6d5b0c33" x="87.761363" y="475.497933" style="fill: #97a431; stroke: #97a431"/>
     <use xlink:href="#m6e6d5b0c33" x="146.526853" y="340.447251" style="fill: #97a431; stroke: #97a431"/>
     <use xlink:href="#m6e6d5b0c33" x="219.983715" y="284.72598" style="fill: #97a431; stroke: #97a431"/>
     <use xlink:href="#m6e6d5b0c33" x="807.638616" y="153.50515" style="fill: #97a431; stroke: #97a431"/>
    </g>
   </g>
   <g id="line2d_38">
    <path d="M 87.761363 485.285899 
L 146.526853 348.140018 
L 219.983715 291.669917 
L 807.638616 160.618138 
" clip-path="url(#pe5edcdefd2)" style="fill: none; stroke: #50b131; stroke-width: 2; stroke-linecap: round"/>
    <defs>
     <path id="mdfb0e6e9b0" d="M 0 4 
C 1.060812 4 2.078319 3.578535 2.828427 2.828427 
C 3.578535 2.078319 4 1.060812 4 0 
C 4 -1.060812 3.578535 -2.078319 2.828427 -2.828427 
C 2.078319 -3.578535 1.060812 -4 0 -4 
C -1.060812 -4 -2.078319 -3.578535 -2.828427 -2.828427 
C -3.578535 -2.078319 -4 -1.060812 -4 0 
C -4 1.060812 -3.578535 2.078319 -2.828427 2.828427 
C -2.078319 3.578535 -1.060812 4 0 4 
z
" style="stroke: #50b131"/>
    </defs>
    <g clip-path="url(#pe5edcdefd2)">
     <use xlink:href="#mdfb0e6e9b0" x="87.761363" y="485.285899" style="fill: #50b131; stroke: #50b131"/>
     <use xlink:href="#mdfb0e6e9b0" x="146.526853" y="348.140018" style="fill: #50b131; stroke: #50b131"/>
     <use xlink:href="#mdfb0e6e9b0" x="219.983715" y="291.669917" style="fill: #50b131; stroke: #50b131"/>
     <use xlink:href="#mdfb0e6e9b0" x="807.638616" y="160.618138" style="fill: #50b131; stroke: #50b131"/>
    </g>
   </g>
   <g id="line2d_39">
    <path d="M 87.761363 483.819853 
L 146.526853 353.476439 
L 219.983715 295.747314 
L 807.638616 164.941405 
" clip-path="url(#pe5edcdefd2)" style="fill: none; stroke: #34af84; stroke-width: 2; stroke-linecap: round"/>
    <defs>
     <path id="mfb5453bb13" d="M 0 4 
C 1.060812 4 2.078319 3.578535 2.828427 2.828427 
C 3.578535 2.078319 4 1.060812 4 0 
C 4 -1.060812 3.578535 -2.078319 2.828427 -2.828427 
C 2.078319 -3.578535 1.060812 -4 0 -4 
C -1.060812 -4 -2.078319 -3.578535 -2.828427 -2.828427 
C -3.578535 -2.078319 -4 -1.060812 -4 0 
C -4 1.060812 -3.578535 2.078319 -2.828427 2.828427 
C -2.078319 3.578535 -1.060812 4 0 4 
z
" style="stroke: #34af84"/>
    </defs>
    <g clip-path="url(#pe5edcdefd2)">
     <use xlink:href="#mfb5453bb13" x="87.761363" y="483.819853" style="fill: #34af84; stroke: #34af84"/>
     <use xlink:href="#mfb5453bb13" x="146.526853" y="353.476439" style="fill: #34af84; stroke: #34af84"/>
     <use xlink:href="#mfb5453bb13" x="219.983715" y="295.747314" style="fill: #34af84; stroke: #34af84"/>
     <use xlink:href="#mfb5453bb13" x="807.638616" y="164.941405" style="fill: #34af84; stroke: #34af84"/>
    </g>
   </g>
   <g id="line2d_40">
    <path d="M 87.761363 490.653291 
L 146.526853 354.312499 
L 219.983715 298.67277 
L 807.638616 167.029803 
" clip-path="url(#pe5edcdefd2)" style="fill: none; stroke: #36ada4; stroke-width: 2; stroke-linecap: round"/>
    <defs>
     <path id="m75ff435d08" d="M 0 4 
C 1.060812 4 2.078319 3.578535 2.828427 2.828427 
C 3.578535 2.078319 4 1.060812 4 0 
C 4 -1.060812 3.578535 -2.078319 2.828427 -2.828427 
C 2.078319 -3.578535 1.060812 -4 0 -4 
C -1.060812 -4 -2.078319 -3.578535 -2.828427 -2.828427 
C -3.578535 -2.078319 -4 -1.060812 -4 0 
C -4 1.060812 -3.578535 2.078319 -2.828427 2.828427 
C -2.078319 3.578535 -1.060812 4 0 4 
z
" style="stroke: #36ada4"/>
    </defs>
    <g clip-path="url(#pe5edcdefd2)">
     <use xlink:href="#m75ff435d08" x="87.761363" y="490.653291" style="fill: #36ada4; stroke: #36ada4"/>
     <use xlink:href="#m75ff435d08" x="146.526853" y="354.312499" style="fill: #36ada4; stroke: #36ada4"/>
     <use xlink:href="#m75ff435d08" x="219.983715" y="298.67277" style="fill: #36ada4; stroke: #36ada4"/>
     <use xlink:href="#m75ff435d08" x="807.638616" y="167.029803" style="fill: #36ada4; stroke: #36ada4"/>
    </g>
   </g>
   <g id="line2d_41">
    <path d="M 87.761363 491.808344 
L 146.526853 359.216072 
L 219.983715 304.616598 
L 807.638616 171.801347 
" clip-path="url(#pe5edcdefd2)" style="fill: none; stroke: #38aabf; stroke-width: 2; stroke-linecap: round"/>
    <defs>
     <path id="m0751271436" d="M 0 4 
C 1.060812 4 2.078319 3.578535 2.828427 2.828427 
C 3.578535 2.078319 4 1.060812 4 0 
C 4 -1.060812 3.578535 -2.078319 2.828427 -2.828427 
C 2.078319 -3.578535 1.060812 -4 0 -4 
C -1.060812 -4 -2.078319 -3.578535 -2.828427 -2.828427 
C -3.578535 -2.078319 -4 -1.060812 -4 0 
C -4 1.060812 -3.578535 2.078319 -2.828427 2.828427 
C -2.078319 3.578535 -1.060812 4 0 4 
z
" style="stroke: #38aabf"/>
    </defs>
    <g clip-path="url(#pe5edcdefd2)">
     <use xlink:href="#m0751271436" x="87.761363" y="491.808344" style="fill: #38aabf; stroke: #38aabf"/>
     <use xlink:href="#m0751271436" x="146.526853" y="359.216072" style="fill: #38aabf; stroke: #38aabf"/>
     <use xlink:href="#m0751271436" x="219.983715" y="304.616598" style="fill: #38aabf; stroke: #38aabf"/>
     <use xlink:href="#m0751271436" x="807.638616" y="171.801347" style="fill: #38aabf; stroke: #38aabf"/>
    </g>
   </g>
   <g id="line2d_42">
    <path d="M 87.761363 493.662285 
L 146.526853 361.587692 
L 219.983715 307.00863 
L 807.638616 174.985953 
" clip-path="url(#pe5edcdefd2)" style="fill: none; stroke: #3ba3ec; stroke-width: 2; stroke-linecap: round"/>
    <defs>
     <path id="m51b9664889" d="M 0 4 
C 1.060812 4 2.078319 3.578535 2.828427 2.828427 
C 3.578535 2.078319 4 1.060812 4 0 
C 4 -1.060812 3.578535 -2.078319 2.828427 -2.828427 
C 2.078319 -3.578535 1.060812 -4 0 -4 
C -1.060812 -4 -2.078319 -3.578535 -2.828427 -2.828427 
C -3.578535 -2.078319 -4 -1.060812 -4 0 
C -4 1.060812 -3.578535 2.078319 -2.828427 2.828427 
C -2.078319 3.578535 -1.060812 4 0 4 
z
" style="stroke: #3ba3ec"/>
    </defs>
    <g clip-path="url(#pe5edcdefd2)">
     <use xlink:href="#m51b9664889" x="87.761363" y="493.662285" style="fill: #3ba3ec; stroke: #3ba3ec"/>
     <use xlink:href="#m51b9664889" x="146.526853" y="361.587692" style="fill: #3ba3ec; stroke: #3ba3ec"/>
     <use xlink:href="#m51b9664889" x="219.983715" y="307.00863" style="fill: #3ba3ec; stroke: #3ba3ec"/>
     <use xlink:href="#m51b9664889" x="807.638616" y="174.985953" style="fill: #3ba3ec; stroke: #3ba3ec"/>
    </g>
   </g>
   <g id="line2d_43">
    <path d="M 87.761363 493.064362 
L 146.526853 362.813065 
L 219.983715 307.454377 
L 807.638616 176.015262 
" clip-path="url(#pe5edcdefd2)" style="fill: none; stroke: #a48cf4; stroke-width: 2; stroke-linecap: round"/>
    <defs>
     <path id="m81d43c8f83" d="M 0 4 
C 1.060812 4 2.078319 3.578535 2.828427 2.828427 
C 3.578535 2.078319 4 1.060812 4 0 
C 4 -1.060812 3.578535 -2.078319 2.828427 -2.828427 
C 2.078319 -3.578535 1.060812 -4 0 -4 
C -1.060812 -4 -2.078319 -3.578535 -2.828427 -2.828427 
C -3.578535 -2.078319 -4 -1.060812 -4 0 
C -4 1.060812 -3.578535 2.078319 -2.828427 2.828427 
C -2.078319 3.578535 -1.060812 4 0 4 
z
" style="stroke: #a48cf4"/>
    </defs>
    <g clip-path="url(#pe5edcdefd2)">
     <use xlink:href="#m81d43c8f83" x="87.761363" y="493.064362" style="fill: #a48cf4; stroke: #a48cf4"/>
     <use xlink:href="#m81d43c8f83" x="146.526853" y="362.813065" style="fill: #a48cf4; stroke: #a48cf4"/>
     <use xlink:href="#m81d43c8f83" x="219.983715" y="307.454377" style="fill: #a48cf4; stroke: #a48cf4"/>
     <use xlink:href="#m81d43c8f83" x="807.638616" y="176.015262" style="fill: #a48cf4; stroke: #a48cf4"/>
    </g>
   </g>
   <g id="line2d_44">
    <path d="M 87.761363 496.99152 
L 146.526853 364.410705 
L 219.983715 308.19248 
L 807.638616 175.518755 
" clip-path="url(#pe5edcdefd2)" style="fill: none; stroke: #e866f4; stroke-width: 2; stroke-linecap: round"/>
    <defs>
     <path id="m00ef6909e8" d="M 0 4 
C 1.060812 4 2.078319 3.578535 2.828427 2.828427 
C 3.578535 2.078319 4 1.060812 4 0 
C 4 -1.060812 3.578535 -2.078319 2.828427 -2.828427 
C 2.078319 -3.578535 1.060812 -4 0 -4 
C -1.060812 -4 -2.078319 -3.578535 -2.828427 -2.828427 
C -3.578535 -2.078319 -4 -1.060812 -4 0 
C -4 1.060812 -3.578535 2.078319 -2.828427 2.828427 
C -2.078319 3.578535 -1.060812 4 0 4 
z
" style="stroke: #e866f4"/>
    </defs>
    <g clip-path="url(#pe5edcdefd2)">
     <use xlink:href="#m00ef6909e8" x="87.761363" y="496.99152" style="fill: #e866f4; stroke: #e866f4"/>
     <use xlink:href="#m00ef6909e8" x="146.526853" y="364.410705" style="fill: #e866f4; stroke: #e866f4"/>
     <use xlink:href="#m00ef6909e8" x="219.983715" y="308.19248" style="fill: #e866f4; stroke: #e866f4"/>
     <use xlink:href="#m00ef6909e8" x="807.638616" y="175.518755" style="fill: #e866f4; stroke: #e866f4"/>
    </g>
   </g>
   <g id="line2d_45">
    <path d="M 87.761363 497.311449 
L 146.526853 363.501324 
L 219.983715 308.317235 
L 807.638616 176.775006 
" clip-path="url(#pe5edcdefd2)" style="fill: none; stroke: #f668c2; stroke-width: 2; stroke-linecap: round"/>
    <defs>
     <path id="me135df934b" d="M 0 4 
C 1.060812 4 2.078319 3.578535 2.828427 2.828427 
C 3.578535 2.078319 4 1.060812 4 0 
C 4 -1.060812 3.578535 -2.078319 2.828427 -2.828427 
C 2.078319 -3.578535 1.060812 -4 0 -4 
C -1.060812 -4 -2.078319 -3.578535 -2.828427 -2.828427 
C -3.578535 -2.078319 -4 -1.060812 -4 0 
C -4 1.060812 -3.578535 2.078319 -2.828427 2.828427 
C -2.078319 3.578535 -1.060812 4 0 4 
z
" style="stroke: #f668c2"/>
    </defs>
    <g clip-path="url(#pe5edcdefd2)">
     <use xlink:href="#me135df934b" x="87.761363" y="497.311449" style="fill: #f668c2; stroke: #f668c2"/>
     <use xlink:href="#me135df934b" x="146.526853" y="363.501324" style="fill: #f668c2; stroke: #f668c2"/>
     <use xlink:href="#me135df934b" x="219.983715" y="308.317235" style="fill: #f668c2; stroke: #f668c2"/>
     <use xlink:href="#me135df934b" x="807.638616" y="176.775006" style="fill: #f668c2; stroke: #f668c2"/>
    </g>
   </g>
   <g id="patch_3">
    <path d="M 51.7675 519.857813 
L 51.7675 23.837812 
" style="fill: none; stroke: #cccccc; stroke-width: 1.25; stroke-linejoin: miter; stroke-linecap: square"/>
   </g>
   <g id="patch_4">
    <path d="M 843.632479 519.857813 
L 843.632479 23.837812 
" style="fill: none; stroke: #cccccc; stroke-width: 1.25; stroke-linejoin: miter; stroke-linecap: square"/>
   </g>
   <g id="patch_5">
    <path d="M 51.7675 519.857813 
L 843.632479 519.857813 
" style="fill: none; stroke: #cccccc; stroke-width: 1.25; stroke-linejoin: miter; stroke-linecap: square"/>
   </g>
   <g id="patch_6">
    <path d="M 51.7675 23.837812 
L 843.632479 23.837812 
" style="fill: none; stroke: #cccccc; stroke-width: 1.25; stroke-linejoin: miter; stroke-linecap: square"/>
   </g>
   <g id="text_12">
    <!-- Time vs Size - Bulk Unsorted -->
    <g style="fill: #262626" transform="translate(334.829364 17.837812) scale(0.14 -0.14)">
     <defs>
      <path id="DejaVuSans-Bold-2d" d="M 347 2297 
L 2309 2297 
L 2309 1388 
L 347 1388 
L 347 2297 
z
" transform="scale(0.015625)"/>
      <path id="DejaVuSans-Bold-42" d="M 2456 2859 
Q 2741 2859 2887 2984 
Q 3034 3109 3034 3353 
Q 3034 3594 2887 3720 
Q 2741 3847 2456 3847 
L 1791 3847 
L 1791 2859 
L 2456 2859 
z
M 2497 819 
Q 2859 819 3042 972 
Q 3225 1125 3225 1434 
Q 3225 1738 3044 1889 
Q 2863 2041 2497 2041 
L 1791 2041 
L 1791 819 
L 2497 819 
z
M 3616 2497 
Q 4003 2384 4215 2081 
Q 4428 1778 4428 1338 
Q 4428 663 3972 331 
Q 3516 0 2584 0 
L 588 0 
L 588 4666 
L 2394 4666 
Q 3366 4666 3802 4372 
Q 4238 4078 4238 3431 
Q 4238 3091 4078 2852 
Q 3919 2613 3616 2497 
z
" transform="scale(0.015625)"/>
      <path id="DejaVuSans-Bold-75" d="M 500 1363 
L 500 3500 
L 1625 3500 
L 1625 3150 
Q 1625 2866 1622 2436 
Q 1619 2006 1619 1863 
Q 1619 1441 1641 1255 
Q 1663 1069 1716 984 
Q 1784 875 1895 815 
Q 2006 756 2150 756 
Q 2500 756 2700 1025 
Q 2900 1294 2900 1772 
L 2900 3500 
L 4019 3500 
L 4019 0 
L 2900 0 
L 2900 506 
Q 2647 200 2364 54 
Q 2081 -91 1741 -91 
Q 1134 -91 817 281 
Q 500 653 500 1363 
z
" transform="scale(0.015625)"/>
      <path id="DejaVuSans-Bold-6b" d="M 538 4863 
L 1656 4863 
L 1656 2216 
L 2944 3500 
L 4244 3500 
L 2534 1894 
L 4378 0 
L 3022 0 
L 1656 1459 
L 1656 0 
L 538 0 
L 538 4863 
z
" transform="scale(0.015625)"/>
      <path id="DejaVuSans-Bold-55" d="M 588 4666 
L 1791 4666 
L 1791 1869 
Q 1791 1291 1980 1042 
Q 2169 794 2597 794 
Q 3028 794 3217 1042 
Q 3406 1291 3406 1869 
L 3406 4666 
L 4609 4666 
L 4609 1869 
Q 4609 878 4112 393 
Q 3616 -91 2597 -91 
Q 1581 -91 1084 393 
Q 588 878 588 1869 
L 588 4666 
z
" transform="scale(0.015625)"/>
      <path id="DejaVuSans-Bold-64" d="M 2919 2988 
L 2919 4863 
L 4044 4863 
L 4044 0 
L 2919 0 
L 2919 506 
Q 2688 197 2409 53 
Q 2131 -91 1766 -91 
Q 1119 -91 703 423 
Q 288 938 288 1747 
Q 288 2556 703 3070 
Q 1119 3584 1766 3584 
Q 2128 3584 2408 3439 
Q 2688 3294 2919 2988 
z
M 2181 722 
Q 2541 722 2730 984 
Q 2919 1247 2919 1747 
Q 2919 2247 2730 2509 
Q 2541 2772 2181 2772 
Q 1825 2772 1636 2509 
Q 1447 2247 1447 1747 
Q 1447 1247 1636 984 
Q 1825 722 2181 722 
z
" transform="scale(0.015625)"/>
     </defs>
     <use xlink:href="#DejaVuSans-Bold-54"/>
     <use xlink:href="#DejaVuSans-Bold-69" transform="translate(68.212891 0)"/>
     <use xlink:href="#DejaVuSans-Bold-6d" transform="translate(102.490234 0)"/>
     <use xlink:href="#DejaVuSans-Bold-65" transform="translate(206.689453 0)"/>
     <use xlink:href="#DejaVuSans-Bold-20" transform="translate(274.511719 0)"/>
     <use xlink:href="#DejaVuSans-Bold-76" transform="translate(309.326172 0)"/>
     <use xlink:href="#DejaVuSans-Bold-73" transform="translate(374.511719 0)"/>
     <use xlink:href="#DejaVuSans-Bold-20" transform="translate(434.033203 0)"/>
     <use xlink:href="#DejaVuSans-Bold-53" transform="translate(468.847656 0)"/>
     <use xlink:href="#DejaVuSans-Bold-69" transform="translate(540.869141 0)"/>
     <use xlink:href="#DejaVuSans-Bold-7a" transform="translate(575.146484 0)"/>
     <use xlink:href="#DejaVuSans-Bold-65" transform="translate(633.349609 0)"/>
     <use xlink:href="#DejaVuSans-Bold-20" transform="translate(701.171875 0)"/>
     <use xlink:href="#DejaVuSans-Bold-2d" transform="translate(735.986328 0)"/>
     <use xlink:href="#DejaVuSans-Bold-20" transform="translate(777.490234 0)"/>
     <use xlink:href="#DejaVuSans-Bold-42" transform="translate(812.304688 0)"/>
     <use xlink:href="#DejaVuSans-Bold-75" transform="translate(888.525391 0)"/>
     <use xlink:href="#DejaVuSans-Bold-6c" transform="translate(959.716797 0)"/>
     <use xlink:href="#DejaVuSans-Bold-6b" transform="translate(993.994141 0)"/>
     <use xlink:href="#DejaVuSans-Bold-20" transform="translate(1060.498047 0)"/>
     <use xlink:href="#DejaVuSans-Bold-55" transform="translate(1095.3125 0)"/>
     <use xlink:href="#DejaVuSans-Bold-6e" transform="translate(1176.513672 0)"/>
     <use xlink:href="#DejaVuSans-Bold-73" transform="translate(1247.705078 0)"/>
     <use xlink:href="#DejaVuSans-Bold-6f" transform="translate(1307.226562 0)"/>
     <use xlink:href="#DejaVuSans-Bold-72" transform="translate(1375.927734 0)"/>
     <use xlink:href="#DejaVuSans-Bold-74" transform="translate(1425.244141 0)"/>
     <use xlink:href="#DejaVuSans-Bold-65" transform="translate(1473.046875 0)"/>
     <use xlink:href="#DejaVuSans-Bold-64" transform="translate(1540.869141 0)"/>
    </g>
   </g>
   <g id="legend_1">
    <g id="patch_7">
     <path d="M 58.0675 124.477812 
L 221.783125 124.477812 
Q 223.583125 124.477812 223.583125 122.677812 
L 223.583125 30.137812 
Q 223.583125 28.337812 221.783125 28.337812 
L 58.0675 28.337812 
Q 56.2675 28.337812 56.2675 30.137812 
L 56.2675 122.677812 
Q 56.2675 124.477812 58.0675 124.477812 
z
" style="fill: #ffffff; opacity: 0.8; stroke: #cccccc; stroke-linejoin: miter"/>
    </g>
    <g id="text_13">
     <!-- Order -->
     <g style="fill: #262626" transform="translate(125.715156 39.53625) scale(0.1 -0.1)">
      <defs>
       <path id="DejaVuSans-4f" d="M 2522 4238 
Q 1834 4238 1429 3725 
Q 1025 3213 1025 2328 
Q 1025 1447 1429 934 
Q 1834 422 2522 422 
Q 3209 422 3611 934 
Q 4013 1447 4013 2328 
Q 4013 3213 3611 3725 
Q 3209 4238 2522 4238 
z
M 2522 4750 
Q 3503 4750 4090 4092 
Q 4678 3434 4678 2328 
Q 4678 1225 4090 567 
Q 3503 -91 2522 -91 
Q 1538 -91 948 565 
Q 359 1222 359 2328 
Q 359 3434 948 4092 
Q 1538 4750 2522 4750 
z
" transform="scale(0.015625)"/>
       <path id="DejaVuSans-72" d="M 2631 2963 
Q 2534 3019 2420 3045 
Q 2306 3072 2169 3072 
Q 1681 3072 1420 2755 
Q 1159 2438 1159 1844 
L 1159 0 
L 581 0 
L 581 3500 
L 1159 3500 
L 1159 2956 
Q 1341 3275 1631 3429 
Q 1922 3584 2338 3584 
Q 2397 3584 2469 3576 
Q 2541 3569 2628 3553 
L 2631 2963 
z
" transform="scale(0.015625)"/>
       <path id="DejaVuSans-64" d="M 2906 2969 
L 2906 4863 
L 3481 4863 
L 3481 0 
L 2906 0 
L 2906 525 
Q 2725 213 2448 61 
Q 2172 -91 1784 -91 
Q 1150 -91 751 415 
Q 353 922 353 1747 
Q 353 2572 751 3078 
Q 1150 3584 1784 3584 
Q 2172 3584 2448 3432 
Q 2725 3281 2906 2969 
z
M 947 1747 
Q 947 1113 1208 752 
Q 1469 391 1925 391 
Q 2381 391 2643 752 
Q 2906 1113 2906 1747 
Q 2906 2381 2643 2742 
Q 2381 3103 1925 3103 
Q 1469 3103 1208 2742 
Q 947 2381 947 1747 
z
" transform="scale(0.015625)"/>
       <path id="DejaVuSans-65" d="M 3597 1894 
L 3597 1613 
L 953 1613 
Q 991 1019 1311 708 
Q 1631 397 2203 397 
Q 2534 397 2845 478 
Q 3156 559 3463 722 
L 3463 178 
Q 3153 47 2828 -22 
Q 2503 -91 2169 -91 
Q 1331 -91 842 396 
Q 353 884 353 1716 
Q 353 2575 817 3079 
Q 1281 3584 2069 3584 
Q 2775 3584 3186 3129 
Q 3597 2675 3597 1894 
z
M 3022 2063 
Q 3016 2534 2758 2815 
Q 2500 3097 2075 3097 
Q 1594 3097 1305 2825 
Q 1016 2553 972 2059 
L 3022 2063 
z
" transform="scale(0.015625)"/>
      </defs>
      <use xlink:href="#DejaVuSans-4f"/>
      <use xlink:href="#DejaVuSans-72" transform="translate(78.710938 0)"/>
      <use xlink:href="#DejaVuSans-64" transform="translate(118.074219 0)"/>
      <use xlink:href="#DejaVuSans-65" transform="translate(181.550781 0)"/>
      <use xlink:href="#DejaVuSans-72" transform="translate(243.074219 0)"/>
     </g>
    </g>
    <g id="line2d_46">
     <path d="M 59.8675 49.804531 
L 68.8675 49.804531 
L 77.8675 49.804531 
" style="fill: none; stroke: #f77189; stroke-width: 2; stroke-linecap: round"/>
     <g>
      <use xlink:href="#mf51d6a92ec" x="68.8675" y="49.804531" style="fill: #f77189; stroke: #f77189"/>
     </g>
    </g>
    <g id="text_14">
     <!-- order=3 -->
     <g style="fill: #262626" transform="translate(85.0675 52.954531) scale(0.09 -0.09)">
      <defs>
       <path id="DejaVuSans-6f" d="M 1959 3097 
Q 1497 3097 1228 2736 
Q 959 2375 959 1747 
Q 959 1119 1226 758 
Q 1494 397 1959 397 
Q 2419 397 2687 759 
Q 2956 1122 2956 1747 
Q 2956 2369 2687 2733 
Q 2419 3097 1959 3097 
z
M 1959 3584 
Q 2709 3584 3137 3096 
Q 3566 2609 3566 1747 
Q 3566 888 3137 398 
Q 2709 -91 1959 -91 
Q 1206 -91 779 398 
Q 353 888 353 1747 
Q 353 2609 779 3096 
Q 1206 3584 1959 3584 
z
" transform="scale(0.015625)"/>
       <path id="DejaVuSans-3d" d="M 678 2906 
L 4684 2906 
L 4684 2381 
L 678 2381 
L 678 2906 
z
M 678 1631 
L 4684 1631 
L 4684 1100 
L 678 1100 
L 678 1631 
z
" transform="scale(0.015625)"/>
      </defs>
      <use xlink:href="#DejaVuSans-6f"/>
      <use xlink:href="#DejaVuSans-72" transform="translate(61.181641 0)"/>
      <use xlink:href="#DejaVuSans-64" transform="translate(100.544922 0)"/>
      <use xlink:href="#DejaVuSans-65" transform="translate(164.021484 0)"/>
      <use xlink:href="#DejaVuSans-72" transform="translate(225.544922 0)"/>
      <use xlink:href="#DejaVuSans-3d" transform="translate(266.658203 0)"/>
      <use xlink:href="#DejaVuSans-33" transform="translate(350.447266 0)"/>
     </g>
    </g>
    <g id="line2d_47">
     <path d="M 59.8675 63.014844 
L 68.8675 63.014844 
L 77.8675 63.014844 
" style="fill: none; stroke: #e68332; stroke-width: 2; stroke-linecap: round"/>
     <g>
      <use xlink:href="#mdda6a5cef6" x="68.8675" y="63.014844" style="fill: #e68332; stroke: #e68332"/>
     </g>
    </g>
    <g id="text_15">
     <!-- order=5 -->
     <g style="fill: #262626" transform="translate(85.0675 66.164844) scale(0.09 -0.09)">
      <use xlink:href="#DejaVuSans-6f"/>
      <use xlink:href="#DejaVuSans-72" transform="translate(61.181641 0)"/>
      <use xlink:href="#DejaVuSans-64" transform="translate(100.544922 0)"/>
      <use xlink:href="#DejaVuSans-65" transform="translate(164.021484 0)"/>
      <use xlink:href="#DejaVuSans-72" transform="translate(225.544922 0)"/>
      <use xlink:href="#DejaVuSans-3d" transform="translate(266.658203 0)"/>
      <use xlink:href="#DejaVuSans-35" transform="translate(350.447266 0)"/>
     </g>
    </g>
    <g id="line2d_48">
     <path d="M 59.8675 76.225156 
L 68.8675 76.225156 
L 77.8675 76.225156 
" style="fill: none; stroke: #bb9832; stroke-width: 2; stroke-linecap: round"/>
     <g>
      <use xlink:href="#m1ddfc0ea39" x="68.8675" y="76.225156" style="fill: #bb9832; stroke: #bb9832"/>
     </g>
    </g>
    <g id="text_16">
     <!-- order=10 -->
     <g style="fill: #262626" transform="translate(85.0675 79.375156) scale(0.09 -0.09)">
      <use xlink:href="#DejaVuSans-6f"/>
      <use xlink:href="#DejaVuSans-72" transform="translate(61.181641 0)"/>
      <use xlink:href="#DejaVuSans-64" transform="translate(100.544922 0)"/>
      <use xlink:href="#DejaVuSans-65" transform="translate(164.021484 0)"/>
      <use xlink:href="#DejaVuSans-72" transform="translate(225.544922 0)"/>
      <use xlink:href="#DejaVuSans-3d" transform="translate(266.658203 0)"/>
      <use xlink:href="#DejaVuSans-31" transform="translate(350.447266 0)"/>
      <use xlink:href="#DejaVuSans-30" transform="translate(414.070312 0)"/>
     </g>
    </g>
    <g id="line2d_49">
     <path d="M 59.8675 89.435469 
L 68.8675 89.435469 
L 77.8675 89.435469 
" style="fill: none; stroke: #97a431; stroke-width: 2; stroke-linecap: round"/>
     <g>
      <use xlink:href="#m6e6d5b0c33" x="68.8675" y="89.435469" style="fill: #97a431; stroke: #97a431"/>
     </g>
    </g>
    <g id="text_17">
     <!-- order=15 -->
     <g style="fill: #262626" transform="translate(85.0675 92.585469) scale(0.09 -0.09)">
      <use xlink:href="#DejaVuSans-6f"/>
      <use xlink:href="#DejaVuSans-72" transform="translate(61.181641 0)"/>
      <use xlink:href="#DejaVuSans-64" transform="translate(100.544922 0)"/>
      <use xlink:href="#DejaVuSans-65" transform="translate(164.021484 0)"/>
      <use xlink:href="#DejaVuSans-72" transform="translate(225.544922 0)"/>
      <use xlink:href="#DejaVuSans-3d" transform="translate(266.658203 0)"/>
      <use xlink:href="#DejaVuSans-31" transform="translate(350.447266 0)"/>
      <use xlink:href="#DejaVuSans-35" transform="translate(414.070312 0)"/>
     </g>
    </g>
    <g id="line2d_50">
     <path d="M 59.8675 102.645781 
L 68.8675 102.645781 
L 77.8675 102.645781 
" style="fill: none; stroke: #50b131; stroke-width: 2; stroke-linecap: round"/>
     <g>
      <use xlink:href="#mdfb0e6e9b0" x="68.8675" y="102.645781" style="fill: #50b131; stroke: #50b131"/>
     </g>
    </g>
    <g id="text_18">
     <!-- order=20 -->
     <g style="fill: #262626" transform="translate(85.0675 105.795781) scale(0.09 -0.09)">
      <use xlink:href="#DejaVuSans-6f"/>
      <use xlink:href="#DejaVuSans-72" transform="translate(61.181641 0)"/>
      <use xlink:href="#DejaVuSans-64" transform="translate(100.544922 0)"/>
      <use xlink:href="#DejaVuSans-65" transform="translate(164.021484 0)"/>
      <use xlink:href="#DejaVuSans-72" transform="translate(225.544922 0)"/>
      <use xlink:href="#DejaVuSans-3d" transform="translate(266.658203 0)"/>
      <use xlink:href="#DejaVuSans-32" transform="translate(350.447266 0)"/>
      <use xlink:href="#DejaVuSans-30" transform="translate(414.070312 0)"/>
     </g>
    </g>
    <g id="line2d_51">
     <path d="M 59.8675 115.856094 
L 68.8675 115.856094 
L 77.8675 115.856094 
" style="fill: none; stroke: #34af84; stroke-width: 2; stroke-linecap: round"/>
     <g>
      <use xlink:href="#mfb5453bb13" x="68.8675" y="115.856094" style="fill: #34af84; stroke: #34af84"/>
     </g>
    </g>
    <g id="text_19">
     <!-- order=25 -->
     <g style="fill: #262626" transform="translate(85.0675 119.006094) scale(0.09 -0.09)">
      <use xlink:href="#DejaVuSans-6f"/>
      <use xlink:href="#DejaVuSans-72" transform="translate(61.181641 0)"/>
      <use xlink:href="#DejaVuSans-64" transform="translate(100.544922 0)"/>
      <use xlink:href="#DejaVuSans-65" transform="translate(164.021484 0)"/>
      <use xlink:href="#DejaVuSans-72" transform="translate(225.544922 0)"/>
      <use xlink:href="#DejaVuSans-3d" transform="translate(266.658203 0)"/>
      <use xlink:href="#DejaVuSans-32" transform="translate(350.447266 0)"/>
      <use xlink:href="#DejaVuSans-35" transform="translate(414.070312 0)"/>
     </g>
    </g>
    <g id="line2d_52">
     <path d="M 146.062187 49.804531 
L 155.062187 49.804531 
L 164.062187 49.804531 
" style="fill: none; stroke: #36ada4; stroke-width: 2; stroke-linecap: round"/>
     <g>
      <use xlink:href="#m75ff435d08" x="155.062187" y="49.804531" style="fill: #36ada4; stroke: #36ada4"/>
     </g>
    </g>
    <g id="text_20">
     <!-- order=30 -->
     <g style="fill: #262626" transform="translate(171.262187 52.954531) scale(0.09 -0.09)">
      <use xlink:href="#DejaVuSans-6f"/>
      <use xlink:href="#DejaVuSans-72" transform="translate(61.181641 0)"/>
      <use xlink:href="#DejaVuSans-64" transform="translate(100.544922 0)"/>
      <use xlink:href="#DejaVuSans-65" transform="translate(164.021484 0)"/>
      <use xlink:href="#DejaVuSans-72" transform="translate(225.544922 0)"/>
      <use xlink:href="#DejaVuSans-3d" transform="translate(266.658203 0)"/>
      <use xlink:href="#DejaVuSans-33" transform="translate(350.447266 0)"/>
      <use xlink:href="#DejaVuSans-30" transform="translate(414.070312 0)"/>
     </g>
    </g>
    <g id="line2d_53">
     <path d="M 146.062187 63.014844 
L 155.062187 63.014844 
L 164.062187 63.014844 
" style="fill: none; stroke: #38aabf; stroke-width: 2; stroke-linecap: round"/>
     <g>
      <use xlink:href="#m0751271436" x="155.062187" y="63.014844" style="fill: #38aabf; stroke: #38aabf"/>
     </g>
    </g>
    <g id="text_21">
     <!-- order=50 -->
     <g style="fill: #262626" transform="translate(171.262187 66.164844) scale(0.09 -0.09)">
      <use xlink:href="#DejaVuSans-6f"/>
      <use xlink:href="#DejaVuSans-72" transform="translate(61.181641 0)"/>
      <use xlink:href="#DejaVuSans-64" transform="translate(100.544922 0)"/>
      <use xlink:href="#DejaVuSans-65" transform="translate(164.021484 0)"/>
      <use xlink:href="#DejaVuSans-72" transform="translate(225.544922 0)"/>
      <use xlink:href="#DejaVuSans-3d" transform="translate(266.658203 0)"/>
      <use xlink:href="#DejaVuSans-35" transform="translate(350.447266 0)"/>
      <use xlink:href="#DejaVuSans-30" transform="translate(414.070312 0)"/>
     </g>
    </g>
    <g id="line2d_54">
     <path d="M 146.062187 76.225156 
L 155.062187 76.225156 
L 164.062187 76.225156 
" style="fill: none; stroke: #3ba3ec; stroke-width: 2; stroke-linecap: round"/>
     <g>
      <use xlink:href="#m51b9664889" x="155.062187" y="76.225156" style="fill: #3ba3ec; stroke: #3ba3ec"/>
     </g>
    </g>
    <g id="text_22">
     <!-- order=75 -->
     <g style="fill: #262626" transform="translate(171.262187 79.375156) scale(0.09 -0.09)">
      <defs>
       <path id="DejaVuSans-37" d="M 525 4666 
L 3525 4666 
L 3525 4397 
L 1831 0 
L 1172 0 
L 2766 4134 
L 525 4134 
L 525 4666 
z
" transform="scale(0.015625)"/>
      </defs>
      <use xlink:href="#DejaVuSans-6f"/>
      <use xlink:href="#DejaVuSans-72" transform="translate(61.181641 0)"/>
      <use xlink:href="#DejaVuSans-64" transform="translate(100.544922 0)"/>
      <use xlink:href="#DejaVuSans-65" transform="translate(164.021484 0)"/>
      <use xlink:href="#DejaVuSans-72" transform="translate(225.544922 0)"/>
      <use xlink:href="#DejaVuSans-3d" transform="translate(266.658203 0)"/>
      <use xlink:href="#DejaVuSans-37" transform="translate(350.447266 0)"/>
      <use xlink:href="#DejaVuSans-35" transform="translate(414.070312 0)"/>
     </g>
    </g>
    <g id="line2d_55">
     <path d="M 146.062187 89.435469 
L 155.062187 89.435469 
L 164.062187 89.435469 
" style="fill: none; stroke: #a48cf4; stroke-width: 2; stroke-linecap: round"/>
     <g>
      <use xlink:href="#m81d43c8f83" x="155.062187" y="89.435469" style="fill: #a48cf4; stroke: #a48cf4"/>
     </g>
    </g>
    <g id="text_23">
     <!-- order=100 -->
     <g style="fill: #262626" transform="translate(171.262187 92.585469) scale(0.09 -0.09)">
      <use xlink:href="#DejaVuSans-6f"/>
      <use xlink:href="#DejaVuSans-72" transform="translate(61.181641 0)"/>
      <use xlink:href="#DejaVuSans-64" transform="translate(100.544922 0)"/>
      <use xlink:href="#DejaVuSans-65" transform="translate(164.021484 0)"/>
      <use xlink:href="#DejaVuSans-72" transform="translate(225.544922 0)"/>
      <use xlink:href="#DejaVuSans-3d" transform="translate(266.658203 0)"/>
      <use xlink:href="#DejaVuSans-31" transform="translate(350.447266 0)"/>
      <use xlink:href="#DejaVuSans-30" transform="translate(414.070312 0)"/>
      <use xlink:href="#DejaVuSans-30" transform="translate(477.693359 0)"/>
     </g>
    </g>
    <g id="line2d_56">
     <path d="M 146.062187 102.645781 
L 155.062187 102.645781 
L 164.062187 102.645781 
" style="fill: none; stroke: #e866f4; stroke-width: 2; stroke-linecap: round"/>
     <g>
      <use xlink:href="#m00ef6909e8" x="155.062187" y="102.645781" style="fill: #e866f4; stroke: #e866f4"/>
     </g>
    </g>
    <g id="text_24">
     <!-- order=150 -->
     <g style="fill: #262626" transform="translate(171.262187 105.795781) scale(0.09 -0.09)">
      <use xlink:href="#DejaVuSans-6f"/>
      <use xlink:href="#DejaVuSans-72" transform="translate(61.181641 0)"/>
      <use xlink:href="#DejaVuSans-64" transform="translate(100.544922 0)"/>
      <use xlink:href="#DejaVuSans-65" transform="translate(164.021484 0)"/>
      <use xlink:href="#DejaVuSans-72" transform="translate(225.544922 0)"/>
      <use xlink:href="#DejaVuSans-3d" transform="translate(266.658203 0)"/>
      <use xlink:href="#DejaVuSans-31" transform="translate(350.447266 0)"/>
      <use xlink:href="#DejaVuSans-35" transform="translate(414.070312 0)"/>
      <use xlink:href="#DejaVuSans-30" transform="translate(477.693359 0)"/>
     </g>
    </g>
    <g id="line2d_57">
     <path d="M 146.062187 115.856094 
L 155.062187 115.856094 
L 164.062187 115.856094 
" style="fill: none; stroke: #f668c2; stroke-width: 2; stroke-linecap: round"/>
     <g>
      <use xlink:href="#me135df934b" x="155.062187" y="115.856094" style="fill: #f668c2; stroke: #f668c2"/>
     </g>
    </g>
    <g id="text_25">
     <!-- order=200 -->
     <g style="fill: #262626" transform="translate(171.262187 119.006094) scale(0.09 -0.09)">
      <use xlink:href="#DejaVuSans-6f"/>
      <use xlink:href="#DejaVuSans-72" transform="translate(61.181641 0)"/>
      <use xlink:href="#DejaVuSans-64" transform="translate(100.544922 0)"/>
      <use xlink:href="#DejaVuSans-65" transform="translate(164.021484 0)"/>
      <use xlink:href="#DejaVuSans-72" transform="translate(225.544922 0)"/>
      <use xlink:href="#DejaVuSans-3d" transform="translate(266.658203 0)"/>
      <use xlink:href="#DejaVuSans-32" transform="translate(350.447266 0)"/>
      <use xlink:href="#DejaVuSans-30" transform="translate(414.070312 0)"/>
      <use xlink:href="#DejaVuSans-30" transform="translate(477.693359 0)"/>
     </g>
    </g>
   </g>
  </g>
 </g>
 <defs>
  <clipPath id="pe5edcdefd2">
   <rect x="51.7675" y="23.837812" width="791.864979" height="496.02"/>
  </clipPath>
 </defs>
</svg>
