<?xml version="1.0" encoding="utf-8" standalone="no"?>
<!DOCTYPE svg PUBLIC "-//W3C//DTD SVG 1.1//EN"
  "http://www.w3.org/Graphics/SVG/1.1/DTD/svg11.dtd">
<svg xmlns:xlink="http://www.w3.org/1999/xlink" width="852.158125pt" height="564.239219pt" viewBox="0 0 852.158125 564.239219" xmlns="http://www.w3.org/2000/svg" version="1.1">
 <metadata>
  <rdf:RDF xmlns:dc="http://purl.org/dc/elements/1.1/" xmlns:cc="http://creativecommons.org/ns#" xmlns:rdf="http://www.w3.org/1999/02/22-rdf-syntax-ns#">
   <cc:Work>
    <dc:type rdf:resource="http://purl.org/dc/dcmitype/StillImage"/>
    <dc:date>2026-07-10T01:17:27.097498</dc:date>
    <dc:format>image/svg+xml</dc:format>
    <dc:creator>
     <cc:Agent>
      <dc:title>Matplotlib v3.11.0, https://matplotlib.org/</dc:title>
     </cc:Agent>
    </dc:creator>
   </cc:Work>
  </rdf:RDF>
 </metadata>
 <defs>
  <style type="text/css">*{stroke-linejoin: round; stroke-linecap: butt}</style>
 </defs>
 <g id="figure_1">
  <g id="patch_1">
   <path d="M 0 564.239219 
L 852.158125 564.239219 
L 852.158125 0 
L 0 0 
z
" style="fill: #ffffff"/>
  </g>
  <g id="axes_1">
   <g id="patch_2">
    <path d="M 52.060938 520.538281 
L 844.958125 520.538281 
L 844.958125 23.837812 
L 52.060938 23.837812 
z
" style="fill: #ffffff"/>
   </g>
   <g id="matplotlib.axis_1">
    <g id="xtick_1">
     <g id="line2d_1">
      <path d="M 137.813141 520.538281 
L 137.813141 23.837812 
" clip-path="url(#p89c0329954)" style="fill: none; stroke: #cccccc; stroke-opacity: 0.3; stroke-linecap: round"/>
     </g>
     <g id="text_1">
      <!-- 5 -->
      <g style="fill: #262626" transform="translate(134.313766 538.395703) scale(0.11 -0.11)">
       <defs>
        <path id="DejaVuSans-18" d="M 691 4666 
L 3169 4666 
L 3169 4134 
L 1269 4134 
L 1269 2991 
Q 1406 3038 1543 3061 
Q 1681 3084 1819 3084 
Q 2600 3084 3056 2656 
Q 3513 2228 3513 1497 
Q 3513 744 3044 326 
Q 2575 -91 1722 -91 
Q 1428 -91 1123 -41 
Q 819 9 494 109 
L 494 744 
Q 775 591 1075 516 
Q 1375 441 1709 441 
Q 2250 441 2565 725 
Q 2881 1009 2881 1497 
Q 2881 1984 2565 2268 
Q 2250 2553 1709 2553 
Q 1456 2553 1204 2497 
Q 953 2441 691 2322 
L 691 4666 
z
" transform="scale(0.015625)"/>
       </defs>
       <use xlink:href="#DejaVuSans-18"/>
      </g>
     </g>
    </g>
    <g id="xtick_2">
     <g id="line2d_2">
      <path d="M 262.091697 520.538281 
L 262.091697 23.837812 
" clip-path="url(#p89c0329954)" style="fill: none; stroke: #cccccc; stroke-opacity: 0.3; stroke-linecap: round"/>
     </g>
     <g id="text_2">
      <!-- 10 -->
      <g style="fill: #262626" transform="translate(255.092947 538.395703) scale(0.11 -0.11)">
       <defs>
        <path id="DejaVuSans-14" d="M 794 531 
L 1825 531 
L 1825 4091 
L 703 3866 
L 703 4441 
L 1819 4666 
L 2450 4666 
L 2450 531 
L 3481 531 
L 3481 0 
L 794 0 
L 794 531 
z
" transform="scale(0.015625)"/>
        <path id="DejaVuSans-13" d="M 2034 4250 
Q 1547 4250 1301 3770 
Q 1056 3291 1056 2328 
Q 1056 1369 1301 889 
Q 1547 409 2034 409 
Q 2525 409 2770 889 
Q 3016 1369 3016 2328 
Q 3016 3291 2770 3770 
Q 2525 4250 2034 4250 
z
M 2034 4750 
Q 2819 4750 3233 4129 
Q 3647 3509 3647 2328 
Q 3647 1150 3233 529 
Q 2819 -91 2034 -91 
Q 1250 -91 836 529 
Q 422 1150 422 2328 
Q 422 3509 836 4129 
Q 1250 4750 2034 4750 
z
" transform="scale(0.015625)"/>
       </defs>
       <use xlink:href="#DejaVuSans-14"/>
       <use xlink:href="#DejaVuSans-13" transform="translate(63.625 0)"/>
      </g>
     </g>
    </g>
    <g id="xtick_3">
     <g id="line2d_3">
      <path d="M 386.370253 520.538281 
L 386.370253 23.837812 
" clip-path="url(#p89c0329954)" style="fill: none; stroke: #cccccc; stroke-opacity: 0.3; stroke-linecap: round"/>
     </g>
     <g id="text_3">
      <!-- 15 -->
      <g style="fill: #262626" transform="translate(379.371503 538.395703) scale(0.11 -0.11)">
       <use xlink:href="#DejaVuSans-14"/>
       <use xlink:href="#DejaVuSans-18" transform="translate(63.625 0)"/>
      </g>
     </g>
    </g>
    <g id="xtick_4">
     <g id="line2d_4">
      <path d="M 510.648809 520.538281 
L 510.648809 23.837812 
" clip-path="url(#p89c0329954)" style="fill: none; stroke: #cccccc; stroke-opacity: 0.3; stroke-linecap: round"/>
     </g>
     <g id="text_4">
      <!-- 20 -->
      <g style="fill: #262626" transform="translate(503.650059 538.395703) scale(0.11 -0.11)">
       <defs>
        <path id="DejaVuSans-15" d="M 1228 531 
L 3431 531 
L 3431 0 
L 469 0 
L 469 531 
Q 828 903 1448 1529 
Q 2069 2156 2228 2338 
Q 2531 2678 2651 2914 
Q 2772 3150 2772 3378 
Q 2772 3750 2511 3984 
Q 2250 4219 1831 4219 
Q 1534 4219 1204 4116 
Q 875 4013 500 3803 
L 500 4441 
Q 881 4594 1212 4672 
Q 1544 4750 1819 4750 
Q 2544 4750 2975 4387 
Q 3406 4025 3406 3419 
Q 3406 3131 3298 2873 
Q 3191 2616 2906 2266 
Q 2828 2175 2409 1742 
Q 1991 1309 1228 531 
z
" transform="scale(0.015625)"/>
       </defs>
       <use xlink:href="#DejaVuSans-15"/>
       <use xlink:href="#DejaVuSans-13" transform="translate(63.625 0)"/>
      </g>
     </g>
    </g>
    <g id="xtick_5">
     <g id="line2d_5">
      <path d="M 634.927365 520.538281 
L 634.927365 23.837812 
" clip-path="url(#p89c0329954)" style="fill: none; stroke: #cccccc; stroke-opacity: 0.3; stroke-linecap: round"/>
     </g>
     <g id="text_5">
      <!-- 25 -->
      <g style="fill: #262626" transform="translate(627.928615 538.395703) scale(0.11 -0.11)">
       <use xlink:href="#DejaVuSans-15"/>
       <use xlink:href="#DejaVuSans-18" transform="translate(63.625 0)"/>
      </g>
     </g>
    </g>
    <g id="xtick_6">
     <g id="line2d_6">
      <path d="M 759.205921 520.538281 
L 759.205921 23.837812 
" clip-path="url(#p89c0329954)" style="fill: none; stroke: #cccccc; stroke-opacity: 0.3; stroke-linecap: round"/>
     </g>
     <g id="text_6">
      <!-- 30 -->
      <g style="fill: #262626" transform="translate(752.207171 538.395703) scale(0.11 -0.11)">
       <defs>
        <path id="DejaVuSans-16" d="M 2597 2516 
Q 3050 2419 3304 2112 
Q 3559 1806 3559 1356 
Q 3559 666 3084 287 
Q 2609 -91 1734 -91 
Q 1441 -91 1130 -33 
Q 819 25 488 141 
L 488 750 
Q 750 597 1062 519 
Q 1375 441 1716 441 
Q 2309 441 2620 675 
Q 2931 909 2931 1356 
Q 2931 1769 2642 2001 
Q 2353 2234 1838 2234 
L 1294 2234 
L 1294 2753 
L 1863 2753 
Q 2328 2753 2575 2939 
Q 2822 3125 2822 3475 
Q 2822 3834 2567 4026 
Q 2313 4219 1838 4219 
Q 1578 4219 1281 4162 
Q 984 4106 628 3988 
L 628 4550 
Q 988 4650 1302 4700 
Q 1616 4750 1894 4750 
Q 2613 4750 3031 4423 
Q 3450 4097 3450 3541 
Q 3450 3153 3228 2886 
Q 3006 2619 2597 2516 
z
" transform="scale(0.015625)"/>
       </defs>
       <use xlink:href="#DejaVuSans-16"/>
       <use xlink:href="#DejaVuSans-13" transform="translate(63.625 0)"/>
      </g>
     </g>
    </g>
    <g id="text_7">
     <!-- Order (k) -->
     <g style="fill: #262626" transform="translate(417.563594 554.156406) scale(0.12 -0.12)">
      <defs>
       <path id="DejaVuSans-Bold-32" d="M 2719 3878 
Q 2169 3878 1866 3472 
Q 1563 3066 1563 2328 
Q 1563 1594 1866 1187 
Q 2169 781 2719 781 
Q 3272 781 3575 1187 
Q 3878 1594 3878 2328 
Q 3878 3066 3575 3472 
Q 3272 3878 2719 3878 
z
M 2719 4750 
Q 3844 4750 4481 4106 
Q 5119 3463 5119 2328 
Q 5119 1197 4481 553 
Q 3844 -91 2719 -91 
Q 1597 -91 958 553 
Q 319 1197 319 2328 
Q 319 3463 958 4106 
Q 1597 4750 2719 4750 
z
" transform="scale(0.015625)"/>
       <path id="DejaVuSans-Bold-55" d="M 3138 2547 
Q 2991 2616 2845 2648 
Q 2700 2681 2553 2681 
Q 2122 2681 1889 2404 
Q 1656 2128 1656 1613 
L 1656 0 
L 538 0 
L 538 3500 
L 1656 3500 
L 1656 2925 
Q 1872 3269 2151 3426 
Q 2431 3584 2822 3584 
Q 2878 3584 2943 3579 
Q 3009 3575 3134 3559 
L 3138 2547 
z
" transform="scale(0.015625)"/>
       <path id="DejaVuSans-Bold-47" d="M 2919 2988 
L 2919 4863 
L 4044 4863 
L 4044 0 
L 2919 0 
L 2919 506 
Q 2688 197 2409 53 
Q 2131 -91 1766 -91 
Q 1119 -91 703 423 
Q 288 938 288 1747 
Q 288 2556 703 3070 
Q 1119 3584 1766 3584 
Q 2128 3584 2408 3439 
Q 2688 3294 2919 2988 
z
M 2181 722 
Q 2541 722 2730 984 
Q 2919 1247 2919 1747 
Q 2919 2247 2730 2509 
Q 2541 2772 2181 2772 
Q 1825 2772 1636 2509 
Q 1447 2247 1447 1747 
Q 1447 1247 1636 984 
Q 1825 722 2181 722 
z
" transform="scale(0.015625)"/>
       <path id="DejaVuSans-Bold-48" d="M 4031 1759 
L 4031 1441 
L 1416 1441 
Q 1456 1047 1700 850 
Q 1944 653 2381 653 
Q 2734 653 3104 758 
Q 3475 863 3866 1075 
L 3866 213 
Q 3469 63 3072 -14 
Q 2675 -91 2278 -91 
Q 1328 -91 801 392 
Q 275 875 275 1747 
Q 275 2603 792 3093 
Q 1309 3584 2216 3584 
Q 3041 3584 3536 3087 
Q 4031 2591 4031 1759 
z
M 2881 2131 
Q 2881 2450 2695 2645 
Q 2509 2841 2209 2841 
Q 1884 2841 1681 2658 
Q 1478 2475 1428 2131 
L 2881 2131 
z
" transform="scale(0.015625)"/>
       <path id="DejaVuSans-Bold-3" transform="scale(0.015625)"/>
       <path id="DejaVuSans-Bold-b" d="M 2413 -844 
L 1484 -844 
Q 1006 -72 778 623 
Q 550 1319 550 2003 
Q 550 2688 779 3389 
Q 1009 4091 1484 4856 
L 2413 4856 
Q 2013 4116 1813 3408 
Q 1613 2700 1613 2009 
Q 1613 1319 1811 609 
Q 2009 -100 2413 -844 
z
" transform="scale(0.015625)"/>
       <path id="DejaVuSans-Bold-4e" d="M 538 4863 
L 1656 4863 
L 1656 2216 
L 2944 3500 
L 4244 3500 
L 2534 1894 
L 4378 0 
L 3022 0 
L 1656 1459 
L 1656 0 
L 538 0 
L 538 4863 
z
" transform="scale(0.015625)"/>
       <path id="DejaVuSans-Bold-c" d="M 513 -844 
Q 913 -100 1113 609 
Q 1313 1319 1313 2009 
Q 1313 2700 1113 3408 
Q 913 4116 513 4856 
L 1441 4856 
Q 1916 4091 2145 3389 
Q 2375 2688 2375 2003 
Q 2375 1319 2147 623 
Q 1919 -72 1441 -844 
L 513 -844 
z
" transform="scale(0.015625)"/>
      </defs>
      <use xlink:href="#DejaVuSans-Bold-32"/>
      <use xlink:href="#DejaVuSans-Bold-55" transform="translate(85.015625 0)"/>
      <use xlink:href="#DejaVuSans-Bold-47" transform="translate(134.328125 0)"/>
      <use xlink:href="#DejaVuSans-Bold-48" transform="translate(205.90625 0)"/>
      <use xlink:href="#DejaVuSans-Bold-55" transform="translate(273.734375 0)"/>
      <use xlink:href="#DejaVuSans-Bold-3" transform="translate(323.046875 0)"/>
      <use xlink:href="#DejaVuSans-Bold-b" transform="translate(357.859375 0)"/>
      <use xlink:href="#DejaVuSans-Bold-4e" transform="translate(403.5625 0)"/>
      <use xlink:href="#DejaVuSans-Bold-c" transform="translate(470.0625 0)"/>
     </g>
    </g>
   </g>
   <g id="matplotlib.axis_2">
    <g id="ytick_1">
     <g id="line2d_7">
      <path d="M 52.060938 400.921476 
L 844.958125 400.921476 
" clip-path="url(#p89c0329954)" style="fill: none; stroke: #cccccc; stroke-opacity: 0.3; stroke-linecap: round"/>
     </g>
     <g id="text_8">
      <!-- $\mathdefault{10^{2}}$ -->
      <g style="fill: #262626" transform="translate(23.200938 406.091476) scale(0.11 -0.11)">
       <use xlink:href="#DejaVuSans-14" transform="translate(0 0.746875)"/>
       <use xlink:href="#DejaVuSans-13" transform="translate(63.623047 0.746875)"/>
       <use xlink:href="#DejaVuSans-15" transform="translate(128.203125 42.046875) scale(0.7)"/>
      </g>
     </g>
    </g>
    <g id="ytick_2">
     <g id="line2d_8">
      <path d="M 52.060938 238.16633 
L 844.958125 238.16633 
" clip-path="url(#p89c0329954)" style="fill: none; stroke: #cccccc; stroke-opacity: 0.3; stroke-linecap: round"/>
     </g>
     <g id="text_9">
      <!-- $\mathdefault{10^{3}}$ -->
      <g style="fill: #262626" transform="translate(23.200938 243.33633) scale(0.11 -0.11)">
       <use xlink:href="#DejaVuSans-14" transform="translate(0 0.746875)"/>
       <use xlink:href="#DejaVuSans-13" transform="translate(63.623047 0.746875)"/>
       <use xlink:href="#DejaVuSans-16" transform="translate(128.203125 42.046875) scale(0.7)"/>
      </g>
     </g>
    </g>
    <g id="ytick_3">
     <g id="line2d_9">
      <path d="M 52.060938 75.411183 
L 844.958125 75.411183 
" clip-path="url(#p89c0329954)" style="fill: none; stroke: #cccccc; stroke-opacity: 0.3; stroke-linecap: round"/>
     </g>
     <g id="text_10">
      <!-- $\mathdefault{10^{4}}$ -->
      <g style="fill: #262626" transform="translate(23.200938 80.526183) scale(0.11 -0.11)">
       <defs>
        <path id="DejaVuSans-17" d="M 2419 4116 
L 825 1625 
L 2419 1625 
L 2419 4116 
z
M 2253 4666 
L 3047 4666 
L 3047 1625 
L 3713 1625 
L 3713 1100 
L 3047 1100 
L 3047 0 
L 2419 0 
L 2419 1100 
L 313 1100 
L 313 1709 
L 2253 4666 
z
" transform="scale(0.015625)"/>
       </defs>
       <use xlink:href="#DejaVuSans-14" transform="translate(0 0.665625)"/>
       <use xlink:href="#DejaVuSans-13" transform="translate(63.623047 0.665625)"/>
       <use xlink:href="#DejaVuSans-17" transform="translate(128.203125 41.965625) scale(0.7)"/>
      </g>
     </g>
    </g>
    <g id="ytick_4">
     <g id="line2d_10">
      <path d="M 52.060938 514.682441 
L 844.958125 514.682441 
" clip-path="url(#p89c0329954)" style="fill: none; stroke: #cccccc; stroke-opacity: 0.3; stroke-linecap: round"/>
     </g>
    </g>
    <g id="ytick_5">
     <g id="line2d_11">
      <path d="M 52.060938 486.022683 
L 844.958125 486.022683 
" clip-path="url(#p89c0329954)" style="fill: none; stroke: #cccccc; stroke-opacity: 0.3; stroke-linecap: round"/>
     </g>
    </g>
    <g id="ytick_6">
     <g id="line2d_12">
      <path d="M 52.060938 465.68826 
L 844.958125 465.68826 
" clip-path="url(#p89c0329954)" style="fill: none; stroke: #cccccc; stroke-opacity: 0.3; stroke-linecap: round"/>
     </g>
    </g>
    <g id="ytick_7">
     <g id="line2d_13">
      <path d="M 52.060938 449.915657 
L 844.958125 449.915657 
" clip-path="url(#p89c0329954)" style="fill: none; stroke: #cccccc; stroke-opacity: 0.3; stroke-linecap: round"/>
     </g>
    </g>
    <g id="ytick_8">
     <g id="line2d_14">
      <path d="M 52.060938 437.028502 
L 844.958125 437.028502 
" clip-path="url(#p89c0329954)" style="fill: none; stroke: #cccccc; stroke-opacity: 0.3; stroke-linecap: round"/>
     </g>
    </g>
    <g id="ytick_9">
     <g id="line2d_15">
      <path d="M 52.060938 426.132567 
L 844.958125 426.132567 
" clip-path="url(#p89c0329954)" style="fill: none; stroke: #cccccc; stroke-opacity: 0.3; stroke-linecap: round"/>
     </g>
    </g>
    <g id="ytick_10">
     <g id="line2d_16">
      <path d="M 52.060938 416.694079 
L 844.958125 416.694079 
" clip-path="url(#p89c0329954)" style="fill: none; stroke: #cccccc; stroke-opacity: 0.3; stroke-linecap: round"/>
     </g>
    </g>
    <g id="ytick_11">
     <g id="line2d_17">
      <path d="M 52.060938 408.368743 
L 844.958125 408.368743 
" clip-path="url(#p89c0329954)" style="fill: none; stroke: #cccccc; stroke-opacity: 0.3; stroke-linecap: round"/>
     </g>
    </g>
    <g id="ytick_12">
     <g id="line2d_18">
      <path d="M 52.060938 351.927295 
L 844.958125 351.927295 
" clip-path="url(#p89c0329954)" style="fill: none; stroke: #cccccc; stroke-opacity: 0.3; stroke-linecap: round"/>
     </g>
    </g>
    <g id="ytick_13">
     <g id="line2d_19">
      <path d="M 52.060938 323.267536 
L 844.958125 323.267536 
" clip-path="url(#p89c0329954)" style="fill: none; stroke: #cccccc; stroke-opacity: 0.3; stroke-linecap: round"/>
     </g>
    </g>
    <g id="ytick_14">
     <g id="line2d_20">
      <path d="M 52.060938 302.933114 
L 844.958125 302.933114 
" clip-path="url(#p89c0329954)" style="fill: none; stroke: #cccccc; stroke-opacity: 0.3; stroke-linecap: round"/>
     </g>
    </g>
    <g id="ytick_15">
     <g id="line2d_21">
      <path d="M 52.060938 287.160511 
L 844.958125 287.160511 
" clip-path="url(#p89c0329954)" style="fill: none; stroke: #cccccc; stroke-opacity: 0.3; stroke-linecap: round"/>
     </g>
    </g>
    <g id="ytick_16">
     <g id="line2d_22">
      <path d="M 52.060938 274.273355 
L 844.958125 274.273355 
" clip-path="url(#p89c0329954)" style="fill: none; stroke: #cccccc; stroke-opacity: 0.3; stroke-linecap: round"/>
     </g>
    </g>
    <g id="ytick_17">
     <g id="line2d_23">
      <path d="M 52.060938 263.377421 
L 844.958125 263.377421 
" clip-path="url(#p89c0329954)" style="fill: none; stroke: #cccccc; stroke-opacity: 0.3; stroke-linecap: round"/>
     </g>
    </g>
    <g id="ytick_18">
     <g id="line2d_24">
      <path d="M 52.060938 253.938933 
L 844.958125 253.938933 
" clip-path="url(#p89c0329954)" style="fill: none; stroke: #cccccc; stroke-opacity: 0.3; stroke-linecap: round"/>
     </g>
    </g>
    <g id="ytick_19">
     <g id="line2d_25">
      <path d="M 52.060938 245.613597 
L 844.958125 245.613597 
" clip-path="url(#p89c0329954)" style="fill: none; stroke: #cccccc; stroke-opacity: 0.3; stroke-linecap: round"/>
     </g>
    </g>
    <g id="ytick_20">
     <g id="line2d_26">
      <path d="M 52.060938 189.172149 
L 844.958125 189.172149 
" clip-path="url(#p89c0329954)" style="fill: none; stroke: #cccccc; stroke-opacity: 0.3; stroke-linecap: round"/>
     </g>
    </g>
    <g id="ytick_21">
     <g id="line2d_27">
      <path d="M 52.060938 160.51239 
L 844.958125 160.51239 
" clip-path="url(#p89c0329954)" style="fill: none; stroke: #cccccc; stroke-opacity: 0.3; stroke-linecap: round"/>
     </g>
    </g>
    <g id="ytick_22">
     <g id="line2d_28">
      <path d="M 52.060938 140.177968 
L 844.958125 140.177968 
" clip-path="url(#p89c0329954)" style="fill: none; stroke: #cccccc; stroke-opacity: 0.3; stroke-linecap: round"/>
     </g>
    </g>
    <g id="ytick_23">
     <g id="line2d_29">
      <path d="M 52.060938 124.405364 
L 844.958125 124.405364 
" clip-path="url(#p89c0329954)" style="fill: none; stroke: #cccccc; stroke-opacity: 0.3; stroke-linecap: round"/>
     </g>
    </g>
    <g id="ytick_24">
     <g id="line2d_30">
      <path d="M 52.060938 111.518209 
L 844.958125 111.518209 
" clip-path="url(#p89c0329954)" style="fill: none; stroke: #cccccc; stroke-opacity: 0.3; stroke-linecap: round"/>
     </g>
    </g>
    <g id="ytick_25">
     <g id="line2d_31">
      <path d="M 52.060938 100.622274 
L 844.958125 100.622274 
" clip-path="url(#p89c0329954)" style="fill: none; stroke: #cccccc; stroke-opacity: 0.3; stroke-linecap: round"/>
     </g>
    </g>
    <g id="ytick_26">
     <g id="line2d_32">
      <path d="M 52.060938 91.183787 
L 844.958125 91.183787 
" clip-path="url(#p89c0329954)" style="fill: none; stroke: #cccccc; stroke-opacity: 0.3; stroke-linecap: round"/>
     </g>
    </g>
    <g id="ytick_27">
     <g id="line2d_33">
      <path d="M 52.060938 82.85845 
L 844.958125 82.85845 
" clip-path="url(#p89c0329954)" style="fill: none; stroke: #cccccc; stroke-opacity: 0.3; stroke-linecap: round"/>
     </g>
    </g>
    <g id="ytick_28">
     <g id="line2d_34">
      <path d="M 52.060938 26.417002 
L 844.958125 26.417002 
" clip-path="url(#p89c0329954)" style="fill: none; stroke: #cccccc; stroke-opacity: 0.3; stroke-linecap: round"/>
     </g>
    </g>
    <g id="text_11">
     <!-- Time (μs, log scale) -->
     <g style="fill: #262626" transform="translate(16.318125 338.452422) rotate(-90) scale(0.12 -0.12)">
      <defs>
       <path id="DejaVuSans-Bold-37" d="M 31 4666 
L 4331 4666 
L 4331 3756 
L 2784 3756 
L 2784 0 
L 1581 0 
L 1581 3756 
L 31 3756 
L 31 4666 
z
" transform="scale(0.015625)"/>
       <path id="DejaVuSans-Bold-4c" d="M 538 3500 
L 1656 3500 
L 1656 0 
L 538 0 
L 538 3500 
z
M 538 4863 
L 1656 4863 
L 1656 3950 
L 538 3950 
L 538 4863 
z
" transform="scale(0.015625)"/>
       <path id="DejaVuSans-Bold-50" d="M 3781 2919 
Q 3994 3244 4286 3414 
Q 4578 3584 4928 3584 
Q 5531 3584 5847 3212 
Q 6163 2841 6163 2131 
L 6163 0 
L 5038 0 
L 5038 1825 
Q 5041 1866 5042 1909 
Q 5044 1953 5044 2034 
Q 5044 2406 4934 2573 
Q 4825 2741 4581 2741 
Q 4263 2741 4089 2478 
Q 3916 2216 3909 1719 
L 3909 0 
L 2784 0 
L 2784 1825 
Q 2784 2406 2684 2573 
Q 2584 2741 2328 2741 
Q 2006 2741 1831 2477 
Q 1656 2213 1656 1722 
L 1656 0 
L 531 0 
L 531 3500 
L 1656 3500 
L 1656 2988 
Q 1863 3284 2130 3434 
Q 2397 3584 2719 3584 
Q 3081 3584 3359 3409 
Q 3638 3234 3781 2919 
z
" transform="scale(0.015625)"/>
       <path id="DejaVuSans-Bold-350" d="M 544 -1338 
L 544 3500 
L 1672 3500 
L 1672 1466 
Q 1672 1103 1828 926 
Q 1984 750 2303 750 
Q 2625 750 2781 926 
Q 2938 1103 2938 1466 
L 2938 3500 
L 4063 3500 
L 4063 1159 
Q 4063 938 4114 850 
Q 4166 763 4288 763 
Q 4344 763 4395 778 
Q 4447 794 4506 831 
L 4506 50 
Q 4341 -22 4195 -56 
Q 4050 -91 3909 -91 
Q 3631 -91 3454 26 
Q 3278 144 3169 403 
Q 3022 156 2811 32 
Q 2600 -91 2322 -91 
Q 2091 -91 1928 -17 
Q 1766 56 1672 206 
L 1672 -1338 
L 544 -1338 
z
" transform="scale(0.015625)"/>
       <path id="DejaVuSans-Bold-56" d="M 3272 3391 
L 3272 2541 
Q 2913 2691 2578 2766 
Q 2244 2841 1947 2841 
Q 1628 2841 1473 2761 
Q 1319 2681 1319 2516 
Q 1319 2381 1436 2309 
Q 1553 2238 1856 2203 
L 2053 2175 
Q 2913 2066 3209 1816 
Q 3506 1566 3506 1031 
Q 3506 472 3093 190 
Q 2681 -91 1863 -91 
Q 1516 -91 1145 -36 
Q 775 19 384 128 
L 384 978 
Q 719 816 1070 734 
Q 1422 653 1784 653 
Q 2113 653 2278 743 
Q 2444 834 2444 1013 
Q 2444 1163 2330 1236 
Q 2216 1309 1875 1350 
L 1678 1375 
Q 931 1469 631 1722 
Q 331 1975 331 2491 
Q 331 3047 712 3315 
Q 1094 3584 1881 3584 
Q 2191 3584 2531 3537 
Q 2872 3491 3272 3391 
z
" transform="scale(0.015625)"/>
       <path id="DejaVuSans-Bold-f" d="M 653 1209 
L 1778 1209 
L 1778 256 
L 1006 -909 
L 341 -909 
L 653 256 
L 653 1209 
z
" transform="scale(0.015625)"/>
       <path id="DejaVuSans-Bold-4f" d="M 538 4863 
L 1656 4863 
L 1656 0 
L 538 0 
L 538 4863 
z
" transform="scale(0.015625)"/>
       <path id="DejaVuSans-Bold-52" d="M 2203 2784 
Q 1831 2784 1636 2517 
Q 1441 2250 1441 1747 
Q 1441 1244 1636 976 
Q 1831 709 2203 709 
Q 2569 709 2762 976 
Q 2956 1244 2956 1747 
Q 2956 2250 2762 2517 
Q 2569 2784 2203 2784 
z
M 2203 3584 
Q 3106 3584 3614 3096 
Q 4122 2609 4122 1747 
Q 4122 884 3614 396 
Q 3106 -91 2203 -91 
Q 1297 -91 786 396 
Q 275 884 275 1747 
Q 275 2609 786 3096 
Q 1297 3584 2203 3584 
z
" transform="scale(0.015625)"/>
       <path id="DejaVuSans-Bold-4a" d="M 2919 594 
Q 2688 288 2409 144 
Q 2131 0 1766 0 
Q 1125 0 706 504 
Q 288 1009 288 1791 
Q 288 2575 706 3076 
Q 1125 3578 1766 3578 
Q 2131 3578 2409 3434 
Q 2688 3291 2919 2981 
L 2919 3500 
L 4044 3500 
L 4044 353 
Q 4044 -491 3511 -936 
Q 2978 -1381 1966 -1381 
Q 1638 -1381 1331 -1331 
Q 1025 -1281 716 -1178 
L 716 -306 
Q 1009 -475 1290 -558 
Q 1572 -641 1856 -641 
Q 2406 -641 2662 -400 
Q 2919 -159 2919 353 
L 2919 594 
z
M 2181 2772 
Q 1834 2772 1640 2515 
Q 1447 2259 1447 1791 
Q 1447 1309 1634 1061 
Q 1822 813 2181 813 
Q 2531 813 2725 1069 
Q 2919 1325 2919 1791 
Q 2919 2259 2725 2515 
Q 2531 2772 2181 2772 
z
" transform="scale(0.015625)"/>
       <path id="DejaVuSans-Bold-46" d="M 3366 3391 
L 3366 2478 
Q 3138 2634 2908 2709 
Q 2678 2784 2431 2784 
Q 1963 2784 1702 2511 
Q 1441 2238 1441 1747 
Q 1441 1256 1702 982 
Q 1963 709 2431 709 
Q 2694 709 2930 787 
Q 3166 866 3366 1019 
L 3366 103 
Q 3103 6 2833 -42 
Q 2563 -91 2291 -91 
Q 1344 -91 809 395 
Q 275 881 275 1747 
Q 275 2613 809 3098 
Q 1344 3584 2291 3584 
Q 2566 3584 2833 3536 
Q 3100 3488 3366 3391 
z
" transform="scale(0.015625)"/>
       <path id="DejaVuSans-Bold-44" d="M 2106 1575 
Q 1756 1575 1579 1456 
Q 1403 1338 1403 1106 
Q 1403 894 1545 773 
Q 1688 653 1941 653 
Q 2256 653 2472 879 
Q 2688 1106 2688 1447 
L 2688 1575 
L 2106 1575 
z
M 3816 1997 
L 3816 0 
L 2688 0 
L 2688 519 
Q 2463 200 2181 54 
Q 1900 -91 1497 -91 
Q 953 -91 614 226 
Q 275 544 275 1050 
Q 275 1666 698 1953 
Q 1122 2241 2028 2241 
L 2688 2241 
L 2688 2328 
Q 2688 2594 2478 2717 
Q 2269 2841 1825 2841 
Q 1466 2841 1156 2769 
Q 847 2697 581 2553 
L 581 3406 
Q 941 3494 1303 3539 
Q 1666 3584 2028 3584 
Q 2975 3584 3395 3211 
Q 3816 2838 3816 1997 
z
" transform="scale(0.015625)"/>
      </defs>
      <use xlink:href="#DejaVuSans-Bold-37"/>
      <use xlink:href="#DejaVuSans-Bold-4c" transform="translate(68.21875 0)"/>
      <use xlink:href="#DejaVuSans-Bold-50" transform="translate(102.5 0)"/>
      <use xlink:href="#DejaVuSans-Bold-48" transform="translate(206.703125 0)"/>
      <use xlink:href="#DejaVuSans-Bold-3" transform="translate(274.53125 0)"/>
      <use xlink:href="#DejaVuSans-Bold-b" transform="translate(309.34375 0)"/>
      <use xlink:href="#DejaVuSans-Bold-350" transform="translate(355.046875 0)"/>
      <use xlink:href="#DejaVuSans-Bold-56" transform="translate(428.625 0)"/>
      <use xlink:href="#DejaVuSans-Bold-f" transform="translate(488.140625 0)"/>
      <use xlink:href="#DejaVuSans-Bold-3" transform="translate(526.125 0)"/>
      <use xlink:href="#DejaVuSans-Bold-4f" transform="translate(560.9375 0)"/>
      <use xlink:href="#DejaVuSans-Bold-52" transform="translate(595.21875 0)"/>
      <use xlink:href="#DejaVuSans-Bold-4a" transform="translate(663.921875 0)"/>
      <use xlink:href="#DejaVuSans-Bold-3" transform="translate(735.5 0)"/>
      <use xlink:href="#DejaVuSans-Bold-56" transform="translate(770.3125 0)"/>
      <use xlink:href="#DejaVuSans-Bold-46" transform="translate(829.828125 0)"/>
      <use xlink:href="#DejaVuSans-Bold-44" transform="translate(889.109375 0)"/>
      <use xlink:href="#DejaVuSans-Bold-4f" transform="translate(956.59375 0)"/>
      <use xlink:href="#DejaVuSans-Bold-48" transform="translate(990.875 0)"/>
      <use xlink:href="#DejaVuSans-Bold-c" transform="translate(1058.703125 0)"/>
     </g>
    </g>
   </g>
   <g id="line2d_35">
    <path d="M 88.101719 378.763262 
L 808.917344 497.960987 
" clip-path="url(#p89c0329954)" style="fill: none; stroke: #4c72b0; stroke-width: 2; stroke-linecap: round"/>
    <defs>
     <path id="m54c8582abb" d="M 0 4 
C 1.060812 4 2.078319 3.578535 2.828427 2.828427 
C 3.578535 2.078319 4 1.060812 4 0 
C 4 -1.060812 3.578535 -2.078319 2.828427 -2.828427 
C 2.078319 -3.578535 1.060812 -4 0 -4 
C -1.060812 -4 -2.078319 -3.578535 -2.828427 -2.828427 
C -3.578535 -2.078319 -4 -1.060812 -4 0 
C -4 1.060812 -3.578535 2.078319 -2.828427 2.828427 
C -2.078319 3.578535 -1.060812 4 0 4 
z
" style="stroke: #4c72b0"/>
    </defs>
    <g clip-path="url(#p89c0329954)">
     <use xlink:href="#m54c8582abb" x="88.101719" y="378.763262" style="fill: #4c72b0; stroke: #4c72b0"/>
     <use xlink:href="#m54c8582abb" x="808.917344" y="497.960987" style="fill: #4c72b0; stroke: #4c72b0"/>
    </g>
   </g>
   <g id="line2d_36">
    <path d="M 88.101719 259.703257 
L 808.917344 457.568481 
" clip-path="url(#p89c0329954)" style="fill: none; stroke: #dd8452; stroke-width: 2; stroke-linecap: round"/>
    <defs>
     <path id="m0c69f99563" d="M 0 4 
C 1.060812 4 2.078319 3.578535 2.828427 2.828427 
C 3.578535 2.078319 4 1.060812 4 0 
C 4 -1.060812 3.578535 -2.078319 2.828427 -2.828427 
C 2.078319 -3.578535 1.060812 -4 0 -4 
C -1.060812 -4 -2.078319 -3.578535 -2.828427 -2.828427 
C -3.578535 -2.078319 -4 -1.060812 -4 0 
C -4 1.060812 -3.578535 2.078319 -2.828427 2.828427 
C -2.078319 3.578535 -1.060812 4 0 4 
z
" style="stroke: #dd8452"/>
    </defs>
    <g clip-path="url(#p89c0329954)">
     <use xlink:href="#m0c69f99563" x="88.101719" y="259.703257" style="fill: #dd8452; stroke: #dd8452"/>
     <use xlink:href="#m0c69f99563" x="808.917344" y="457.568481" style="fill: #dd8452; stroke: #dd8452"/>
    </g>
   </g>
   <g id="line2d_37">
    <path d="M 88.101719 209.763503 
L 808.917344 420.606507 
" clip-path="url(#p89c0329954)" style="fill: none; stroke: #55a868; stroke-width: 2; stroke-linecap: round"/>
    <defs>
     <path id="mfa63038066" d="M 0 4 
C 1.060812 4 2.078319 3.578535 2.828427 2.828427 
C 3.578535 2.078319 4 1.060812 4 0 
C 4 -1.060812 3.578535 -2.078319 2.828427 -2.828427 
C 2.078319 -3.578535 1.060812 -4 0 -4 
C -1.060812 -4 -2.078319 -3.578535 -2.828427 -2.828427 
C -3.578535 -2.078319 -4 -1.060812 -4 0 
C -4 1.060812 -3.578535 2.078319 -2.828427 2.828427 
C -2.078319 3.578535 -1.060812 4 0 4 
z
" style="stroke: #55a868"/>
    </defs>
    <g clip-path="url(#p89c0329954)">
     <use xlink:href="#mfa63038066" x="88.101719" y="209.763503" style="fill: #55a868; stroke: #55a868"/>
     <use xlink:href="#mfa63038066" x="808.917344" y="420.606507" style="fill: #55a868; stroke: #55a868"/>
    </g>
   </g>
   <g id="line2d_38">
    <path d="M 88.101719 95.538941 
L 808.917344 328.963287 
" clip-path="url(#p89c0329954)" style="fill: none; stroke: #c44e52; stroke-width: 2; stroke-linecap: round"/>
    <defs>
     <path id="mad6462174b" d="M 0 4 
C 1.060812 4 2.078319 3.578535 2.828427 2.828427 
C 3.578535 2.078319 4 1.060812 4 0 
C 4 -1.060812 3.578535 -2.078319 2.828427 -2.828427 
C 2.078319 -3.578535 1.060812 -4 0 -4 
C -1.060812 -4 -2.078319 -3.578535 -2.828427 -2.828427 
C -3.578535 -2.078319 -4 -1.060812 -4 0 
C -4 1.060812 -3.578535 2.078319 -2.828427 2.828427 
C -2.078319 3.578535 -1.060812 4 0 4 
z
" style="stroke: #c44e52"/>
    </defs>
    <g clip-path="url(#p89c0329954)">
     <use xlink:href="#mad6462174b" x="88.101719" y="95.538941" style="fill: #c44e52; stroke: #c44e52"/>
     <use xlink:href="#mad6462174b" x="808.917344" y="328.963287" style="fill: #c44e52; stroke: #c44e52"/>
    </g>
   </g>
   <g id="line2d_39">
    <path d="M 88.101719 46.415107 
L 808.917344 281.770538 
" clip-path="url(#p89c0329954)" style="fill: none; stroke: #8172b3; stroke-width: 2; stroke-linecap: round"/>
    <defs>
     <path id="md4d4ae5e27" d="M 0 4 
C 1.060812 4 2.078319 3.578535 2.828427 2.828427 
C 3.578535 2.078319 4 1.060812 4 0 
C 4 -1.060812 3.578535 -2.078319 2.828427 -2.828427 
C 2.078319 -3.578535 1.060812 -4 0 -4 
C -1.060812 -4 -2.078319 -3.578535 -2.828427 -2.828427 
C -3.578535 -2.078319 -4 -1.060812 -4 0 
C -4 1.060812 -3.578535 2.078319 -2.828427 2.828427 
C -2.078319 3.578535 -1.060812 4 0 4 
z
" style="stroke: #8172b3"/>
    </defs>
    <g clip-path="url(#p89c0329954)">
     <use xlink:href="#md4d4ae5e27" x="88.101719" y="46.415107" style="fill: #8172b3; stroke: #8172b3"/>
     <use xlink:href="#md4d4ae5e27" x="808.917344" y="281.770538" style="fill: #8172b3; stroke: #8172b3"/>
    </g>
   </g>
   <g id="patch_3">
    <path d="M 52.060938 520.538281 
L 52.060938 23.837813 
" style="fill: none; stroke: #cccccc; stroke-width: 1.25; stroke-linejoin: miter; stroke-linecap: square"/>
   </g>
   <g id="patch_4">
    <path d="M 844.958125 520.538281 
L 844.958125 23.837813 
" style="fill: none; stroke: #cccccc; stroke-width: 1.25; stroke-linejoin: miter; stroke-linecap: square"/>
   </g>
   <g id="patch_5">
    <path d="M 52.060938 520.538281 
L 844.958125 520.538281 
" style="fill: none; stroke: #cccccc; stroke-width: 1.25; stroke-linejoin: miter; stroke-linecap: square"/>
   </g>
   <g id="patch_6">
    <path d="M 52.060938 23.837812 
L 844.958125 23.837812 
" style="fill: none; stroke: #cccccc; stroke-width: 1.25; stroke-linejoin: miter; stroke-linecap: square"/>
   </g>
   <g id="text_12">
    <!-- Time vs Order - Read View -->
    <g style="fill: #262626" transform="translate(344.078281 17.837812) scale(0.14 -0.14)">
     <defs>
      <path id="DejaVuSans-Bold-59" d="M 97 3500 
L 1216 3500 
L 2088 1081 
L 2956 3500 
L 4078 3500 
L 2700 0 
L 1472 0 
L 97 3500 
z
" transform="scale(0.015625)"/>
      <path id="DejaVuSans-Bold-10" d="M 347 2297 
L 2309 2297 
L 2309 1388 
L 347 1388 
L 347 2297 
z
" transform="scale(0.015625)"/>
      <path id="DejaVuSans-Bold-35" d="M 2297 2597 
Q 2675 2597 2839 2737 
Q 3003 2878 3003 3200 
Q 3003 3519 2839 3656 
Q 2675 3794 2297 3794 
L 1791 3794 
L 1791 2597 
L 2297 2597 
z
M 1791 1766 
L 1791 0 
L 588 0 
L 588 4666 
L 2425 4666 
Q 3347 4666 3776 4356 
Q 4206 4047 4206 3378 
Q 4206 2916 3982 2619 
Q 3759 2322 3309 2181 
Q 3556 2125 3751 1926 
Q 3947 1728 4147 1325 
L 4800 0 
L 3519 0 
L 2950 1159 
Q 2778 1509 2601 1637 
Q 2425 1766 2131 1766 
L 1791 1766 
z
" transform="scale(0.015625)"/>
      <path id="DejaVuSans-Bold-39" d="M 31 4666 
L 1241 4666 
L 2478 1222 
L 3713 4666 
L 4922 4666 
L 3194 0 
L 1759 0 
L 31 4666 
z
" transform="scale(0.015625)"/>
      <path id="DejaVuSans-Bold-5a" d="M 225 3500 
L 1313 3500 
L 1900 1088 
L 2491 3500 
L 3425 3500 
L 4013 1113 
L 4603 3500 
L 5691 3500 
L 4769 0 
L 3547 0 
L 2956 2406 
L 2369 0 
L 1147 0 
L 225 3500 
z
" transform="scale(0.015625)"/>
     </defs>
     <use xlink:href="#DejaVuSans-Bold-37"/>
     <use xlink:href="#DejaVuSans-Bold-4c" transform="translate(68.21875 0)"/>
     <use xlink:href="#DejaVuSans-Bold-50" transform="translate(102.5 0)"/>
     <use xlink:href="#DejaVuSans-Bold-48" transform="translate(206.703125 0)"/>
     <use xlink:href="#DejaVuSans-Bold-3" transform="translate(274.53125 0)"/>
     <use xlink:href="#DejaVuSans-Bold-59" transform="translate(309.34375 0)"/>
     <use xlink:href="#DejaVuSans-Bold-56" transform="translate(374.53125 0)"/>
     <use xlink:href="#DejaVuSans-Bold-3" transform="translate(434.046875 0)"/>
     <use xlink:href="#DejaVuSans-Bold-32" transform="translate(468.859375 0)"/>
     <use xlink:href="#DejaVuSans-Bold-55" transform="translate(553.875 0)"/>
     <use xlink:href="#DejaVuSans-Bold-47" transform="translate(603.1875 0)"/>
     <use xlink:href="#DejaVuSans-Bold-48" transform="translate(674.765625 0)"/>
     <use xlink:href="#DejaVuSans-Bold-55" transform="translate(742.59375 0)"/>
     <use xlink:href="#DejaVuSans-Bold-3" transform="translate(791.90625 0)"/>
     <use xlink:href="#DejaVuSans-Bold-10" transform="translate(826.71875 0)"/>
     <use xlink:href="#DejaVuSans-Bold-3" transform="translate(868.21875 0)"/>
     <use xlink:href="#DejaVuSans-Bold-35" transform="translate(903.03125 0)"/>
     <use xlink:href="#DejaVuSans-Bold-48" transform="translate(980.03125 0)"/>
     <use xlink:href="#DejaVuSans-Bold-44" transform="translate(1047.859375 0)"/>
     <use xlink:href="#DejaVuSans-Bold-47" transform="translate(1115.34375 0)"/>
     <use xlink:href="#DejaVuSans-Bold-3" transform="translate(1186.921875 0)"/>
     <use xlink:href="#DejaVuSans-Bold-39" transform="translate(1221.734375 0)"/>
     <use xlink:href="#DejaVuSans-Bold-4c" transform="translate(1297.375 0)"/>
     <use xlink:href="#DejaVuSans-Bold-48" transform="translate(1331.65625 0)"/>
     <use xlink:href="#DejaVuSans-Bold-5a" transform="translate(1399.484375 0)"/>
    </g>
   </g>
   <g id="legend_1">
    <g id="patch_7">
     <path d="M 727.633125 122.842578 
L 837.958125 122.842578 
Q 839.958125 122.842578 839.958125 120.842578 
L 839.958125 30.837812 
Q 839.958125 28.837812 837.958125 28.837812 
L 727.633125 28.837812 
Q 725.633125 28.837812 725.633125 30.837812 
L 725.633125 120.842578 
Q 725.633125 122.842578 727.633125 122.842578 
z
" style="fill: #ffffff; opacity: 0.8; stroke: #cccccc; stroke-linejoin: miter"/>
    </g>
    <g id="text_13">
     <!-- Dataset Size -->
     <g style="fill: #262626" transform="translate(748.219531 41.196094) scale(0.11 -0.11)">
      <defs>
       <path id="DejaVuSans-27" d="M 1259 4147 
L 1259 519 
L 2022 519 
Q 2988 519 3436 956 
Q 3884 1394 3884 2338 
Q 3884 3275 3436 3711 
Q 2988 4147 2022 4147 
L 1259 4147 
z
M 628 4666 
L 1925 4666 
Q 3281 4666 3915 4102 
Q 4550 3538 4550 2338 
Q 4550 1131 3912 565 
Q 3275 0 1925 0 
L 628 0 
L 628 4666 
z
" transform="scale(0.015625)"/>
       <path id="DejaVuSans-44" d="M 2194 1759 
Q 1497 1759 1228 1600 
Q 959 1441 959 1056 
Q 959 750 1161 570 
Q 1363 391 1709 391 
Q 2188 391 2477 730 
Q 2766 1069 2766 1631 
L 2766 1759 
L 2194 1759 
z
M 3341 1997 
L 3341 0 
L 2766 0 
L 2766 531 
Q 2569 213 2275 61 
Q 1981 -91 1556 -91 
Q 1019 -91 701 211 
Q 384 513 384 1019 
Q 384 1609 779 1909 
Q 1175 2209 1959 2209 
L 2766 2209 
L 2766 2266 
Q 2766 2663 2505 2880 
Q 2244 3097 1772 3097 
Q 1472 3097 1187 3025 
Q 903 2953 641 2809 
L 641 3341 
Q 956 3463 1253 3523 
Q 1550 3584 1831 3584 
Q 2591 3584 2966 3190 
Q 3341 2797 3341 1997 
z
" transform="scale(0.015625)"/>
       <path id="DejaVuSans-57" d="M 1172 4494 
L 1172 3500 
L 2356 3500 
L 2356 3053 
L 1172 3053 
L 1172 1153 
Q 1172 725 1289 603 
Q 1406 481 1766 481 
L 2356 481 
L 2356 0 
L 1766 0 
Q 1100 0 847 248 
Q 594 497 594 1153 
L 594 3053 
L 172 3053 
L 172 3500 
L 594 3500 
L 594 4494 
L 1172 4494 
z
" transform="scale(0.015625)"/>
       <path id="DejaVuSans-56" d="M 2834 3397 
L 2834 2853 
Q 2591 2978 2328 3040 
Q 2066 3103 1784 3103 
Q 1356 3103 1142 2972 
Q 928 2841 928 2578 
Q 928 2378 1081 2264 
Q 1234 2150 1697 2047 
L 1894 2003 
Q 2506 1872 2764 1633 
Q 3022 1394 3022 966 
Q 3022 478 2636 193 
Q 2250 -91 1575 -91 
Q 1294 -91 989 -36 
Q 684 19 347 128 
L 347 722 
Q 666 556 975 473 
Q 1284 391 1588 391 
Q 1994 391 2212 530 
Q 2431 669 2431 922 
Q 2431 1156 2273 1281 
Q 2116 1406 1581 1522 
L 1381 1569 
Q 847 1681 609 1914 
Q 372 2147 372 2553 
Q 372 3047 722 3315 
Q 1072 3584 1716 3584 
Q 2034 3584 2315 3537 
Q 2597 3491 2834 3397 
z
" transform="scale(0.015625)"/>
       <path id="DejaVuSans-48" d="M 3597 1894 
L 3597 1613 
L 953 1613 
Q 991 1019 1311 708 
Q 1631 397 2203 397 
Q 2534 397 2845 478 
Q 3156 559 3463 722 
L 3463 178 
Q 3153 47 2828 -22 
Q 2503 -91 2169 -91 
Q 1331 -91 842 396 
Q 353 884 353 1716 
Q 353 2575 817 3079 
Q 1281 3584 2069 3584 
Q 2775 3584 3186 3129 
Q 3597 2675 3597 1894 
z
M 3022 2063 
Q 3016 2534 2758 2815 
Q 2500 3097 2075 3097 
Q 1594 3097 1305 2825 
Q 1016 2553 972 2059 
L 3022 2063 
z
" transform="scale(0.015625)"/>
       <path id="DejaVuSans-3" transform="scale(0.015625)"/>
       <path id="DejaVuSans-36" d="M 3425 4513 
L 3425 3897 
Q 3066 4069 2747 4153 
Q 2428 4238 2131 4238 
Q 1616 4238 1336 4038 
Q 1056 3838 1056 3469 
Q 1056 3159 1242 3001 
Q 1428 2844 1947 2747 
L 2328 2669 
Q 3034 2534 3370 2195 
Q 3706 1856 3706 1288 
Q 3706 609 3251 259 
Q 2797 -91 1919 -91 
Q 1588 -91 1214 -16 
Q 841 59 441 206 
L 441 856 
Q 825 641 1194 531 
Q 1563 422 1919 422 
Q 2459 422 2753 634 
Q 3047 847 3047 1241 
Q 3047 1584 2836 1778 
Q 2625 1972 2144 2069 
L 1759 2144 
Q 1053 2284 737 2584 
Q 422 2884 422 3419 
Q 422 4038 858 4394 
Q 1294 4750 2059 4750 
Q 2388 4750 2728 4690 
Q 3069 4631 3425 4513 
z
" transform="scale(0.015625)"/>
       <path id="DejaVuSans-4c" d="M 603 3500 
L 1178 3500 
L 1178 0 
L 603 0 
L 603 3500 
z
M 603 4863 
L 1178 4863 
L 1178 4134 
L 603 4134 
L 603 4863 
z
" transform="scale(0.015625)"/>
       <path id="DejaVuSans-5d" d="M 353 3500 
L 3084 3500 
L 3084 2975 
L 922 459 
L 3084 459 
L 3084 0 
L 275 0 
L 275 525 
L 2438 3041 
L 353 3041 
L 353 3500 
z
" transform="scale(0.015625)"/>
      </defs>
      <use xlink:href="#DejaVuSans-27"/>
      <use xlink:href="#DejaVuSans-44" transform="translate(77 0)"/>
      <use xlink:href="#DejaVuSans-57" transform="translate(138.28125 0)"/>
      <use xlink:href="#DejaVuSans-44" transform="translate(177.484375 0)"/>
      <use xlink:href="#DejaVuSans-56" transform="translate(238.765625 0)"/>
      <use xlink:href="#DejaVuSans-48" transform="translate(290.859375 0)"/>
      <use xlink:href="#DejaVuSans-57" transform="translate(352.390625 0)"/>
      <use xlink:href="#DejaVuSans-3" transform="translate(391.59375 0)"/>
      <use xlink:href="#DejaVuSans-36" transform="translate(423.375 0)"/>
      <use xlink:href="#DejaVuSans-4c" transform="translate(486.859375 0)"/>
      <use xlink:href="#DejaVuSans-5d" transform="translate(514.640625 0)"/>
      <use xlink:href="#DejaVuSans-48" transform="translate(567.125 0)"/>
     </g>
    </g>
    <g id="line2d_40">
     <path d="M 729.633125 52.937109 
L 739.633125 52.937109 
L 749.633125 52.937109 
" style="fill: none; stroke: #4c72b0; stroke-width: 2; stroke-linecap: round"/>
     <g>
      <use xlink:href="#m54c8582abb" x="739.633125" y="52.937109" style="fill: #4c72b0; stroke: #4c72b0"/>
     </g>
    </g>
    <g id="text_14">
     <!-- 100 intervals -->
     <g style="fill: #262626" transform="translate(757.633125 56.437109) scale(0.1 -0.1)">
      <defs>
       <path id="DejaVuSans-51" d="M 3513 2113 
L 3513 0 
L 2938 0 
L 2938 2094 
Q 2938 2591 2744 2837 
Q 2550 3084 2163 3084 
Q 1697 3084 1428 2787 
Q 1159 2491 1159 1978 
L 1159 0 
L 581 0 
L 581 3500 
L 1159 3500 
L 1159 2956 
Q 1366 3272 1645 3428 
Q 1925 3584 2291 3584 
Q 2894 3584 3203 3211 
Q 3513 2838 3513 2113 
z
" transform="scale(0.015625)"/>
       <path id="DejaVuSans-55" d="M 2631 2963 
Q 2534 3019 2420 3045 
Q 2306 3072 2169 3072 
Q 1681 3072 1420 2755 
Q 1159 2438 1159 1844 
L 1159 0 
L 581 0 
L 581 3500 
L 1159 3500 
L 1159 2956 
Q 1341 3275 1631 3429 
Q 1922 3584 2338 3584 
Q 2397 3584 2469 3576 
Q 2541 3569 2628 3553 
L 2631 2963 
z
" transform="scale(0.015625)"/>
       <path id="DejaVuSans-59" d="M 191 3500 
L 800 3500 
L 1894 563 
L 2988 3500 
L 3597 3500 
L 2284 0 
L 1503 0 
L 191 3500 
z
" transform="scale(0.015625)"/>
       <path id="DejaVuSans-4f" d="M 603 4863 
L 1178 4863 
L 1178 0 
L 603 0 
L 603 4863 
z
" transform="scale(0.015625)"/>
      </defs>
      <use xlink:href="#DejaVuSans-14"/>
      <use xlink:href="#DejaVuSans-13" transform="translate(63.625 0)"/>
      <use xlink:href="#DejaVuSans-13" transform="translate(127.25 0)"/>
      <use xlink:href="#DejaVuSans-3" transform="translate(190.875 0)"/>
      <use xlink:href="#DejaVuSans-4c" transform="translate(222.65625 0)"/>
      <use xlink:href="#DejaVuSans-51" transform="translate(250.4375 0)"/>
      <use xlink:href="#DejaVuSans-57" transform="translate(313.8125 0)"/>
      <use xlink:href="#DejaVuSans-48" transform="translate(353.015625 0)"/>
      <use xlink:href="#DejaVuSans-55" transform="translate(414.546875 0)"/>
      <use xlink:href="#DejaVuSans-59" transform="translate(455.65625 0)"/>
      <use xlink:href="#DejaVuSans-44" transform="translate(514.84375 0)"/>
      <use xlink:href="#DejaVuSans-4f" transform="translate(576.125 0)"/>
      <use xlink:href="#DejaVuSans-56" transform="translate(603.90625 0)"/>
     </g>
    </g>
    <g id="line2d_41">
     <path d="M 729.633125 67.937891 
L 739.633125 67.937891 
L 749.633125 67.937891 
" style="fill: none; stroke: #dd8452; stroke-width: 2; stroke-linecap: round"/>
     <g>
      <use xlink:href="#m0c69f99563" x="739.633125" y="67.937891" style="fill: #dd8452; stroke: #dd8452"/>
     </g>
    </g>
    <g id="text_15">
     <!-- 500 intervals -->
     <g style="fill: #262626" transform="translate(757.633125 71.437891) scale(0.1 -0.1)">
      <use xlink:href="#DejaVuSans-18"/>
      <use xlink:href="#DejaVuSans-13" transform="translate(63.625 0)"/>
      <use xlink:href="#DejaVuSans-13" transform="translate(127.25 0)"/>
      <use xlink:href="#DejaVuSans-3" transform="translate(190.875 0)"/>
      <use xlink:href="#DejaVuSans-4c" transform="translate(222.65625 0)"/>
      <use xlink:href="#DejaVuSans-51" transform="translate(250.4375 0)"/>
      <use xlink:href="#DejaVuSans-57" transform="translate(313.8125 0)"/>
      <use xlink:href="#DejaVuSans-48" transform="translate(353.015625 0)"/>
      <use xlink:href="#DejaVuSans-55" transform="translate(414.546875 0)"/>
      <use xlink:href="#DejaVuSans-59" transform="translate(455.65625 0)"/>
      <use xlink:href="#DejaVuSans-44" transform="translate(514.84375 0)"/>
      <use xlink:href="#DejaVuSans-4f" transform="translate(576.125 0)"/>
      <use xlink:href="#DejaVuSans-56" transform="translate(603.90625 0)"/>
     </g>
    </g>
    <g id="line2d_42">
     <path d="M 729.633125 82.938672 
L 739.633125 82.938672 
L 749.633125 82.938672 
" style="fill: none; stroke: #55a868; stroke-width: 2; stroke-linecap: round"/>
     <g>
      <use xlink:href="#mfa63038066" x="739.633125" y="82.938672" style="fill: #55a868; stroke: #55a868"/>
     </g>
    </g>
    <g id="text_16">
     <!-- 1000 intervals -->
     <g style="fill: #262626" transform="translate(757.633125 86.438672) scale(0.1 -0.1)">
      <use xlink:href="#DejaVuSans-14"/>
      <use xlink:href="#DejaVuSans-13" transform="translate(63.625 0)"/>
      <use xlink:href="#DejaVuSans-13" transform="translate(127.25 0)"/>
      <use xlink:href="#DejaVuSans-13" transform="translate(190.875 0)"/>
      <use xlink:href="#DejaVuSans-3" transform="translate(254.5 0)"/>
      <use xlink:href="#DejaVuSans-4c" transform="translate(286.28125 0)"/>
      <use xlink:href="#DejaVuSans-51" transform="translate(314.0625 0)"/>
      <use xlink:href="#DejaVuSans-57" transform="translate(377.4375 0)"/>
      <use xlink:href="#DejaVuSans-48" transform="translate(416.640625 0)"/>
      <use xlink:href="#DejaVuSans-55" transform="translate(478.171875 0)"/>
      <use xlink:href="#DejaVuSans-59" transform="translate(519.28125 0)"/>
      <use xlink:href="#DejaVuSans-44" transform="translate(578.46875 0)"/>
      <use xlink:href="#DejaVuSans-4f" transform="translate(639.75 0)"/>
      <use xlink:href="#DejaVuSans-56" transform="translate(667.53125 0)"/>
     </g>
    </g>
    <g id="line2d_43">
     <path d="M 729.633125 97.939453 
L 739.633125 97.939453 
L 749.633125 97.939453 
" style="fill: none; stroke: #c44e52; stroke-width: 2; stroke-linecap: round"/>
     <g>
      <use xlink:href="#mad6462174b" x="739.633125" y="97.939453" style="fill: #c44e52; stroke: #c44e52"/>
     </g>
    </g>
    <g id="text_17">
     <!-- 5000 intervals -->
     <g style="fill: #262626" transform="translate(757.633125 101.439453) scale(0.1 -0.1)">
      <use xlink:href="#DejaVuSans-18"/>
      <use xlink:href="#DejaVuSans-13" transform="translate(63.625 0)"/>
      <use xlink:href="#DejaVuSans-13" transform="translate(127.25 0)"/>
      <use xlink:href="#DejaVuSans-13" transform="translate(190.875 0)"/>
      <use xlink:href="#DejaVuSans-3" transform="translate(254.5 0)"/>
      <use xlink:href="#DejaVuSans-4c" transform="translate(286.28125 0)"/>
      <use xlink:href="#DejaVuSans-51" transform="translate(314.0625 0)"/>
      <use xlink:href="#DejaVuSans-57" transform="translate(377.4375 0)"/>
      <use xlink:href="#DejaVuSans-48" transform="translate(416.640625 0)"/>
      <use xlink:href="#DejaVuSans-55" transform="translate(478.171875 0)"/>
      <use xlink:href="#DejaVuSans-59" transform="translate(519.28125 0)"/>
      <use xlink:href="#DejaVuSans-44" transform="translate(578.46875 0)"/>
      <use xlink:href="#DejaVuSans-4f" transform="translate(639.75 0)"/>
      <use xlink:href="#DejaVuSans-56" transform="translate(667.53125 0)"/>
     </g>
    </g>
    <g id="line2d_44">
     <path d="M 729.633125 112.940234 
L 739.633125 112.940234 
L 749.633125 112.940234 
" style="fill: none; stroke: #8172b3; stroke-width: 2; stroke-linecap: round"/>
     <g>
      <use xlink:href="#md4d4ae5e27" x="739.633125" y="112.940234" style="fill: #8172b3; stroke: #8172b3"/>
     </g>
    </g>
    <g id="text_18">
     <!-- 10000 intervals -->
     <g style="fill: #262626" transform="translate(757.633125 116.440234) scale(0.1 -0.1)">
      <use xlink:href="#DejaVuSans-14"/>
      <use xlink:href="#DejaVuSans-13" transform="translate(63.625 0)"/>
      <use xlink:href="#DejaVuSans-13" transform="translate(127.25 0)"/>
      <use xlink:href="#DejaVuSans-13" transform="translate(190.875 0)"/>
      <use xlink:href="#DejaVuSans-13" transform="translate(254.5 0)"/>
      <use xlink:href="#DejaVuSans-3" transform="translate(318.125 0)"/>
      <use xlink:href="#DejaVuSans-4c" transform="translate(349.90625 0)"/>
      <use xlink:href="#DejaVuSans-51" transform="translate(377.6875 0)"/>
      <use xlink:href="#DejaVuSans-57" transform="translate(441.0625 0)"/>
      <use xlink:href="#DejaVuSans-48" transform="translate(480.265625 0)"/>
      <use xlink:href="#DejaVuSans-55" transform="translate(541.796875 0)"/>
      <use xlink:href="#DejaVuSans-59" transform="translate(582.90625 0)"/>
      <use xlink:href="#DejaVuSans-44" transform="translate(642.09375 0)"/>
      <use xlink:href="#DejaVuSans-4f" transform="translate(703.375 0)"/>
      <use xlink:href="#DejaVuSans-56" transform="translate(731.15625 0)"/>
     </g>
    </g>
   </g>
  </g>
 </g>
 <defs>
  <clipPath id="p89c0329954">
   <rect x="52.060938" y="23.837812" width="792.897188" height="496.700469"/>
  </clipPath>
 </defs>
</svg>
