<?xml version="1.0" encoding="utf-8" standalone="no"?>
<!DOCTYPE svg PUBLIC "-//W3C//DTD SVG 1.1//EN"
  "http://www.w3.org/Graphics/SVG/1.1/DTD/svg11.dtd">
<svg xmlns:xlink="http://www.w3.org/1999/xlink" width="851.419687pt" height="562.8175pt" viewBox="0 0 851.419687 562.8175" xmlns="http://www.w3.org/2000/svg" version="1.1">
 <metadata>
  <rdf:RDF xmlns:dc="http://purl.org/dc/elements/1.1/" xmlns:cc="http://creativecommons.org/ns#" xmlns:rdf="http://www.w3.org/1999/02/22-rdf-syntax-ns#">
   <cc:Work>
    <dc:type rdf:resource="http://purl.org/dc/dcmitype/StillImage"/>
    <dc:date>2026-03-30T02:36:10.754939</dc:date>
    <dc:format>image/svg+xml</dc:format>
    <dc:creator>
     <cc:Agent>
      <dc:title>Matplotlib v3.10.8, https://matplotlib.org/</dc:title>
     </cc:Agent>
    </dc:creator>
   </cc:Work>
  </rdf:RDF>
 </metadata>
 <defs>
  <style type="text/css">*{stroke-linejoin: round; stroke-linecap: butt}</style>
 </defs>
 <g id="figure_1">
  <g id="patch_1">
   <path d="M 0 562.8175 
L 851.419687 562.8175 
L 851.419687 0 
L 0 0 
z
" style="fill: #ffffff"/>
  </g>
  <g id="axes_1">
   <g id="patch_2">
    <path d="M 56.899688 519.857813 
L 844.219687 519.857813 
L 844.219687 23.837812 
L 56.899688 23.837812 
z
" style="fill: #ffffff"/>
   </g>
   <g id="matplotlib.axis_1">
    <g id="xtick_1">
     <g id="line2d_1">
      <path d="M 85.457208 519.857813 
L 85.457208 23.837812 
" clip-path="url(#pafe0789693)" style="fill: none; stroke: #cccccc; stroke-opacity: 0.3; stroke-linecap: round"/>
     </g>
     <g id="text_1">
      <!-- 0 -->
      <g style="fill: #262626" transform="translate(81.957833 537.716094) scale(0.11 -0.11)">
       <defs>
        <path id="DejaVuSans-30" d="M 2034 4250 
Q 1547 4250 1301 3770 
Q 1056 3291 1056 2328 
Q 1056 1369 1301 889 
Q 1547 409 2034 409 
Q 2525 409 2770 889 
Q 3016 1369 3016 2328 
Q 3016 3291 2770 3770 
Q 2525 4250 2034 4250 
z
M 2034 4750 
Q 2819 4750 3233 4129 
Q 3647 3509 3647 2328 
Q 3647 1150 3233 529 
Q 2819 -91 2034 -91 
Q 1250 -91 836 529 
Q 422 1150 422 2328 
Q 422 3509 836 4129 
Q 1250 4750 2034 4750 
z
" transform="scale(0.015625)"/>
       </defs>
       <use xlink:href="#DejaVuSans-30"/>
      </g>
     </g>
    </g>
    <g id="xtick_2">
     <g id="line2d_2">
      <path d="M 175.829109 519.857813 
L 175.829109 23.837812 
" clip-path="url(#pafe0789693)" style="fill: none; stroke: #cccccc; stroke-opacity: 0.3; stroke-linecap: round"/>
     </g>
     <g id="text_2">
      <!-- 25 -->
      <g style="fill: #262626" transform="translate(168.830359 537.716094) scale(0.11 -0.11)">
       <defs>
        <path id="DejaVuSans-32" d="M 1228 531 
L 3431 531 
L 3431 0 
L 469 0 
L 469 531 
Q 828 903 1448 1529 
Q 2069 2156 2228 2338 
Q 2531 2678 2651 2914 
Q 2772 3150 2772 3378 
Q 2772 3750 2511 3984 
Q 2250 4219 1831 4219 
Q 1534 4219 1204 4116 
Q 875 4013 500 3803 
L 500 4441 
Q 881 4594 1212 4672 
Q 1544 4750 1819 4750 
Q 2544 4750 2975 4387 
Q 3406 4025 3406 3419 
Q 3406 3131 3298 2873 
Q 3191 2616 2906 2266 
Q 2828 2175 2409 1742 
Q 1991 1309 1228 531 
z
" transform="scale(0.015625)"/>
        <path id="DejaVuSans-35" d="M 691 4666 
L 3169 4666 
L 3169 4134 
L 1269 4134 
L 1269 2991 
Q 1406 3038 1543 3061 
Q 1681 3084 1819 3084 
Q 2600 3084 3056 2656 
Q 3513 2228 3513 1497 
Q 3513 744 3044 326 
Q 2575 -91 1722 -91 
Q 1428 -91 1123 -41 
Q 819 9 494 109 
L 494 744 
Q 775 591 1075 516 
Q 1375 441 1709 441 
Q 2250 441 2565 725 
Q 2881 1009 2881 1497 
Q 2881 1984 2565 2268 
Q 2250 2553 1709 2553 
Q 1456 2553 1204 2497 
Q 953 2441 691 2322 
L 691 4666 
z
" transform="scale(0.015625)"/>
       </defs>
       <use xlink:href="#DejaVuSans-32"/>
       <use xlink:href="#DejaVuSans-35" transform="translate(63.623047 0)"/>
      </g>
     </g>
    </g>
    <g id="xtick_3">
     <g id="line2d_3">
      <path d="M 266.20101 519.857813 
L 266.20101 23.837812 
" clip-path="url(#pafe0789693)" style="fill: none; stroke: #cccccc; stroke-opacity: 0.3; stroke-linecap: round"/>
     </g>
     <g id="text_3">
      <!-- 50 -->
      <g style="fill: #262626" transform="translate(259.20226 537.716094) scale(0.11 -0.11)">
       <use xlink:href="#DejaVuSans-35"/>
       <use xlink:href="#DejaVuSans-30" transform="translate(63.623047 0)"/>
      </g>
     </g>
    </g>
    <g id="xtick_4">
     <g id="line2d_4">
      <path d="M 356.572911 519.857813 
L 356.572911 23.837812 
" clip-path="url(#pafe0789693)" style="fill: none; stroke: #cccccc; stroke-opacity: 0.3; stroke-linecap: round"/>
     </g>
     <g id="text_4">
      <!-- 75 -->
      <g style="fill: #262626" transform="translate(349.574161 537.716094) scale(0.11 -0.11)">
       <defs>
        <path id="DejaVuSans-37" d="M 525 4666 
L 3525 4666 
L 3525 4397 
L 1831 0 
L 1172 0 
L 2766 4134 
L 525 4134 
L 525 4666 
z
" transform="scale(0.015625)"/>
       </defs>
       <use xlink:href="#DejaVuSans-37"/>
       <use xlink:href="#DejaVuSans-35" transform="translate(63.623047 0)"/>
      </g>
     </g>
    </g>
    <g id="xtick_5">
     <g id="line2d_5">
      <path d="M 446.944811 519.857813 
L 446.944811 23.837812 
" clip-path="url(#pafe0789693)" style="fill: none; stroke: #cccccc; stroke-opacity: 0.3; stroke-linecap: round"/>
     </g>
     <g id="text_5">
      <!-- 100 -->
      <g style="fill: #262626" transform="translate(436.446686 537.716094) scale(0.11 -0.11)">
       <defs>
        <path id="DejaVuSans-31" d="M 794 531 
L 1825 531 
L 1825 4091 
L 703 3866 
L 703 4441 
L 1819 4666 
L 2450 4666 
L 2450 531 
L 3481 531 
L 3481 0 
L 794 0 
L 794 531 
z
" transform="scale(0.015625)"/>
       </defs>
       <use xlink:href="#DejaVuSans-31"/>
       <use xlink:href="#DejaVuSans-30" transform="translate(63.623047 0)"/>
       <use xlink:href="#DejaVuSans-30" transform="translate(127.246094 0)"/>
      </g>
     </g>
    </g>
    <g id="xtick_6">
     <g id="line2d_6">
      <path d="M 537.316712 519.857813 
L 537.316712 23.837812 
" clip-path="url(#pafe0789693)" style="fill: none; stroke: #cccccc; stroke-opacity: 0.3; stroke-linecap: round"/>
     </g>
     <g id="text_6">
      <!-- 125 -->
      <g style="fill: #262626" transform="translate(526.818587 537.716094) scale(0.11 -0.11)">
       <use xlink:href="#DejaVuSans-31"/>
       <use xlink:href="#DejaVuSans-32" transform="translate(63.623047 0)"/>
       <use xlink:href="#DejaVuSans-35" transform="translate(127.246094 0)"/>
      </g>
     </g>
    </g>
    <g id="xtick_7">
     <g id="line2d_7">
      <path d="M 627.688613 519.857813 
L 627.688613 23.837812 
" clip-path="url(#pafe0789693)" style="fill: none; stroke: #cccccc; stroke-opacity: 0.3; stroke-linecap: round"/>
     </g>
     <g id="text_7">
      <!-- 150 -->
      <g style="fill: #262626" transform="translate(617.190488 537.716094) scale(0.11 -0.11)">
       <use xlink:href="#DejaVuSans-31"/>
       <use xlink:href="#DejaVuSans-35" transform="translate(63.623047 0)"/>
       <use xlink:href="#DejaVuSans-30" transform="translate(127.246094 0)"/>
      </g>
     </g>
    </g>
    <g id="xtick_8">
     <g id="line2d_8">
      <path d="M 718.060514 519.857813 
L 718.060514 23.837812 
" clip-path="url(#pafe0789693)" style="fill: none; stroke: #cccccc; stroke-opacity: 0.3; stroke-linecap: round"/>
     </g>
     <g id="text_8">
      <!-- 175 -->
      <g style="fill: #262626" transform="translate(707.562389 537.716094) scale(0.11 -0.11)">
       <use xlink:href="#DejaVuSans-31"/>
       <use xlink:href="#DejaVuSans-37" transform="translate(63.623047 0)"/>
       <use xlink:href="#DejaVuSans-35" transform="translate(127.246094 0)"/>
      </g>
     </g>
    </g>
    <g id="xtick_9">
     <g id="line2d_9">
      <path d="M 808.432415 519.857813 
L 808.432415 23.837812 
" clip-path="url(#pafe0789693)" style="fill: none; stroke: #cccccc; stroke-opacity: 0.3; stroke-linecap: round"/>
     </g>
     <g id="text_9">
      <!-- 200 -->
      <g style="fill: #262626" transform="translate(797.93429 537.716094) scale(0.11 -0.11)">
       <use xlink:href="#DejaVuSans-32"/>
       <use xlink:href="#DejaVuSans-30" transform="translate(63.623047 0)"/>
       <use xlink:href="#DejaVuSans-30" transform="translate(127.246094 0)"/>
      </g>
     </g>
    </g>
    <g id="text_10">
     <!-- Order (k) -->
     <g style="fill: #262626" transform="translate(419.61375 553.121875) scale(0.12 -0.12)">
      <defs>
       <path id="DejaVuSans-Bold-4f" d="M 2719 3878 
Q 2169 3878 1866 3472 
Q 1563 3066 1563 2328 
Q 1563 1594 1866 1187 
Q 2169 781 2719 781 
Q 3272 781 3575 1187 
Q 3878 1594 3878 2328 
Q 3878 3066 3575 3472 
Q 3272 3878 2719 3878 
z
M 2719 4750 
Q 3844 4750 4481 4106 
Q 5119 3463 5119 2328 
Q 5119 1197 4481 553 
Q 3844 -91 2719 -91 
Q 1597 -91 958 553 
Q 319 1197 319 2328 
Q 319 3463 958 4106 
Q 1597 4750 2719 4750 
z
" transform="scale(0.015625)"/>
       <path id="DejaVuSans-Bold-72" d="M 3138 2547 
Q 2991 2616 2845 2648 
Q 2700 2681 2553 2681 
Q 2122 2681 1889 2404 
Q 1656 2128 1656 1613 
L 1656 0 
L 538 0 
L 538 3500 
L 1656 3500 
L 1656 2925 
Q 1872 3269 2151 3426 
Q 2431 3584 2822 3584 
Q 2878 3584 2943 3579 
Q 3009 3575 3134 3559 
L 3138 2547 
z
" transform="scale(0.015625)"/>
       <path id="DejaVuSans-Bold-64" d="M 2919 2988 
L 2919 4863 
L 4044 4863 
L 4044 0 
L 2919 0 
L 2919 506 
Q 2688 197 2409 53 
Q 2131 -91 1766 -91 
Q 1119 -91 703 423 
Q 288 938 288 1747 
Q 288 2556 703 3070 
Q 1119 3584 1766 3584 
Q 2128 3584 2408 3439 
Q 2688 3294 2919 2988 
z
M 2181 722 
Q 2541 722 2730 984 
Q 2919 1247 2919 1747 
Q 2919 2247 2730 2509 
Q 2541 2772 2181 2772 
Q 1825 2772 1636 2509 
Q 1447 2247 1447 1747 
Q 1447 1247 1636 984 
Q 1825 722 2181 722 
z
" transform="scale(0.015625)"/>
       <path id="DejaVuSans-Bold-65" d="M 4031 1759 
L 4031 1441 
L 1416 1441 
Q 1456 1047 1700 850 
Q 1944 653 2381 653 
Q 2734 653 3104 758 
Q 3475 863 3866 1075 
L 3866 213 
Q 3469 63 3072 -14 
Q 2675 -91 2278 -91 
Q 1328 -91 801 392 
Q 275 875 275 1747 
Q 275 2603 792 3093 
Q 1309 3584 2216 3584 
Q 3041 3584 3536 3087 
Q 4031 2591 4031 1759 
z
M 2881 2131 
Q 2881 2450 2695 2645 
Q 2509 2841 2209 2841 
Q 1884 2841 1681 2658 
Q 1478 2475 1428 2131 
L 2881 2131 
z
" transform="scale(0.015625)"/>
       <path id="DejaVuSans-Bold-20" transform="scale(0.015625)"/>
       <path id="DejaVuSans-Bold-28" d="M 2413 -844 
L 1484 -844 
Q 1006 -72 778 623 
Q 550 1319 550 2003 
Q 550 2688 779 3389 
Q 1009 4091 1484 4856 
L 2413 4856 
Q 2013 4116 1813 3408 
Q 1613 2700 1613 2009 
Q 1613 1319 1811 609 
Q 2009 -100 2413 -844 
z
" transform="scale(0.015625)"/>
       <path id="DejaVuSans-Bold-6b" d="M 538 4863 
L 1656 4863 
L 1656 2216 
L 2944 3500 
L 4244 3500 
L 2534 1894 
L 4378 0 
L 3022 0 
L 1656 1459 
L 1656 0 
L 538 0 
L 538 4863 
z
" transform="scale(0.015625)"/>
       <path id="DejaVuSans-Bold-29" d="M 513 -844 
Q 913 -100 1113 609 
Q 1313 1319 1313 2009 
Q 1313 2700 1113 3408 
Q 913 4116 513 4856 
L 1441 4856 
Q 1916 4091 2145 3389 
Q 2375 2688 2375 2003 
Q 2375 1319 2147 623 
Q 1919 -72 1441 -844 
L 513 -844 
z
" transform="scale(0.015625)"/>
      </defs>
      <use xlink:href="#DejaVuSans-Bold-4f"/>
      <use xlink:href="#DejaVuSans-Bold-72" transform="translate(85.009766 0)"/>
      <use xlink:href="#DejaVuSans-Bold-64" transform="translate(134.326172 0)"/>
      <use xlink:href="#DejaVuSans-Bold-65" transform="translate(205.908203 0)"/>
      <use xlink:href="#DejaVuSans-Bold-72" transform="translate(273.730469 0)"/>
      <use xlink:href="#DejaVuSans-Bold-20" transform="translate(323.046875 0)"/>
      <use xlink:href="#DejaVuSans-Bold-28" transform="translate(357.861328 0)"/>
      <use xlink:href="#DejaVuSans-Bold-6b" transform="translate(403.564453 0)"/>
      <use xlink:href="#DejaVuSans-Bold-29" transform="translate(470.068359 0)"/>
     </g>
    </g>
   </g>
   <g id="matplotlib.axis_2">
    <g id="ytick_1">
     <g id="line2d_10">
      <path d="M 56.899688 494.034831 
L 844.219687 494.034831 
" clip-path="url(#pafe0789693)" style="fill: none; stroke: #cccccc; stroke-opacity: 0.3; stroke-linecap: round"/>
     </g>
     <g id="text_11">
      <!-- 6.0 -->
      <g style="fill: #262626" transform="translate(29.90625 498.213971) scale(0.11 -0.11)">
       <defs>
        <path id="DejaVuSans-36" d="M 2113 2584 
Q 1688 2584 1439 2293 
Q 1191 2003 1191 1497 
Q 1191 994 1439 701 
Q 1688 409 2113 409 
Q 2538 409 2786 701 
Q 3034 994 3034 1497 
Q 3034 2003 2786 2293 
Q 2538 2584 2113 2584 
z
M 3366 4563 
L 3366 3988 
Q 3128 4100 2886 4159 
Q 2644 4219 2406 4219 
Q 1781 4219 1451 3797 
Q 1122 3375 1075 2522 
Q 1259 2794 1537 2939 
Q 1816 3084 2150 3084 
Q 2853 3084 3261 2657 
Q 3669 2231 3669 1497 
Q 3669 778 3244 343 
Q 2819 -91 2113 -91 
Q 1303 -91 875 529 
Q 447 1150 447 2328 
Q 447 3434 972 4092 
Q 1497 4750 2381 4750 
Q 2619 4750 2861 4703 
Q 3103 4656 3366 4563 
z
" transform="scale(0.015625)"/>
        <path id="DejaVuSans-2e" d="M 684 794 
L 1344 794 
L 1344 0 
L 684 0 
L 684 794 
z
" transform="scale(0.015625)"/>
       </defs>
       <use xlink:href="#DejaVuSans-36"/>
       <use xlink:href="#DejaVuSans-2e" transform="translate(63.623047 0)"/>
       <use xlink:href="#DejaVuSans-30" transform="translate(95.410156 0)"/>
      </g>
     </g>
    </g>
    <g id="ytick_2">
     <g id="line2d_11">
      <path d="M 56.899688 436.347891 
L 844.219687 436.347891 
" clip-path="url(#pafe0789693)" style="fill: none; stroke: #cccccc; stroke-opacity: 0.3; stroke-linecap: round"/>
     </g>
     <g id="text_12">
      <!-- 6.5 -->
      <g style="fill: #262626" transform="translate(29.90625 440.527031) scale(0.11 -0.11)">
       <use xlink:href="#DejaVuSans-36"/>
       <use xlink:href="#DejaVuSans-2e" transform="translate(63.623047 0)"/>
       <use xlink:href="#DejaVuSans-35" transform="translate(95.410156 0)"/>
      </g>
     </g>
    </g>
    <g id="ytick_3">
     <g id="line2d_12">
      <path d="M 56.899688 378.660951 
L 844.219687 378.660951 
" clip-path="url(#pafe0789693)" style="fill: none; stroke: #cccccc; stroke-opacity: 0.3; stroke-linecap: round"/>
     </g>
     <g id="text_13">
      <!-- 7.0 -->
      <g style="fill: #262626" transform="translate(29.90625 382.840091) scale(0.11 -0.11)">
       <use xlink:href="#DejaVuSans-37"/>
       <use xlink:href="#DejaVuSans-2e" transform="translate(63.623047 0)"/>
       <use xlink:href="#DejaVuSans-30" transform="translate(95.410156 0)"/>
      </g>
     </g>
    </g>
    <g id="ytick_4">
     <g id="line2d_13">
      <path d="M 56.899688 320.974011 
L 844.219687 320.974011 
" clip-path="url(#pafe0789693)" style="fill: none; stroke: #cccccc; stroke-opacity: 0.3; stroke-linecap: round"/>
     </g>
     <g id="text_14">
      <!-- 7.5 -->
      <g style="fill: #262626" transform="translate(29.90625 325.153151) scale(0.11 -0.11)">
       <use xlink:href="#DejaVuSans-37"/>
       <use xlink:href="#DejaVuSans-2e" transform="translate(63.623047 0)"/>
       <use xlink:href="#DejaVuSans-35" transform="translate(95.410156 0)"/>
      </g>
     </g>
    </g>
    <g id="ytick_5">
     <g id="line2d_14">
      <path d="M 56.899688 263.287071 
L 844.219687 263.287071 
" clip-path="url(#pafe0789693)" style="fill: none; stroke: #cccccc; stroke-opacity: 0.3; stroke-linecap: round"/>
     </g>
     <g id="text_15">
      <!-- 8.0 -->
      <g style="fill: #262626" transform="translate(29.90625 267.466211) scale(0.11 -0.11)">
       <defs>
        <path id="DejaVuSans-38" d="M 2034 2216 
Q 1584 2216 1326 1975 
Q 1069 1734 1069 1313 
Q 1069 891 1326 650 
Q 1584 409 2034 409 
Q 2484 409 2743 651 
Q 3003 894 3003 1313 
Q 3003 1734 2745 1975 
Q 2488 2216 2034 2216 
z
M 1403 2484 
Q 997 2584 770 2862 
Q 544 3141 544 3541 
Q 544 4100 942 4425 
Q 1341 4750 2034 4750 
Q 2731 4750 3128 4425 
Q 3525 4100 3525 3541 
Q 3525 3141 3298 2862 
Q 3072 2584 2669 2484 
Q 3125 2378 3379 2068 
Q 3634 1759 3634 1313 
Q 3634 634 3220 271 
Q 2806 -91 2034 -91 
Q 1263 -91 848 271 
Q 434 634 434 1313 
Q 434 1759 690 2068 
Q 947 2378 1403 2484 
z
M 1172 3481 
Q 1172 3119 1398 2916 
Q 1625 2713 2034 2713 
Q 2441 2713 2670 2916 
Q 2900 3119 2900 3481 
Q 2900 3844 2670 4047 
Q 2441 4250 2034 4250 
Q 1625 4250 1398 4047 
Q 1172 3844 1172 3481 
z
" transform="scale(0.015625)"/>
       </defs>
       <use xlink:href="#DejaVuSans-38"/>
       <use xlink:href="#DejaVuSans-2e" transform="translate(63.623047 0)"/>
       <use xlink:href="#DejaVuSans-30" transform="translate(95.410156 0)"/>
      </g>
     </g>
    </g>
    <g id="ytick_6">
     <g id="line2d_15">
      <path d="M 56.899688 205.600131 
L 844.219687 205.600131 
" clip-path="url(#pafe0789693)" style="fill: none; stroke: #cccccc; stroke-opacity: 0.3; stroke-linecap: round"/>
     </g>
     <g id="text_16">
      <!-- 8.5 -->
      <g style="fill: #262626" transform="translate(29.90625 209.779271) scale(0.11 -0.11)">
       <use xlink:href="#DejaVuSans-38"/>
       <use xlink:href="#DejaVuSans-2e" transform="translate(63.623047 0)"/>
       <use xlink:href="#DejaVuSans-35" transform="translate(95.410156 0)"/>
      </g>
     </g>
    </g>
    <g id="ytick_7">
     <g id="line2d_16">
      <path d="M 56.899688 147.913191 
L 844.219687 147.913191 
" clip-path="url(#pafe0789693)" style="fill: none; stroke: #cccccc; stroke-opacity: 0.3; stroke-linecap: round"/>
     </g>
     <g id="text_17">
      <!-- 9.0 -->
      <g style="fill: #262626" transform="translate(29.90625 152.092331) scale(0.11 -0.11)">
       <defs>
        <path id="DejaVuSans-39" d="M 703 97 
L 703 672 
Q 941 559 1184 500 
Q 1428 441 1663 441 
Q 2288 441 2617 861 
Q 2947 1281 2994 2138 
Q 2813 1869 2534 1725 
Q 2256 1581 1919 1581 
Q 1219 1581 811 2004 
Q 403 2428 403 3163 
Q 403 3881 828 4315 
Q 1253 4750 1959 4750 
Q 2769 4750 3195 4129 
Q 3622 3509 3622 2328 
Q 3622 1225 3098 567 
Q 2575 -91 1691 -91 
Q 1453 -91 1209 -44 
Q 966 3 703 97 
z
M 1959 2075 
Q 2384 2075 2632 2365 
Q 2881 2656 2881 3163 
Q 2881 3666 2632 3958 
Q 2384 4250 1959 4250 
Q 1534 4250 1286 3958 
Q 1038 3666 1038 3163 
Q 1038 2656 1286 2365 
Q 1534 2075 1959 2075 
z
" transform="scale(0.015625)"/>
       </defs>
       <use xlink:href="#DejaVuSans-39"/>
       <use xlink:href="#DejaVuSans-2e" transform="translate(63.623047 0)"/>
       <use xlink:href="#DejaVuSans-30" transform="translate(95.410156 0)"/>
      </g>
     </g>
    </g>
    <g id="ytick_8">
     <g id="line2d_17">
      <path d="M 56.899688 90.226251 
L 844.219687 90.226251 
" clip-path="url(#pafe0789693)" style="fill: none; stroke: #cccccc; stroke-opacity: 0.3; stroke-linecap: round"/>
     </g>
     <g id="text_18">
      <!-- 9.5 -->
      <g style="fill: #262626" transform="translate(29.90625 94.405391) scale(0.11 -0.11)">
       <use xlink:href="#DejaVuSans-39"/>
       <use xlink:href="#DejaVuSans-2e" transform="translate(63.623047 0)"/>
       <use xlink:href="#DejaVuSans-35" transform="translate(95.410156 0)"/>
      </g>
     </g>
    </g>
    <g id="ytick_9">
     <g id="line2d_18">
      <path d="M 56.899688 32.539311 
L 844.219687 32.539311 
" clip-path="url(#pafe0789693)" style="fill: none; stroke: #cccccc; stroke-opacity: 0.3; stroke-linecap: round"/>
     </g>
     <g id="text_19">
      <!-- 10.0 -->
      <g style="fill: #262626" transform="translate(22.9075 36.718451) scale(0.11 -0.11)">
       <use xlink:href="#DejaVuSans-31"/>
       <use xlink:href="#DejaVuSans-30" transform="translate(63.623047 0)"/>
       <use xlink:href="#DejaVuSans-2e" transform="translate(127.246094 0)"/>
       <use xlink:href="#DejaVuSans-30" transform="translate(159.033203 0)"/>
      </g>
     </g>
    </g>
    <g id="text_20">
     <!-- Bytes per Interval (zlib-compressed) -->
     <g style="fill: #262626" transform="translate(16.318125 395.4825) rotate(-90) scale(0.12 -0.12)">
      <defs>
       <path id="DejaVuSans-Bold-42" d="M 2456 2859 
Q 2741 2859 2887 2984 
Q 3034 3109 3034 3353 
Q 3034 3594 2887 3720 
Q 2741 3847 2456 3847 
L 1791 3847 
L 1791 2859 
L 2456 2859 
z
M 2497 819 
Q 2859 819 3042 972 
Q 3225 1125 3225 1434 
Q 3225 1738 3044 1889 
Q 2863 2041 2497 2041 
L 1791 2041 
L 1791 819 
L 2497 819 
z
M 3616 2497 
Q 4003 2384 4215 2081 
Q 4428 1778 4428 1338 
Q 4428 663 3972 331 
Q 3516 0 2584 0 
L 588 0 
L 588 4666 
L 2394 4666 
Q 3366 4666 3802 4372 
Q 4238 4078 4238 3431 
Q 4238 3091 4078 2852 
Q 3919 2613 3616 2497 
z
" transform="scale(0.015625)"/>
       <path id="DejaVuSans-Bold-79" d="M 78 3500 
L 1197 3500 
L 2138 1125 
L 2938 3500 
L 4056 3500 
L 2584 -331 
Q 2363 -916 2067 -1148 
Q 1772 -1381 1288 -1381 
L 641 -1381 
L 641 -647 
L 991 -647 
Q 1275 -647 1404 -556 
Q 1534 -466 1606 -231 
L 1638 -134 
L 78 3500 
z
" transform="scale(0.015625)"/>
       <path id="DejaVuSans-Bold-74" d="M 1759 4494 
L 1759 3500 
L 2913 3500 
L 2913 2700 
L 1759 2700 
L 1759 1216 
Q 1759 972 1856 886 
Q 1953 800 2241 800 
L 2816 800 
L 2816 0 
L 1856 0 
Q 1194 0 917 276 
Q 641 553 641 1216 
L 641 2700 
L 84 2700 
L 84 3500 
L 641 3500 
L 641 4494 
L 1759 4494 
z
" transform="scale(0.015625)"/>
       <path id="DejaVuSans-Bold-73" d="M 3272 3391 
L 3272 2541 
Q 2913 2691 2578 2766 
Q 2244 2841 1947 2841 
Q 1628 2841 1473 2761 
Q 1319 2681 1319 2516 
Q 1319 2381 1436 2309 
Q 1553 2238 1856 2203 
L 2053 2175 
Q 2913 2066 3209 1816 
Q 3506 1566 3506 1031 
Q 3506 472 3093 190 
Q 2681 -91 1863 -91 
Q 1516 -91 1145 -36 
Q 775 19 384 128 
L 384 978 
Q 719 816 1070 734 
Q 1422 653 1784 653 
Q 2113 653 2278 743 
Q 2444 834 2444 1013 
Q 2444 1163 2330 1236 
Q 2216 1309 1875 1350 
L 1678 1375 
Q 931 1469 631 1722 
Q 331 1975 331 2491 
Q 331 3047 712 3315 
Q 1094 3584 1881 3584 
Q 2191 3584 2531 3537 
Q 2872 3491 3272 3391 
z
" transform="scale(0.015625)"/>
       <path id="DejaVuSans-Bold-70" d="M 1656 506 
L 1656 -1331 
L 538 -1331 
L 538 3500 
L 1656 3500 
L 1656 2988 
Q 1888 3294 2169 3439 
Q 2450 3584 2816 3584 
Q 3463 3584 3878 3070 
Q 4294 2556 4294 1747 
Q 4294 938 3878 423 
Q 3463 -91 2816 -91 
Q 2450 -91 2169 54 
Q 1888 200 1656 506 
z
M 2400 2772 
Q 2041 2772 1848 2508 
Q 1656 2244 1656 1747 
Q 1656 1250 1848 986 
Q 2041 722 2400 722 
Q 2759 722 2948 984 
Q 3138 1247 3138 1747 
Q 3138 2247 2948 2509 
Q 2759 2772 2400 2772 
z
" transform="scale(0.015625)"/>
       <path id="DejaVuSans-Bold-49" d="M 588 4666 
L 1791 4666 
L 1791 0 
L 588 0 
L 588 4666 
z
" transform="scale(0.015625)"/>
       <path id="DejaVuSans-Bold-6e" d="M 4056 2131 
L 4056 0 
L 2931 0 
L 2931 347 
L 2931 1631 
Q 2931 2084 2911 2256 
Q 2891 2428 2841 2509 
Q 2775 2619 2662 2680 
Q 2550 2741 2406 2741 
Q 2056 2741 1856 2470 
Q 1656 2200 1656 1722 
L 1656 0 
L 538 0 
L 538 3500 
L 1656 3500 
L 1656 2988 
Q 1909 3294 2193 3439 
Q 2478 3584 2822 3584 
Q 3428 3584 3742 3212 
Q 4056 2841 4056 2131 
z
" transform="scale(0.015625)"/>
       <path id="DejaVuSans-Bold-76" d="M 97 3500 
L 1216 3500 
L 2088 1081 
L 2956 3500 
L 4078 3500 
L 2700 0 
L 1472 0 
L 97 3500 
z
" transform="scale(0.015625)"/>
       <path id="DejaVuSans-Bold-61" d="M 2106 1575 
Q 1756 1575 1579 1456 
Q 1403 1338 1403 1106 
Q 1403 894 1545 773 
Q 1688 653 1941 653 
Q 2256 653 2472 879 
Q 2688 1106 2688 1447 
L 2688 1575 
L 2106 1575 
z
M 3816 1997 
L 3816 0 
L 2688 0 
L 2688 519 
Q 2463 200 2181 54 
Q 1900 -91 1497 -91 
Q 953 -91 614 226 
Q 275 544 275 1050 
Q 275 1666 698 1953 
Q 1122 2241 2028 2241 
L 2688 2241 
L 2688 2328 
Q 2688 2594 2478 2717 
Q 2269 2841 1825 2841 
Q 1466 2841 1156 2769 
Q 847 2697 581 2553 
L 581 3406 
Q 941 3494 1303 3539 
Q 1666 3584 2028 3584 
Q 2975 3584 3395 3211 
Q 3816 2838 3816 1997 
z
" transform="scale(0.015625)"/>
       <path id="DejaVuSans-Bold-6c" d="M 538 4863 
L 1656 4863 
L 1656 0 
L 538 0 
L 538 4863 
z
" transform="scale(0.015625)"/>
       <path id="DejaVuSans-Bold-7a" d="M 366 3500 
L 3419 3500 
L 3419 2719 
L 1575 800 
L 3419 800 
L 3419 0 
L 288 0 
L 288 781 
L 2131 2700 
L 366 2700 
L 366 3500 
z
" transform="scale(0.015625)"/>
       <path id="DejaVuSans-Bold-69" d="M 538 3500 
L 1656 3500 
L 1656 0 
L 538 0 
L 538 3500 
z
M 538 4863 
L 1656 4863 
L 1656 3950 
L 538 3950 
L 538 4863 
z
" transform="scale(0.015625)"/>
       <path id="DejaVuSans-Bold-62" d="M 2400 722 
Q 2759 722 2948 984 
Q 3138 1247 3138 1747 
Q 3138 2247 2948 2509 
Q 2759 2772 2400 2772 
Q 2041 2772 1848 2508 
Q 1656 2244 1656 1747 
Q 1656 1250 1848 986 
Q 2041 722 2400 722 
z
M 1656 2988 
Q 1888 3294 2169 3439 
Q 2450 3584 2816 3584 
Q 3463 3584 3878 3070 
Q 4294 2556 4294 1747 
Q 4294 938 3878 423 
Q 3463 -91 2816 -91 
Q 2450 -91 2169 54 
Q 1888 200 1656 506 
L 1656 0 
L 538 0 
L 538 4863 
L 1656 4863 
L 1656 2988 
z
" transform="scale(0.015625)"/>
       <path id="DejaVuSans-Bold-2d" d="M 347 2297 
L 2309 2297 
L 2309 1388 
L 347 1388 
L 347 2297 
z
" transform="scale(0.015625)"/>
       <path id="DejaVuSans-Bold-63" d="M 3366 3391 
L 3366 2478 
Q 3138 2634 2908 2709 
Q 2678 2784 2431 2784 
Q 1963 2784 1702 2511 
Q 1441 2238 1441 1747 
Q 1441 1256 1702 982 
Q 1963 709 2431 709 
Q 2694 709 2930 787 
Q 3166 866 3366 1019 
L 3366 103 
Q 3103 6 2833 -42 
Q 2563 -91 2291 -91 
Q 1344 -91 809 395 
Q 275 881 275 1747 
Q 275 2613 809 3098 
Q 1344 3584 2291 3584 
Q 2566 3584 2833 3536 
Q 3100 3488 3366 3391 
z
" transform="scale(0.015625)"/>
       <path id="DejaVuSans-Bold-6f" d="M 2203 2784 
Q 1831 2784 1636 2517 
Q 1441 2250 1441 1747 
Q 1441 1244 1636 976 
Q 1831 709 2203 709 
Q 2569 709 2762 976 
Q 2956 1244 2956 1747 
Q 2956 2250 2762 2517 
Q 2569 2784 2203 2784 
z
M 2203 3584 
Q 3106 3584 3614 3096 
Q 4122 2609 4122 1747 
Q 4122 884 3614 396 
Q 3106 -91 2203 -91 
Q 1297 -91 786 396 
Q 275 884 275 1747 
Q 275 2609 786 3096 
Q 1297 3584 2203 3584 
z
" transform="scale(0.015625)"/>
       <path id="DejaVuSans-Bold-6d" d="M 3781 2919 
Q 3994 3244 4286 3414 
Q 4578 3584 4928 3584 
Q 5531 3584 5847 3212 
Q 6163 2841 6163 2131 
L 6163 0 
L 5038 0 
L 5038 1825 
Q 5041 1866 5042 1909 
Q 5044 1953 5044 2034 
Q 5044 2406 4934 2573 
Q 4825 2741 4581 2741 
Q 4263 2741 4089 2478 
Q 3916 2216 3909 1719 
L 3909 0 
L 2784 0 
L 2784 1825 
Q 2784 2406 2684 2573 
Q 2584 2741 2328 2741 
Q 2006 2741 1831 2477 
Q 1656 2213 1656 1722 
L 1656 0 
L 531 0 
L 531 3500 
L 1656 3500 
L 1656 2988 
Q 1863 3284 2130 3434 
Q 2397 3584 2719 3584 
Q 3081 3584 3359 3409 
Q 3638 3234 3781 2919 
z
" transform="scale(0.015625)"/>
      </defs>
      <use xlink:href="#DejaVuSans-Bold-42"/>
      <use xlink:href="#DejaVuSans-Bold-79" transform="translate(76.220703 0)"/>
      <use xlink:href="#DejaVuSans-Bold-74" transform="translate(141.40625 0)"/>
      <use xlink:href="#DejaVuSans-Bold-65" transform="translate(189.208984 0)"/>
      <use xlink:href="#DejaVuSans-Bold-73" transform="translate(257.03125 0)"/>
      <use xlink:href="#DejaVuSans-Bold-20" transform="translate(316.552734 0)"/>
      <use xlink:href="#DejaVuSans-Bold-70" transform="translate(351.367188 0)"/>
      <use xlink:href="#DejaVuSans-Bold-65" transform="translate(422.949219 0)"/>
      <use xlink:href="#DejaVuSans-Bold-72" transform="translate(490.771484 0)"/>
      <use xlink:href="#DejaVuSans-Bold-20" transform="translate(540.087891 0)"/>
      <use xlink:href="#DejaVuSans-Bold-49" transform="translate(574.902344 0)"/>
      <use xlink:href="#DejaVuSans-Bold-6e" transform="translate(612.109375 0)"/>
      <use xlink:href="#DejaVuSans-Bold-74" transform="translate(683.300781 0)"/>
      <use xlink:href="#DejaVuSans-Bold-65" transform="translate(731.103516 0)"/>
      <use xlink:href="#DejaVuSans-Bold-72" transform="translate(798.925781 0)"/>
      <use xlink:href="#DejaVuSans-Bold-76" transform="translate(848.242188 0)"/>
      <use xlink:href="#DejaVuSans-Bold-61" transform="translate(913.427734 0)"/>
      <use xlink:href="#DejaVuSans-Bold-6c" transform="translate(980.908203 0)"/>
      <use xlink:href="#DejaVuSans-Bold-20" transform="translate(1015.185547 0)"/>
      <use xlink:href="#DejaVuSans-Bold-28" transform="translate(1050 0)"/>
      <use xlink:href="#DejaVuSans-Bold-7a" transform="translate(1095.703125 0)"/>
      <use xlink:href="#DejaVuSans-Bold-6c" transform="translate(1153.90625 0)"/>
      <use xlink:href="#DejaVuSans-Bold-69" transform="translate(1188.183594 0)"/>
      <use xlink:href="#DejaVuSans-Bold-62" transform="translate(1222.460938 0)"/>
      <use xlink:href="#DejaVuSans-Bold-2d" transform="translate(1294.042969 0)"/>
      <use xlink:href="#DejaVuSans-Bold-63" transform="translate(1335.546875 0)"/>
      <use xlink:href="#DejaVuSans-Bold-6f" transform="translate(1394.824219 0)"/>
      <use xlink:href="#DejaVuSans-Bold-6d" transform="translate(1463.525391 0)"/>
      <use xlink:href="#DejaVuSans-Bold-70" transform="translate(1567.724609 0)"/>
      <use xlink:href="#DejaVuSans-Bold-72" transform="translate(1639.306641 0)"/>
      <use xlink:href="#DejaVuSans-Bold-65" transform="translate(1688.623047 0)"/>
      <use xlink:href="#DejaVuSans-Bold-73" transform="translate(1756.445312 0)"/>
      <use xlink:href="#DejaVuSans-Bold-73" transform="translate(1815.966797 0)"/>
      <use xlink:href="#DejaVuSans-Bold-65" transform="translate(1875.488281 0)"/>
      <use xlink:href="#DejaVuSans-Bold-64" transform="translate(1943.310547 0)"/>
      <use xlink:href="#DejaVuSans-Bold-29" transform="translate(2014.892578 0)"/>
     </g>
    </g>
   </g>
   <g id="line2d_19">
    <path d="M 92.68696 46.384176 
L 103.531588 232.136123 
L 121.605968 316.359055 
L 139.680349 354.432436 
L 157.754729 367.123563 
L 175.829109 378.660951 
L 193.903489 387.890861 
L 266.20101 399.428249 
L 356.572911 414.426853 
L 446.944811 413.273115 
L 627.688613 431.732935 
L 808.432415 431.732935 
" clip-path="url(#pafe0789693)" style="fill: none; stroke: #4c72b0; stroke-width: 2; stroke-linecap: round"/>
    <defs>
     <path id="m940b6115e8" d="M 0 4 
C 1.060812 4 2.078319 3.578535 2.828427 2.828427 
C 3.578535 2.078319 4 1.060812 4 0 
C 4 -1.060812 3.578535 -2.078319 2.828427 -2.828427 
C 2.078319 -3.578535 1.060812 -4 0 -4 
C -1.060812 -4 -2.078319 -3.578535 -2.828427 -2.828427 
C -3.578535 -2.078319 -4 -1.060812 -4 0 
C -4 1.060812 -3.578535 2.078319 -2.828427 2.828427 
C -2.078319 3.578535 -1.060812 4 0 4 
z
" style="stroke: #4c72b0"/>
    </defs>
    <g clip-path="url(#pafe0789693)">
     <use xlink:href="#m940b6115e8" x="92.68696" y="46.384176" style="fill: #4c72b0; stroke: #4c72b0"/>
     <use xlink:href="#m940b6115e8" x="103.531588" y="232.136123" style="fill: #4c72b0; stroke: #4c72b0"/>
     <use xlink:href="#m940b6115e8" x="121.605968" y="316.359055" style="fill: #4c72b0; stroke: #4c72b0"/>
     <use xlink:href="#m940b6115e8" x="139.680349" y="354.432436" style="fill: #4c72b0; stroke: #4c72b0"/>
     <use xlink:href="#m940b6115e8" x="157.754729" y="367.123563" style="fill: #4c72b0; stroke: #4c72b0"/>
     <use xlink:href="#m940b6115e8" x="175.829109" y="378.660951" style="fill: #4c72b0; stroke: #4c72b0"/>
     <use xlink:href="#m940b6115e8" x="193.903489" y="387.890861" style="fill: #4c72b0; stroke: #4c72b0"/>
     <use xlink:href="#m940b6115e8" x="266.20101" y="399.428249" style="fill: #4c72b0; stroke: #4c72b0"/>
     <use xlink:href="#m940b6115e8" x="356.572911" y="414.426853" style="fill: #4c72b0; stroke: #4c72b0"/>
     <use xlink:href="#m940b6115e8" x="446.944811" y="413.273115" style="fill: #4c72b0; stroke: #4c72b0"/>
     <use xlink:href="#m940b6115e8" x="627.688613" y="431.732935" style="fill: #4c72b0; stroke: #4c72b0"/>
     <use xlink:href="#m940b6115e8" x="808.432415" y="431.732935" style="fill: #4c72b0; stroke: #4c72b0"/>
    </g>
   </g>
   <g id="line2d_20">
    <path d="M 92.68696 148.374686 
L 103.531588 296.053253 
L 121.605968 392.505816 
L 139.680349 425.733494 
L 157.754729 433.809665 
L 175.829109 448.80827 
L 193.903489 455.038459 
L 266.20101 468.652577 
L 356.572911 476.728749 
L 446.944811 480.882208 
L 627.688613 485.958659 
L 808.432415 487.343146 
" clip-path="url(#pafe0789693)" style="fill: none; stroke: #dd8452; stroke-width: 2; stroke-linecap: round"/>
    <defs>
     <path id="m380ee1527d" d="M 0 4 
C 1.060812 4 2.078319 3.578535 2.828427 2.828427 
C 3.578535 2.078319 4 1.060812 4 0 
C 4 -1.060812 3.578535 -2.078319 2.828427 -2.828427 
C 2.078319 -3.578535 1.060812 -4 0 -4 
C -1.060812 -4 -2.078319 -3.578535 -2.828427 -2.828427 
C -3.578535 -2.078319 -4 -1.060812 -4 0 
C -4 1.060812 -3.578535 2.078319 -2.828427 2.828427 
C -2.078319 3.578535 -1.060812 4 0 4 
z
" style="stroke: #dd8452"/>
    </defs>
    <g clip-path="url(#pafe0789693)">
     <use xlink:href="#m380ee1527d" x="92.68696" y="148.374686" style="fill: #dd8452; stroke: #dd8452"/>
     <use xlink:href="#m380ee1527d" x="103.531588" y="296.053253" style="fill: #dd8452; stroke: #dd8452"/>
     <use xlink:href="#m380ee1527d" x="121.605968" y="392.505816" style="fill: #dd8452; stroke: #dd8452"/>
     <use xlink:href="#m380ee1527d" x="139.680349" y="425.733494" style="fill: #dd8452; stroke: #dd8452"/>
     <use xlink:href="#m380ee1527d" x="157.754729" y="433.809665" style="fill: #dd8452; stroke: #dd8452"/>
     <use xlink:href="#m380ee1527d" x="175.829109" y="448.80827" style="fill: #dd8452; stroke: #dd8452"/>
     <use xlink:href="#m380ee1527d" x="193.903489" y="455.038459" style="fill: #dd8452; stroke: #dd8452"/>
     <use xlink:href="#m380ee1527d" x="266.20101" y="468.652577" style="fill: #dd8452; stroke: #dd8452"/>
     <use xlink:href="#m380ee1527d" x="356.572911" y="476.728749" style="fill: #dd8452; stroke: #dd8452"/>
     <use xlink:href="#m380ee1527d" x="446.944811" y="480.882208" style="fill: #dd8452; stroke: #dd8452"/>
     <use xlink:href="#m380ee1527d" x="627.688613" y="485.958659" style="fill: #dd8452; stroke: #dd8452"/>
     <use xlink:href="#m380ee1527d" x="808.432415" y="487.343146" style="fill: #dd8452; stroke: #dd8452"/>
    </g>
   </g>
   <g id="line2d_21">
    <path d="M 92.68696 156.566232 
L 103.531588 295.822505 
L 121.605968 390.429086 
L 139.680349 423.426016 
L 157.754729 435.540273 
L 175.829109 445.808549 
L 193.903489 451.461869 
L 266.20101 465.998978 
L 356.572911 473.152158 
L 446.944811 477.420992 
L 627.688613 481.574452 
L 808.432415 482.958938 
" clip-path="url(#pafe0789693)" style="fill: none; stroke: #55a868; stroke-width: 2; stroke-linecap: round"/>
    <defs>
     <path id="mb846755f04" d="M 0 4 
C 1.060812 4 2.078319 3.578535 2.828427 2.828427 
C 3.578535 2.078319 4 1.060812 4 0 
C 4 -1.060812 3.578535 -2.078319 2.828427 -2.828427 
C 2.078319 -3.578535 1.060812 -4 0 -4 
C -1.060812 -4 -2.078319 -3.578535 -2.828427 -2.828427 
C -3.578535 -2.078319 -4 -1.060812 -4 0 
C -4 1.060812 -3.578535 2.078319 -2.828427 2.828427 
C -2.078319 3.578535 -1.060812 4 0 4 
z
" style="stroke: #55a868"/>
    </defs>
    <g clip-path="url(#pafe0789693)">
     <use xlink:href="#mb846755f04" x="92.68696" y="156.566232" style="fill: #55a868; stroke: #55a868"/>
     <use xlink:href="#mb846755f04" x="103.531588" y="295.822505" style="fill: #55a868; stroke: #55a868"/>
     <use xlink:href="#mb846755f04" x="121.605968" y="390.429086" style="fill: #55a868; stroke: #55a868"/>
     <use xlink:href="#mb846755f04" x="139.680349" y="423.426016" style="fill: #55a868; stroke: #55a868"/>
     <use xlink:href="#mb846755f04" x="157.754729" y="435.540273" style="fill: #55a868; stroke: #55a868"/>
     <use xlink:href="#mb846755f04" x="175.829109" y="445.808549" style="fill: #55a868; stroke: #55a868"/>
     <use xlink:href="#mb846755f04" x="193.903489" y="451.461869" style="fill: #55a868; stroke: #55a868"/>
     <use xlink:href="#mb846755f04" x="266.20101" y="465.998978" style="fill: #55a868; stroke: #55a868"/>
     <use xlink:href="#mb846755f04" x="356.572911" y="473.152158" style="fill: #55a868; stroke: #55a868"/>
     <use xlink:href="#mb846755f04" x="446.944811" y="477.420992" style="fill: #55a868; stroke: #55a868"/>
     <use xlink:href="#mb846755f04" x="627.688613" y="481.574452" style="fill: #55a868; stroke: #55a868"/>
     <use xlink:href="#mb846755f04" x="808.432415" y="482.958938" style="fill: #55a868; stroke: #55a868"/>
    </g>
   </g>
   <g id="line2d_22">
    <path d="M 92.68696 162.104178 
L 103.531588 306.529201 
L 121.605968 404.043204 
L 139.680349 435.932545 
L 157.754729 449.33899 
L 175.829109 459.538041 
L 193.903489 464.383744 
L 266.20101 479.705395 
L 356.572911 488.335361 
L 446.944811 492.027325 
L 627.688613 495.67314 
L 808.432415 497.311449 
" clip-path="url(#pafe0789693)" style="fill: none; stroke: #c44e52; stroke-width: 2; stroke-linecap: round"/>
    <defs>
     <path id="m6ff46736b7" d="M 0 4 
C 1.060812 4 2.078319 3.578535 2.828427 2.828427 
C 3.578535 2.078319 4 1.060812 4 0 
C 4 -1.060812 3.578535 -2.078319 2.828427 -2.828427 
C 2.078319 -3.578535 1.060812 -4 0 -4 
C -1.060812 -4 -2.078319 -3.578535 -2.828427 -2.828427 
C -3.578535 -2.078319 -4 -1.060812 -4 0 
C -4 1.060812 -3.578535 2.078319 -2.828427 2.828427 
C -2.078319 3.578535 -1.060812 4 0 4 
z
" style="stroke: #c44e52"/>
    </defs>
    <g clip-path="url(#pafe0789693)">
     <use xlink:href="#m6ff46736b7" x="92.68696" y="162.104178" style="fill: #c44e52; stroke: #c44e52"/>
     <use xlink:href="#m6ff46736b7" x="103.531588" y="306.529201" style="fill: #c44e52; stroke: #c44e52"/>
     <use xlink:href="#m6ff46736b7" x="121.605968" y="404.043204" style="fill: #c44e52; stroke: #c44e52"/>
     <use xlink:href="#m6ff46736b7" x="139.680349" y="435.932545" style="fill: #c44e52; stroke: #c44e52"/>
     <use xlink:href="#m6ff46736b7" x="157.754729" y="449.33899" style="fill: #c44e52; stroke: #c44e52"/>
     <use xlink:href="#m6ff46736b7" x="175.829109" y="459.538041" style="fill: #c44e52; stroke: #c44e52"/>
     <use xlink:href="#m6ff46736b7" x="193.903489" y="464.383744" style="fill: #c44e52; stroke: #c44e52"/>
     <use xlink:href="#m6ff46736b7" x="266.20101" y="479.705395" style="fill: #c44e52; stroke: #c44e52"/>
     <use xlink:href="#m6ff46736b7" x="356.572911" y="488.335361" style="fill: #c44e52; stroke: #c44e52"/>
     <use xlink:href="#m6ff46736b7" x="446.944811" y="492.027325" style="fill: #c44e52; stroke: #c44e52"/>
     <use xlink:href="#m6ff46736b7" x="627.688613" y="495.67314" style="fill: #c44e52; stroke: #c44e52"/>
     <use xlink:href="#m6ff46736b7" x="808.432415" y="497.311449" style="fill: #c44e52; stroke: #c44e52"/>
    </g>
   </g>
   <g id="patch_3">
    <path d="M 56.899688 519.857813 
L 56.899688 23.837812 
" style="fill: none; stroke: #cccccc; stroke-width: 1.25; stroke-linejoin: miter; stroke-linecap: square"/>
   </g>
   <g id="patch_4">
    <path d="M 844.219687 519.857813 
L 844.219687 23.837812 
" style="fill: none; stroke: #cccccc; stroke-width: 1.25; stroke-linejoin: miter; stroke-linecap: square"/>
   </g>
   <g id="patch_5">
    <path d="M 56.899687 519.857813 
L 844.219687 519.857813 
" style="fill: none; stroke: #cccccc; stroke-width: 1.25; stroke-linejoin: miter; stroke-linecap: square"/>
   </g>
   <g id="patch_6">
    <path d="M 56.899687 23.837812 
L 844.219687 23.837812 
" style="fill: none; stroke: #cccccc; stroke-width: 1.25; stroke-linejoin: miter; stroke-linecap: square"/>
   </g>
   <g id="text_21">
    <!-- Serialization Efficiency vs Order -->
    <g style="fill: #262626" transform="translate(324.141875 17.837812) scale(0.14 -0.14)">
     <defs>
      <path id="DejaVuSans-Bold-53" d="M 3834 4519 
L 3834 3531 
Q 3450 3703 3084 3790 
Q 2719 3878 2394 3878 
Q 1963 3878 1756 3759 
Q 1550 3641 1550 3391 
Q 1550 3203 1689 3098 
Q 1828 2994 2194 2919 
L 2706 2816 
Q 3484 2659 3812 2340 
Q 4141 2022 4141 1434 
Q 4141 663 3683 286 
Q 3225 -91 2284 -91 
Q 1841 -91 1394 -6 
Q 947 78 500 244 
L 500 1259 
Q 947 1022 1364 901 
Q 1781 781 2169 781 
Q 2563 781 2772 912 
Q 2981 1044 2981 1288 
Q 2981 1506 2839 1625 
Q 2697 1744 2272 1838 
L 1806 1941 
Q 1106 2091 782 2419 
Q 459 2747 459 3303 
Q 459 4000 909 4375 
Q 1359 4750 2203 4750 
Q 2588 4750 2994 4692 
Q 3400 4634 3834 4519 
z
" transform="scale(0.015625)"/>
      <path id="DejaVuSans-Bold-45" d="M 588 4666 
L 3834 4666 
L 3834 3756 
L 1791 3756 
L 1791 2888 
L 3713 2888 
L 3713 1978 
L 1791 1978 
L 1791 909 
L 3903 909 
L 3903 0 
L 588 0 
L 588 4666 
z
" transform="scale(0.015625)"/>
      <path id="DejaVuSans-Bold-66" d="M 2841 4863 
L 2841 4128 
L 2222 4128 
Q 1984 4128 1890 4042 
Q 1797 3956 1797 3744 
L 1797 3500 
L 2753 3500 
L 2753 2700 
L 1797 2700 
L 1797 0 
L 678 0 
L 678 2700 
L 122 2700 
L 122 3500 
L 678 3500 
L 678 3744 
Q 678 4316 997 4589 
Q 1316 4863 1984 4863 
L 2841 4863 
z
" transform="scale(0.015625)"/>
     </defs>
     <use xlink:href="#DejaVuSans-Bold-53"/>
     <use xlink:href="#DejaVuSans-Bold-65" transform="translate(72.021484 0)"/>
     <use xlink:href="#DejaVuSans-Bold-72" transform="translate(139.84375 0)"/>
     <use xlink:href="#DejaVuSans-Bold-69" transform="translate(189.160156 0)"/>
     <use xlink:href="#DejaVuSans-Bold-61" transform="translate(223.4375 0)"/>
     <use xlink:href="#DejaVuSans-Bold-6c" transform="translate(290.917969 0)"/>
     <use xlink:href="#DejaVuSans-Bold-69" transform="translate(325.195312 0)"/>
     <use xlink:href="#DejaVuSans-Bold-7a" transform="translate(359.472656 0)"/>
     <use xlink:href="#DejaVuSans-Bold-61" transform="translate(417.675781 0)"/>
     <use xlink:href="#DejaVuSans-Bold-74" transform="translate(485.15625 0)"/>
     <use xlink:href="#DejaVuSans-Bold-69" transform="translate(532.958984 0)"/>
     <use xlink:href="#DejaVuSans-Bold-6f" transform="translate(567.236328 0)"/>
     <use xlink:href="#DejaVuSans-Bold-6e" transform="translate(635.9375 0)"/>
     <use xlink:href="#DejaVuSans-Bold-20" transform="translate(707.128906 0)"/>
     <use xlink:href="#DejaVuSans-Bold-45" transform="translate(741.943359 0)"/>
     <use xlink:href="#DejaVuSans-Bold-66" transform="translate(810.253906 0)"/>
     <use xlink:href="#DejaVuSans-Bold-66" transform="translate(853.759766 0)"/>
     <use xlink:href="#DejaVuSans-Bold-69" transform="translate(897.265625 0)"/>
     <use xlink:href="#DejaVuSans-Bold-63" transform="translate(931.542969 0)"/>
     <use xlink:href="#DejaVuSans-Bold-69" transform="translate(990.820312 0)"/>
     <use xlink:href="#DejaVuSans-Bold-65" transform="translate(1025.097656 0)"/>
     <use xlink:href="#DejaVuSans-Bold-6e" transform="translate(1092.919922 0)"/>
     <use xlink:href="#DejaVuSans-Bold-63" transform="translate(1164.111328 0)"/>
     <use xlink:href="#DejaVuSans-Bold-79" transform="translate(1223.388672 0)"/>
     <use xlink:href="#DejaVuSans-Bold-20" transform="translate(1288.574219 0)"/>
     <use xlink:href="#DejaVuSans-Bold-76" transform="translate(1323.388672 0)"/>
     <use xlink:href="#DejaVuSans-Bold-73" transform="translate(1388.574219 0)"/>
     <use xlink:href="#DejaVuSans-Bold-20" transform="translate(1448.095703 0)"/>
     <use xlink:href="#DejaVuSans-Bold-4f" transform="translate(1482.910156 0)"/>
     <use xlink:href="#DejaVuSans-Bold-72" transform="translate(1567.919922 0)"/>
     <use xlink:href="#DejaVuSans-Bold-64" transform="translate(1617.236328 0)"/>
     <use xlink:href="#DejaVuSans-Bold-65" transform="translate(1688.818359 0)"/>
     <use xlink:href="#DejaVuSans-Bold-72" transform="translate(1756.640625 0)"/>
    </g>
   </g>
   <g id="legend_1">
    <g id="patch_7">
     <path d="M 733.257187 106.19625 
L 837.219687 106.19625 
Q 839.219687 106.19625 839.219687 104.19625 
L 839.219687 30.837812 
Q 839.219687 28.837812 837.219687 28.837812 
L 733.257187 28.837812 
Q 731.257187 28.837812 731.257187 30.837812 
L 731.257187 104.19625 
Q 731.257187 106.19625 733.257187 106.19625 
z
" style="fill: #ffffff; opacity: 0.8; stroke: #cccccc; stroke-linejoin: miter"/>
    </g>
    <g id="text_22">
     <!-- Dataset Size -->
     <g style="fill: #262626" transform="translate(750.662344 41.196094) scale(0.11 -0.11)">
      <defs>
       <path id="DejaVuSans-44" d="M 1259 4147 
L 1259 519 
L 2022 519 
Q 2988 519 3436 956 
Q 3884 1394 3884 2338 
Q 3884 3275 3436 3711 
Q 2988 4147 2022 4147 
L 1259 4147 
z
M 628 4666 
L 1925 4666 
Q 3281 4666 3915 4102 
Q 4550 3538 4550 2338 
Q 4550 1131 3912 565 
Q 3275 0 1925 0 
L 628 0 
L 628 4666 
z
" transform="scale(0.015625)"/>
       <path id="DejaVuSans-61" d="M 2194 1759 
Q 1497 1759 1228 1600 
Q 959 1441 959 1056 
Q 959 750 1161 570 
Q 1363 391 1709 391 
Q 2188 391 2477 730 
Q 2766 1069 2766 1631 
L 2766 1759 
L 2194 1759 
z
M 3341 1997 
L 3341 0 
L 2766 0 
L 2766 531 
Q 2569 213 2275 61 
Q 1981 -91 1556 -91 
Q 1019 -91 701 211 
Q 384 513 384 1019 
Q 384 1609 779 1909 
Q 1175 2209 1959 2209 
L 2766 2209 
L 2766 2266 
Q 2766 2663 2505 2880 
Q 2244 3097 1772 3097 
Q 1472 3097 1187 3025 
Q 903 2953 641 2809 
L 641 3341 
Q 956 3463 1253 3523 
Q 1550 3584 1831 3584 
Q 2591 3584 2966 3190 
Q 3341 2797 3341 1997 
z
" transform="scale(0.015625)"/>
       <path id="DejaVuSans-74" d="M 1172 4494 
L 1172 3500 
L 2356 3500 
L 2356 3053 
L 1172 3053 
L 1172 1153 
Q 1172 725 1289 603 
Q 1406 481 1766 481 
L 2356 481 
L 2356 0 
L 1766 0 
Q 1100 0 847 248 
Q 594 497 594 1153 
L 594 3053 
L 172 3053 
L 172 3500 
L 594 3500 
L 594 4494 
L 1172 4494 
z
" transform="scale(0.015625)"/>
       <path id="DejaVuSans-73" d="M 2834 3397 
L 2834 2853 
Q 2591 2978 2328 3040 
Q 2066 3103 1784 3103 
Q 1356 3103 1142 2972 
Q 928 2841 928 2578 
Q 928 2378 1081 2264 
Q 1234 2150 1697 2047 
L 1894 2003 
Q 2506 1872 2764 1633 
Q 3022 1394 3022 966 
Q 3022 478 2636 193 
Q 2250 -91 1575 -91 
Q 1294 -91 989 -36 
Q 684 19 347 128 
L 347 722 
Q 666 556 975 473 
Q 1284 391 1588 391 
Q 1994 391 2212 530 
Q 2431 669 2431 922 
Q 2431 1156 2273 1281 
Q 2116 1406 1581 1522 
L 1381 1569 
Q 847 1681 609 1914 
Q 372 2147 372 2553 
Q 372 3047 722 3315 
Q 1072 3584 1716 3584 
Q 2034 3584 2315 3537 
Q 2597 3491 2834 3397 
z
" transform="scale(0.015625)"/>
       <path id="DejaVuSans-65" d="M 3597 1894 
L 3597 1613 
L 953 1613 
Q 991 1019 1311 708 
Q 1631 397 2203 397 
Q 2534 397 2845 478 
Q 3156 559 3463 722 
L 3463 178 
Q 3153 47 2828 -22 
Q 2503 -91 2169 -91 
Q 1331 -91 842 396 
Q 353 884 353 1716 
Q 353 2575 817 3079 
Q 1281 3584 2069 3584 
Q 2775 3584 3186 3129 
Q 3597 2675 3597 1894 
z
M 3022 2063 
Q 3016 2534 2758 2815 
Q 2500 3097 2075 3097 
Q 1594 3097 1305 2825 
Q 1016 2553 972 2059 
L 3022 2063 
z
" transform="scale(0.015625)"/>
       <path id="DejaVuSans-20" transform="scale(0.015625)"/>
       <path id="DejaVuSans-53" d="M 3425 4513 
L 3425 3897 
Q 3066 4069 2747 4153 
Q 2428 4238 2131 4238 
Q 1616 4238 1336 4038 
Q 1056 3838 1056 3469 
Q 1056 3159 1242 3001 
Q 1428 2844 1947 2747 
L 2328 2669 
Q 3034 2534 3370 2195 
Q 3706 1856 3706 1288 
Q 3706 609 3251 259 
Q 2797 -91 1919 -91 
Q 1588 -91 1214 -16 
Q 841 59 441 206 
L 441 856 
Q 825 641 1194 531 
Q 1563 422 1919 422 
Q 2459 422 2753 634 
Q 3047 847 3047 1241 
Q 3047 1584 2836 1778 
Q 2625 1972 2144 2069 
L 1759 2144 
Q 1053 2284 737 2584 
Q 422 2884 422 3419 
Q 422 4038 858 4394 
Q 1294 4750 2059 4750 
Q 2388 4750 2728 4690 
Q 3069 4631 3425 4513 
z
" transform="scale(0.015625)"/>
       <path id="DejaVuSans-69" d="M 603 3500 
L 1178 3500 
L 1178 0 
L 603 0 
L 603 3500 
z
M 603 4863 
L 1178 4863 
L 1178 4134 
L 603 4134 
L 603 4863 
z
" transform="scale(0.015625)"/>
       <path id="DejaVuSans-7a" d="M 353 3500 
L 3084 3500 
L 3084 2975 
L 922 459 
L 3084 459 
L 3084 0 
L 275 0 
L 275 525 
L 2438 3041 
L 353 3041 
L 353 3500 
z
" transform="scale(0.015625)"/>
      </defs>
      <use xlink:href="#DejaVuSans-44"/>
      <use xlink:href="#DejaVuSans-61" transform="translate(77.001953 0)"/>
      <use xlink:href="#DejaVuSans-74" transform="translate(138.28125 0)"/>
      <use xlink:href="#DejaVuSans-61" transform="translate(177.490234 0)"/>
      <use xlink:href="#DejaVuSans-73" transform="translate(238.769531 0)"/>
      <use xlink:href="#DejaVuSans-65" transform="translate(290.869141 0)"/>
      <use xlink:href="#DejaVuSans-74" transform="translate(352.392578 0)"/>
      <use xlink:href="#DejaVuSans-20" transform="translate(391.601562 0)"/>
      <use xlink:href="#DejaVuSans-53" transform="translate(423.388672 0)"/>
      <use xlink:href="#DejaVuSans-69" transform="translate(486.865234 0)"/>
      <use xlink:href="#DejaVuSans-7a" transform="translate(514.648438 0)"/>
      <use xlink:href="#DejaVuSans-65" transform="translate(567.138672 0)"/>
     </g>
    </g>
    <g id="line2d_23">
     <path d="M 735.257187 52.582187 
L 745.257187 52.582187 
L 755.257187 52.582187 
" style="fill: none; stroke: #4c72b0; stroke-width: 2; stroke-linecap: round"/>
     <g>
      <use xlink:href="#m940b6115e8" x="745.257187" y="52.582187" style="fill: #4c72b0; stroke: #4c72b0"/>
     </g>
    </g>
    <g id="text_23">
     <!-- 100 intervals -->
     <g style="fill: #262626" transform="translate(763.257187 56.082187) scale(0.1 -0.1)">
      <defs>
       <path id="DejaVuSans-6e" d="M 3513 2113 
L 3513 0 
L 2938 0 
L 2938 2094 
Q 2938 2591 2744 2837 
Q 2550 3084 2163 3084 
Q 1697 3084 1428 2787 
Q 1159 2491 1159 1978 
L 1159 0 
L 581 0 
L 581 3500 
L 1159 3500 
L 1159 2956 
Q 1366 3272 1645 3428 
Q 1925 3584 2291 3584 
Q 2894 3584 3203 3211 
Q 3513 2838 3513 2113 
z
" transform="scale(0.015625)"/>
       <path id="DejaVuSans-72" d="M 2631 2963 
Q 2534 3019 2420 3045 
Q 2306 3072 2169 3072 
Q 1681 3072 1420 2755 
Q 1159 2438 1159 1844 
L 1159 0 
L 581 0 
L 581 3500 
L 1159 3500 
L 1159 2956 
Q 1341 3275 1631 3429 
Q 1922 3584 2338 3584 
Q 2397 3584 2469 3576 
Q 2541 3569 2628 3553 
L 2631 2963 
z
" transform="scale(0.015625)"/>
       <path id="DejaVuSans-76" d="M 191 3500 
L 800 3500 
L 1894 563 
L 2988 3500 
L 3597 3500 
L 2284 0 
L 1503 0 
L 191 3500 
z
" transform="scale(0.015625)"/>
       <path id="DejaVuSans-6c" d="M 603 4863 
L 1178 4863 
L 1178 0 
L 603 0 
L 603 4863 
z
" transform="scale(0.015625)"/>
      </defs>
      <use xlink:href="#DejaVuSans-31"/>
      <use xlink:href="#DejaVuSans-30" transform="translate(63.623047 0)"/>
      <use xlink:href="#DejaVuSans-30" transform="translate(127.246094 0)"/>
      <use xlink:href="#DejaVuSans-20" transform="translate(190.869141 0)"/>
      <use xlink:href="#DejaVuSans-69" transform="translate(222.65625 0)"/>
      <use xlink:href="#DejaVuSans-6e" transform="translate(250.439453 0)"/>
      <use xlink:href="#DejaVuSans-74" transform="translate(313.818359 0)"/>
      <use xlink:href="#DejaVuSans-65" transform="translate(353.027344 0)"/>
      <use xlink:href="#DejaVuSans-72" transform="translate(414.550781 0)"/>
      <use xlink:href="#DejaVuSans-76" transform="translate(455.664062 0)"/>
      <use xlink:href="#DejaVuSans-61" transform="translate(514.84375 0)"/>
      <use xlink:href="#DejaVuSans-6c" transform="translate(576.123047 0)"/>
      <use xlink:href="#DejaVuSans-73" transform="translate(603.90625 0)"/>
     </g>
    </g>
    <g id="line2d_24">
     <path d="M 735.257187 67.260312 
L 745.257187 67.260312 
L 755.257187 67.260312 
" style="fill: none; stroke: #dd8452; stroke-width: 2; stroke-linecap: round"/>
     <g>
      <use xlink:href="#m380ee1527d" x="745.257187" y="67.260312" style="fill: #dd8452; stroke: #dd8452"/>
     </g>
    </g>
    <g id="text_24">
     <!-- 500 intervals -->
     <g style="fill: #262626" transform="translate(763.257187 70.760312) scale(0.1 -0.1)">
      <use xlink:href="#DejaVuSans-35"/>
      <use xlink:href="#DejaVuSans-30" transform="translate(63.623047 0)"/>
      <use xlink:href="#DejaVuSans-30" transform="translate(127.246094 0)"/>
      <use xlink:href="#DejaVuSans-20" transform="translate(190.869141 0)"/>
      <use xlink:href="#DejaVuSans-69" transform="translate(222.65625 0)"/>
      <use xlink:href="#DejaVuSans-6e" transform="translate(250.439453 0)"/>
      <use xlink:href="#DejaVuSans-74" transform="translate(313.818359 0)"/>
      <use xlink:href="#DejaVuSans-65" transform="translate(353.027344 0)"/>
      <use xlink:href="#DejaVuSans-72" transform="translate(414.550781 0)"/>
      <use xlink:href="#DejaVuSans-76" transform="translate(455.664062 0)"/>
      <use xlink:href="#DejaVuSans-61" transform="translate(514.84375 0)"/>
      <use xlink:href="#DejaVuSans-6c" transform="translate(576.123047 0)"/>
      <use xlink:href="#DejaVuSans-73" transform="translate(603.90625 0)"/>
     </g>
    </g>
    <g id="line2d_25">
     <path d="M 735.257187 81.938437 
L 745.257187 81.938437 
L 755.257187 81.938437 
" style="fill: none; stroke: #55a868; stroke-width: 2; stroke-linecap: round"/>
     <g>
      <use xlink:href="#mb846755f04" x="745.257187" y="81.938437" style="fill: #55a868; stroke: #55a868"/>
     </g>
    </g>
    <g id="text_25">
     <!-- 1000 intervals -->
     <g style="fill: #262626" transform="translate(763.257187 85.438437) scale(0.1 -0.1)">
      <use xlink:href="#DejaVuSans-31"/>
      <use xlink:href="#DejaVuSans-30" transform="translate(63.623047 0)"/>
      <use xlink:href="#DejaVuSans-30" transform="translate(127.246094 0)"/>
      <use xlink:href="#DejaVuSans-30" transform="translate(190.869141 0)"/>
      <use xlink:href="#DejaVuSans-20" transform="translate(254.492188 0)"/>
      <use xlink:href="#DejaVuSans-69" transform="translate(286.279297 0)"/>
      <use xlink:href="#DejaVuSans-6e" transform="translate(314.0625 0)"/>
      <use xlink:href="#DejaVuSans-74" transform="translate(377.441406 0)"/>
      <use xlink:href="#DejaVuSans-65" transform="translate(416.650391 0)"/>
      <use xlink:href="#DejaVuSans-72" transform="translate(478.173828 0)"/>
      <use xlink:href="#DejaVuSans-76" transform="translate(519.287109 0)"/>
      <use xlink:href="#DejaVuSans-61" transform="translate(578.466797 0)"/>
      <use xlink:href="#DejaVuSans-6c" transform="translate(639.746094 0)"/>
      <use xlink:href="#DejaVuSans-73" transform="translate(667.529297 0)"/>
     </g>
    </g>
    <g id="line2d_26">
     <path d="M 735.257187 96.616562 
L 745.257187 96.616562 
L 755.257187 96.616562 
" style="fill: none; stroke: #c44e52; stroke-width: 2; stroke-linecap: round"/>
     <g>
      <use xlink:href="#m6ff46736b7" x="745.257187" y="96.616562" style="fill: #c44e52; stroke: #c44e52"/>
     </g>
    </g>
    <g id="text_26">
     <!-- 5000 intervals -->
     <g style="fill: #262626" transform="translate(763.257187 100.116562) scale(0.1 -0.1)">
      <use xlink:href="#DejaVuSans-35"/>
      <use xlink:href="#DejaVuSans-30" transform="translate(63.623047 0)"/>
      <use xlink:href="#DejaVuSans-30" transform="translate(127.246094 0)"/>
      <use xlink:href="#DejaVuSans-30" transform="translate(190.869141 0)"/>
      <use xlink:href="#DejaVuSans-20" transform="translate(254.492188 0)"/>
      <use xlink:href="#DejaVuSans-69" transform="translate(286.279297 0)"/>
      <use xlink:href="#DejaVuSans-6e" transform="translate(314.0625 0)"/>
      <use xlink:href="#DejaVuSans-74" transform="translate(377.441406 0)"/>
      <use xlink:href="#DejaVuSans-65" transform="translate(416.650391 0)"/>
      <use xlink:href="#DejaVuSans-72" transform="translate(478.173828 0)"/>
      <use xlink:href="#DejaVuSans-76" transform="translate(519.287109 0)"/>
      <use xlink:href="#DejaVuSans-61" transform="translate(578.466797 0)"/>
      <use xlink:href="#DejaVuSans-6c" transform="translate(639.746094 0)"/>
      <use xlink:href="#DejaVuSans-73" transform="translate(667.529297 0)"/>
     </g>
    </g>
   </g>
  </g>
 </g>
 <defs>
  <clipPath id="pafe0789693">
   <rect x="56.899688" y="23.837812" width="787.32" height="496.02"/>
  </clipPath>
 </defs>
</svg>
