<?xml version="1.0" encoding="utf-8" standalone="no"?>
<!DOCTYPE svg PUBLIC "-//W3C//DTD SVG 1.1//EN"
  "http://www.w3.org/Graphics/SVG/1.1/DTD/svg11.dtd">
<svg xmlns:xlink="http://www.w3.org/1999/xlink" width="851.18125pt" height="562.8175pt" viewBox="0 0 851.18125 562.8175" xmlns="http://www.w3.org/2000/svg" version="1.1">
 <metadata>
  <rdf:RDF xmlns:dc="http://purl.org/dc/elements/1.1/" xmlns:cc="http://creativecommons.org/ns#" xmlns:rdf="http://www.w3.org/1999/02/22-rdf-syntax-ns#">
   <cc:Work>
    <dc:type rdf:resource="http://purl.org/dc/dcmitype/StillImage"/>
    <dc:date>2026-05-19T18:08:08.436641</dc:date>
    <dc:format>image/svg+xml</dc:format>
    <dc:creator>
     <cc:Agent>
      <dc:title>Matplotlib v3.10.9, https://matplotlib.org/</dc:title>
     </cc:Agent>
    </dc:creator>
   </cc:Work>
  </rdf:RDF>
 </metadata>
 <defs>
  <style type="text/css">*{stroke-linejoin: round; stroke-linecap: butt}</style>
 </defs>
 <g id="figure_1">
  <g id="patch_1">
   <path d="M 0 562.8175 
L 851.18125 562.8175 
L 851.18125 0 
L 0 0 
z
" style="fill: #ffffff"/>
  </g>
  <g id="axes_1">
   <g id="patch_2">
    <path d="M 46.31125 519.857813 
L 843.98125 519.857813 
L 843.98125 23.837812 
L 46.31125 23.837812 
z
" style="fill: #ffffff"/>
   </g>
   <g id="matplotlib.axis_1">
    <g id="xtick_1">
     <g id="line2d_1">
      <path d="M 67.769905 519.857813 
L 67.769905 23.837812 
" clip-path="url(#p5fab2ec257)" style="fill: none; stroke: #cccccc; stroke-opacity: 0.3; stroke-linecap: round"/>
     </g>
     <g id="text_1">
      <!-- 0 -->
      <g style="fill: #262626" transform="translate(64.27053 537.716094) scale(0.11 -0.11)">
       <defs>
        <path id="DejaVuSans-30" d="M 2034 4250 
Q 1547 4250 1301 3770 
Q 1056 3291 1056 2328 
Q 1056 1369 1301 889 
Q 1547 409 2034 409 
Q 2525 409 2770 889 
Q 3016 1369 3016 2328 
Q 3016 3291 2770 3770 
Q 2525 4250 2034 4250 
z
M 2034 4750 
Q 2819 4750 3233 4129 
Q 3647 3509 3647 2328 
Q 3647 1150 3233 529 
Q 2819 -91 2034 -91 
Q 1250 -91 836 529 
Q 422 1150 422 2328 
Q 422 3509 836 4129 
Q 1250 4750 2034 4750 
z
" transform="scale(0.015625)"/>
       </defs>
       <use xlink:href="#DejaVuSans-30"/>
      </g>
     </g>
    </g>
    <g id="xtick_2">
     <g id="line2d_2">
      <path d="M 215.760628 519.857813 
L 215.760628 23.837812 
" clip-path="url(#p5fab2ec257)" style="fill: none; stroke: #cccccc; stroke-opacity: 0.3; stroke-linecap: round"/>
     </g>
     <g id="text_2">
      <!-- 1000 -->
      <g style="fill: #262626" transform="translate(201.763128 537.716094) scale(0.11 -0.11)">
       <defs>
        <path id="DejaVuSans-31" d="M 794 531 
L 1825 531 
L 1825 4091 
L 703 3866 
L 703 4441 
L 1819 4666 
L 2450 4666 
L 2450 531 
L 3481 531 
L 3481 0 
L 794 0 
L 794 531 
z
" transform="scale(0.015625)"/>
       </defs>
       <use xlink:href="#DejaVuSans-31"/>
       <use xlink:href="#DejaVuSans-30" transform="translate(63.623047 0)"/>
       <use xlink:href="#DejaVuSans-30" transform="translate(127.246094 0)"/>
       <use xlink:href="#DejaVuSans-30" transform="translate(190.869141 0)"/>
      </g>
     </g>
    </g>
    <g id="xtick_3">
     <g id="line2d_3">
      <path d="M 363.751352 519.857813 
L 363.751352 23.837812 
" clip-path="url(#p5fab2ec257)" style="fill: none; stroke: #cccccc; stroke-opacity: 0.3; stroke-linecap: round"/>
     </g>
     <g id="text_3">
      <!-- 2000 -->
      <g style="fill: #262626" transform="translate(349.753852 537.716094) scale(0.11 -0.11)">
       <defs>
        <path id="DejaVuSans-32" d="M 1228 531 
L 3431 531 
L 3431 0 
L 469 0 
L 469 531 
Q 828 903 1448 1529 
Q 2069 2156 2228 2338 
Q 2531 2678 2651 2914 
Q 2772 3150 2772 3378 
Q 2772 3750 2511 3984 
Q 2250 4219 1831 4219 
Q 1534 4219 1204 4116 
Q 875 4013 500 3803 
L 500 4441 
Q 881 4594 1212 4672 
Q 1544 4750 1819 4750 
Q 2544 4750 2975 4387 
Q 3406 4025 3406 3419 
Q 3406 3131 3298 2873 
Q 3191 2616 2906 2266 
Q 2828 2175 2409 1742 
Q 1991 1309 1228 531 
z
" transform="scale(0.015625)"/>
       </defs>
       <use xlink:href="#DejaVuSans-32"/>
       <use xlink:href="#DejaVuSans-30" transform="translate(63.623047 0)"/>
       <use xlink:href="#DejaVuSans-30" transform="translate(127.246094 0)"/>
       <use xlink:href="#DejaVuSans-30" transform="translate(190.869141 0)"/>
      </g>
     </g>
    </g>
    <g id="xtick_4">
     <g id="line2d_4">
      <path d="M 511.742076 519.857813 
L 511.742076 23.837812 
" clip-path="url(#p5fab2ec257)" style="fill: none; stroke: #cccccc; stroke-opacity: 0.3; stroke-linecap: round"/>
     </g>
     <g id="text_4">
      <!-- 3000 -->
      <g style="fill: #262626" transform="translate(497.744576 537.716094) scale(0.11 -0.11)">
       <defs>
        <path id="DejaVuSans-33" d="M 2597 2516 
Q 3050 2419 3304 2112 
Q 3559 1806 3559 1356 
Q 3559 666 3084 287 
Q 2609 -91 1734 -91 
Q 1441 -91 1130 -33 
Q 819 25 488 141 
L 488 750 
Q 750 597 1062 519 
Q 1375 441 1716 441 
Q 2309 441 2620 675 
Q 2931 909 2931 1356 
Q 2931 1769 2642 2001 
Q 2353 2234 1838 2234 
L 1294 2234 
L 1294 2753 
L 1863 2753 
Q 2328 2753 2575 2939 
Q 2822 3125 2822 3475 
Q 2822 3834 2567 4026 
Q 2313 4219 1838 4219 
Q 1578 4219 1281 4162 
Q 984 4106 628 3988 
L 628 4550 
Q 988 4650 1302 4700 
Q 1616 4750 1894 4750 
Q 2613 4750 3031 4423 
Q 3450 4097 3450 3541 
Q 3450 3153 3228 2886 
Q 3006 2619 2597 2516 
z
" transform="scale(0.015625)"/>
       </defs>
       <use xlink:href="#DejaVuSans-33"/>
       <use xlink:href="#DejaVuSans-30" transform="translate(63.623047 0)"/>
       <use xlink:href="#DejaVuSans-30" transform="translate(127.246094 0)"/>
       <use xlink:href="#DejaVuSans-30" transform="translate(190.869141 0)"/>
      </g>
     </g>
    </g>
    <g id="xtick_5">
     <g id="line2d_5">
      <path d="M 659.732799 519.857813 
L 659.732799 23.837812 
" clip-path="url(#p5fab2ec257)" style="fill: none; stroke: #cccccc; stroke-opacity: 0.3; stroke-linecap: round"/>
     </g>
     <g id="text_5">
      <!-- 4000 -->
      <g style="fill: #262626" transform="translate(645.735299 537.716094) scale(0.11 -0.11)">
       <defs>
        <path id="DejaVuSans-34" d="M 2419 4116 
L 825 1625 
L 2419 1625 
L 2419 4116 
z
M 2253 4666 
L 3047 4666 
L 3047 1625 
L 3713 1625 
L 3713 1100 
L 3047 1100 
L 3047 0 
L 2419 0 
L 2419 1100 
L 313 1100 
L 313 1709 
L 2253 4666 
z
" transform="scale(0.015625)"/>
       </defs>
       <use xlink:href="#DejaVuSans-34"/>
       <use xlink:href="#DejaVuSans-30" transform="translate(63.623047 0)"/>
       <use xlink:href="#DejaVuSans-30" transform="translate(127.246094 0)"/>
       <use xlink:href="#DejaVuSans-30" transform="translate(190.869141 0)"/>
      </g>
     </g>
    </g>
    <g id="xtick_6">
     <g id="line2d_6">
      <path d="M 807.723523 519.857813 
L 807.723523 23.837812 
" clip-path="url(#p5fab2ec257)" style="fill: none; stroke: #cccccc; stroke-opacity: 0.3; stroke-linecap: round"/>
     </g>
     <g id="text_6">
      <!-- 5000 -->
      <g style="fill: #262626" transform="translate(793.726023 537.716094) scale(0.11 -0.11)">
       <defs>
        <path id="DejaVuSans-35" d="M 691 4666 
L 3169 4666 
L 3169 4134 
L 1269 4134 
L 1269 2991 
Q 1406 3038 1543 3061 
Q 1681 3084 1819 3084 
Q 2600 3084 3056 2656 
Q 3513 2228 3513 1497 
Q 3513 744 3044 326 
Q 2575 -91 1722 -91 
Q 1428 -91 1123 -41 
Q 819 9 494 109 
L 494 744 
Q 775 591 1075 516 
Q 1375 441 1709 441 
Q 2250 441 2565 725 
Q 2881 1009 2881 1497 
Q 2881 1984 2565 2268 
Q 2250 2553 1709 2553 
Q 1456 2553 1204 2497 
Q 953 2441 691 2322 
L 691 4666 
z
" transform="scale(0.015625)"/>
       </defs>
       <use xlink:href="#DejaVuSans-35"/>
       <use xlink:href="#DejaVuSans-30" transform="translate(63.623047 0)"/>
       <use xlink:href="#DejaVuSans-30" transform="translate(127.246094 0)"/>
       <use xlink:href="#DejaVuSans-30" transform="translate(190.869141 0)"/>
      </g>
     </g>
    </g>
    <g id="text_7">
     <!-- Dataset Size (# intervals) -->
     <g style="fill: #262626" transform="translate(358.160313 553.121875) scale(0.12 -0.12)">
      <defs>
       <path id="DejaVuSans-Bold-44" d="M 1791 3756 
L 1791 909 
L 2222 909 
Q 2959 909 3348 1275 
Q 3738 1641 3738 2338 
Q 3738 3031 3350 3393 
Q 2963 3756 2222 3756 
L 1791 3756 
z
M 588 4666 
L 1856 4666 
Q 2919 4666 3439 4514 
Q 3959 4363 4331 4000 
Q 4659 3684 4818 3271 
Q 4978 2859 4978 2338 
Q 4978 1809 4818 1395 
Q 4659 981 4331 666 
Q 3956 303 3431 151 
Q 2906 0 1856 0 
L 588 0 
L 588 4666 
z
" transform="scale(0.015625)"/>
       <path id="DejaVuSans-Bold-61" d="M 2106 1575 
Q 1756 1575 1579 1456 
Q 1403 1338 1403 1106 
Q 1403 894 1545 773 
Q 1688 653 1941 653 
Q 2256 653 2472 879 
Q 2688 1106 2688 1447 
L 2688 1575 
L 2106 1575 
z
M 3816 1997 
L 3816 0 
L 2688 0 
L 2688 519 
Q 2463 200 2181 54 
Q 1900 -91 1497 -91 
Q 953 -91 614 226 
Q 275 544 275 1050 
Q 275 1666 698 1953 
Q 1122 2241 2028 2241 
L 2688 2241 
L 2688 2328 
Q 2688 2594 2478 2717 
Q 2269 2841 1825 2841 
Q 1466 2841 1156 2769 
Q 847 2697 581 2553 
L 581 3406 
Q 941 3494 1303 3539 
Q 1666 3584 2028 3584 
Q 2975 3584 3395 3211 
Q 3816 2838 3816 1997 
z
" transform="scale(0.015625)"/>
       <path id="DejaVuSans-Bold-74" d="M 1759 4494 
L 1759 3500 
L 2913 3500 
L 2913 2700 
L 1759 2700 
L 1759 1216 
Q 1759 972 1856 886 
Q 1953 800 2241 800 
L 2816 800 
L 2816 0 
L 1856 0 
Q 1194 0 917 276 
Q 641 553 641 1216 
L 641 2700 
L 84 2700 
L 84 3500 
L 641 3500 
L 641 4494 
L 1759 4494 
z
" transform="scale(0.015625)"/>
       <path id="DejaVuSans-Bold-73" d="M 3272 3391 
L 3272 2541 
Q 2913 2691 2578 2766 
Q 2244 2841 1947 2841 
Q 1628 2841 1473 2761 
Q 1319 2681 1319 2516 
Q 1319 2381 1436 2309 
Q 1553 2238 1856 2203 
L 2053 2175 
Q 2913 2066 3209 1816 
Q 3506 1566 3506 1031 
Q 3506 472 3093 190 
Q 2681 -91 1863 -91 
Q 1516 -91 1145 -36 
Q 775 19 384 128 
L 384 978 
Q 719 816 1070 734 
Q 1422 653 1784 653 
Q 2113 653 2278 743 
Q 2444 834 2444 1013 
Q 2444 1163 2330 1236 
Q 2216 1309 1875 1350 
L 1678 1375 
Q 931 1469 631 1722 
Q 331 1975 331 2491 
Q 331 3047 712 3315 
Q 1094 3584 1881 3584 
Q 2191 3584 2531 3537 
Q 2872 3491 3272 3391 
z
" transform="scale(0.015625)"/>
       <path id="DejaVuSans-Bold-65" d="M 4031 1759 
L 4031 1441 
L 1416 1441 
Q 1456 1047 1700 850 
Q 1944 653 2381 653 
Q 2734 653 3104 758 
Q 3475 863 3866 1075 
L 3866 213 
Q 3469 63 3072 -14 
Q 2675 -91 2278 -91 
Q 1328 -91 801 392 
Q 275 875 275 1747 
Q 275 2603 792 3093 
Q 1309 3584 2216 3584 
Q 3041 3584 3536 3087 
Q 4031 2591 4031 1759 
z
M 2881 2131 
Q 2881 2450 2695 2645 
Q 2509 2841 2209 2841 
Q 1884 2841 1681 2658 
Q 1478 2475 1428 2131 
L 2881 2131 
z
" transform="scale(0.015625)"/>
       <path id="DejaVuSans-Bold-20" transform="scale(0.015625)"/>
       <path id="DejaVuSans-Bold-53" d="M 3834 4519 
L 3834 3531 
Q 3450 3703 3084 3790 
Q 2719 3878 2394 3878 
Q 1963 3878 1756 3759 
Q 1550 3641 1550 3391 
Q 1550 3203 1689 3098 
Q 1828 2994 2194 2919 
L 2706 2816 
Q 3484 2659 3812 2340 
Q 4141 2022 4141 1434 
Q 4141 663 3683 286 
Q 3225 -91 2284 -91 
Q 1841 -91 1394 -6 
Q 947 78 500 244 
L 500 1259 
Q 947 1022 1364 901 
Q 1781 781 2169 781 
Q 2563 781 2772 912 
Q 2981 1044 2981 1288 
Q 2981 1506 2839 1625 
Q 2697 1744 2272 1838 
L 1806 1941 
Q 1106 2091 782 2419 
Q 459 2747 459 3303 
Q 459 4000 909 4375 
Q 1359 4750 2203 4750 
Q 2588 4750 2994 4692 
Q 3400 4634 3834 4519 
z
" transform="scale(0.015625)"/>
       <path id="DejaVuSans-Bold-69" d="M 538 3500 
L 1656 3500 
L 1656 0 
L 538 0 
L 538 3500 
z
M 538 4863 
L 1656 4863 
L 1656 3950 
L 538 3950 
L 538 4863 
z
" transform="scale(0.015625)"/>
       <path id="DejaVuSans-Bold-7a" d="M 366 3500 
L 3419 3500 
L 3419 2719 
L 1575 800 
L 3419 800 
L 3419 0 
L 288 0 
L 288 781 
L 2131 2700 
L 366 2700 
L 366 3500 
z
" transform="scale(0.015625)"/>
       <path id="DejaVuSans-Bold-28" d="M 2413 -844 
L 1484 -844 
Q 1006 -72 778 623 
Q 550 1319 550 2003 
Q 550 2688 779 3389 
Q 1009 4091 1484 4856 
L 2413 4856 
Q 2013 4116 1813 3408 
Q 1613 2700 1613 2009 
Q 1613 1319 1811 609 
Q 2009 -100 2413 -844 
z
" transform="scale(0.015625)"/>
       <path id="DejaVuSans-Bold-23" d="M 2847 4594 
L 2547 3391 
L 3372 3391 
L 3675 4594 
L 4366 4594 
L 4063 3391 
L 4928 3391 
L 4928 2725 
L 3897 2725 
L 3681 1869 
L 4569 1869 
L 4569 1197 
L 3519 1197 
L 3219 0 
L 2528 0 
L 2828 1197 
L 2003 1197 
L 1703 0 
L 1006 0 
L 1306 1197 
L 434 1197 
L 434 1869 
L 1459 1869 
L 1678 2725 
L 794 2725 
L 794 3391 
L 1850 3391 
L 2150 4594 
L 2847 4594 
z
M 3200 2725 
L 2375 2725 
L 2156 1869 
L 2981 1869 
L 3200 2725 
z
" transform="scale(0.015625)"/>
       <path id="DejaVuSans-Bold-6e" d="M 4056 2131 
L 4056 0 
L 2931 0 
L 2931 347 
L 2931 1631 
Q 2931 2084 2911 2256 
Q 2891 2428 2841 2509 
Q 2775 2619 2662 2680 
Q 2550 2741 2406 2741 
Q 2056 2741 1856 2470 
Q 1656 2200 1656 1722 
L 1656 0 
L 538 0 
L 538 3500 
L 1656 3500 
L 1656 2988 
Q 1909 3294 2193 3439 
Q 2478 3584 2822 3584 
Q 3428 3584 3742 3212 
Q 4056 2841 4056 2131 
z
" transform="scale(0.015625)"/>
       <path id="DejaVuSans-Bold-72" d="M 3138 2547 
Q 2991 2616 2845 2648 
Q 2700 2681 2553 2681 
Q 2122 2681 1889 2404 
Q 1656 2128 1656 1613 
L 1656 0 
L 538 0 
L 538 3500 
L 1656 3500 
L 1656 2925 
Q 1872 3269 2151 3426 
Q 2431 3584 2822 3584 
Q 2878 3584 2943 3579 
Q 3009 3575 3134 3559 
L 3138 2547 
z
" transform="scale(0.015625)"/>
       <path id="DejaVuSans-Bold-76" d="M 97 3500 
L 1216 3500 
L 2088 1081 
L 2956 3500 
L 4078 3500 
L 2700 0 
L 1472 0 
L 97 3500 
z
" transform="scale(0.015625)"/>
       <path id="DejaVuSans-Bold-6c" d="M 538 4863 
L 1656 4863 
L 1656 0 
L 538 0 
L 538 4863 
z
" transform="scale(0.015625)"/>
       <path id="DejaVuSans-Bold-29" d="M 513 -844 
Q 913 -100 1113 609 
Q 1313 1319 1313 2009 
Q 1313 2700 1113 3408 
Q 913 4116 513 4856 
L 1441 4856 
Q 1916 4091 2145 3389 
Q 2375 2688 2375 2003 
Q 2375 1319 2147 623 
Q 1919 -72 1441 -844 
L 513 -844 
z
" transform="scale(0.015625)"/>
      </defs>
      <use xlink:href="#DejaVuSans-Bold-44"/>
      <use xlink:href="#DejaVuSans-Bold-61" transform="translate(83.007812 0)"/>
      <use xlink:href="#DejaVuSans-Bold-74" transform="translate(150.488281 0)"/>
      <use xlink:href="#DejaVuSans-Bold-61" transform="translate(198.291016 0)"/>
      <use xlink:href="#DejaVuSans-Bold-73" transform="translate(265.771484 0)"/>
      <use xlink:href="#DejaVuSans-Bold-65" transform="translate(325.292969 0)"/>
      <use xlink:href="#DejaVuSans-Bold-74" transform="translate(393.115234 0)"/>
      <use xlink:href="#DejaVuSans-Bold-20" transform="translate(440.917969 0)"/>
      <use xlink:href="#DejaVuSans-Bold-53" transform="translate(475.732422 0)"/>
      <use xlink:href="#DejaVuSans-Bold-69" transform="translate(547.753906 0)"/>
      <use xlink:href="#DejaVuSans-Bold-7a" transform="translate(582.03125 0)"/>
      <use xlink:href="#DejaVuSans-Bold-65" transform="translate(640.234375 0)"/>
      <use xlink:href="#DejaVuSans-Bold-20" transform="translate(708.056641 0)"/>
      <use xlink:href="#DejaVuSans-Bold-28" transform="translate(742.871094 0)"/>
      <use xlink:href="#DejaVuSans-Bold-23" transform="translate(788.574219 0)"/>
      <use xlink:href="#DejaVuSans-Bold-20" transform="translate(872.363281 0)"/>
      <use xlink:href="#DejaVuSans-Bold-69" transform="translate(907.177734 0)"/>
      <use xlink:href="#DejaVuSans-Bold-6e" transform="translate(941.455078 0)"/>
      <use xlink:href="#DejaVuSans-Bold-74" transform="translate(1012.646484 0)"/>
      <use xlink:href="#DejaVuSans-Bold-65" transform="translate(1060.449219 0)"/>
      <use xlink:href="#DejaVuSans-Bold-72" transform="translate(1128.271484 0)"/>
      <use xlink:href="#DejaVuSans-Bold-76" transform="translate(1177.587891 0)"/>
      <use xlink:href="#DejaVuSans-Bold-61" transform="translate(1242.773438 0)"/>
      <use xlink:href="#DejaVuSans-Bold-6c" transform="translate(1310.253906 0)"/>
      <use xlink:href="#DejaVuSans-Bold-73" transform="translate(1344.53125 0)"/>
      <use xlink:href="#DejaVuSans-Bold-29" transform="translate(1404.052734 0)"/>
     </g>
    </g>
   </g>
   <g id="matplotlib.axis_2">
    <g id="ytick_1">
     <g id="line2d_7">
      <path d="M 46.31125 504.453376 
L 843.98125 504.453376 
" clip-path="url(#p5fab2ec257)" style="fill: none; stroke: #cccccc; stroke-opacity: 0.3; stroke-linecap: round"/>
     </g>
     <g id="text_8">
      <!-- 0 -->
      <g style="fill: #262626" transform="translate(29.8125 508.632517) scale(0.11 -0.11)">
       <use xlink:href="#DejaVuSans-30"/>
      </g>
     </g>
    </g>
    <g id="ytick_2">
     <g id="line2d_8">
      <path d="M 46.31125 448.369529 
L 843.98125 448.369529 
" clip-path="url(#p5fab2ec257)" style="fill: none; stroke: #cccccc; stroke-opacity: 0.3; stroke-linecap: round"/>
     </g>
     <g id="text_9">
      <!-- 5 -->
      <g style="fill: #262626" transform="translate(29.8125 452.54867) scale(0.11 -0.11)">
       <use xlink:href="#DejaVuSans-35"/>
      </g>
     </g>
    </g>
    <g id="ytick_3">
     <g id="line2d_9">
      <path d="M 46.31125 392.285683 
L 843.98125 392.285683 
" clip-path="url(#p5fab2ec257)" style="fill: none; stroke: #cccccc; stroke-opacity: 0.3; stroke-linecap: round"/>
     </g>
     <g id="text_10">
      <!-- 10 -->
      <g style="fill: #262626" transform="translate(22.81375 396.464823) scale(0.11 -0.11)">
       <use xlink:href="#DejaVuSans-31"/>
       <use xlink:href="#DejaVuSans-30" transform="translate(63.623047 0)"/>
      </g>
     </g>
    </g>
    <g id="ytick_4">
     <g id="line2d_10">
      <path d="M 46.31125 336.201836 
L 843.98125 336.201836 
" clip-path="url(#p5fab2ec257)" style="fill: none; stroke: #cccccc; stroke-opacity: 0.3; stroke-linecap: round"/>
     </g>
     <g id="text_11">
      <!-- 15 -->
      <g style="fill: #262626" transform="translate(22.81375 340.380977) scale(0.11 -0.11)">
       <use xlink:href="#DejaVuSans-31"/>
       <use xlink:href="#DejaVuSans-35" transform="translate(63.623047 0)"/>
      </g>
     </g>
    </g>
    <g id="ytick_5">
     <g id="line2d_11">
      <path d="M 46.31125 280.117989 
L 843.98125 280.117989 
" clip-path="url(#p5fab2ec257)" style="fill: none; stroke: #cccccc; stroke-opacity: 0.3; stroke-linecap: round"/>
     </g>
     <g id="text_12">
      <!-- 20 -->
      <g style="fill: #262626" transform="translate(22.81375 284.29713) scale(0.11 -0.11)">
       <use xlink:href="#DejaVuSans-32"/>
       <use xlink:href="#DejaVuSans-30" transform="translate(63.623047 0)"/>
      </g>
     </g>
    </g>
    <g id="ytick_6">
     <g id="line2d_12">
      <path d="M 46.31125 224.034142 
L 843.98125 224.034142 
" clip-path="url(#p5fab2ec257)" style="fill: none; stroke: #cccccc; stroke-opacity: 0.3; stroke-linecap: round"/>
     </g>
     <g id="text_13">
      <!-- 25 -->
      <g style="fill: #262626" transform="translate(22.81375 228.213283) scale(0.11 -0.11)">
       <use xlink:href="#DejaVuSans-32"/>
       <use xlink:href="#DejaVuSans-35" transform="translate(63.623047 0)"/>
      </g>
     </g>
    </g>
    <g id="ytick_7">
     <g id="line2d_13">
      <path d="M 46.31125 167.950296 
L 843.98125 167.950296 
" clip-path="url(#p5fab2ec257)" style="fill: none; stroke: #cccccc; stroke-opacity: 0.3; stroke-linecap: round"/>
     </g>
     <g id="text_14">
      <!-- 30 -->
      <g style="fill: #262626" transform="translate(22.81375 172.129436) scale(0.11 -0.11)">
       <use xlink:href="#DejaVuSans-33"/>
       <use xlink:href="#DejaVuSans-30" transform="translate(63.623047 0)"/>
      </g>
     </g>
    </g>
    <g id="ytick_8">
     <g id="line2d_14">
      <path d="M 46.31125 111.866449 
L 843.98125 111.866449 
" clip-path="url(#p5fab2ec257)" style="fill: none; stroke: #cccccc; stroke-opacity: 0.3; stroke-linecap: round"/>
     </g>
     <g id="text_15">
      <!-- 35 -->
      <g style="fill: #262626" transform="translate(22.81375 116.045589) scale(0.11 -0.11)">
       <use xlink:href="#DejaVuSans-33"/>
       <use xlink:href="#DejaVuSans-35" transform="translate(63.623047 0)"/>
      </g>
     </g>
    </g>
    <g id="ytick_9">
     <g id="line2d_15">
      <path d="M 46.31125 55.782602 
L 843.98125 55.782602 
" clip-path="url(#p5fab2ec257)" style="fill: none; stroke: #cccccc; stroke-opacity: 0.3; stroke-linecap: round"/>
     </g>
     <g id="text_16">
      <!-- 40 -->
      <g style="fill: #262626" transform="translate(22.81375 59.961743) scale(0.11 -0.11)">
       <use xlink:href="#DejaVuSans-34"/>
       <use xlink:href="#DejaVuSans-30" transform="translate(63.623047 0)"/>
      </g>
     </g>
    </g>
    <g id="text_17">
     <!-- Serialized Size (KB, zlib-compressed) -->
     <g style="fill: #262626" transform="translate(16.318125 397.61625) rotate(-90) scale(0.12 -0.12)">
      <defs>
       <path id="DejaVuSans-Bold-64" d="M 2919 2988 
L 2919 4863 
L 4044 4863 
L 4044 0 
L 2919 0 
L 2919 506 
Q 2688 197 2409 53 
Q 2131 -91 1766 -91 
Q 1119 -91 703 423 
Q 288 938 288 1747 
Q 288 2556 703 3070 
Q 1119 3584 1766 3584 
Q 2128 3584 2408 3439 
Q 2688 3294 2919 2988 
z
M 2181 722 
Q 2541 722 2730 984 
Q 2919 1247 2919 1747 
Q 2919 2247 2730 2509 
Q 2541 2772 2181 2772 
Q 1825 2772 1636 2509 
Q 1447 2247 1447 1747 
Q 1447 1247 1636 984 
Q 1825 722 2181 722 
z
" transform="scale(0.015625)"/>
       <path id="DejaVuSans-Bold-4b" d="M 588 4666 
L 1791 4666 
L 1791 2963 
L 3525 4666 
L 4922 4666 
L 2675 2456 
L 5153 0 
L 3647 0 
L 1791 1838 
L 1791 0 
L 588 0 
L 588 4666 
z
" transform="scale(0.015625)"/>
       <path id="DejaVuSans-Bold-42" d="M 2456 2859 
Q 2741 2859 2887 2984 
Q 3034 3109 3034 3353 
Q 3034 3594 2887 3720 
Q 2741 3847 2456 3847 
L 1791 3847 
L 1791 2859 
L 2456 2859 
z
M 2497 819 
Q 2859 819 3042 972 
Q 3225 1125 3225 1434 
Q 3225 1738 3044 1889 
Q 2863 2041 2497 2041 
L 1791 2041 
L 1791 819 
L 2497 819 
z
M 3616 2497 
Q 4003 2384 4215 2081 
Q 4428 1778 4428 1338 
Q 4428 663 3972 331 
Q 3516 0 2584 0 
L 588 0 
L 588 4666 
L 2394 4666 
Q 3366 4666 3802 4372 
Q 4238 4078 4238 3431 
Q 4238 3091 4078 2852 
Q 3919 2613 3616 2497 
z
" transform="scale(0.015625)"/>
       <path id="DejaVuSans-Bold-2c" d="M 653 1209 
L 1778 1209 
L 1778 256 
L 1006 -909 
L 341 -909 
L 653 256 
L 653 1209 
z
" transform="scale(0.015625)"/>
       <path id="DejaVuSans-Bold-62" d="M 2400 722 
Q 2759 722 2948 984 
Q 3138 1247 3138 1747 
Q 3138 2247 2948 2509 
Q 2759 2772 2400 2772 
Q 2041 2772 1848 2508 
Q 1656 2244 1656 1747 
Q 1656 1250 1848 986 
Q 2041 722 2400 722 
z
M 1656 2988 
Q 1888 3294 2169 3439 
Q 2450 3584 2816 3584 
Q 3463 3584 3878 3070 
Q 4294 2556 4294 1747 
Q 4294 938 3878 423 
Q 3463 -91 2816 -91 
Q 2450 -91 2169 54 
Q 1888 200 1656 506 
L 1656 0 
L 538 0 
L 538 4863 
L 1656 4863 
L 1656 2988 
z
" transform="scale(0.015625)"/>
       <path id="DejaVuSans-Bold-2d" d="M 347 2297 
L 2309 2297 
L 2309 1388 
L 347 1388 
L 347 2297 
z
" transform="scale(0.015625)"/>
       <path id="DejaVuSans-Bold-63" d="M 3366 3391 
L 3366 2478 
Q 3138 2634 2908 2709 
Q 2678 2784 2431 2784 
Q 1963 2784 1702 2511 
Q 1441 2238 1441 1747 
Q 1441 1256 1702 982 
Q 1963 709 2431 709 
Q 2694 709 2930 787 
Q 3166 866 3366 1019 
L 3366 103 
Q 3103 6 2833 -42 
Q 2563 -91 2291 -91 
Q 1344 -91 809 395 
Q 275 881 275 1747 
Q 275 2613 809 3098 
Q 1344 3584 2291 3584 
Q 2566 3584 2833 3536 
Q 3100 3488 3366 3391 
z
" transform="scale(0.015625)"/>
       <path id="DejaVuSans-Bold-6f" d="M 2203 2784 
Q 1831 2784 1636 2517 
Q 1441 2250 1441 1747 
Q 1441 1244 1636 976 
Q 1831 709 2203 709 
Q 2569 709 2762 976 
Q 2956 1244 2956 1747 
Q 2956 2250 2762 2517 
Q 2569 2784 2203 2784 
z
M 2203 3584 
Q 3106 3584 3614 3096 
Q 4122 2609 4122 1747 
Q 4122 884 3614 396 
Q 3106 -91 2203 -91 
Q 1297 -91 786 396 
Q 275 884 275 1747 
Q 275 2609 786 3096 
Q 1297 3584 2203 3584 
z
" transform="scale(0.015625)"/>
       <path id="DejaVuSans-Bold-6d" d="M 3781 2919 
Q 3994 3244 4286 3414 
Q 4578 3584 4928 3584 
Q 5531 3584 5847 3212 
Q 6163 2841 6163 2131 
L 6163 0 
L 5038 0 
L 5038 1825 
Q 5041 1866 5042 1909 
Q 5044 1953 5044 2034 
Q 5044 2406 4934 2573 
Q 4825 2741 4581 2741 
Q 4263 2741 4089 2478 
Q 3916 2216 3909 1719 
L 3909 0 
L 2784 0 
L 2784 1825 
Q 2784 2406 2684 2573 
Q 2584 2741 2328 2741 
Q 2006 2741 1831 2477 
Q 1656 2213 1656 1722 
L 1656 0 
L 531 0 
L 531 3500 
L 1656 3500 
L 1656 2988 
Q 1863 3284 2130 3434 
Q 2397 3584 2719 3584 
Q 3081 3584 3359 3409 
Q 3638 3234 3781 2919 
z
" transform="scale(0.015625)"/>
       <path id="DejaVuSans-Bold-70" d="M 1656 506 
L 1656 -1331 
L 538 -1331 
L 538 3500 
L 1656 3500 
L 1656 2988 
Q 1888 3294 2169 3439 
Q 2450 3584 2816 3584 
Q 3463 3584 3878 3070 
Q 4294 2556 4294 1747 
Q 4294 938 3878 423 
Q 3463 -91 2816 -91 
Q 2450 -91 2169 54 
Q 1888 200 1656 506 
z
M 2400 2772 
Q 2041 2772 1848 2508 
Q 1656 2244 1656 1747 
Q 1656 1250 1848 986 
Q 2041 722 2400 722 
Q 2759 722 2948 984 
Q 3138 1247 3138 1747 
Q 3138 2247 2948 2509 
Q 2759 2772 2400 2772 
z
" transform="scale(0.015625)"/>
      </defs>
      <use xlink:href="#DejaVuSans-Bold-53"/>
      <use xlink:href="#DejaVuSans-Bold-65" transform="translate(72.021484 0)"/>
      <use xlink:href="#DejaVuSans-Bold-72" transform="translate(139.84375 0)"/>
      <use xlink:href="#DejaVuSans-Bold-69" transform="translate(189.160156 0)"/>
      <use xlink:href="#DejaVuSans-Bold-61" transform="translate(223.4375 0)"/>
      <use xlink:href="#DejaVuSans-Bold-6c" transform="translate(290.917969 0)"/>
      <use xlink:href="#DejaVuSans-Bold-69" transform="translate(325.195312 0)"/>
      <use xlink:href="#DejaVuSans-Bold-7a" transform="translate(359.472656 0)"/>
      <use xlink:href="#DejaVuSans-Bold-65" transform="translate(417.675781 0)"/>
      <use xlink:href="#DejaVuSans-Bold-64" transform="translate(485.498047 0)"/>
      <use xlink:href="#DejaVuSans-Bold-20" transform="translate(557.080078 0)"/>
      <use xlink:href="#DejaVuSans-Bold-53" transform="translate(591.894531 0)"/>
      <use xlink:href="#DejaVuSans-Bold-69" transform="translate(663.916016 0)"/>
      <use xlink:href="#DejaVuSans-Bold-7a" transform="translate(698.193359 0)"/>
      <use xlink:href="#DejaVuSans-Bold-65" transform="translate(756.396484 0)"/>
      <use xlink:href="#DejaVuSans-Bold-20" transform="translate(824.21875 0)"/>
      <use xlink:href="#DejaVuSans-Bold-28" transform="translate(859.033203 0)"/>
      <use xlink:href="#DejaVuSans-Bold-4b" transform="translate(904.736328 0)"/>
      <use xlink:href="#DejaVuSans-Bold-42" transform="translate(982.226562 0)"/>
      <use xlink:href="#DejaVuSans-Bold-2c" transform="translate(1058.447266 0)"/>
      <use xlink:href="#DejaVuSans-Bold-20" transform="translate(1096.435547 0)"/>
      <use xlink:href="#DejaVuSans-Bold-7a" transform="translate(1131.25 0)"/>
      <use xlink:href="#DejaVuSans-Bold-6c" transform="translate(1189.453125 0)"/>
      <use xlink:href="#DejaVuSans-Bold-69" transform="translate(1223.730469 0)"/>
      <use xlink:href="#DejaVuSans-Bold-62" transform="translate(1258.007812 0)"/>
      <use xlink:href="#DejaVuSans-Bold-2d" transform="translate(1329.589844 0)"/>
      <use xlink:href="#DejaVuSans-Bold-63" transform="translate(1371.09375 0)"/>
      <use xlink:href="#DejaVuSans-Bold-6f" transform="translate(1430.371094 0)"/>
      <use xlink:href="#DejaVuSans-Bold-6d" transform="translate(1499.072266 0)"/>
      <use xlink:href="#DejaVuSans-Bold-70" transform="translate(1603.271484 0)"/>
      <use xlink:href="#DejaVuSans-Bold-72" transform="translate(1674.853516 0)"/>
      <use xlink:href="#DejaVuSans-Bold-65" transform="translate(1724.169922 0)"/>
      <use xlink:href="#DejaVuSans-Bold-73" transform="translate(1791.992188 0)"/>
      <use xlink:href="#DejaVuSans-Bold-73" transform="translate(1851.513672 0)"/>
      <use xlink:href="#DejaVuSans-Bold-65" transform="translate(1911.035156 0)"/>
      <use xlink:href="#DejaVuSans-Bold-64" transform="translate(1978.857422 0)"/>
      <use xlink:href="#DejaVuSans-Bold-29" transform="translate(2050.439453 0)"/>
     </g>
    </g>
   </g>
   <g id="line2d_16">
    <path d="M 82.568977 494.540118 
L 141.765267 457.92131 
L 215.760628 412.057429 
L 807.723523 46.384176 
" clip-path="url(#p5fab2ec257)" style="fill: none; stroke: #f77189; stroke-width: 2; stroke-linecap: round"/>
    <defs>
     <path id="me5ef04c4f2" d="M 0 4 
C 1.060812 4 2.078319 3.578535 2.828427 2.828427 
C 3.578535 2.078319 4 1.060812 4 0 
C 4 -1.060812 3.578535 -2.078319 2.828427 -2.828427 
C 2.078319 -3.578535 1.060812 -4 0 -4 
C -1.060812 -4 -2.078319 -3.578535 -2.828427 -2.828427 
C -3.578535 -2.078319 -4 -1.060812 -4 0 
C -4 1.060812 -3.578535 2.078319 -2.828427 2.828427 
C -2.078319 3.578535 -1.060812 4 0 4 
z
" style="stroke: #f77189"/>
    </defs>
    <g clip-path="url(#p5fab2ec257)">
     <use xlink:href="#me5ef04c4f2" x="82.568977" y="494.540118" style="fill: #f77189; stroke: #f77189"/>
     <use xlink:href="#me5ef04c4f2" x="141.765267" y="457.92131" style="fill: #f77189; stroke: #f77189"/>
     <use xlink:href="#me5ef04c4f2" x="215.760628" y="412.057429" style="fill: #f77189; stroke: #f77189"/>
     <use xlink:href="#me5ef04c4f2" x="807.723523" y="46.384176" style="fill: #f77189; stroke: #f77189"/>
    </g>
   </g>
   <g id="line2d_17">
    <path d="M 82.568977 495.274028 
L 141.765267 461.28415 
L 215.760628 418.761202 
L 807.723523 82.597691 
" clip-path="url(#p5fab2ec257)" style="fill: none; stroke: #e68332; stroke-width: 2; stroke-linecap: round"/>
    <defs>
     <path id="mc7334b1641" d="M 0 4 
C 1.060812 4 2.078319 3.578535 2.828427 2.828427 
C 3.578535 2.078319 4 1.060812 4 0 
C 4 -1.060812 3.578535 -2.078319 2.828427 -2.828427 
C 2.078319 -3.578535 1.060812 -4 0 -4 
C -1.060812 -4 -2.078319 -3.578535 -2.828427 -2.828427 
C -3.578535 -2.078319 -4 -1.060812 -4 0 
C -4 1.060812 -3.578535 2.078319 -2.828427 2.828427 
C -2.078319 3.578535 -1.060812 4 0 4 
z
" style="stroke: #e68332"/>
    </defs>
    <g clip-path="url(#p5fab2ec257)">
     <use xlink:href="#mc7334b1641" x="82.568977" y="495.274028" style="fill: #e68332; stroke: #e68332"/>
     <use xlink:href="#mc7334b1641" x="141.765267" y="461.28415" style="fill: #e68332; stroke: #e68332"/>
     <use xlink:href="#mc7334b1641" x="215.760628" y="418.761202" style="fill: #e68332; stroke: #e68332"/>
     <use xlink:href="#mc7334b1641" x="807.723523" y="82.597691" style="fill: #e68332; stroke: #e68332"/>
    </g>
   </g>
   <g id="line2d_18">
    <path d="M 82.568977 496.248923 
L 141.765267 466.454379 
L 215.760628 428.575875 
L 807.723523 130.893332 
" clip-path="url(#p5fab2ec257)" style="fill: none; stroke: #bb9832; stroke-width: 2; stroke-linecap: round"/>
    <defs>
     <path id="m4966fd4ed4" d="M 0 4 
C 1.060812 4 2.078319 3.578535 2.828427 2.828427 
C 3.578535 2.078319 4 1.060812 4 0 
C 4 -1.060812 3.578535 -2.078319 2.828427 -2.828427 
C 2.078319 -3.578535 1.060812 -4 0 -4 
C -1.060812 -4 -2.078319 -3.578535 -2.828427 -2.828427 
C -3.578535 -2.078319 -4 -1.060812 -4 0 
C -4 1.060812 -3.578535 2.078319 -2.828427 2.828427 
C -2.078319 3.578535 -1.060812 4 0 4 
z
" style="stroke: #bb9832"/>
    </defs>
    <g clip-path="url(#p5fab2ec257)">
     <use xlink:href="#m4966fd4ed4" x="82.568977" y="496.248923" style="fill: #bb9832; stroke: #bb9832"/>
     <use xlink:href="#m4966fd4ed4" x="141.765267" y="466.454379" style="fill: #bb9832; stroke: #bb9832"/>
     <use xlink:href="#m4966fd4ed4" x="215.760628" y="428.575875" style="fill: #bb9832; stroke: #bb9832"/>
     <use xlink:href="#m4966fd4ed4" x="807.723523" y="130.893332" style="fill: #bb9832; stroke: #bb9832"/>
    </g>
   </g>
   <g id="line2d_19">
    <path d="M 82.568977 496.610401 
L 141.765267 468.29463 
L 215.760628 431.741545 
L 807.723523 146.699776 
" clip-path="url(#p5fab2ec257)" style="fill: none; stroke: #97a431; stroke-width: 2; stroke-linecap: round"/>
    <defs>
     <path id="m44ed24ed48" d="M 0 4 
C 1.060812 4 2.078319 3.578535 2.828427 2.828427 
C 3.578535 2.078319 4 1.060812 4 0 
C 4 -1.060812 3.578535 -2.078319 2.828427 -2.828427 
C 2.078319 -3.578535 1.060812 -4 0 -4 
C -1.060812 -4 -2.078319 -3.578535 -2.828427 -2.828427 
C -3.578535 -2.078319 -4 -1.060812 -4 0 
C -4 1.060812 -3.578535 2.078319 -2.828427 2.828427 
C -2.078319 3.578535 -1.060812 4 0 4 
z
" style="stroke: #97a431"/>
    </defs>
    <g clip-path="url(#p5fab2ec257)">
     <use xlink:href="#m44ed24ed48" x="82.568977" y="496.610401" style="fill: #97a431; stroke: #97a431"/>
     <use xlink:href="#m44ed24ed48" x="141.765267" y="468.29463" style="fill: #97a431; stroke: #97a431"/>
     <use xlink:href="#m44ed24ed48" x="215.760628" y="431.741545" style="fill: #97a431; stroke: #97a431"/>
     <use xlink:href="#m44ed24ed48" x="807.723523" y="146.699776" style="fill: #97a431; stroke: #97a431"/>
    </g>
   </g>
   <g id="line2d_20">
    <path d="M 82.568977 496.698032 
L 141.765267 468.809463 
L 215.760628 433.220318 
L 807.723523 154.290812 
" clip-path="url(#p5fab2ec257)" style="fill: none; stroke: #50b131; stroke-width: 2; stroke-linecap: round"/>
    <defs>
     <path id="m3786217944" d="M 0 4 
C 1.060812 4 2.078319 3.578535 2.828427 2.828427 
C 3.578535 2.078319 4 1.060812 4 0 
C 4 -1.060812 3.578535 -2.078319 2.828427 -2.828427 
C 2.078319 -3.578535 1.060812 -4 0 -4 
C -1.060812 -4 -2.078319 -3.578535 -2.828427 -2.828427 
C -3.578535 -2.078319 -4 -1.060812 -4 0 
C -4 1.060812 -3.578535 2.078319 -2.828427 2.828427 
C -2.078319 3.578535 -1.060812 4 0 4 
z
" style="stroke: #50b131"/>
    </defs>
    <g clip-path="url(#p5fab2ec257)">
     <use xlink:href="#m3786217944" x="82.568977" y="496.698032" style="fill: #50b131; stroke: #50b131"/>
     <use xlink:href="#m3786217944" x="141.765267" y="468.809463" style="fill: #50b131; stroke: #50b131"/>
     <use xlink:href="#m3786217944" x="215.760628" y="433.220318" style="fill: #50b131; stroke: #50b131"/>
     <use xlink:href="#m3786217944" x="807.723523" y="154.290812" style="fill: #50b131; stroke: #50b131"/>
    </g>
   </g>
   <g id="line2d_21">
    <path d="M 82.568977 496.807571 
L 141.765267 469.477649 
L 215.760628 434.228075 
L 807.723523 159.581534 
" clip-path="url(#p5fab2ec257)" style="fill: none; stroke: #34af84; stroke-width: 2; stroke-linecap: round"/>
    <defs>
     <path id="mbf3501fd96" d="M 0 4 
C 1.060812 4 2.078319 3.578535 2.828427 2.828427 
C 3.578535 2.078319 4 1.060812 4 0 
C 4 -1.060812 3.578535 -2.078319 2.828427 -2.828427 
C 2.078319 -3.578535 1.060812 -4 0 -4 
C -1.060812 -4 -2.078319 -3.578535 -2.828427 -2.828427 
C -3.578535 -2.078319 -4 -1.060812 -4 0 
C -4 1.060812 -3.578535 2.078319 -2.828427 2.828427 
C -2.078319 3.578535 -1.060812 4 0 4 
z
" style="stroke: #34af84"/>
    </defs>
    <g clip-path="url(#p5fab2ec257)">
     <use xlink:href="#mbf3501fd96" x="82.568977" y="496.807571" style="fill: #34af84; stroke: #34af84"/>
     <use xlink:href="#mbf3501fd96" x="141.765267" y="469.477649" style="fill: #34af84; stroke: #34af84"/>
     <use xlink:href="#mbf3501fd96" x="215.760628" y="434.228075" style="fill: #34af84; stroke: #34af84"/>
     <use xlink:href="#mbf3501fd96" x="807.723523" y="159.581534" style="fill: #34af84; stroke: #34af84"/>
    </g>
   </g>
   <g id="line2d_22">
    <path d="M 82.568977 496.906155 
L 141.765267 469.751496 
L 215.760628 434.753861 
L 807.723523 161.848986 
" clip-path="url(#p5fab2ec257)" style="fill: none; stroke: #36ada4; stroke-width: 2; stroke-linecap: round"/>
    <defs>
     <path id="m04ea192531" d="M 0 4 
C 1.060812 4 2.078319 3.578535 2.828427 2.828427 
C 3.578535 2.078319 4 1.060812 4 0 
C 4 -1.060812 3.578535 -2.078319 2.828427 -2.828427 
C 2.078319 -3.578535 1.060812 -4 0 -4 
C -1.060812 -4 -2.078319 -3.578535 -2.828427 -2.828427 
C -3.578535 -2.078319 -4 -1.060812 -4 0 
C -4 1.060812 -3.578535 2.078319 -2.828427 2.828427 
C -2.078319 3.578535 -1.060812 4 0 4 
z
" style="stroke: #36ada4"/>
    </defs>
    <g clip-path="url(#p5fab2ec257)">
     <use xlink:href="#m04ea192531" x="82.568977" y="496.906155" style="fill: #36ada4; stroke: #36ada4"/>
     <use xlink:href="#m04ea192531" x="141.765267" y="469.751496" style="fill: #36ada4; stroke: #36ada4"/>
     <use xlink:href="#m04ea192531" x="215.760628" y="434.753861" style="fill: #36ada4; stroke: #36ada4"/>
     <use xlink:href="#m04ea192531" x="807.723523" y="161.848986" style="fill: #36ada4; stroke: #36ada4"/>
    </g>
   </g>
   <g id="line2d_23">
    <path d="M 82.568977 497.015694 
L 141.765267 470.44159 
L 215.760628 436.057372 
L 807.723523 168.519897 
" clip-path="url(#p5fab2ec257)" style="fill: none; stroke: #38aabf; stroke-width: 2; stroke-linecap: round"/>
    <defs>
     <path id="ma6fd7045cf" d="M 0 4 
C 1.060812 4 2.078319 3.578535 2.828427 2.828427 
C 3.578535 2.078319 4 1.060812 4 0 
C 4 -1.060812 3.578535 -2.078319 2.828427 -2.828427 
C 2.078319 -3.578535 1.060812 -4 0 -4 
C -1.060812 -4 -2.078319 -3.578535 -2.828427 -2.828427 
C -3.578535 -2.078319 -4 -1.060812 -4 0 
C -4 1.060812 -3.578535 2.078319 -2.828427 2.828427 
C -2.078319 3.578535 -1.060812 4 0 4 
z
" style="stroke: #38aabf"/>
    </defs>
    <g clip-path="url(#p5fab2ec257)">
     <use xlink:href="#ma6fd7045cf" x="82.568977" y="497.015694" style="fill: #38aabf; stroke: #38aabf"/>
     <use xlink:href="#ma6fd7045cf" x="141.765267" y="470.44159" style="fill: #38aabf; stroke: #38aabf"/>
     <use xlink:href="#ma6fd7045cf" x="215.760628" y="436.057372" style="fill: #38aabf; stroke: #38aabf"/>
     <use xlink:href="#ma6fd7045cf" x="807.723523" y="168.519897" style="fill: #38aabf; stroke: #38aabf"/>
    </g>
   </g>
   <g id="line2d_24">
    <path d="M 82.568977 497.125233 
L 141.765267 470.803068 
L 215.760628 436.769374 
L 807.723523 173.153387 
" clip-path="url(#p5fab2ec257)" style="fill: none; stroke: #3ba3ec; stroke-width: 2; stroke-linecap: round"/>
    <defs>
     <path id="m66689a8784" d="M 0 4 
C 1.060812 4 2.078319 3.578535 2.828427 2.828427 
C 3.578535 2.078319 4 1.060812 4 0 
C 4 -1.060812 3.578535 -2.078319 2.828427 -2.828427 
C 2.078319 -3.578535 1.060812 -4 0 -4 
C -1.060812 -4 -2.078319 -3.578535 -2.828427 -2.828427 
C -3.578535 -2.078319 -4 -1.060812 -4 0 
C -4 1.060812 -3.578535 2.078319 -2.828427 2.828427 
C -2.078319 3.578535 -1.060812 4 0 4 
z
" style="stroke: #3ba3ec"/>
    </defs>
    <g clip-path="url(#p5fab2ec257)">
     <use xlink:href="#m66689a8784" x="82.568977" y="497.125233" style="fill: #3ba3ec; stroke: #3ba3ec"/>
     <use xlink:href="#m66689a8784" x="141.765267" y="470.803068" style="fill: #3ba3ec; stroke: #3ba3ec"/>
     <use xlink:href="#m66689a8784" x="215.760628" y="436.769374" style="fill: #3ba3ec; stroke: #3ba3ec"/>
     <use xlink:href="#m66689a8784" x="807.723523" y="173.153387" style="fill: #3ba3ec; stroke: #3ba3ec"/>
    </g>
   </g>
   <g id="line2d_25">
    <path d="M 82.568977 497.114279 
L 141.765267 470.97833 
L 215.760628 437.185622 
L 807.723523 174.916961 
" clip-path="url(#p5fab2ec257)" style="fill: none; stroke: #a48cf4; stroke-width: 2; stroke-linecap: round"/>
    <defs>
     <path id="m5acc481737" d="M 0 4 
C 1.060812 4 2.078319 3.578535 2.828427 2.828427 
C 3.578535 2.078319 4 1.060812 4 0 
C 4 -1.060812 3.578535 -2.078319 2.828427 -2.828427 
C 2.078319 -3.578535 1.060812 -4 0 -4 
C -1.060812 -4 -2.078319 -3.578535 -2.828427 -2.828427 
C -3.578535 -2.078319 -4 -1.060812 -4 0 
C -4 1.060812 -3.578535 2.078319 -2.828427 2.828427 
C -2.078319 3.578535 -1.060812 4 0 4 
z
" style="stroke: #a48cf4"/>
    </defs>
    <g clip-path="url(#p5fab2ec257)">
     <use xlink:href="#m5acc481737" x="82.568977" y="497.114279" style="fill: #a48cf4; stroke: #a48cf4"/>
     <use xlink:href="#m5acc481737" x="141.765267" y="470.97833" style="fill: #a48cf4; stroke: #a48cf4"/>
     <use xlink:href="#m5acc481737" x="215.760628" y="437.185622" style="fill: #a48cf4; stroke: #a48cf4"/>
     <use xlink:href="#m5acc481737" x="807.723523" y="174.916961" style="fill: #a48cf4; stroke: #a48cf4"/>
    </g>
   </g>
   <g id="line2d_26">
    <path d="M 82.568977 497.311449 
L 141.765267 471.230269 
L 215.760628 437.579961 
L 807.723523 176.636719 
" clip-path="url(#p5fab2ec257)" style="fill: none; stroke: #e866f4; stroke-width: 2; stroke-linecap: round"/>
    <defs>
     <path id="mca788333e0" d="M 0 4 
C 1.060812 4 2.078319 3.578535 2.828427 2.828427 
C 3.578535 2.078319 4 1.060812 4 0 
C 4 -1.060812 3.578535 -2.078319 2.828427 -2.828427 
C 2.078319 -3.578535 1.060812 -4 0 -4 
C -1.060812 -4 -2.078319 -3.578535 -2.828427 -2.828427 
C -3.578535 -2.078319 -4 -1.060812 -4 0 
C -4 1.060812 -3.578535 2.078319 -2.828427 2.828427 
C -2.078319 3.578535 -1.060812 4 0 4 
z
" style="stroke: #e866f4"/>
    </defs>
    <g clip-path="url(#p5fab2ec257)">
     <use xlink:href="#mca788333e0" x="82.568977" y="497.311449" style="fill: #e866f4; stroke: #e866f4"/>
     <use xlink:href="#mca788333e0" x="141.765267" y="471.230269" style="fill: #e866f4; stroke: #e866f4"/>
     <use xlink:href="#mca788333e0" x="215.760628" y="437.579961" style="fill: #e866f4; stroke: #e866f4"/>
     <use xlink:href="#mca788333e0" x="807.723523" y="176.636719" style="fill: #e866f4; stroke: #e866f4"/>
    </g>
   </g>
   <g id="line2d_27">
    <path d="M 82.568977 497.311449 
L 141.765267 471.306946 
L 215.760628 437.667592 
L 807.723523 177.392537 
" clip-path="url(#p5fab2ec257)" style="fill: none; stroke: #f668c2; stroke-width: 2; stroke-linecap: round"/>
    <defs>
     <path id="m4c49f0e0c7" d="M 0 4 
C 1.060812 4 2.078319 3.578535 2.828427 2.828427 
C 3.578535 2.078319 4 1.060812 4 0 
C 4 -1.060812 3.578535 -2.078319 2.828427 -2.828427 
C 2.078319 -3.578535 1.060812 -4 0 -4 
C -1.060812 -4 -2.078319 -3.578535 -2.828427 -2.828427 
C -3.578535 -2.078319 -4 -1.060812 -4 0 
C -4 1.060812 -3.578535 2.078319 -2.828427 2.828427 
C -2.078319 3.578535 -1.060812 4 0 4 
z
" style="stroke: #f668c2"/>
    </defs>
    <g clip-path="url(#p5fab2ec257)">
     <use xlink:href="#m4c49f0e0c7" x="82.568977" y="497.311449" style="fill: #f668c2; stroke: #f668c2"/>
     <use xlink:href="#m4c49f0e0c7" x="141.765267" y="471.306946" style="fill: #f668c2; stroke: #f668c2"/>
     <use xlink:href="#m4c49f0e0c7" x="215.760628" y="437.667592" style="fill: #f668c2; stroke: #f668c2"/>
     <use xlink:href="#m4c49f0e0c7" x="807.723523" y="177.392537" style="fill: #f668c2; stroke: #f668c2"/>
    </g>
   </g>
   <g id="patch_3">
    <path d="M 46.31125 519.857813 
L 46.31125 23.837812 
" style="fill: none; stroke: #cccccc; stroke-width: 1.25; stroke-linejoin: miter; stroke-linecap: square"/>
   </g>
   <g id="patch_4">
    <path d="M 843.98125 519.857813 
L 843.98125 23.837812 
" style="fill: none; stroke: #cccccc; stroke-width: 1.25; stroke-linejoin: miter; stroke-linecap: square"/>
   </g>
   <g id="patch_5">
    <path d="M 46.31125 519.857813 
L 843.98125 519.857813 
" style="fill: none; stroke: #cccccc; stroke-width: 1.25; stroke-linejoin: miter; stroke-linecap: square"/>
   </g>
   <g id="patch_6">
    <path d="M 46.31125 23.837812 
L 843.98125 23.837812 
" style="fill: none; stroke: #cccccc; stroke-width: 1.25; stroke-linejoin: miter; stroke-linecap: square"/>
   </g>
   <g id="text_18">
    <!-- Serialized Size vs Dataset Size -->
    <g style="fill: #262626" transform="translate(324.2825 17.837812) scale(0.14 -0.14)">
     <use xlink:href="#DejaVuSans-Bold-53"/>
     <use xlink:href="#DejaVuSans-Bold-65" transform="translate(72.021484 0)"/>
     <use xlink:href="#DejaVuSans-Bold-72" transform="translate(139.84375 0)"/>
     <use xlink:href="#DejaVuSans-Bold-69" transform="translate(189.160156 0)"/>
     <use xlink:href="#DejaVuSans-Bold-61" transform="translate(223.4375 0)"/>
     <use xlink:href="#DejaVuSans-Bold-6c" transform="translate(290.917969 0)"/>
     <use xlink:href="#DejaVuSans-Bold-69" transform="translate(325.195312 0)"/>
     <use xlink:href="#DejaVuSans-Bold-7a" transform="translate(359.472656 0)"/>
     <use xlink:href="#DejaVuSans-Bold-65" transform="translate(417.675781 0)"/>
     <use xlink:href="#DejaVuSans-Bold-64" transform="translate(485.498047 0)"/>
     <use xlink:href="#DejaVuSans-Bold-20" transform="translate(557.080078 0)"/>
     <use xlink:href="#DejaVuSans-Bold-53" transform="translate(591.894531 0)"/>
     <use xlink:href="#DejaVuSans-Bold-69" transform="translate(663.916016 0)"/>
     <use xlink:href="#DejaVuSans-Bold-7a" transform="translate(698.193359 0)"/>
     <use xlink:href="#DejaVuSans-Bold-65" transform="translate(756.396484 0)"/>
     <use xlink:href="#DejaVuSans-Bold-20" transform="translate(824.21875 0)"/>
     <use xlink:href="#DejaVuSans-Bold-76" transform="translate(859.033203 0)"/>
     <use xlink:href="#DejaVuSans-Bold-73" transform="translate(924.21875 0)"/>
     <use xlink:href="#DejaVuSans-Bold-20" transform="translate(983.740234 0)"/>
     <use xlink:href="#DejaVuSans-Bold-44" transform="translate(1018.554688 0)"/>
     <use xlink:href="#DejaVuSans-Bold-61" transform="translate(1101.5625 0)"/>
     <use xlink:href="#DejaVuSans-Bold-74" transform="translate(1169.042969 0)"/>
     <use xlink:href="#DejaVuSans-Bold-61" transform="translate(1216.845703 0)"/>
     <use xlink:href="#DejaVuSans-Bold-73" transform="translate(1284.326172 0)"/>
     <use xlink:href="#DejaVuSans-Bold-65" transform="translate(1343.847656 0)"/>
     <use xlink:href="#DejaVuSans-Bold-74" transform="translate(1411.669922 0)"/>
     <use xlink:href="#DejaVuSans-Bold-20" transform="translate(1459.472656 0)"/>
     <use xlink:href="#DejaVuSans-Bold-53" transform="translate(1494.287109 0)"/>
     <use xlink:href="#DejaVuSans-Bold-69" transform="translate(1566.308594 0)"/>
     <use xlink:href="#DejaVuSans-Bold-7a" transform="translate(1600.585938 0)"/>
     <use xlink:href="#DejaVuSans-Bold-65" transform="translate(1658.789062 0)"/>
    </g>
   </g>
   <g id="legend_1">
    <g id="patch_7">
     <path d="M 52.61125 124.477812 
L 216.326875 124.477812 
Q 218.126875 124.477812 218.126875 122.677812 
L 218.126875 30.137812 
Q 218.126875 28.337812 216.326875 28.337812 
L 52.61125 28.337812 
Q 50.81125 28.337812 50.81125 30.137812 
L 50.81125 122.677812 
Q 50.81125 124.477812 52.61125 124.477812 
z
" style="fill: #ffffff; opacity: 0.8; stroke: #cccccc; stroke-linejoin: miter"/>
    </g>
    <g id="text_19">
     <!-- Order -->
     <g style="fill: #262626" transform="translate(120.258906 39.53625) scale(0.1 -0.1)">
      <defs>
       <path id="DejaVuSans-4f" d="M 2522 4238 
Q 1834 4238 1429 3725 
Q 1025 3213 1025 2328 
Q 1025 1447 1429 934 
Q 1834 422 2522 422 
Q 3209 422 3611 934 
Q 4013 1447 4013 2328 
Q 4013 3213 3611 3725 
Q 3209 4238 2522 4238 
z
M 2522 4750 
Q 3503 4750 4090 4092 
Q 4678 3434 4678 2328 
Q 4678 1225 4090 567 
Q 3503 -91 2522 -91 
Q 1538 -91 948 565 
Q 359 1222 359 2328 
Q 359 3434 948 4092 
Q 1538 4750 2522 4750 
z
" transform="scale(0.015625)"/>
       <path id="DejaVuSans-72" d="M 2631 2963 
Q 2534 3019 2420 3045 
Q 2306 3072 2169 3072 
Q 1681 3072 1420 2755 
Q 1159 2438 1159 1844 
L 1159 0 
L 581 0 
L 581 3500 
L 1159 3500 
L 1159 2956 
Q 1341 3275 1631 3429 
Q 1922 3584 2338 3584 
Q 2397 3584 2469 3576 
Q 2541 3569 2628 3553 
L 2631 2963 
z
" transform="scale(0.015625)"/>
       <path id="DejaVuSans-64" d="M 2906 2969 
L 2906 4863 
L 3481 4863 
L 3481 0 
L 2906 0 
L 2906 525 
Q 2725 213 2448 61 
Q 2172 -91 1784 -91 
Q 1150 -91 751 415 
Q 353 922 353 1747 
Q 353 2572 751 3078 
Q 1150 3584 1784 3584 
Q 2172 3584 2448 3432 
Q 2725 3281 2906 2969 
z
M 947 1747 
Q 947 1113 1208 752 
Q 1469 391 1925 391 
Q 2381 391 2643 752 
Q 2906 1113 2906 1747 
Q 2906 2381 2643 2742 
Q 2381 3103 1925 3103 
Q 1469 3103 1208 2742 
Q 947 2381 947 1747 
z
" transform="scale(0.015625)"/>
       <path id="DejaVuSans-65" d="M 3597 1894 
L 3597 1613 
L 953 1613 
Q 991 1019 1311 708 
Q 1631 397 2203 397 
Q 2534 397 2845 478 
Q 3156 559 3463 722 
L 3463 178 
Q 3153 47 2828 -22 
Q 2503 -91 2169 -91 
Q 1331 -91 842 396 
Q 353 884 353 1716 
Q 353 2575 817 3079 
Q 1281 3584 2069 3584 
Q 2775 3584 3186 3129 
Q 3597 2675 3597 1894 
z
M 3022 2063 
Q 3016 2534 2758 2815 
Q 2500 3097 2075 3097 
Q 1594 3097 1305 2825 
Q 1016 2553 972 2059 
L 3022 2063 
z
" transform="scale(0.015625)"/>
      </defs>
      <use xlink:href="#DejaVuSans-4f"/>
      <use xlink:href="#DejaVuSans-72" transform="translate(78.710938 0)"/>
      <use xlink:href="#DejaVuSans-64" transform="translate(118.074219 0)"/>
      <use xlink:href="#DejaVuSans-65" transform="translate(181.550781 0)"/>
      <use xlink:href="#DejaVuSans-72" transform="translate(243.074219 0)"/>
     </g>
    </g>
    <g id="line2d_28">
     <path d="M 54.41125 49.804531 
L 63.41125 49.804531 
L 72.41125 49.804531 
" style="fill: none; stroke: #f77189; stroke-width: 2; stroke-linecap: round"/>
     <g>
      <use xlink:href="#me5ef04c4f2" x="63.41125" y="49.804531" style="fill: #f77189; stroke: #f77189"/>
     </g>
    </g>
    <g id="text_20">
     <!-- order=3 -->
     <g style="fill: #262626" transform="translate(79.61125 52.954531) scale(0.09 -0.09)">
      <defs>
       <path id="DejaVuSans-6f" d="M 1959 3097 
Q 1497 3097 1228 2736 
Q 959 2375 959 1747 
Q 959 1119 1226 758 
Q 1494 397 1959 397 
Q 2419 397 2687 759 
Q 2956 1122 2956 1747 
Q 2956 2369 2687 2733 
Q 2419 3097 1959 3097 
z
M 1959 3584 
Q 2709 3584 3137 3096 
Q 3566 2609 3566 1747 
Q 3566 888 3137 398 
Q 2709 -91 1959 -91 
Q 1206 -91 779 398 
Q 353 888 353 1747 
Q 353 2609 779 3096 
Q 1206 3584 1959 3584 
z
" transform="scale(0.015625)"/>
       <path id="DejaVuSans-3d" d="M 678 2906 
L 4684 2906 
L 4684 2381 
L 678 2381 
L 678 2906 
z
M 678 1631 
L 4684 1631 
L 4684 1100 
L 678 1100 
L 678 1631 
z
" transform="scale(0.015625)"/>
      </defs>
      <use xlink:href="#DejaVuSans-6f"/>
      <use xlink:href="#DejaVuSans-72" transform="translate(61.181641 0)"/>
      <use xlink:href="#DejaVuSans-64" transform="translate(100.544922 0)"/>
      <use xlink:href="#DejaVuSans-65" transform="translate(164.021484 0)"/>
      <use xlink:href="#DejaVuSans-72" transform="translate(225.544922 0)"/>
      <use xlink:href="#DejaVuSans-3d" transform="translate(266.658203 0)"/>
      <use xlink:href="#DejaVuSans-33" transform="translate(350.447266 0)"/>
     </g>
    </g>
    <g id="line2d_29">
     <path d="M 54.41125 63.014844 
L 63.41125 63.014844 
L 72.41125 63.014844 
" style="fill: none; stroke: #e68332; stroke-width: 2; stroke-linecap: round"/>
     <g>
      <use xlink:href="#mc7334b1641" x="63.41125" y="63.014844" style="fill: #e68332; stroke: #e68332"/>
     </g>
    </g>
    <g id="text_21">
     <!-- order=5 -->
     <g style="fill: #262626" transform="translate(79.61125 66.164844) scale(0.09 -0.09)">
      <use xlink:href="#DejaVuSans-6f"/>
      <use xlink:href="#DejaVuSans-72" transform="translate(61.181641 0)"/>
      <use xlink:href="#DejaVuSans-64" transform="translate(100.544922 0)"/>
      <use xlink:href="#DejaVuSans-65" transform="translate(164.021484 0)"/>
      <use xlink:href="#DejaVuSans-72" transform="translate(225.544922 0)"/>
      <use xlink:href="#DejaVuSans-3d" transform="translate(266.658203 0)"/>
      <use xlink:href="#DejaVuSans-35" transform="translate(350.447266 0)"/>
     </g>
    </g>
    <g id="line2d_30">
     <path d="M 54.41125 76.225156 
L 63.41125 76.225156 
L 72.41125 76.225156 
" style="fill: none; stroke: #bb9832; stroke-width: 2; stroke-linecap: round"/>
     <g>
      <use xlink:href="#m4966fd4ed4" x="63.41125" y="76.225156" style="fill: #bb9832; stroke: #bb9832"/>
     </g>
    </g>
    <g id="text_22">
     <!-- order=10 -->
     <g style="fill: #262626" transform="translate(79.61125 79.375156) scale(0.09 -0.09)">
      <use xlink:href="#DejaVuSans-6f"/>
      <use xlink:href="#DejaVuSans-72" transform="translate(61.181641 0)"/>
      <use xlink:href="#DejaVuSans-64" transform="translate(100.544922 0)"/>
      <use xlink:href="#DejaVuSans-65" transform="translate(164.021484 0)"/>
      <use xlink:href="#DejaVuSans-72" transform="translate(225.544922 0)"/>
      <use xlink:href="#DejaVuSans-3d" transform="translate(266.658203 0)"/>
      <use xlink:href="#DejaVuSans-31" transform="translate(350.447266 0)"/>
      <use xlink:href="#DejaVuSans-30" transform="translate(414.070312 0)"/>
     </g>
    </g>
    <g id="line2d_31">
     <path d="M 54.41125 89.435469 
L 63.41125 89.435469 
L 72.41125 89.435469 
" style="fill: none; stroke: #97a431; stroke-width: 2; stroke-linecap: round"/>
     <g>
      <use xlink:href="#m44ed24ed48" x="63.41125" y="89.435469" style="fill: #97a431; stroke: #97a431"/>
     </g>
    </g>
    <g id="text_23">
     <!-- order=15 -->
     <g style="fill: #262626" transform="translate(79.61125 92.585469) scale(0.09 -0.09)">
      <use xlink:href="#DejaVuSans-6f"/>
      <use xlink:href="#DejaVuSans-72" transform="translate(61.181641 0)"/>
      <use xlink:href="#DejaVuSans-64" transform="translate(100.544922 0)"/>
      <use xlink:href="#DejaVuSans-65" transform="translate(164.021484 0)"/>
      <use xlink:href="#DejaVuSans-72" transform="translate(225.544922 0)"/>
      <use xlink:href="#DejaVuSans-3d" transform="translate(266.658203 0)"/>
      <use xlink:href="#DejaVuSans-31" transform="translate(350.447266 0)"/>
      <use xlink:href="#DejaVuSans-35" transform="translate(414.070312 0)"/>
     </g>
    </g>
    <g id="line2d_32">
     <path d="M 54.41125 102.645781 
L 63.41125 102.645781 
L 72.41125 102.645781 
" style="fill: none; stroke: #50b131; stroke-width: 2; stroke-linecap: round"/>
     <g>
      <use xlink:href="#m3786217944" x="63.41125" y="102.645781" style="fill: #50b131; stroke: #50b131"/>
     </g>
    </g>
    <g id="text_24">
     <!-- order=20 -->
     <g style="fill: #262626" transform="translate(79.61125 105.795781) scale(0.09 -0.09)">
      <use xlink:href="#DejaVuSans-6f"/>
      <use xlink:href="#DejaVuSans-72" transform="translate(61.181641 0)"/>
      <use xlink:href="#DejaVuSans-64" transform="translate(100.544922 0)"/>
      <use xlink:href="#DejaVuSans-65" transform="translate(164.021484 0)"/>
      <use xlink:href="#DejaVuSans-72" transform="translate(225.544922 0)"/>
      <use xlink:href="#DejaVuSans-3d" transform="translate(266.658203 0)"/>
      <use xlink:href="#DejaVuSans-32" transform="translate(350.447266 0)"/>
      <use xlink:href="#DejaVuSans-30" transform="translate(414.070312 0)"/>
     </g>
    </g>
    <g id="line2d_33">
     <path d="M 54.41125 115.856094 
L 63.41125 115.856094 
L 72.41125 115.856094 
" style="fill: none; stroke: #34af84; stroke-width: 2; stroke-linecap: round"/>
     <g>
      <use xlink:href="#mbf3501fd96" x="63.41125" y="115.856094" style="fill: #34af84; stroke: #34af84"/>
     </g>
    </g>
    <g id="text_25">
     <!-- order=25 -->
     <g style="fill: #262626" transform="translate(79.61125 119.006094) scale(0.09 -0.09)">
      <use xlink:href="#DejaVuSans-6f"/>
      <use xlink:href="#DejaVuSans-72" transform="translate(61.181641 0)"/>
      <use xlink:href="#DejaVuSans-64" transform="translate(100.544922 0)"/>
      <use xlink:href="#DejaVuSans-65" transform="translate(164.021484 0)"/>
      <use xlink:href="#DejaVuSans-72" transform="translate(225.544922 0)"/>
      <use xlink:href="#DejaVuSans-3d" transform="translate(266.658203 0)"/>
      <use xlink:href="#DejaVuSans-32" transform="translate(350.447266 0)"/>
      <use xlink:href="#DejaVuSans-35" transform="translate(414.070312 0)"/>
     </g>
    </g>
    <g id="line2d_34">
     <path d="M 140.605938 49.804531 
L 149.605938 49.804531 
L 158.605938 49.804531 
" style="fill: none; stroke: #36ada4; stroke-width: 2; stroke-linecap: round"/>
     <g>
      <use xlink:href="#m04ea192531" x="149.605938" y="49.804531" style="fill: #36ada4; stroke: #36ada4"/>
     </g>
    </g>
    <g id="text_26">
     <!-- order=30 -->
     <g style="fill: #262626" transform="translate(165.805937 52.954531) scale(0.09 -0.09)">
      <use xlink:href="#DejaVuSans-6f"/>
      <use xlink:href="#DejaVuSans-72" transform="translate(61.181641 0)"/>
      <use xlink:href="#DejaVuSans-64" transform="translate(100.544922 0)"/>
      <use xlink:href="#DejaVuSans-65" transform="translate(164.021484 0)"/>
      <use xlink:href="#DejaVuSans-72" transform="translate(225.544922 0)"/>
      <use xlink:href="#DejaVuSans-3d" transform="translate(266.658203 0)"/>
      <use xlink:href="#DejaVuSans-33" transform="translate(350.447266 0)"/>
      <use xlink:href="#DejaVuSans-30" transform="translate(414.070312 0)"/>
     </g>
    </g>
    <g id="line2d_35">
     <path d="M 140.605938 63.014844 
L 149.605938 63.014844 
L 158.605938 63.014844 
" style="fill: none; stroke: #38aabf; stroke-width: 2; stroke-linecap: round"/>
     <g>
      <use xlink:href="#ma6fd7045cf" x="149.605938" y="63.014844" style="fill: #38aabf; stroke: #38aabf"/>
     </g>
    </g>
    <g id="text_27">
     <!-- order=50 -->
     <g style="fill: #262626" transform="translate(165.805937 66.164844) scale(0.09 -0.09)">
      <use xlink:href="#DejaVuSans-6f"/>
      <use xlink:href="#DejaVuSans-72" transform="translate(61.181641 0)"/>
      <use xlink:href="#DejaVuSans-64" transform="translate(100.544922 0)"/>
      <use xlink:href="#DejaVuSans-65" transform="translate(164.021484 0)"/>
      <use xlink:href="#DejaVuSans-72" transform="translate(225.544922 0)"/>
      <use xlink:href="#DejaVuSans-3d" transform="translate(266.658203 0)"/>
      <use xlink:href="#DejaVuSans-35" transform="translate(350.447266 0)"/>
      <use xlink:href="#DejaVuSans-30" transform="translate(414.070312 0)"/>
     </g>
    </g>
    <g id="line2d_36">
     <path d="M 140.605938 76.225156 
L 149.605938 76.225156 
L 158.605938 76.225156 
" style="fill: none; stroke: #3ba3ec; stroke-width: 2; stroke-linecap: round"/>
     <g>
      <use xlink:href="#m66689a8784" x="149.605938" y="76.225156" style="fill: #3ba3ec; stroke: #3ba3ec"/>
     </g>
    </g>
    <g id="text_28">
     <!-- order=75 -->
     <g style="fill: #262626" transform="translate(165.805937 79.375156) scale(0.09 -0.09)">
      <defs>
       <path id="DejaVuSans-37" d="M 525 4666 
L 3525 4666 
L 3525 4397 
L 1831 0 
L 1172 0 
L 2766 4134 
L 525 4134 
L 525 4666 
z
" transform="scale(0.015625)"/>
      </defs>
      <use xlink:href="#DejaVuSans-6f"/>
      <use xlink:href="#DejaVuSans-72" transform="translate(61.181641 0)"/>
      <use xlink:href="#DejaVuSans-64" transform="translate(100.544922 0)"/>
      <use xlink:href="#DejaVuSans-65" transform="translate(164.021484 0)"/>
      <use xlink:href="#DejaVuSans-72" transform="translate(225.544922 0)"/>
      <use xlink:href="#DejaVuSans-3d" transform="translate(266.658203 0)"/>
      <use xlink:href="#DejaVuSans-37" transform="translate(350.447266 0)"/>
      <use xlink:href="#DejaVuSans-35" transform="translate(414.070312 0)"/>
     </g>
    </g>
    <g id="line2d_37">
     <path d="M 140.605938 89.435469 
L 149.605938 89.435469 
L 158.605938 89.435469 
" style="fill: none; stroke: #a48cf4; stroke-width: 2; stroke-linecap: round"/>
     <g>
      <use xlink:href="#m5acc481737" x="149.605938" y="89.435469" style="fill: #a48cf4; stroke: #a48cf4"/>
     </g>
    </g>
    <g id="text_29">
     <!-- order=100 -->
     <g style="fill: #262626" transform="translate(165.805937 92.585469) scale(0.09 -0.09)">
      <use xlink:href="#DejaVuSans-6f"/>
      <use xlink:href="#DejaVuSans-72" transform="translate(61.181641 0)"/>
      <use xlink:href="#DejaVuSans-64" transform="translate(100.544922 0)"/>
      <use xlink:href="#DejaVuSans-65" transform="translate(164.021484 0)"/>
      <use xlink:href="#DejaVuSans-72" transform="translate(225.544922 0)"/>
      <use xlink:href="#DejaVuSans-3d" transform="translate(266.658203 0)"/>
      <use xlink:href="#DejaVuSans-31" transform="translate(350.447266 0)"/>
      <use xlink:href="#DejaVuSans-30" transform="translate(414.070312 0)"/>
      <use xlink:href="#DejaVuSans-30" transform="translate(477.693359 0)"/>
     </g>
    </g>
    <g id="line2d_38">
     <path d="M 140.605938 102.645781 
L 149.605938 102.645781 
L 158.605938 102.645781 
" style="fill: none; stroke: #e866f4; stroke-width: 2; stroke-linecap: round"/>
     <g>
      <use xlink:href="#mca788333e0" x="149.605938" y="102.645781" style="fill: #e866f4; stroke: #e866f4"/>
     </g>
    </g>
    <g id="text_30">
     <!-- order=150 -->
     <g style="fill: #262626" transform="translate(165.805937 105.795781) scale(0.09 -0.09)">
      <use xlink:href="#DejaVuSans-6f"/>
      <use xlink:href="#DejaVuSans-72" transform="translate(61.181641 0)"/>
      <use xlink:href="#DejaVuSans-64" transform="translate(100.544922 0)"/>
      <use xlink:href="#DejaVuSans-65" transform="translate(164.021484 0)"/>
      <use xlink:href="#DejaVuSans-72" transform="translate(225.544922 0)"/>
      <use xlink:href="#DejaVuSans-3d" transform="translate(266.658203 0)"/>
      <use xlink:href="#DejaVuSans-31" transform="translate(350.447266 0)"/>
      <use xlink:href="#DejaVuSans-35" transform="translate(414.070312 0)"/>
      <use xlink:href="#DejaVuSans-30" transform="translate(477.693359 0)"/>
     </g>
    </g>
    <g id="line2d_39">
     <path d="M 140.605938 115.856094 
L 149.605938 115.856094 
L 158.605938 115.856094 
" style="fill: none; stroke: #f668c2; stroke-width: 2; stroke-linecap: round"/>
     <g>
      <use xlink:href="#m4c49f0e0c7" x="149.605938" y="115.856094" style="fill: #f668c2; stroke: #f668c2"/>
     </g>
    </g>
    <g id="text_31">
     <!-- order=200 -->
     <g style="fill: #262626" transform="translate(165.805937 119.006094) scale(0.09 -0.09)">
      <use xlink:href="#DejaVuSans-6f"/>
      <use xlink:href="#DejaVuSans-72" transform="translate(61.181641 0)"/>
      <use xlink:href="#DejaVuSans-64" transform="translate(100.544922 0)"/>
      <use xlink:href="#DejaVuSans-65" transform="translate(164.021484 0)"/>
      <use xlink:href="#DejaVuSans-72" transform="translate(225.544922 0)"/>
      <use xlink:href="#DejaVuSans-3d" transform="translate(266.658203 0)"/>
      <use xlink:href="#DejaVuSans-32" transform="translate(350.447266 0)"/>
      <use xlink:href="#DejaVuSans-30" transform="translate(414.070312 0)"/>
      <use xlink:href="#DejaVuSans-30" transform="translate(477.693359 0)"/>
     </g>
    </g>
   </g>
  </g>
 </g>
 <defs>
  <clipPath id="p5fab2ec257">
   <rect x="46.31125" y="23.837812" width="797.67" height="496.02"/>
  </clipPath>
 </defs>
</svg>
