<?xml version="1.0" encoding="utf-8" standalone="no"?>
<!DOCTYPE svg PUBLIC "-//W3C//DTD SVG 1.1//EN"
  "http://www.w3.org/Graphics/SVG/1.1/DTD/svg11.dtd">
<svg xmlns:xlink="http://www.w3.org/1999/xlink" width="851.55pt" height="562.8175pt" viewBox="0 0 851.55 562.8175" xmlns="http://www.w3.org/2000/svg" version="1.1">
 <metadata>
  <rdf:RDF xmlns:dc="http://purl.org/dc/elements/1.1/" xmlns:cc="http://creativecommons.org/ns#" xmlns:rdf="http://www.w3.org/1999/02/22-rdf-syntax-ns#">
   <cc:Work>
    <dc:type rdf:resource="http://purl.org/dc/dcmitype/StillImage"/>
    <dc:date>2026-03-30T02:58:20.758335</dc:date>
    <dc:format>image/svg+xml</dc:format>
    <dc:creator>
     <cc:Agent>
      <dc:title>Matplotlib v3.10.8, https://matplotlib.org/</dc:title>
     </cc:Agent>
    </dc:creator>
   </cc:Work>
  </rdf:RDF>
 </metadata>
 <defs>
  <style type="text/css">*{stroke-linejoin: round; stroke-linecap: butt}</style>
 </defs>
 <g id="figure_1">
  <g id="patch_1">
   <path d="M 0 562.8175 
L 851.55 562.8175 
L 851.55 0 
L 0 0 
z
" style="fill: #ffffff"/>
  </g>
  <g id="axes_1">
   <g id="patch_2">
    <path d="M 74.4 519.857813 
L 844.35 519.857813 
L 844.35 23.837812 
L 74.4 23.837812 
z
" style="fill: #ffffff"/>
   </g>
   <g id="matplotlib.axis_1">
    <g id="xtick_1">
     <g id="line2d_1">
      <path d="M 102.327479 519.857813 
L 102.327479 23.837812 
" clip-path="url(#peb0bdbce72)" style="fill: none; stroke: #cccccc; stroke-opacity: 0.3; stroke-linecap: round"/>
     </g>
     <g id="text_1">
      <!-- 0 -->
      <g style="fill: #262626" transform="translate(98.828104 537.716094) scale(0.11 -0.11)">
       <defs>
        <path id="DejaVuSans-30" d="M 2034 4250 
Q 1547 4250 1301 3770 
Q 1056 3291 1056 2328 
Q 1056 1369 1301 889 
Q 1547 409 2034 409 
Q 2525 409 2770 889 
Q 3016 1369 3016 2328 
Q 3016 3291 2770 3770 
Q 2525 4250 2034 4250 
z
M 2034 4750 
Q 2819 4750 3233 4129 
Q 3647 3509 3647 2328 
Q 3647 1150 3233 529 
Q 2819 -91 2034 -91 
Q 1250 -91 836 529 
Q 422 1150 422 2328 
Q 422 3509 836 4129 
Q 1250 4750 2034 4750 
z
" transform="scale(0.015625)"/>
       </defs>
       <use xlink:href="#DejaVuSans-30"/>
      </g>
     </g>
    </g>
    <g id="xtick_2">
     <g id="line2d_2">
      <path d="M 190.705579 519.857813 
L 190.705579 23.837812 
" clip-path="url(#peb0bdbce72)" style="fill: none; stroke: #cccccc; stroke-opacity: 0.3; stroke-linecap: round"/>
     </g>
     <g id="text_2">
      <!-- 25 -->
      <g style="fill: #262626" transform="translate(183.706829 537.716094) scale(0.11 -0.11)">
       <defs>
        <path id="DejaVuSans-32" d="M 1228 531 
L 3431 531 
L 3431 0 
L 469 0 
L 469 531 
Q 828 903 1448 1529 
Q 2069 2156 2228 2338 
Q 2531 2678 2651 2914 
Q 2772 3150 2772 3378 
Q 2772 3750 2511 3984 
Q 2250 4219 1831 4219 
Q 1534 4219 1204 4116 
Q 875 4013 500 3803 
L 500 4441 
Q 881 4594 1212 4672 
Q 1544 4750 1819 4750 
Q 2544 4750 2975 4387 
Q 3406 4025 3406 3419 
Q 3406 3131 3298 2873 
Q 3191 2616 2906 2266 
Q 2828 2175 2409 1742 
Q 1991 1309 1228 531 
z
" transform="scale(0.015625)"/>
        <path id="DejaVuSans-35" d="M 691 4666 
L 3169 4666 
L 3169 4134 
L 1269 4134 
L 1269 2991 
Q 1406 3038 1543 3061 
Q 1681 3084 1819 3084 
Q 2600 3084 3056 2656 
Q 3513 2228 3513 1497 
Q 3513 744 3044 326 
Q 2575 -91 1722 -91 
Q 1428 -91 1123 -41 
Q 819 9 494 109 
L 494 744 
Q 775 591 1075 516 
Q 1375 441 1709 441 
Q 2250 441 2565 725 
Q 2881 1009 2881 1497 
Q 2881 1984 2565 2268 
Q 2250 2553 1709 2553 
Q 1456 2553 1204 2497 
Q 953 2441 691 2322 
L 691 4666 
z
" transform="scale(0.015625)"/>
       </defs>
       <use xlink:href="#DejaVuSans-32"/>
       <use xlink:href="#DejaVuSans-35" transform="translate(63.623047 0)"/>
      </g>
     </g>
    </g>
    <g id="xtick_3">
     <g id="line2d_3">
      <path d="M 279.083678 519.857813 
L 279.083678 23.837812 
" clip-path="url(#peb0bdbce72)" style="fill: none; stroke: #cccccc; stroke-opacity: 0.3; stroke-linecap: round"/>
     </g>
     <g id="text_3">
      <!-- 50 -->
      <g style="fill: #262626" transform="translate(272.084928 537.716094) scale(0.11 -0.11)">
       <use xlink:href="#DejaVuSans-35"/>
       <use xlink:href="#DejaVuSans-30" transform="translate(63.623047 0)"/>
      </g>
     </g>
    </g>
    <g id="xtick_4">
     <g id="line2d_4">
      <path d="M 367.461777 519.857813 
L 367.461777 23.837812 
" clip-path="url(#peb0bdbce72)" style="fill: none; stroke: #cccccc; stroke-opacity: 0.3; stroke-linecap: round"/>
     </g>
     <g id="text_4">
      <!-- 75 -->
      <g style="fill: #262626" transform="translate(360.463027 537.716094) scale(0.11 -0.11)">
       <defs>
        <path id="DejaVuSans-37" d="M 525 4666 
L 3525 4666 
L 3525 4397 
L 1831 0 
L 1172 0 
L 2766 4134 
L 525 4134 
L 525 4666 
z
" transform="scale(0.015625)"/>
       </defs>
       <use xlink:href="#DejaVuSans-37"/>
       <use xlink:href="#DejaVuSans-35" transform="translate(63.623047 0)"/>
      </g>
     </g>
    </g>
    <g id="xtick_5">
     <g id="line2d_5">
      <path d="M 455.839876 519.857813 
L 455.839876 23.837812 
" clip-path="url(#peb0bdbce72)" style="fill: none; stroke: #cccccc; stroke-opacity: 0.3; stroke-linecap: round"/>
     </g>
     <g id="text_5">
      <!-- 100 -->
      <g style="fill: #262626" transform="translate(445.341751 537.716094) scale(0.11 -0.11)">
       <defs>
        <path id="DejaVuSans-31" d="M 794 531 
L 1825 531 
L 1825 4091 
L 703 3866 
L 703 4441 
L 1819 4666 
L 2450 4666 
L 2450 531 
L 3481 531 
L 3481 0 
L 794 0 
L 794 531 
z
" transform="scale(0.015625)"/>
       </defs>
       <use xlink:href="#DejaVuSans-31"/>
       <use xlink:href="#DejaVuSans-30" transform="translate(63.623047 0)"/>
       <use xlink:href="#DejaVuSans-30" transform="translate(127.246094 0)"/>
      </g>
     </g>
    </g>
    <g id="xtick_6">
     <g id="line2d_6">
      <path d="M 544.217975 519.857813 
L 544.217975 23.837812 
" clip-path="url(#peb0bdbce72)" style="fill: none; stroke: #cccccc; stroke-opacity: 0.3; stroke-linecap: round"/>
     </g>
     <g id="text_6">
      <!-- 125 -->
      <g style="fill: #262626" transform="translate(533.71985 537.716094) scale(0.11 -0.11)">
       <use xlink:href="#DejaVuSans-31"/>
       <use xlink:href="#DejaVuSans-32" transform="translate(63.623047 0)"/>
       <use xlink:href="#DejaVuSans-35" transform="translate(127.246094 0)"/>
      </g>
     </g>
    </g>
    <g id="xtick_7">
     <g id="line2d_7">
      <path d="M 632.596074 519.857813 
L 632.596074 23.837812 
" clip-path="url(#peb0bdbce72)" style="fill: none; stroke: #cccccc; stroke-opacity: 0.3; stroke-linecap: round"/>
     </g>
     <g id="text_7">
      <!-- 150 -->
      <g style="fill: #262626" transform="translate(622.097949 537.716094) scale(0.11 -0.11)">
       <use xlink:href="#DejaVuSans-31"/>
       <use xlink:href="#DejaVuSans-35" transform="translate(63.623047 0)"/>
       <use xlink:href="#DejaVuSans-30" transform="translate(127.246094 0)"/>
      </g>
     </g>
    </g>
    <g id="xtick_8">
     <g id="line2d_8">
      <path d="M 720.974174 519.857813 
L 720.974174 23.837812 
" clip-path="url(#peb0bdbce72)" style="fill: none; stroke: #cccccc; stroke-opacity: 0.3; stroke-linecap: round"/>
     </g>
     <g id="text_8">
      <!-- 175 -->
      <g style="fill: #262626" transform="translate(710.476049 537.716094) scale(0.11 -0.11)">
       <use xlink:href="#DejaVuSans-31"/>
       <use xlink:href="#DejaVuSans-37" transform="translate(63.623047 0)"/>
       <use xlink:href="#DejaVuSans-35" transform="translate(127.246094 0)"/>
      </g>
     </g>
    </g>
    <g id="xtick_9">
     <g id="line2d_9">
      <path d="M 809.352273 519.857813 
L 809.352273 23.837812 
" clip-path="url(#peb0bdbce72)" style="fill: none; stroke: #cccccc; stroke-opacity: 0.3; stroke-linecap: round"/>
     </g>
     <g id="text_9">
      <!-- 200 -->
      <g style="fill: #262626" transform="translate(798.854148 537.716094) scale(0.11 -0.11)">
       <use xlink:href="#DejaVuSans-32"/>
       <use xlink:href="#DejaVuSans-30" transform="translate(63.623047 0)"/>
       <use xlink:href="#DejaVuSans-30" transform="translate(127.246094 0)"/>
      </g>
     </g>
    </g>
    <g id="text_10">
     <!-- Order (k) -->
     <g style="fill: #262626" transform="translate(428.429062 553.121875) scale(0.12 -0.12)">
      <defs>
       <path id="DejaVuSans-Bold-4f" d="M 2719 3878 
Q 2169 3878 1866 3472 
Q 1563 3066 1563 2328 
Q 1563 1594 1866 1187 
Q 2169 781 2719 781 
Q 3272 781 3575 1187 
Q 3878 1594 3878 2328 
Q 3878 3066 3575 3472 
Q 3272 3878 2719 3878 
z
M 2719 4750 
Q 3844 4750 4481 4106 
Q 5119 3463 5119 2328 
Q 5119 1197 4481 553 
Q 3844 -91 2719 -91 
Q 1597 -91 958 553 
Q 319 1197 319 2328 
Q 319 3463 958 4106 
Q 1597 4750 2719 4750 
z
" transform="scale(0.015625)"/>
       <path id="DejaVuSans-Bold-72" d="M 3138 2547 
Q 2991 2616 2845 2648 
Q 2700 2681 2553 2681 
Q 2122 2681 1889 2404 
Q 1656 2128 1656 1613 
L 1656 0 
L 538 0 
L 538 3500 
L 1656 3500 
L 1656 2925 
Q 1872 3269 2151 3426 
Q 2431 3584 2822 3584 
Q 2878 3584 2943 3579 
Q 3009 3575 3134 3559 
L 3138 2547 
z
" transform="scale(0.015625)"/>
       <path id="DejaVuSans-Bold-64" d="M 2919 2988 
L 2919 4863 
L 4044 4863 
L 4044 0 
L 2919 0 
L 2919 506 
Q 2688 197 2409 53 
Q 2131 -91 1766 -91 
Q 1119 -91 703 423 
Q 288 938 288 1747 
Q 288 2556 703 3070 
Q 1119 3584 1766 3584 
Q 2128 3584 2408 3439 
Q 2688 3294 2919 2988 
z
M 2181 722 
Q 2541 722 2730 984 
Q 2919 1247 2919 1747 
Q 2919 2247 2730 2509 
Q 2541 2772 2181 2772 
Q 1825 2772 1636 2509 
Q 1447 2247 1447 1747 
Q 1447 1247 1636 984 
Q 1825 722 2181 722 
z
" transform="scale(0.015625)"/>
       <path id="DejaVuSans-Bold-65" d="M 4031 1759 
L 4031 1441 
L 1416 1441 
Q 1456 1047 1700 850 
Q 1944 653 2381 653 
Q 2734 653 3104 758 
Q 3475 863 3866 1075 
L 3866 213 
Q 3469 63 3072 -14 
Q 2675 -91 2278 -91 
Q 1328 -91 801 392 
Q 275 875 275 1747 
Q 275 2603 792 3093 
Q 1309 3584 2216 3584 
Q 3041 3584 3536 3087 
Q 4031 2591 4031 1759 
z
M 2881 2131 
Q 2881 2450 2695 2645 
Q 2509 2841 2209 2841 
Q 1884 2841 1681 2658 
Q 1478 2475 1428 2131 
L 2881 2131 
z
" transform="scale(0.015625)"/>
       <path id="DejaVuSans-Bold-20" transform="scale(0.015625)"/>
       <path id="DejaVuSans-Bold-28" d="M 2413 -844 
L 1484 -844 
Q 1006 -72 778 623 
Q 550 1319 550 2003 
Q 550 2688 779 3389 
Q 1009 4091 1484 4856 
L 2413 4856 
Q 2013 4116 1813 3408 
Q 1613 2700 1613 2009 
Q 1613 1319 1811 609 
Q 2009 -100 2413 -844 
z
" transform="scale(0.015625)"/>
       <path id="DejaVuSans-Bold-6b" d="M 538 4863 
L 1656 4863 
L 1656 2216 
L 2944 3500 
L 4244 3500 
L 2534 1894 
L 4378 0 
L 3022 0 
L 1656 1459 
L 1656 0 
L 538 0 
L 538 4863 
z
" transform="scale(0.015625)"/>
       <path id="DejaVuSans-Bold-29" d="M 513 -844 
Q 913 -100 1113 609 
Q 1313 1319 1313 2009 
Q 1313 2700 1113 3408 
Q 913 4116 513 4856 
L 1441 4856 
Q 1916 4091 2145 3389 
Q 2375 2688 2375 2003 
Q 2375 1319 2147 623 
Q 1919 -72 1441 -844 
L 513 -844 
z
" transform="scale(0.015625)"/>
      </defs>
      <use xlink:href="#DejaVuSans-Bold-4f"/>
      <use xlink:href="#DejaVuSans-Bold-72" transform="translate(85.009766 0)"/>
      <use xlink:href="#DejaVuSans-Bold-64" transform="translate(134.326172 0)"/>
      <use xlink:href="#DejaVuSans-Bold-65" transform="translate(205.908203 0)"/>
      <use xlink:href="#DejaVuSans-Bold-72" transform="translate(273.730469 0)"/>
      <use xlink:href="#DejaVuSans-Bold-20" transform="translate(323.046875 0)"/>
      <use xlink:href="#DejaVuSans-Bold-28" transform="translate(357.861328 0)"/>
      <use xlink:href="#DejaVuSans-Bold-6b" transform="translate(403.564453 0)"/>
      <use xlink:href="#DejaVuSans-Bold-29" transform="translate(470.068359 0)"/>
     </g>
    </g>
   </g>
   <g id="matplotlib.axis_2">
    <g id="ytick_1">
     <g id="line2d_10">
      <path d="M 74.4 464.525408 
L 844.35 464.525408 
" clip-path="url(#peb0bdbce72)" style="fill: none; stroke: #cccccc; stroke-opacity: 0.3; stroke-linecap: round"/>
     </g>
     <g id="text_11">
      <!-- 450000 -->
      <g style="fill: #262626" transform="translate(22.9075 468.704548) scale(0.11 -0.11)">
       <defs>
        <path id="DejaVuSans-34" d="M 2419 4116 
L 825 1625 
L 2419 1625 
L 2419 4116 
z
M 2253 4666 
L 3047 4666 
L 3047 1625 
L 3713 1625 
L 3713 1100 
L 3047 1100 
L 3047 0 
L 2419 0 
L 2419 1100 
L 313 1100 
L 313 1709 
L 2253 4666 
z
" transform="scale(0.015625)"/>
       </defs>
       <use xlink:href="#DejaVuSans-34"/>
       <use xlink:href="#DejaVuSans-35" transform="translate(63.623047 0)"/>
       <use xlink:href="#DejaVuSans-30" transform="translate(127.246094 0)"/>
       <use xlink:href="#DejaVuSans-30" transform="translate(190.869141 0)"/>
       <use xlink:href="#DejaVuSans-30" transform="translate(254.492188 0)"/>
       <use xlink:href="#DejaVuSans-30" transform="translate(318.115234 0)"/>
      </g>
     </g>
    </g>
    <g id="ytick_2">
     <g id="line2d_11">
      <path d="M 74.4 389.6043 
L 844.35 389.6043 
" clip-path="url(#peb0bdbce72)" style="fill: none; stroke: #cccccc; stroke-opacity: 0.3; stroke-linecap: round"/>
     </g>
     <g id="text_12">
      <!-- 500000 -->
      <g style="fill: #262626" transform="translate(22.9075 393.78344) scale(0.11 -0.11)">
       <use xlink:href="#DejaVuSans-35"/>
       <use xlink:href="#DejaVuSans-30" transform="translate(63.623047 0)"/>
       <use xlink:href="#DejaVuSans-30" transform="translate(127.246094 0)"/>
       <use xlink:href="#DejaVuSans-30" transform="translate(190.869141 0)"/>
       <use xlink:href="#DejaVuSans-30" transform="translate(254.492188 0)"/>
       <use xlink:href="#DejaVuSans-30" transform="translate(318.115234 0)"/>
      </g>
     </g>
    </g>
    <g id="ytick_3">
     <g id="line2d_12">
      <path d="M 74.4 314.683192 
L 844.35 314.683192 
" clip-path="url(#peb0bdbce72)" style="fill: none; stroke: #cccccc; stroke-opacity: 0.3; stroke-linecap: round"/>
     </g>
     <g id="text_13">
      <!-- 550000 -->
      <g style="fill: #262626" transform="translate(22.9075 318.862333) scale(0.11 -0.11)">
       <use xlink:href="#DejaVuSans-35"/>
       <use xlink:href="#DejaVuSans-35" transform="translate(63.623047 0)"/>
       <use xlink:href="#DejaVuSans-30" transform="translate(127.246094 0)"/>
       <use xlink:href="#DejaVuSans-30" transform="translate(190.869141 0)"/>
       <use xlink:href="#DejaVuSans-30" transform="translate(254.492188 0)"/>
       <use xlink:href="#DejaVuSans-30" transform="translate(318.115234 0)"/>
      </g>
     </g>
    </g>
    <g id="ytick_4">
     <g id="line2d_13">
      <path d="M 74.4 239.762084 
L 844.35 239.762084 
" clip-path="url(#peb0bdbce72)" style="fill: none; stroke: #cccccc; stroke-opacity: 0.3; stroke-linecap: round"/>
     </g>
     <g id="text_14">
      <!-- 600000 -->
      <g style="fill: #262626" transform="translate(22.9075 243.941225) scale(0.11 -0.11)">
       <defs>
        <path id="DejaVuSans-36" d="M 2113 2584 
Q 1688 2584 1439 2293 
Q 1191 2003 1191 1497 
Q 1191 994 1439 701 
Q 1688 409 2113 409 
Q 2538 409 2786 701 
Q 3034 994 3034 1497 
Q 3034 2003 2786 2293 
Q 2538 2584 2113 2584 
z
M 3366 4563 
L 3366 3988 
Q 3128 4100 2886 4159 
Q 2644 4219 2406 4219 
Q 1781 4219 1451 3797 
Q 1122 3375 1075 2522 
Q 1259 2794 1537 2939 
Q 1816 3084 2150 3084 
Q 2853 3084 3261 2657 
Q 3669 2231 3669 1497 
Q 3669 778 3244 343 
Q 2819 -91 2113 -91 
Q 1303 -91 875 529 
Q 447 1150 447 2328 
Q 447 3434 972 4092 
Q 1497 4750 2381 4750 
Q 2619 4750 2861 4703 
Q 3103 4656 3366 4563 
z
" transform="scale(0.015625)"/>
       </defs>
       <use xlink:href="#DejaVuSans-36"/>
       <use xlink:href="#DejaVuSans-30" transform="translate(63.623047 0)"/>
       <use xlink:href="#DejaVuSans-30" transform="translate(127.246094 0)"/>
       <use xlink:href="#DejaVuSans-30" transform="translate(190.869141 0)"/>
       <use xlink:href="#DejaVuSans-30" transform="translate(254.492188 0)"/>
       <use xlink:href="#DejaVuSans-30" transform="translate(318.115234 0)"/>
      </g>
     </g>
    </g>
    <g id="ytick_5">
     <g id="line2d_14">
      <path d="M 74.4 164.840977 
L 844.35 164.840977 
" clip-path="url(#peb0bdbce72)" style="fill: none; stroke: #cccccc; stroke-opacity: 0.3; stroke-linecap: round"/>
     </g>
     <g id="text_15">
      <!-- 650000 -->
      <g style="fill: #262626" transform="translate(22.9075 169.020117) scale(0.11 -0.11)">
       <use xlink:href="#DejaVuSans-36"/>
       <use xlink:href="#DejaVuSans-35" transform="translate(63.623047 0)"/>
       <use xlink:href="#DejaVuSans-30" transform="translate(127.246094 0)"/>
       <use xlink:href="#DejaVuSans-30" transform="translate(190.869141 0)"/>
       <use xlink:href="#DejaVuSans-30" transform="translate(254.492188 0)"/>
       <use xlink:href="#DejaVuSans-30" transform="translate(318.115234 0)"/>
      </g>
     </g>
    </g>
    <g id="ytick_6">
     <g id="line2d_15">
      <path d="M 74.4 89.919869 
L 844.35 89.919869 
" clip-path="url(#peb0bdbce72)" style="fill: none; stroke: #cccccc; stroke-opacity: 0.3; stroke-linecap: round"/>
     </g>
     <g id="text_16">
      <!-- 700000 -->
      <g style="fill: #262626" transform="translate(22.9075 94.099009) scale(0.11 -0.11)">
       <use xlink:href="#DejaVuSans-37"/>
       <use xlink:href="#DejaVuSans-30" transform="translate(63.623047 0)"/>
       <use xlink:href="#DejaVuSans-30" transform="translate(127.246094 0)"/>
       <use xlink:href="#DejaVuSans-30" transform="translate(190.869141 0)"/>
       <use xlink:href="#DejaVuSans-30" transform="translate(254.492188 0)"/>
       <use xlink:href="#DejaVuSans-30" transform="translate(318.115234 0)"/>
      </g>
     </g>
    </g>
    <g id="text_17">
     <!-- Throughput (intervals/sec) -->
     <g style="fill: #262626" transform="translate(16.318125 362.339063) rotate(-90) scale(0.12 -0.12)">
      <defs>
       <path id="DejaVuSans-Bold-54" d="M 31 4666 
L 4331 4666 
L 4331 3756 
L 2784 3756 
L 2784 0 
L 1581 0 
L 1581 3756 
L 31 3756 
L 31 4666 
z
" transform="scale(0.015625)"/>
       <path id="DejaVuSans-Bold-68" d="M 4056 2131 
L 4056 0 
L 2931 0 
L 2931 347 
L 2931 1625 
Q 2931 2084 2911 2256 
Q 2891 2428 2841 2509 
Q 2775 2619 2662 2680 
Q 2550 2741 2406 2741 
Q 2056 2741 1856 2470 
Q 1656 2200 1656 1722 
L 1656 0 
L 538 0 
L 538 4863 
L 1656 4863 
L 1656 2988 
Q 1909 3294 2193 3439 
Q 2478 3584 2822 3584 
Q 3428 3584 3742 3212 
Q 4056 2841 4056 2131 
z
" transform="scale(0.015625)"/>
       <path id="DejaVuSans-Bold-6f" d="M 2203 2784 
Q 1831 2784 1636 2517 
Q 1441 2250 1441 1747 
Q 1441 1244 1636 976 
Q 1831 709 2203 709 
Q 2569 709 2762 976 
Q 2956 1244 2956 1747 
Q 2956 2250 2762 2517 
Q 2569 2784 2203 2784 
z
M 2203 3584 
Q 3106 3584 3614 3096 
Q 4122 2609 4122 1747 
Q 4122 884 3614 396 
Q 3106 -91 2203 -91 
Q 1297 -91 786 396 
Q 275 884 275 1747 
Q 275 2609 786 3096 
Q 1297 3584 2203 3584 
z
" transform="scale(0.015625)"/>
       <path id="DejaVuSans-Bold-75" d="M 500 1363 
L 500 3500 
L 1625 3500 
L 1625 3150 
Q 1625 2866 1622 2436 
Q 1619 2006 1619 1863 
Q 1619 1441 1641 1255 
Q 1663 1069 1716 984 
Q 1784 875 1895 815 
Q 2006 756 2150 756 
Q 2500 756 2700 1025 
Q 2900 1294 2900 1772 
L 2900 3500 
L 4019 3500 
L 4019 0 
L 2900 0 
L 2900 506 
Q 2647 200 2364 54 
Q 2081 -91 1741 -91 
Q 1134 -91 817 281 
Q 500 653 500 1363 
z
" transform="scale(0.015625)"/>
       <path id="DejaVuSans-Bold-67" d="M 2919 594 
Q 2688 288 2409 144 
Q 2131 0 1766 0 
Q 1125 0 706 504 
Q 288 1009 288 1791 
Q 288 2575 706 3076 
Q 1125 3578 1766 3578 
Q 2131 3578 2409 3434 
Q 2688 3291 2919 2981 
L 2919 3500 
L 4044 3500 
L 4044 353 
Q 4044 -491 3511 -936 
Q 2978 -1381 1966 -1381 
Q 1638 -1381 1331 -1331 
Q 1025 -1281 716 -1178 
L 716 -306 
Q 1009 -475 1290 -558 
Q 1572 -641 1856 -641 
Q 2406 -641 2662 -400 
Q 2919 -159 2919 353 
L 2919 594 
z
M 2181 2772 
Q 1834 2772 1640 2515 
Q 1447 2259 1447 1791 
Q 1447 1309 1634 1061 
Q 1822 813 2181 813 
Q 2531 813 2725 1069 
Q 2919 1325 2919 1791 
Q 2919 2259 2725 2515 
Q 2531 2772 2181 2772 
z
" transform="scale(0.015625)"/>
       <path id="DejaVuSans-Bold-70" d="M 1656 506 
L 1656 -1331 
L 538 -1331 
L 538 3500 
L 1656 3500 
L 1656 2988 
Q 1888 3294 2169 3439 
Q 2450 3584 2816 3584 
Q 3463 3584 3878 3070 
Q 4294 2556 4294 1747 
Q 4294 938 3878 423 
Q 3463 -91 2816 -91 
Q 2450 -91 2169 54 
Q 1888 200 1656 506 
z
M 2400 2772 
Q 2041 2772 1848 2508 
Q 1656 2244 1656 1747 
Q 1656 1250 1848 986 
Q 2041 722 2400 722 
Q 2759 722 2948 984 
Q 3138 1247 3138 1747 
Q 3138 2247 2948 2509 
Q 2759 2772 2400 2772 
z
" transform="scale(0.015625)"/>
       <path id="DejaVuSans-Bold-74" d="M 1759 4494 
L 1759 3500 
L 2913 3500 
L 2913 2700 
L 1759 2700 
L 1759 1216 
Q 1759 972 1856 886 
Q 1953 800 2241 800 
L 2816 800 
L 2816 0 
L 1856 0 
Q 1194 0 917 276 
Q 641 553 641 1216 
L 641 2700 
L 84 2700 
L 84 3500 
L 641 3500 
L 641 4494 
L 1759 4494 
z
" transform="scale(0.015625)"/>
       <path id="DejaVuSans-Bold-69" d="M 538 3500 
L 1656 3500 
L 1656 0 
L 538 0 
L 538 3500 
z
M 538 4863 
L 1656 4863 
L 1656 3950 
L 538 3950 
L 538 4863 
z
" transform="scale(0.015625)"/>
       <path id="DejaVuSans-Bold-6e" d="M 4056 2131 
L 4056 0 
L 2931 0 
L 2931 347 
L 2931 1631 
Q 2931 2084 2911 2256 
Q 2891 2428 2841 2509 
Q 2775 2619 2662 2680 
Q 2550 2741 2406 2741 
Q 2056 2741 1856 2470 
Q 1656 2200 1656 1722 
L 1656 0 
L 538 0 
L 538 3500 
L 1656 3500 
L 1656 2988 
Q 1909 3294 2193 3439 
Q 2478 3584 2822 3584 
Q 3428 3584 3742 3212 
Q 4056 2841 4056 2131 
z
" transform="scale(0.015625)"/>
       <path id="DejaVuSans-Bold-76" d="M 97 3500 
L 1216 3500 
L 2088 1081 
L 2956 3500 
L 4078 3500 
L 2700 0 
L 1472 0 
L 97 3500 
z
" transform="scale(0.015625)"/>
       <path id="DejaVuSans-Bold-61" d="M 2106 1575 
Q 1756 1575 1579 1456 
Q 1403 1338 1403 1106 
Q 1403 894 1545 773 
Q 1688 653 1941 653 
Q 2256 653 2472 879 
Q 2688 1106 2688 1447 
L 2688 1575 
L 2106 1575 
z
M 3816 1997 
L 3816 0 
L 2688 0 
L 2688 519 
Q 2463 200 2181 54 
Q 1900 -91 1497 -91 
Q 953 -91 614 226 
Q 275 544 275 1050 
Q 275 1666 698 1953 
Q 1122 2241 2028 2241 
L 2688 2241 
L 2688 2328 
Q 2688 2594 2478 2717 
Q 2269 2841 1825 2841 
Q 1466 2841 1156 2769 
Q 847 2697 581 2553 
L 581 3406 
Q 941 3494 1303 3539 
Q 1666 3584 2028 3584 
Q 2975 3584 3395 3211 
Q 3816 2838 3816 1997 
z
" transform="scale(0.015625)"/>
       <path id="DejaVuSans-Bold-6c" d="M 538 4863 
L 1656 4863 
L 1656 0 
L 538 0 
L 538 4863 
z
" transform="scale(0.015625)"/>
       <path id="DejaVuSans-Bold-73" d="M 3272 3391 
L 3272 2541 
Q 2913 2691 2578 2766 
Q 2244 2841 1947 2841 
Q 1628 2841 1473 2761 
Q 1319 2681 1319 2516 
Q 1319 2381 1436 2309 
Q 1553 2238 1856 2203 
L 2053 2175 
Q 2913 2066 3209 1816 
Q 3506 1566 3506 1031 
Q 3506 472 3093 190 
Q 2681 -91 1863 -91 
Q 1516 -91 1145 -36 
Q 775 19 384 128 
L 384 978 
Q 719 816 1070 734 
Q 1422 653 1784 653 
Q 2113 653 2278 743 
Q 2444 834 2444 1013 
Q 2444 1163 2330 1236 
Q 2216 1309 1875 1350 
L 1678 1375 
Q 931 1469 631 1722 
Q 331 1975 331 2491 
Q 331 3047 712 3315 
Q 1094 3584 1881 3584 
Q 2191 3584 2531 3537 
Q 2872 3491 3272 3391 
z
" transform="scale(0.015625)"/>
       <path id="DejaVuSans-Bold-2f" d="M 1644 4666 
L 2338 4666 
L 691 -594 
L 0 -594 
L 1644 4666 
z
" transform="scale(0.015625)"/>
       <path id="DejaVuSans-Bold-63" d="M 3366 3391 
L 3366 2478 
Q 3138 2634 2908 2709 
Q 2678 2784 2431 2784 
Q 1963 2784 1702 2511 
Q 1441 2238 1441 1747 
Q 1441 1256 1702 982 
Q 1963 709 2431 709 
Q 2694 709 2930 787 
Q 3166 866 3366 1019 
L 3366 103 
Q 3103 6 2833 -42 
Q 2563 -91 2291 -91 
Q 1344 -91 809 395 
Q 275 881 275 1747 
Q 275 2613 809 3098 
Q 1344 3584 2291 3584 
Q 2566 3584 2833 3536 
Q 3100 3488 3366 3391 
z
" transform="scale(0.015625)"/>
      </defs>
      <use xlink:href="#DejaVuSans-Bold-54"/>
      <use xlink:href="#DejaVuSans-Bold-68" transform="translate(68.212891 0)"/>
      <use xlink:href="#DejaVuSans-Bold-72" transform="translate(139.404297 0)"/>
      <use xlink:href="#DejaVuSans-Bold-6f" transform="translate(188.720703 0)"/>
      <use xlink:href="#DejaVuSans-Bold-75" transform="translate(257.421875 0)"/>
      <use xlink:href="#DejaVuSans-Bold-67" transform="translate(328.613281 0)"/>
      <use xlink:href="#DejaVuSans-Bold-68" transform="translate(400.195312 0)"/>
      <use xlink:href="#DejaVuSans-Bold-70" transform="translate(471.386719 0)"/>
      <use xlink:href="#DejaVuSans-Bold-75" transform="translate(542.96875 0)"/>
      <use xlink:href="#DejaVuSans-Bold-74" transform="translate(614.160156 0)"/>
      <use xlink:href="#DejaVuSans-Bold-20" transform="translate(661.962891 0)"/>
      <use xlink:href="#DejaVuSans-Bold-28" transform="translate(696.777344 0)"/>
      <use xlink:href="#DejaVuSans-Bold-69" transform="translate(742.480469 0)"/>
      <use xlink:href="#DejaVuSans-Bold-6e" transform="translate(776.757812 0)"/>
      <use xlink:href="#DejaVuSans-Bold-74" transform="translate(847.949219 0)"/>
      <use xlink:href="#DejaVuSans-Bold-65" transform="translate(895.751953 0)"/>
      <use xlink:href="#DejaVuSans-Bold-72" transform="translate(963.574219 0)"/>
      <use xlink:href="#DejaVuSans-Bold-76" transform="translate(1012.890625 0)"/>
      <use xlink:href="#DejaVuSans-Bold-61" transform="translate(1078.076172 0)"/>
      <use xlink:href="#DejaVuSans-Bold-6c" transform="translate(1145.556641 0)"/>
      <use xlink:href="#DejaVuSans-Bold-73" transform="translate(1179.833984 0)"/>
      <use xlink:href="#DejaVuSans-Bold-2f" transform="translate(1239.355469 0)"/>
      <use xlink:href="#DejaVuSans-Bold-73" transform="translate(1275.878906 0)"/>
      <use xlink:href="#DejaVuSans-Bold-65" transform="translate(1335.400391 0)"/>
      <use xlink:href="#DejaVuSans-Bold-63" transform="translate(1403.222656 0)"/>
      <use xlink:href="#DejaVuSans-Bold-29" transform="translate(1462.5 0)"/>
     </g>
    </g>
   </g>
   <g id="line2d_16">
    <path d="M 109.397727 497.311449 
L 120.003099 214.527022 
L 137.678719 184.976257 
L 155.354339 173.973967 
L 173.029959 162.82246 
L 190.705579 161.506018 
L 208.381198 157.715911 
L 279.083678 162.123957 
L 367.461777 142.950553 
L 455.839876 142.693167 
L 632.596074 123.413269 
L 809.352273 128.075759 
" clip-path="url(#peb0bdbce72)" style="fill: none; stroke: #4c72b0; stroke-width: 2; stroke-linecap: round"/>
    <defs>
     <path id="m7a0264f6e1" d="M 0 4 
C 1.060812 4 2.078319 3.578535 2.828427 2.828427 
C 3.578535 2.078319 4 1.060812 4 0 
C 4 -1.060812 3.578535 -2.078319 2.828427 -2.828427 
C 2.078319 -3.578535 1.060812 -4 0 -4 
C -1.060812 -4 -2.078319 -3.578535 -2.828427 -2.828427 
C -3.578535 -2.078319 -4 -1.060812 -4 0 
C -4 1.060812 -3.578535 2.078319 -2.828427 2.828427 
C -2.078319 3.578535 -1.060812 4 0 4 
z
" style="stroke: #4c72b0"/>
    </defs>
    <g clip-path="url(#peb0bdbce72)">
     <use xlink:href="#m7a0264f6e1" x="109.397727" y="497.311449" style="fill: #4c72b0; stroke: #4c72b0"/>
     <use xlink:href="#m7a0264f6e1" x="120.003099" y="214.527022" style="fill: #4c72b0; stroke: #4c72b0"/>
     <use xlink:href="#m7a0264f6e1" x="137.678719" y="184.976257" style="fill: #4c72b0; stroke: #4c72b0"/>
     <use xlink:href="#m7a0264f6e1" x="155.354339" y="173.973967" style="fill: #4c72b0; stroke: #4c72b0"/>
     <use xlink:href="#m7a0264f6e1" x="173.029959" y="162.82246" style="fill: #4c72b0; stroke: #4c72b0"/>
     <use xlink:href="#m7a0264f6e1" x="190.705579" y="161.506018" style="fill: #4c72b0; stroke: #4c72b0"/>
     <use xlink:href="#m7a0264f6e1" x="208.381198" y="157.715911" style="fill: #4c72b0; stroke: #4c72b0"/>
     <use xlink:href="#m7a0264f6e1" x="279.083678" y="162.123957" style="fill: #4c72b0; stroke: #4c72b0"/>
     <use xlink:href="#m7a0264f6e1" x="367.461777" y="142.950553" style="fill: #4c72b0; stroke: #4c72b0"/>
     <use xlink:href="#m7a0264f6e1" x="455.839876" y="142.693167" style="fill: #4c72b0; stroke: #4c72b0"/>
     <use xlink:href="#m7a0264f6e1" x="632.596074" y="123.413269" style="fill: #4c72b0; stroke: #4c72b0"/>
     <use xlink:href="#m7a0264f6e1" x="809.352273" y="128.075759" style="fill: #4c72b0; stroke: #4c72b0"/>
    </g>
   </g>
   <g id="line2d_17">
    <path d="M 109.397727 476.385728 
L 120.003099 166.188988 
L 137.678719 97.903885 
L 155.354339 84.766538 
L 173.029959 69.021994 
L 190.705579 62.194411 
L 208.381198 58.012225 
L 279.083678 46.844133 
L 367.461777 53.891476 
L 455.839876 51.216328 
L 632.596074 46.384176 
L 809.352273 47.166757 
" clip-path="url(#peb0bdbce72)" style="fill: none; stroke: #dd8452; stroke-width: 2; stroke-linecap: round"/>
    <defs>
     <path id="m9a117a5f0b" d="M 0 4 
C 1.060812 4 2.078319 3.578535 2.828427 2.828427 
C 3.578535 2.078319 4 1.060812 4 0 
C 4 -1.060812 3.578535 -2.078319 2.828427 -2.828427 
C 2.078319 -3.578535 1.060812 -4 0 -4 
C -1.060812 -4 -2.078319 -3.578535 -2.828427 -2.828427 
C -3.578535 -2.078319 -4 -1.060812 -4 0 
C -4 1.060812 -3.578535 2.078319 -2.828427 2.828427 
C -2.078319 3.578535 -1.060812 4 0 4 
z
" style="stroke: #dd8452"/>
    </defs>
    <g clip-path="url(#peb0bdbce72)">
     <use xlink:href="#m9a117a5f0b" x="109.397727" y="476.385728" style="fill: #dd8452; stroke: #dd8452"/>
     <use xlink:href="#m9a117a5f0b" x="120.003099" y="166.188988" style="fill: #dd8452; stroke: #dd8452"/>
     <use xlink:href="#m9a117a5f0b" x="137.678719" y="97.903885" style="fill: #dd8452; stroke: #dd8452"/>
     <use xlink:href="#m9a117a5f0b" x="155.354339" y="84.766538" style="fill: #dd8452; stroke: #dd8452"/>
     <use xlink:href="#m9a117a5f0b" x="173.029959" y="69.021994" style="fill: #dd8452; stroke: #dd8452"/>
     <use xlink:href="#m9a117a5f0b" x="190.705579" y="62.194411" style="fill: #dd8452; stroke: #dd8452"/>
     <use xlink:href="#m9a117a5f0b" x="208.381198" y="58.012225" style="fill: #dd8452; stroke: #dd8452"/>
     <use xlink:href="#m9a117a5f0b" x="279.083678" y="46.844133" style="fill: #dd8452; stroke: #dd8452"/>
     <use xlink:href="#m9a117a5f0b" x="367.461777" y="53.891476" style="fill: #dd8452; stroke: #dd8452"/>
     <use xlink:href="#m9a117a5f0b" x="455.839876" y="51.216328" style="fill: #dd8452; stroke: #dd8452"/>
     <use xlink:href="#m9a117a5f0b" x="632.596074" y="46.384176" style="fill: #dd8452; stroke: #dd8452"/>
     <use xlink:href="#m9a117a5f0b" x="809.352273" y="47.166757" style="fill: #dd8452; stroke: #dd8452"/>
    </g>
   </g>
   <g id="line2d_18">
    <path d="M 109.397727 456.264139 
L 120.003099 240.207654 
L 137.678719 164.533148 
L 155.354339 140.193705 
L 173.029959 130.444063 
L 190.705579 117.305653 
L 208.381198 114.673555 
L 279.083678 105.276508 
L 367.461777 102.166524 
L 455.839876 99.447403 
L 632.596074 96.818902 
L 809.352273 98.312768 
" clip-path="url(#peb0bdbce72)" style="fill: none; stroke: #55a868; stroke-width: 2; stroke-linecap: round"/>
    <defs>
     <path id="mdbe64c36c5" d="M 0 4 
C 1.060812 4 2.078319 3.578535 2.828427 2.828427 
C 3.578535 2.078319 4 1.060812 4 0 
C 4 -1.060812 3.578535 -2.078319 2.828427 -2.828427 
C 2.078319 -3.578535 1.060812 -4 0 -4 
C -1.060812 -4 -2.078319 -3.578535 -2.828427 -2.828427 
C -3.578535 -2.078319 -4 -1.060812 -4 0 
C -4 1.060812 -3.578535 2.078319 -2.828427 2.828427 
C -2.078319 3.578535 -1.060812 4 0 4 
z
" style="stroke: #55a868"/>
    </defs>
    <g clip-path="url(#peb0bdbce72)">
     <use xlink:href="#mdbe64c36c5" x="109.397727" y="456.264139" style="fill: #55a868; stroke: #55a868"/>
     <use xlink:href="#mdbe64c36c5" x="120.003099" y="240.207654" style="fill: #55a868; stroke: #55a868"/>
     <use xlink:href="#mdbe64c36c5" x="137.678719" y="164.533148" style="fill: #55a868; stroke: #55a868"/>
     <use xlink:href="#mdbe64c36c5" x="155.354339" y="140.193705" style="fill: #55a868; stroke: #55a868"/>
     <use xlink:href="#mdbe64c36c5" x="173.029959" y="130.444063" style="fill: #55a868; stroke: #55a868"/>
     <use xlink:href="#mdbe64c36c5" x="190.705579" y="117.305653" style="fill: #55a868; stroke: #55a868"/>
     <use xlink:href="#mdbe64c36c5" x="208.381198" y="114.673555" style="fill: #55a868; stroke: #55a868"/>
     <use xlink:href="#mdbe64c36c5" x="279.083678" y="105.276508" style="fill: #55a868; stroke: #55a868"/>
     <use xlink:href="#mdbe64c36c5" x="367.461777" y="102.166524" style="fill: #55a868; stroke: #55a868"/>
     <use xlink:href="#mdbe64c36c5" x="455.839876" y="99.447403" style="fill: #55a868; stroke: #55a868"/>
     <use xlink:href="#mdbe64c36c5" x="632.596074" y="96.818902" style="fill: #55a868; stroke: #55a868"/>
     <use xlink:href="#mdbe64c36c5" x="809.352273" y="98.312768" style="fill: #55a868; stroke: #55a868"/>
    </g>
   </g>
   <g id="line2d_19">
    <path d="M 109.397727 440.270242 
L 120.003099 352.459266 
L 137.678719 301.017083 
L 155.354339 294.773846 
L 173.029959 270.226088 
L 190.705579 268.680157 
L 208.381198 261.561452 
L 279.083678 255.077744 
L 367.461777 246.572354 
L 455.839876 244.351284 
L 632.596074 245.050284 
L 809.352273 241.446052 
" clip-path="url(#peb0bdbce72)" style="fill: none; stroke: #c44e52; stroke-width: 2; stroke-linecap: round"/>
    <defs>
     <path id="m81f759a807" d="M 0 4 
C 1.060812 4 2.078319 3.578535 2.828427 2.828427 
C 3.578535 2.078319 4 1.060812 4 0 
C 4 -1.060812 3.578535 -2.078319 2.828427 -2.828427 
C 2.078319 -3.578535 1.060812 -4 0 -4 
C -1.060812 -4 -2.078319 -3.578535 -2.828427 -2.828427 
C -3.578535 -2.078319 -4 -1.060812 -4 0 
C -4 1.060812 -3.578535 2.078319 -2.828427 2.828427 
C -2.078319 3.578535 -1.060812 4 0 4 
z
" style="stroke: #c44e52"/>
    </defs>
    <g clip-path="url(#peb0bdbce72)">
     <use xlink:href="#m81f759a807" x="109.397727" y="440.270242" style="fill: #c44e52; stroke: #c44e52"/>
     <use xlink:href="#m81f759a807" x="120.003099" y="352.459266" style="fill: #c44e52; stroke: #c44e52"/>
     <use xlink:href="#m81f759a807" x="137.678719" y="301.017083" style="fill: #c44e52; stroke: #c44e52"/>
     <use xlink:href="#m81f759a807" x="155.354339" y="294.773846" style="fill: #c44e52; stroke: #c44e52"/>
     <use xlink:href="#m81f759a807" x="173.029959" y="270.226088" style="fill: #c44e52; stroke: #c44e52"/>
     <use xlink:href="#m81f759a807" x="190.705579" y="268.680157" style="fill: #c44e52; stroke: #c44e52"/>
     <use xlink:href="#m81f759a807" x="208.381198" y="261.561452" style="fill: #c44e52; stroke: #c44e52"/>
     <use xlink:href="#m81f759a807" x="279.083678" y="255.077744" style="fill: #c44e52; stroke: #c44e52"/>
     <use xlink:href="#m81f759a807" x="367.461777" y="246.572354" style="fill: #c44e52; stroke: #c44e52"/>
     <use xlink:href="#m81f759a807" x="455.839876" y="244.351284" style="fill: #c44e52; stroke: #c44e52"/>
     <use xlink:href="#m81f759a807" x="632.596074" y="245.050284" style="fill: #c44e52; stroke: #c44e52"/>
     <use xlink:href="#m81f759a807" x="809.352273" y="241.446052" style="fill: #c44e52; stroke: #c44e52"/>
    </g>
   </g>
   <g id="patch_3">
    <path d="M 74.4 519.857813 
L 74.4 23.837812 
" style="fill: none; stroke: #cccccc; stroke-width: 1.25; stroke-linejoin: miter; stroke-linecap: square"/>
   </g>
   <g id="patch_4">
    <path d="M 844.35 519.857813 
L 844.35 23.837812 
" style="fill: none; stroke: #cccccc; stroke-width: 1.25; stroke-linejoin: miter; stroke-linecap: square"/>
   </g>
   <g id="patch_5">
    <path d="M 74.4 519.857813 
L 844.35 519.857813 
" style="fill: none; stroke: #cccccc; stroke-width: 1.25; stroke-linejoin: miter; stroke-linecap: square"/>
   </g>
   <g id="patch_6">
    <path d="M 74.4 23.837812 
L 844.35 23.837812 
" style="fill: none; stroke: #cccccc; stroke-width: 1.25; stroke-linejoin: miter; stroke-linecap: square"/>
   </g>
   <g id="text_18">
    <!-- Throughput vs Order - Serialization Size -->
    <g style="fill: #262626" transform="translate(300.844687 17.837812) scale(0.14 -0.14)">
     <defs>
      <path id="DejaVuSans-Bold-2d" d="M 347 2297 
L 2309 2297 
L 2309 1388 
L 347 1388 
L 347 2297 
z
" transform="scale(0.015625)"/>
      <path id="DejaVuSans-Bold-53" d="M 3834 4519 
L 3834 3531 
Q 3450 3703 3084 3790 
Q 2719 3878 2394 3878 
Q 1963 3878 1756 3759 
Q 1550 3641 1550 3391 
Q 1550 3203 1689 3098 
Q 1828 2994 2194 2919 
L 2706 2816 
Q 3484 2659 3812 2340 
Q 4141 2022 4141 1434 
Q 4141 663 3683 286 
Q 3225 -91 2284 -91 
Q 1841 -91 1394 -6 
Q 947 78 500 244 
L 500 1259 
Q 947 1022 1364 901 
Q 1781 781 2169 781 
Q 2563 781 2772 912 
Q 2981 1044 2981 1288 
Q 2981 1506 2839 1625 
Q 2697 1744 2272 1838 
L 1806 1941 
Q 1106 2091 782 2419 
Q 459 2747 459 3303 
Q 459 4000 909 4375 
Q 1359 4750 2203 4750 
Q 2588 4750 2994 4692 
Q 3400 4634 3834 4519 
z
" transform="scale(0.015625)"/>
      <path id="DejaVuSans-Bold-7a" d="M 366 3500 
L 3419 3500 
L 3419 2719 
L 1575 800 
L 3419 800 
L 3419 0 
L 288 0 
L 288 781 
L 2131 2700 
L 366 2700 
L 366 3500 
z
" transform="scale(0.015625)"/>
     </defs>
     <use xlink:href="#DejaVuSans-Bold-54"/>
     <use xlink:href="#DejaVuSans-Bold-68" transform="translate(68.212891 0)"/>
     <use xlink:href="#DejaVuSans-Bold-72" transform="translate(139.404297 0)"/>
     <use xlink:href="#DejaVuSans-Bold-6f" transform="translate(188.720703 0)"/>
     <use xlink:href="#DejaVuSans-Bold-75" transform="translate(257.421875 0)"/>
     <use xlink:href="#DejaVuSans-Bold-67" transform="translate(328.613281 0)"/>
     <use xlink:href="#DejaVuSans-Bold-68" transform="translate(400.195312 0)"/>
     <use xlink:href="#DejaVuSans-Bold-70" transform="translate(471.386719 0)"/>
     <use xlink:href="#DejaVuSans-Bold-75" transform="translate(542.96875 0)"/>
     <use xlink:href="#DejaVuSans-Bold-74" transform="translate(614.160156 0)"/>
     <use xlink:href="#DejaVuSans-Bold-20" transform="translate(661.962891 0)"/>
     <use xlink:href="#DejaVuSans-Bold-76" transform="translate(696.777344 0)"/>
     <use xlink:href="#DejaVuSans-Bold-73" transform="translate(761.962891 0)"/>
     <use xlink:href="#DejaVuSans-Bold-20" transform="translate(821.484375 0)"/>
     <use xlink:href="#DejaVuSans-Bold-4f" transform="translate(856.298828 0)"/>
     <use xlink:href="#DejaVuSans-Bold-72" transform="translate(941.308594 0)"/>
     <use xlink:href="#DejaVuSans-Bold-64" transform="translate(990.625 0)"/>
     <use xlink:href="#DejaVuSans-Bold-65" transform="translate(1062.207031 0)"/>
     <use xlink:href="#DejaVuSans-Bold-72" transform="translate(1130.029297 0)"/>
     <use xlink:href="#DejaVuSans-Bold-20" transform="translate(1179.345703 0)"/>
     <use xlink:href="#DejaVuSans-Bold-2d" transform="translate(1214.160156 0)"/>
     <use xlink:href="#DejaVuSans-Bold-20" transform="translate(1255.664062 0)"/>
     <use xlink:href="#DejaVuSans-Bold-53" transform="translate(1290.478516 0)"/>
     <use xlink:href="#DejaVuSans-Bold-65" transform="translate(1362.5 0)"/>
     <use xlink:href="#DejaVuSans-Bold-72" transform="translate(1430.322266 0)"/>
     <use xlink:href="#DejaVuSans-Bold-69" transform="translate(1479.638672 0)"/>
     <use xlink:href="#DejaVuSans-Bold-61" transform="translate(1513.916016 0)"/>
     <use xlink:href="#DejaVuSans-Bold-6c" transform="translate(1581.396484 0)"/>
     <use xlink:href="#DejaVuSans-Bold-69" transform="translate(1615.673828 0)"/>
     <use xlink:href="#DejaVuSans-Bold-7a" transform="translate(1649.951172 0)"/>
     <use xlink:href="#DejaVuSans-Bold-61" transform="translate(1708.154297 0)"/>
     <use xlink:href="#DejaVuSans-Bold-74" transform="translate(1775.634766 0)"/>
     <use xlink:href="#DejaVuSans-Bold-69" transform="translate(1823.4375 0)"/>
     <use xlink:href="#DejaVuSans-Bold-6f" transform="translate(1857.714844 0)"/>
     <use xlink:href="#DejaVuSans-Bold-6e" transform="translate(1926.416016 0)"/>
     <use xlink:href="#DejaVuSans-Bold-20" transform="translate(1997.607422 0)"/>
     <use xlink:href="#DejaVuSans-Bold-53" transform="translate(2032.421875 0)"/>
     <use xlink:href="#DejaVuSans-Bold-69" transform="translate(2104.443359 0)"/>
     <use xlink:href="#DejaVuSans-Bold-7a" transform="translate(2138.720703 0)"/>
     <use xlink:href="#DejaVuSans-Bold-65" transform="translate(2196.923828 0)"/>
    </g>
   </g>
   <g id="legend_1">
    <g id="patch_7">
     <path d="M 733.3875 514.857813 
L 837.35 514.857813 
Q 839.35 514.857813 839.35 512.857813 
L 839.35 439.499375 
Q 839.35 437.499375 837.35 437.499375 
L 733.3875 437.499375 
Q 731.3875 437.499375 731.3875 439.499375 
L 731.3875 512.857813 
Q 731.3875 514.857813 733.3875 514.857813 
z
" style="fill: #ffffff; opacity: 0.8; stroke: #cccccc; stroke-linejoin: miter"/>
    </g>
    <g id="text_19">
     <!-- Dataset Size -->
     <g style="fill: #262626" transform="translate(750.792656 449.857656) scale(0.11 -0.11)">
      <defs>
       <path id="DejaVuSans-44" d="M 1259 4147 
L 1259 519 
L 2022 519 
Q 2988 519 3436 956 
Q 3884 1394 3884 2338 
Q 3884 3275 3436 3711 
Q 2988 4147 2022 4147 
L 1259 4147 
z
M 628 4666 
L 1925 4666 
Q 3281 4666 3915 4102 
Q 4550 3538 4550 2338 
Q 4550 1131 3912 565 
Q 3275 0 1925 0 
L 628 0 
L 628 4666 
z
" transform="scale(0.015625)"/>
       <path id="DejaVuSans-61" d="M 2194 1759 
Q 1497 1759 1228 1600 
Q 959 1441 959 1056 
Q 959 750 1161 570 
Q 1363 391 1709 391 
Q 2188 391 2477 730 
Q 2766 1069 2766 1631 
L 2766 1759 
L 2194 1759 
z
M 3341 1997 
L 3341 0 
L 2766 0 
L 2766 531 
Q 2569 213 2275 61 
Q 1981 -91 1556 -91 
Q 1019 -91 701 211 
Q 384 513 384 1019 
Q 384 1609 779 1909 
Q 1175 2209 1959 2209 
L 2766 2209 
L 2766 2266 
Q 2766 2663 2505 2880 
Q 2244 3097 1772 3097 
Q 1472 3097 1187 3025 
Q 903 2953 641 2809 
L 641 3341 
Q 956 3463 1253 3523 
Q 1550 3584 1831 3584 
Q 2591 3584 2966 3190 
Q 3341 2797 3341 1997 
z
" transform="scale(0.015625)"/>
       <path id="DejaVuSans-74" d="M 1172 4494 
L 1172 3500 
L 2356 3500 
L 2356 3053 
L 1172 3053 
L 1172 1153 
Q 1172 725 1289 603 
Q 1406 481 1766 481 
L 2356 481 
L 2356 0 
L 1766 0 
Q 1100 0 847 248 
Q 594 497 594 1153 
L 594 3053 
L 172 3053 
L 172 3500 
L 594 3500 
L 594 4494 
L 1172 4494 
z
" transform="scale(0.015625)"/>
       <path id="DejaVuSans-73" d="M 2834 3397 
L 2834 2853 
Q 2591 2978 2328 3040 
Q 2066 3103 1784 3103 
Q 1356 3103 1142 2972 
Q 928 2841 928 2578 
Q 928 2378 1081 2264 
Q 1234 2150 1697 2047 
L 1894 2003 
Q 2506 1872 2764 1633 
Q 3022 1394 3022 966 
Q 3022 478 2636 193 
Q 2250 -91 1575 -91 
Q 1294 -91 989 -36 
Q 684 19 347 128 
L 347 722 
Q 666 556 975 473 
Q 1284 391 1588 391 
Q 1994 391 2212 530 
Q 2431 669 2431 922 
Q 2431 1156 2273 1281 
Q 2116 1406 1581 1522 
L 1381 1569 
Q 847 1681 609 1914 
Q 372 2147 372 2553 
Q 372 3047 722 3315 
Q 1072 3584 1716 3584 
Q 2034 3584 2315 3537 
Q 2597 3491 2834 3397 
z
" transform="scale(0.015625)"/>
       <path id="DejaVuSans-65" d="M 3597 1894 
L 3597 1613 
L 953 1613 
Q 991 1019 1311 708 
Q 1631 397 2203 397 
Q 2534 397 2845 478 
Q 3156 559 3463 722 
L 3463 178 
Q 3153 47 2828 -22 
Q 2503 -91 2169 -91 
Q 1331 -91 842 396 
Q 353 884 353 1716 
Q 353 2575 817 3079 
Q 1281 3584 2069 3584 
Q 2775 3584 3186 3129 
Q 3597 2675 3597 1894 
z
M 3022 2063 
Q 3016 2534 2758 2815 
Q 2500 3097 2075 3097 
Q 1594 3097 1305 2825 
Q 1016 2553 972 2059 
L 3022 2063 
z
" transform="scale(0.015625)"/>
       <path id="DejaVuSans-20" transform="scale(0.015625)"/>
       <path id="DejaVuSans-53" d="M 3425 4513 
L 3425 3897 
Q 3066 4069 2747 4153 
Q 2428 4238 2131 4238 
Q 1616 4238 1336 4038 
Q 1056 3838 1056 3469 
Q 1056 3159 1242 3001 
Q 1428 2844 1947 2747 
L 2328 2669 
Q 3034 2534 3370 2195 
Q 3706 1856 3706 1288 
Q 3706 609 3251 259 
Q 2797 -91 1919 -91 
Q 1588 -91 1214 -16 
Q 841 59 441 206 
L 441 856 
Q 825 641 1194 531 
Q 1563 422 1919 422 
Q 2459 422 2753 634 
Q 3047 847 3047 1241 
Q 3047 1584 2836 1778 
Q 2625 1972 2144 2069 
L 1759 2144 
Q 1053 2284 737 2584 
Q 422 2884 422 3419 
Q 422 4038 858 4394 
Q 1294 4750 2059 4750 
Q 2388 4750 2728 4690 
Q 3069 4631 3425 4513 
z
" transform="scale(0.015625)"/>
       <path id="DejaVuSans-69" d="M 603 3500 
L 1178 3500 
L 1178 0 
L 603 0 
L 603 3500 
z
M 603 4863 
L 1178 4863 
L 1178 4134 
L 603 4134 
L 603 4863 
z
" transform="scale(0.015625)"/>
       <path id="DejaVuSans-7a" d="M 353 3500 
L 3084 3500 
L 3084 2975 
L 922 459 
L 3084 459 
L 3084 0 
L 275 0 
L 275 525 
L 2438 3041 
L 353 3041 
L 353 3500 
z
" transform="scale(0.015625)"/>
      </defs>
      <use xlink:href="#DejaVuSans-44"/>
      <use xlink:href="#DejaVuSans-61" transform="translate(77.001953 0)"/>
      <use xlink:href="#DejaVuSans-74" transform="translate(138.28125 0)"/>
      <use xlink:href="#DejaVuSans-61" transform="translate(177.490234 0)"/>
      <use xlink:href="#DejaVuSans-73" transform="translate(238.769531 0)"/>
      <use xlink:href="#DejaVuSans-65" transform="translate(290.869141 0)"/>
      <use xlink:href="#DejaVuSans-74" transform="translate(352.392578 0)"/>
      <use xlink:href="#DejaVuSans-20" transform="translate(391.601562 0)"/>
      <use xlink:href="#DejaVuSans-53" transform="translate(423.388672 0)"/>
      <use xlink:href="#DejaVuSans-69" transform="translate(486.865234 0)"/>
      <use xlink:href="#DejaVuSans-7a" transform="translate(514.648438 0)"/>
      <use xlink:href="#DejaVuSans-65" transform="translate(567.138672 0)"/>
     </g>
    </g>
    <g id="line2d_20">
     <path d="M 735.3875 461.24375 
L 745.3875 461.24375 
L 755.3875 461.24375 
" style="fill: none; stroke: #4c72b0; stroke-width: 2; stroke-linecap: round"/>
     <g>
      <use xlink:href="#m7a0264f6e1" x="745.3875" y="461.24375" style="fill: #4c72b0; stroke: #4c72b0"/>
     </g>
    </g>
    <g id="text_20">
     <!-- 100 intervals -->
     <g style="fill: #262626" transform="translate(763.3875 464.74375) scale(0.1 -0.1)">
      <defs>
       <path id="DejaVuSans-6e" d="M 3513 2113 
L 3513 0 
L 2938 0 
L 2938 2094 
Q 2938 2591 2744 2837 
Q 2550 3084 2163 3084 
Q 1697 3084 1428 2787 
Q 1159 2491 1159 1978 
L 1159 0 
L 581 0 
L 581 3500 
L 1159 3500 
L 1159 2956 
Q 1366 3272 1645 3428 
Q 1925 3584 2291 3584 
Q 2894 3584 3203 3211 
Q 3513 2838 3513 2113 
z
" transform="scale(0.015625)"/>
       <path id="DejaVuSans-72" d="M 2631 2963 
Q 2534 3019 2420 3045 
Q 2306 3072 2169 3072 
Q 1681 3072 1420 2755 
Q 1159 2438 1159 1844 
L 1159 0 
L 581 0 
L 581 3500 
L 1159 3500 
L 1159 2956 
Q 1341 3275 1631 3429 
Q 1922 3584 2338 3584 
Q 2397 3584 2469 3576 
Q 2541 3569 2628 3553 
L 2631 2963 
z
" transform="scale(0.015625)"/>
       <path id="DejaVuSans-76" d="M 191 3500 
L 800 3500 
L 1894 563 
L 2988 3500 
L 3597 3500 
L 2284 0 
L 1503 0 
L 191 3500 
z
" transform="scale(0.015625)"/>
       <path id="DejaVuSans-6c" d="M 603 4863 
L 1178 4863 
L 1178 0 
L 603 0 
L 603 4863 
z
" transform="scale(0.015625)"/>
      </defs>
      <use xlink:href="#DejaVuSans-31"/>
      <use xlink:href="#DejaVuSans-30" transform="translate(63.623047 0)"/>
      <use xlink:href="#DejaVuSans-30" transform="translate(127.246094 0)"/>
      <use xlink:href="#DejaVuSans-20" transform="translate(190.869141 0)"/>
      <use xlink:href="#DejaVuSans-69" transform="translate(222.65625 0)"/>
      <use xlink:href="#DejaVuSans-6e" transform="translate(250.439453 0)"/>
      <use xlink:href="#DejaVuSans-74" transform="translate(313.818359 0)"/>
      <use xlink:href="#DejaVuSans-65" transform="translate(353.027344 0)"/>
      <use xlink:href="#DejaVuSans-72" transform="translate(414.550781 0)"/>
      <use xlink:href="#DejaVuSans-76" transform="translate(455.664062 0)"/>
      <use xlink:href="#DejaVuSans-61" transform="translate(514.84375 0)"/>
      <use xlink:href="#DejaVuSans-6c" transform="translate(576.123047 0)"/>
      <use xlink:href="#DejaVuSans-73" transform="translate(603.90625 0)"/>
     </g>
    </g>
    <g id="line2d_21">
     <path d="M 735.3875 475.921875 
L 745.3875 475.921875 
L 755.3875 475.921875 
" style="fill: none; stroke: #dd8452; stroke-width: 2; stroke-linecap: round"/>
     <g>
      <use xlink:href="#m9a117a5f0b" x="745.3875" y="475.921875" style="fill: #dd8452; stroke: #dd8452"/>
     </g>
    </g>
    <g id="text_21">
     <!-- 500 intervals -->
     <g style="fill: #262626" transform="translate(763.3875 479.421875) scale(0.1 -0.1)">
      <use xlink:href="#DejaVuSans-35"/>
      <use xlink:href="#DejaVuSans-30" transform="translate(63.623047 0)"/>
      <use xlink:href="#DejaVuSans-30" transform="translate(127.246094 0)"/>
      <use xlink:href="#DejaVuSans-20" transform="translate(190.869141 0)"/>
      <use xlink:href="#DejaVuSans-69" transform="translate(222.65625 0)"/>
      <use xlink:href="#DejaVuSans-6e" transform="translate(250.439453 0)"/>
      <use xlink:href="#DejaVuSans-74" transform="translate(313.818359 0)"/>
      <use xlink:href="#DejaVuSans-65" transform="translate(353.027344 0)"/>
      <use xlink:href="#DejaVuSans-72" transform="translate(414.550781 0)"/>
      <use xlink:href="#DejaVuSans-76" transform="translate(455.664062 0)"/>
      <use xlink:href="#DejaVuSans-61" transform="translate(514.84375 0)"/>
      <use xlink:href="#DejaVuSans-6c" transform="translate(576.123047 0)"/>
      <use xlink:href="#DejaVuSans-73" transform="translate(603.90625 0)"/>
     </g>
    </g>
    <g id="line2d_22">
     <path d="M 735.3875 490.6 
L 745.3875 490.6 
L 755.3875 490.6 
" style="fill: none; stroke: #55a868; stroke-width: 2; stroke-linecap: round"/>
     <g>
      <use xlink:href="#mdbe64c36c5" x="745.3875" y="490.6" style="fill: #55a868; stroke: #55a868"/>
     </g>
    </g>
    <g id="text_22">
     <!-- 1000 intervals -->
     <g style="fill: #262626" transform="translate(763.3875 494.1) scale(0.1 -0.1)">
      <use xlink:href="#DejaVuSans-31"/>
      <use xlink:href="#DejaVuSans-30" transform="translate(63.623047 0)"/>
      <use xlink:href="#DejaVuSans-30" transform="translate(127.246094 0)"/>
      <use xlink:href="#DejaVuSans-30" transform="translate(190.869141 0)"/>
      <use xlink:href="#DejaVuSans-20" transform="translate(254.492188 0)"/>
      <use xlink:href="#DejaVuSans-69" transform="translate(286.279297 0)"/>
      <use xlink:href="#DejaVuSans-6e" transform="translate(314.0625 0)"/>
      <use xlink:href="#DejaVuSans-74" transform="translate(377.441406 0)"/>
      <use xlink:href="#DejaVuSans-65" transform="translate(416.650391 0)"/>
      <use xlink:href="#DejaVuSans-72" transform="translate(478.173828 0)"/>
      <use xlink:href="#DejaVuSans-76" transform="translate(519.287109 0)"/>
      <use xlink:href="#DejaVuSans-61" transform="translate(578.466797 0)"/>
      <use xlink:href="#DejaVuSans-6c" transform="translate(639.746094 0)"/>
      <use xlink:href="#DejaVuSans-73" transform="translate(667.529297 0)"/>
     </g>
    </g>
    <g id="line2d_23">
     <path d="M 735.3875 505.278125 
L 745.3875 505.278125 
L 755.3875 505.278125 
" style="fill: none; stroke: #c44e52; stroke-width: 2; stroke-linecap: round"/>
     <g>
      <use xlink:href="#m81f759a807" x="745.3875" y="505.278125" style="fill: #c44e52; stroke: #c44e52"/>
     </g>
    </g>
    <g id="text_23">
     <!-- 5000 intervals -->
     <g style="fill: #262626" transform="translate(763.3875 508.778125) scale(0.1 -0.1)">
      <use xlink:href="#DejaVuSans-35"/>
      <use xlink:href="#DejaVuSans-30" transform="translate(63.623047 0)"/>
      <use xlink:href="#DejaVuSans-30" transform="translate(127.246094 0)"/>
      <use xlink:href="#DejaVuSans-30" transform="translate(190.869141 0)"/>
      <use xlink:href="#DejaVuSans-20" transform="translate(254.492188 0)"/>
      <use xlink:href="#DejaVuSans-69" transform="translate(286.279297 0)"/>
      <use xlink:href="#DejaVuSans-6e" transform="translate(314.0625 0)"/>
      <use xlink:href="#DejaVuSans-74" transform="translate(377.441406 0)"/>
      <use xlink:href="#DejaVuSans-65" transform="translate(416.650391 0)"/>
      <use xlink:href="#DejaVuSans-72" transform="translate(478.173828 0)"/>
      <use xlink:href="#DejaVuSans-76" transform="translate(519.287109 0)"/>
      <use xlink:href="#DejaVuSans-61" transform="translate(578.466797 0)"/>
      <use xlink:href="#DejaVuSans-6c" transform="translate(639.746094 0)"/>
      <use xlink:href="#DejaVuSans-73" transform="translate(667.529297 0)"/>
     </g>
    </g>
   </g>
  </g>
 </g>
 <defs>
  <clipPath id="peb0bdbce72">
   <rect x="74.4" y="23.837812" width="769.95" height="496.02"/>
  </clipPath>
 </defs>
</svg>
