<?xml version="1.0" encoding="utf-8" standalone="no"?>
<!DOCTYPE svg PUBLIC "-//W3C//DTD SVG 1.1//EN"
  "http://www.w3.org/Graphics/SVG/1.1/DTD/svg11.dtd">
<svg xmlns:xlink="http://www.w3.org/1999/xlink" width="851.731562pt" height="564.239219pt" viewBox="0 0 851.731562 564.239219" xmlns="http://www.w3.org/2000/svg" version="1.1">
 <metadata>
  <rdf:RDF xmlns:dc="http://purl.org/dc/elements/1.1/" xmlns:cc="http://creativecommons.org/ns#" xmlns:rdf="http://www.w3.org/1999/02/22-rdf-syntax-ns#">
   <cc:Work>
    <dc:type rdf:resource="http://purl.org/dc/dcmitype/StillImage"/>
    <dc:date>2026-07-22T17:12:22.874345</dc:date>
    <dc:format>image/svg+xml</dc:format>
    <dc:creator>
     <cc:Agent>
      <dc:title>Matplotlib v3.11.1, https://matplotlib.org/</dc:title>
     </cc:Agent>
    </dc:creator>
   </cc:Work>
  </rdf:RDF>
 </metadata>
 <defs>
  <style type="text/css">*{stroke-linejoin: round; stroke-linecap: butt}</style>
 </defs>
 <g id="figure_1">
  <g id="patch_1">
   <path d="M 0 564.239219 
L 851.731562 564.239219 
L 851.731562 0 
L 0 0 
z
" style="fill: #ffffff"/>
  </g>
  <g id="axes_1">
   <g id="patch_2">
    <path d="M 50.194375 520.538281 
L 844.531562 520.538281 
L 844.531562 23.837812 
L 50.194375 23.837812 
z
" style="fill: #ffffff"/>
   </g>
   <g id="matplotlib.axis_1">
    <g id="xtick_1">
     <g id="line2d_1">
      <path d="M 75.303788 520.538281 
L 75.303788 23.837812 
" clip-path="url(#pd85edaa66c)" style="fill: none; stroke: #cccccc; stroke-opacity: 0.3; stroke-linecap: round"/>
     </g>
     <g id="text_1">
      <!-- 0 -->
      <g style="fill: #262626" transform="translate(71.804413 538.395703) scale(0.11 -0.11)">
       <defs>
        <path id="DejaVuSans-13" d="M 2034 4250 
Q 1547 4250 1301 3770 
Q 1056 3291 1056 2328 
Q 1056 1369 1301 889 
Q 1547 409 2034 409 
Q 2525 409 2770 889 
Q 3016 1369 3016 2328 
Q 3016 3291 2770 3770 
Q 2525 4250 2034 4250 
z
M 2034 4750 
Q 2819 4750 3233 4129 
Q 3647 3509 3647 2328 
Q 3647 1150 3233 529 
Q 2819 -91 2034 -91 
Q 1250 -91 836 529 
Q 422 1150 422 2328 
Q 422 3509 836 4129 
Q 1250 4750 2034 4750 
z
" transform="scale(0.015625)"/>
       </defs>
       <use xlink:href="#DejaVuSans-13"/>
      </g>
     </g>
    </g>
    <g id="xtick_2">
     <g id="line2d_2">
      <path d="M 166.94398 520.538281 
L 166.94398 23.837812 
" clip-path="url(#pd85edaa66c)" style="fill: none; stroke: #cccccc; stroke-opacity: 0.3; stroke-linecap: round"/>
     </g>
     <g id="text_2">
      <!-- 25 -->
      <g style="fill: #262626" transform="translate(159.94523 538.395703) scale(0.11 -0.11)">
       <defs>
        <path id="DejaVuSans-15" d="M 1228 531 
L 3431 531 
L 3431 0 
L 469 0 
L 469 531 
Q 828 903 1448 1529 
Q 2069 2156 2228 2338 
Q 2531 2678 2651 2914 
Q 2772 3150 2772 3378 
Q 2772 3750 2511 3984 
Q 2250 4219 1831 4219 
Q 1534 4219 1204 4116 
Q 875 4013 500 3803 
L 500 4441 
Q 881 4594 1212 4672 
Q 1544 4750 1819 4750 
Q 2544 4750 2975 4387 
Q 3406 4025 3406 3419 
Q 3406 3131 3298 2873 
Q 3191 2616 2906 2266 
Q 2828 2175 2409 1742 
Q 1991 1309 1228 531 
z
" transform="scale(0.015625)"/>
        <path id="DejaVuSans-18" d="M 691 4666 
L 3169 4666 
L 3169 4134 
L 1269 4134 
L 1269 2991 
Q 1406 3038 1543 3061 
Q 1681 3084 1819 3084 
Q 2600 3084 3056 2656 
Q 3513 2228 3513 1497 
Q 3513 744 3044 326 
Q 2575 -91 1722 -91 
Q 1428 -91 1123 -41 
Q 819 9 494 109 
L 494 744 
Q 775 591 1075 516 
Q 1375 441 1709 441 
Q 2250 441 2565 725 
Q 2881 1009 2881 1497 
Q 2881 1984 2565 2268 
Q 2250 2553 1709 2553 
Q 1456 2553 1204 2497 
Q 953 2441 691 2322 
L 691 4666 
z
" transform="scale(0.015625)"/>
       </defs>
       <use xlink:href="#DejaVuSans-15"/>
       <use xlink:href="#DejaVuSans-18" transform="translate(63.625 0)"/>
      </g>
     </g>
    </g>
    <g id="xtick_3">
     <g id="line2d_3">
      <path d="M 258.584172 520.538281 
L 258.584172 23.837812 
" clip-path="url(#pd85edaa66c)" style="fill: none; stroke: #cccccc; stroke-opacity: 0.3; stroke-linecap: round"/>
     </g>
     <g id="text_3">
      <!-- 50 -->
      <g style="fill: #262626" transform="translate(251.585422 538.395703) scale(0.11 -0.11)">
       <use xlink:href="#DejaVuSans-18"/>
       <use xlink:href="#DejaVuSans-13" transform="translate(63.625 0)"/>
      </g>
     </g>
    </g>
    <g id="xtick_4">
     <g id="line2d_4">
      <path d="M 350.224365 520.538281 
L 350.224365 23.837812 
" clip-path="url(#pd85edaa66c)" style="fill: none; stroke: #cccccc; stroke-opacity: 0.3; stroke-linecap: round"/>
     </g>
     <g id="text_4">
      <!-- 75 -->
      <g style="fill: #262626" transform="translate(343.225615 538.395703) scale(0.11 -0.11)">
       <defs>
        <path id="DejaVuSans-1a" d="M 525 4666 
L 3525 4666 
L 3525 4397 
L 1831 0 
L 1172 0 
L 2766 4134 
L 525 4134 
L 525 4666 
z
" transform="scale(0.015625)"/>
       </defs>
       <use xlink:href="#DejaVuSans-1a"/>
       <use xlink:href="#DejaVuSans-18" transform="translate(63.625 0)"/>
      </g>
     </g>
    </g>
    <g id="xtick_5">
     <g id="line2d_5">
      <path d="M 441.864557 520.538281 
L 441.864557 23.837812 
" clip-path="url(#pd85edaa66c)" style="fill: none; stroke: #cccccc; stroke-opacity: 0.3; stroke-linecap: round"/>
     </g>
     <g id="text_5">
      <!-- 100 -->
      <g style="fill: #262626" transform="translate(431.366432 538.395703) scale(0.11 -0.11)">
       <defs>
        <path id="DejaVuSans-14" d="M 794 531 
L 1825 531 
L 1825 4091 
L 703 3866 
L 703 4441 
L 1819 4666 
L 2450 4666 
L 2450 531 
L 3481 531 
L 3481 0 
L 794 0 
L 794 531 
z
" transform="scale(0.015625)"/>
       </defs>
       <use xlink:href="#DejaVuSans-14"/>
       <use xlink:href="#DejaVuSans-13" transform="translate(63.625 0)"/>
       <use xlink:href="#DejaVuSans-13" transform="translate(127.25 0)"/>
      </g>
     </g>
    </g>
    <g id="xtick_6">
     <g id="line2d_6">
      <path d="M 533.50475 520.538281 
L 533.50475 23.837812 
" clip-path="url(#pd85edaa66c)" style="fill: none; stroke: #cccccc; stroke-opacity: 0.3; stroke-linecap: round"/>
     </g>
     <g id="text_6">
      <!-- 125 -->
      <g style="fill: #262626" transform="translate(523.006625 538.395703) scale(0.11 -0.11)">
       <use xlink:href="#DejaVuSans-14"/>
       <use xlink:href="#DejaVuSans-15" transform="translate(63.625 0)"/>
       <use xlink:href="#DejaVuSans-18" transform="translate(127.25 0)"/>
      </g>
     </g>
    </g>
    <g id="xtick_7">
     <g id="line2d_7">
      <path d="M 625.144942 520.538281 
L 625.144942 23.837812 
" clip-path="url(#pd85edaa66c)" style="fill: none; stroke: #cccccc; stroke-opacity: 0.3; stroke-linecap: round"/>
     </g>
     <g id="text_7">
      <!-- 150 -->
      <g style="fill: #262626" transform="translate(614.646817 538.395703) scale(0.11 -0.11)">
       <use xlink:href="#DejaVuSans-14"/>
       <use xlink:href="#DejaVuSans-18" transform="translate(63.625 0)"/>
       <use xlink:href="#DejaVuSans-13" transform="translate(127.25 0)"/>
      </g>
     </g>
    </g>
    <g id="xtick_8">
     <g id="line2d_8">
      <path d="M 716.785134 520.538281 
L 716.785134 23.837812 
" clip-path="url(#pd85edaa66c)" style="fill: none; stroke: #cccccc; stroke-opacity: 0.3; stroke-linecap: round"/>
     </g>
     <g id="text_8">
      <!-- 175 -->
      <g style="fill: #262626" transform="translate(706.287009 538.395703) scale(0.11 -0.11)">
       <use xlink:href="#DejaVuSans-14"/>
       <use xlink:href="#DejaVuSans-1a" transform="translate(63.625 0)"/>
       <use xlink:href="#DejaVuSans-18" transform="translate(127.25 0)"/>
      </g>
     </g>
    </g>
    <g id="xtick_9">
     <g id="line2d_9">
      <path d="M 808.425327 520.538281 
L 808.425327 23.837812 
" clip-path="url(#pd85edaa66c)" style="fill: none; stroke: #cccccc; stroke-opacity: 0.3; stroke-linecap: round"/>
     </g>
     <g id="text_9">
      <!-- 200 -->
      <g style="fill: #262626" transform="translate(797.927202 538.395703) scale(0.11 -0.11)">
       <use xlink:href="#DejaVuSans-15"/>
       <use xlink:href="#DejaVuSans-13" transform="translate(63.625 0)"/>
       <use xlink:href="#DejaVuSans-13" transform="translate(127.25 0)"/>
      </g>
     </g>
    </g>
    <g id="text_10">
     <!-- Order (k) -->
     <g style="fill: #262626" transform="translate(416.417031 554.156406) scale(0.12 -0.12)">
      <defs>
       <path id="DejaVuSans-Bold-32" d="M 2719 3878 
Q 2169 3878 1866 3472 
Q 1563 3066 1563 2328 
Q 1563 1594 1866 1187 
Q 2169 781 2719 781 
Q 3272 781 3575 1187 
Q 3878 1594 3878 2328 
Q 3878 3066 3575 3472 
Q 3272 3878 2719 3878 
z
M 2719 4750 
Q 3844 4750 4481 4106 
Q 5119 3463 5119 2328 
Q 5119 1197 4481 553 
Q 3844 -91 2719 -91 
Q 1597 -91 958 553 
Q 319 1197 319 2328 
Q 319 3463 958 4106 
Q 1597 4750 2719 4750 
z
" transform="scale(0.015625)"/>
       <path id="DejaVuSans-Bold-55" d="M 3138 2547 
Q 2991 2616 2845 2648 
Q 2700 2681 2553 2681 
Q 2122 2681 1889 2404 
Q 1656 2128 1656 1613 
L 1656 0 
L 538 0 
L 538 3500 
L 1656 3500 
L 1656 2925 
Q 1872 3269 2151 3426 
Q 2431 3584 2822 3584 
Q 2878 3584 2943 3579 
Q 3009 3575 3134 3559 
L 3138 2547 
z
" transform="scale(0.015625)"/>
       <path id="DejaVuSans-Bold-47" d="M 2919 2988 
L 2919 4863 
L 4044 4863 
L 4044 0 
L 2919 0 
L 2919 506 
Q 2688 197 2409 53 
Q 2131 -91 1766 -91 
Q 1119 -91 703 423 
Q 288 938 288 1747 
Q 288 2556 703 3070 
Q 1119 3584 1766 3584 
Q 2128 3584 2408 3439 
Q 2688 3294 2919 2988 
z
M 2181 722 
Q 2541 722 2730 984 
Q 2919 1247 2919 1747 
Q 2919 2247 2730 2509 
Q 2541 2772 2181 2772 
Q 1825 2772 1636 2509 
Q 1447 2247 1447 1747 
Q 1447 1247 1636 984 
Q 1825 722 2181 722 
z
" transform="scale(0.015625)"/>
       <path id="DejaVuSans-Bold-48" d="M 4031 1759 
L 4031 1441 
L 1416 1441 
Q 1456 1047 1700 850 
Q 1944 653 2381 653 
Q 2734 653 3104 758 
Q 3475 863 3866 1075 
L 3866 213 
Q 3469 63 3072 -14 
Q 2675 -91 2278 -91 
Q 1328 -91 801 392 
Q 275 875 275 1747 
Q 275 2603 792 3093 
Q 1309 3584 2216 3584 
Q 3041 3584 3536 3087 
Q 4031 2591 4031 1759 
z
M 2881 2131 
Q 2881 2450 2695 2645 
Q 2509 2841 2209 2841 
Q 1884 2841 1681 2658 
Q 1478 2475 1428 2131 
L 2881 2131 
z
" transform="scale(0.015625)"/>
       <path id="DejaVuSans-Bold-3" transform="scale(0.015625)"/>
       <path id="DejaVuSans-Bold-b" d="M 2413 -844 
L 1484 -844 
Q 1006 -72 778 623 
Q 550 1319 550 2003 
Q 550 2688 779 3389 
Q 1009 4091 1484 4856 
L 2413 4856 
Q 2013 4116 1813 3408 
Q 1613 2700 1613 2009 
Q 1613 1319 1811 609 
Q 2009 -100 2413 -844 
z
" transform="scale(0.015625)"/>
       <path id="DejaVuSans-Bold-4e" d="M 538 4863 
L 1656 4863 
L 1656 2216 
L 2944 3500 
L 4244 3500 
L 2534 1894 
L 4378 0 
L 3022 0 
L 1656 1459 
L 1656 0 
L 538 0 
L 538 4863 
z
" transform="scale(0.015625)"/>
       <path id="DejaVuSans-Bold-c" d="M 513 -844 
Q 913 -100 1113 609 
Q 1313 1319 1313 2009 
Q 1313 2700 1113 3408 
Q 913 4116 513 4856 
L 1441 4856 
Q 1916 4091 2145 3389 
Q 2375 2688 2375 2003 
Q 2375 1319 2147 623 
Q 1919 -72 1441 -844 
L 513 -844 
z
" transform="scale(0.015625)"/>
      </defs>
      <use xlink:href="#DejaVuSans-Bold-32"/>
      <use xlink:href="#DejaVuSans-Bold-55" transform="translate(85.015625 0)"/>
      <use xlink:href="#DejaVuSans-Bold-47" transform="translate(134.328125 0)"/>
      <use xlink:href="#DejaVuSans-Bold-48" transform="translate(205.90625 0)"/>
      <use xlink:href="#DejaVuSans-Bold-55" transform="translate(273.734375 0)"/>
      <use xlink:href="#DejaVuSans-Bold-3" transform="translate(323.046875 0)"/>
      <use xlink:href="#DejaVuSans-Bold-b" transform="translate(357.859375 0)"/>
      <use xlink:href="#DejaVuSans-Bold-4e" transform="translate(403.5625 0)"/>
      <use xlink:href="#DejaVuSans-Bold-c" transform="translate(470.0625 0)"/>
     </g>
    </g>
   </g>
   <g id="matplotlib.axis_2">
    <g id="ytick_1">
     <g id="line2d_10">
      <path d="M 50.194375 468.022935 
L 844.531562 468.022935 
" clip-path="url(#pd85edaa66c)" style="fill: none; stroke: #cccccc; stroke-opacity: 0.3; stroke-linecap: round"/>
     </g>
     <g id="text_11">
      <!-- 1.0 -->
      <g style="fill: #262626" transform="translate(23.200938 472.201646) scale(0.11 -0.11)">
       <defs>
        <path id="DejaVuSans-11" d="M 684 794 
L 1344 794 
L 1344 0 
L 684 0 
L 684 794 
z
" transform="scale(0.015625)"/>
       </defs>
       <use xlink:href="#DejaVuSans-14"/>
       <use xlink:href="#DejaVuSans-11" transform="translate(63.625 0)"/>
       <use xlink:href="#DejaVuSans-13" transform="translate(95.40625 0)"/>
      </g>
     </g>
    </g>
    <g id="ytick_2">
     <g id="line2d_11">
      <path d="M 50.194375 412.832505 
L 844.531562 412.832505 
" clip-path="url(#pd85edaa66c)" style="fill: none; stroke: #cccccc; stroke-opacity: 0.3; stroke-linecap: round"/>
     </g>
     <g id="text_12">
      <!-- 1.2 -->
      <g style="fill: #262626" transform="translate(23.200938 417.011216) scale(0.11 -0.11)">
       <use xlink:href="#DejaVuSans-14"/>
       <use xlink:href="#DejaVuSans-11" transform="translate(63.625 0)"/>
       <use xlink:href="#DejaVuSans-15" transform="translate(95.40625 0)"/>
      </g>
     </g>
    </g>
    <g id="ytick_3">
     <g id="line2d_12">
      <path d="M 50.194375 357.642075 
L 844.531562 357.642075 
" clip-path="url(#pd85edaa66c)" style="fill: none; stroke: #cccccc; stroke-opacity: 0.3; stroke-linecap: round"/>
     </g>
     <g id="text_13">
      <!-- 1.4 -->
      <g style="fill: #262626" transform="translate(23.200938 361.820786) scale(0.11 -0.11)">
       <defs>
        <path id="DejaVuSans-17" d="M 2419 4116 
L 825 1625 
L 2419 1625 
L 2419 4116 
z
M 2253 4666 
L 3047 4666 
L 3047 1625 
L 3713 1625 
L 3713 1100 
L 3047 1100 
L 3047 0 
L 2419 0 
L 2419 1100 
L 313 1100 
L 313 1709 
L 2253 4666 
z
" transform="scale(0.015625)"/>
       </defs>
       <use xlink:href="#DejaVuSans-14"/>
       <use xlink:href="#DejaVuSans-11" transform="translate(63.625 0)"/>
       <use xlink:href="#DejaVuSans-17" transform="translate(95.40625 0)"/>
      </g>
     </g>
    </g>
    <g id="ytick_4">
     <g id="line2d_13">
      <path d="M 50.194375 302.451645 
L 844.531562 302.451645 
" clip-path="url(#pd85edaa66c)" style="fill: none; stroke: #cccccc; stroke-opacity: 0.3; stroke-linecap: round"/>
     </g>
     <g id="text_14">
      <!-- 1.6 -->
      <g style="fill: #262626" transform="translate(23.200938 306.630356) scale(0.11 -0.11)">
       <defs>
        <path id="DejaVuSans-19" d="M 2113 2584 
Q 1688 2584 1439 2293 
Q 1191 2003 1191 1497 
Q 1191 994 1439 701 
Q 1688 409 2113 409 
Q 2538 409 2786 701 
Q 3034 994 3034 1497 
Q 3034 2003 2786 2293 
Q 2538 2584 2113 2584 
z
M 3366 4563 
L 3366 3988 
Q 3128 4100 2886 4159 
Q 2644 4219 2406 4219 
Q 1781 4219 1451 3797 
Q 1122 3375 1075 2522 
Q 1259 2794 1537 2939 
Q 1816 3084 2150 3084 
Q 2853 3084 3261 2657 
Q 3669 2231 3669 1497 
Q 3669 778 3244 343 
Q 2819 -91 2113 -91 
Q 1303 -91 875 529 
Q 447 1150 447 2328 
Q 447 3434 972 4092 
Q 1497 4750 2381 4750 
Q 2619 4750 2861 4703 
Q 3103 4656 3366 4563 
z
" transform="scale(0.015625)"/>
       </defs>
       <use xlink:href="#DejaVuSans-14"/>
       <use xlink:href="#DejaVuSans-11" transform="translate(63.625 0)"/>
       <use xlink:href="#DejaVuSans-19" transform="translate(95.40625 0)"/>
      </g>
     </g>
    </g>
    <g id="ytick_5">
     <g id="line2d_14">
      <path d="M 50.194375 247.261215 
L 844.531562 247.261215 
" clip-path="url(#pd85edaa66c)" style="fill: none; stroke: #cccccc; stroke-opacity: 0.3; stroke-linecap: round"/>
     </g>
     <g id="text_15">
      <!-- 1.8 -->
      <g style="fill: #262626" transform="translate(23.200938 251.439926) scale(0.11 -0.11)">
       <defs>
        <path id="DejaVuSans-1b" d="M 2034 2216 
Q 1584 2216 1326 1975 
Q 1069 1734 1069 1313 
Q 1069 891 1326 650 
Q 1584 409 2034 409 
Q 2484 409 2743 651 
Q 3003 894 3003 1313 
Q 3003 1734 2745 1975 
Q 2488 2216 2034 2216 
z
M 1403 2484 
Q 997 2584 770 2862 
Q 544 3141 544 3541 
Q 544 4100 942 4425 
Q 1341 4750 2034 4750 
Q 2731 4750 3128 4425 
Q 3525 4100 3525 3541 
Q 3525 3141 3298 2862 
Q 3072 2584 2669 2484 
Q 3125 2378 3379 2068 
Q 3634 1759 3634 1313 
Q 3634 634 3220 271 
Q 2806 -91 2034 -91 
Q 1263 -91 848 271 
Q 434 634 434 1313 
Q 434 1759 690 2068 
Q 947 2378 1403 2484 
z
M 1172 3481 
Q 1172 3119 1398 2916 
Q 1625 2713 2034 2713 
Q 2441 2713 2670 2916 
Q 2900 3119 2900 3481 
Q 2900 3844 2670 4047 
Q 2441 4250 2034 4250 
Q 1625 4250 1398 4047 
Q 1172 3844 1172 3481 
z
" transform="scale(0.015625)"/>
       </defs>
       <use xlink:href="#DejaVuSans-14"/>
       <use xlink:href="#DejaVuSans-11" transform="translate(63.625 0)"/>
       <use xlink:href="#DejaVuSans-1b" transform="translate(95.40625 0)"/>
      </g>
     </g>
    </g>
    <g id="ytick_6">
     <g id="line2d_15">
      <path d="M 50.194375 192.070785 
L 844.531562 192.070785 
" clip-path="url(#pd85edaa66c)" style="fill: none; stroke: #cccccc; stroke-opacity: 0.3; stroke-linecap: round"/>
     </g>
     <g id="text_16">
      <!-- 2.0 -->
      <g style="fill: #262626" transform="translate(23.200938 196.249496) scale(0.11 -0.11)">
       <use xlink:href="#DejaVuSans-15"/>
       <use xlink:href="#DejaVuSans-11" transform="translate(63.625 0)"/>
       <use xlink:href="#DejaVuSans-13" transform="translate(95.40625 0)"/>
      </g>
     </g>
    </g>
    <g id="ytick_7">
     <g id="line2d_16">
      <path d="M 50.194375 136.880355 
L 844.531562 136.880355 
" clip-path="url(#pd85edaa66c)" style="fill: none; stroke: #cccccc; stroke-opacity: 0.3; stroke-linecap: round"/>
     </g>
     <g id="text_17">
      <!-- 2.2 -->
      <g style="fill: #262626" transform="translate(23.200938 141.059066) scale(0.11 -0.11)">
       <use xlink:href="#DejaVuSans-15"/>
       <use xlink:href="#DejaVuSans-11" transform="translate(63.625 0)"/>
       <use xlink:href="#DejaVuSans-15" transform="translate(95.40625 0)"/>
      </g>
     </g>
    </g>
    <g id="ytick_8">
     <g id="line2d_17">
      <path d="M 50.194375 81.689925 
L 844.531562 81.689925 
" clip-path="url(#pd85edaa66c)" style="fill: none; stroke: #cccccc; stroke-opacity: 0.3; stroke-linecap: round"/>
     </g>
     <g id="text_18">
      <!-- 2.4 -->
      <g style="fill: #262626" transform="translate(23.200938 85.868636) scale(0.11 -0.11)">
       <use xlink:href="#DejaVuSans-15"/>
       <use xlink:href="#DejaVuSans-11" transform="translate(63.625 0)"/>
       <use xlink:href="#DejaVuSans-17" transform="translate(95.40625 0)"/>
      </g>
     </g>
    </g>
    <g id="ytick_9">
     <g id="line2d_18">
      <path d="M 50.194375 26.499495 
L 844.531562 26.499495 
" clip-path="url(#pd85edaa66c)" style="fill: none; stroke: #cccccc; stroke-opacity: 0.3; stroke-linecap: round"/>
     </g>
     <g id="text_19">
      <!-- 2.6 -->
      <g style="fill: #262626" transform="translate(23.200938 30.678206) scale(0.11 -0.11)">
       <use xlink:href="#DejaVuSans-15"/>
       <use xlink:href="#DejaVuSans-11" transform="translate(63.625 0)"/>
       <use xlink:href="#DejaVuSans-19" transform="translate(95.40625 0)"/>
      </g>
     </g>
    </g>
    <g id="text_20">
     <!-- Speedup Factor (Sorted vs Unsorted) -->
     <g style="fill: #262626" transform="translate(16.318125 398.088672) rotate(-90) scale(0.12 -0.12)">
      <defs>
       <path id="DejaVuSans-Bold-36" d="M 3834 4519 
L 3834 3531 
Q 3450 3703 3084 3790 
Q 2719 3878 2394 3878 
Q 1963 3878 1756 3759 
Q 1550 3641 1550 3391 
Q 1550 3203 1689 3098 
Q 1828 2994 2194 2919 
L 2706 2816 
Q 3484 2659 3812 2340 
Q 4141 2022 4141 1434 
Q 4141 663 3683 286 
Q 3225 -91 2284 -91 
Q 1841 -91 1394 -6 
Q 947 78 500 244 
L 500 1259 
Q 947 1022 1364 901 
Q 1781 781 2169 781 
Q 2563 781 2772 912 
Q 2981 1044 2981 1288 
Q 2981 1506 2839 1625 
Q 2697 1744 2272 1838 
L 1806 1941 
Q 1106 2091 782 2419 
Q 459 2747 459 3303 
Q 459 4000 909 4375 
Q 1359 4750 2203 4750 
Q 2588 4750 2994 4692 
Q 3400 4634 3834 4519 
z
" transform="scale(0.015625)"/>
       <path id="DejaVuSans-Bold-53" d="M 1656 506 
L 1656 -1331 
L 538 -1331 
L 538 3500 
L 1656 3500 
L 1656 2988 
Q 1888 3294 2169 3439 
Q 2450 3584 2816 3584 
Q 3463 3584 3878 3070 
Q 4294 2556 4294 1747 
Q 4294 938 3878 423 
Q 3463 -91 2816 -91 
Q 2450 -91 2169 54 
Q 1888 200 1656 506 
z
M 2400 2772 
Q 2041 2772 1848 2508 
Q 1656 2244 1656 1747 
Q 1656 1250 1848 986 
Q 2041 722 2400 722 
Q 2759 722 2948 984 
Q 3138 1247 3138 1747 
Q 3138 2247 2948 2509 
Q 2759 2772 2400 2772 
z
" transform="scale(0.015625)"/>
       <path id="DejaVuSans-Bold-58" d="M 500 1363 
L 500 3500 
L 1625 3500 
L 1625 3150 
Q 1625 2866 1622 2436 
Q 1619 2006 1619 1863 
Q 1619 1441 1641 1255 
Q 1663 1069 1716 984 
Q 1784 875 1895 815 
Q 2006 756 2150 756 
Q 2500 756 2700 1025 
Q 2900 1294 2900 1772 
L 2900 3500 
L 4019 3500 
L 4019 0 
L 2900 0 
L 2900 506 
Q 2647 200 2364 54 
Q 2081 -91 1741 -91 
Q 1134 -91 817 281 
Q 500 653 500 1363 
z
" transform="scale(0.015625)"/>
       <path id="DejaVuSans-Bold-29" d="M 588 4666 
L 3834 4666 
L 3834 3756 
L 1791 3756 
L 1791 2888 
L 3713 2888 
L 3713 1978 
L 1791 1978 
L 1791 0 
L 588 0 
L 588 4666 
z
" transform="scale(0.015625)"/>
       <path id="DejaVuSans-Bold-44" d="M 2106 1575 
Q 1756 1575 1579 1456 
Q 1403 1338 1403 1106 
Q 1403 894 1545 773 
Q 1688 653 1941 653 
Q 2256 653 2472 879 
Q 2688 1106 2688 1447 
L 2688 1575 
L 2106 1575 
z
M 3816 1997 
L 3816 0 
L 2688 0 
L 2688 519 
Q 2463 200 2181 54 
Q 1900 -91 1497 -91 
Q 953 -91 614 226 
Q 275 544 275 1050 
Q 275 1666 698 1953 
Q 1122 2241 2028 2241 
L 2688 2241 
L 2688 2328 
Q 2688 2594 2478 2717 
Q 2269 2841 1825 2841 
Q 1466 2841 1156 2769 
Q 847 2697 581 2553 
L 581 3406 
Q 941 3494 1303 3539 
Q 1666 3584 2028 3584 
Q 2975 3584 3395 3211 
Q 3816 2838 3816 1997 
z
" transform="scale(0.015625)"/>
       <path id="DejaVuSans-Bold-46" d="M 3366 3391 
L 3366 2478 
Q 3138 2634 2908 2709 
Q 2678 2784 2431 2784 
Q 1963 2784 1702 2511 
Q 1441 2238 1441 1747 
Q 1441 1256 1702 982 
Q 1963 709 2431 709 
Q 2694 709 2930 787 
Q 3166 866 3366 1019 
L 3366 103 
Q 3103 6 2833 -42 
Q 2563 -91 2291 -91 
Q 1344 -91 809 395 
Q 275 881 275 1747 
Q 275 2613 809 3098 
Q 1344 3584 2291 3584 
Q 2566 3584 2833 3536 
Q 3100 3488 3366 3391 
z
" transform="scale(0.015625)"/>
       <path id="DejaVuSans-Bold-57" d="M 1759 4494 
L 1759 3500 
L 2913 3500 
L 2913 2700 
L 1759 2700 
L 1759 1216 
Q 1759 972 1856 886 
Q 1953 800 2241 800 
L 2816 800 
L 2816 0 
L 1856 0 
Q 1194 0 917 276 
Q 641 553 641 1216 
L 641 2700 
L 84 2700 
L 84 3500 
L 641 3500 
L 641 4494 
L 1759 4494 
z
" transform="scale(0.015625)"/>
       <path id="DejaVuSans-Bold-52" d="M 2203 2784 
Q 1831 2784 1636 2517 
Q 1441 2250 1441 1747 
Q 1441 1244 1636 976 
Q 1831 709 2203 709 
Q 2569 709 2762 976 
Q 2956 1244 2956 1747 
Q 2956 2250 2762 2517 
Q 2569 2784 2203 2784 
z
M 2203 3584 
Q 3106 3584 3614 3096 
Q 4122 2609 4122 1747 
Q 4122 884 3614 396 
Q 3106 -91 2203 -91 
Q 1297 -91 786 396 
Q 275 884 275 1747 
Q 275 2609 786 3096 
Q 1297 3584 2203 3584 
z
" transform="scale(0.015625)"/>
       <path id="DejaVuSans-Bold-59" d="M 97 3500 
L 1216 3500 
L 2088 1081 
L 2956 3500 
L 4078 3500 
L 2700 0 
L 1472 0 
L 97 3500 
z
" transform="scale(0.015625)"/>
       <path id="DejaVuSans-Bold-56" d="M 3272 3391 
L 3272 2541 
Q 2913 2691 2578 2766 
Q 2244 2841 1947 2841 
Q 1628 2841 1473 2761 
Q 1319 2681 1319 2516 
Q 1319 2381 1436 2309 
Q 1553 2238 1856 2203 
L 2053 2175 
Q 2913 2066 3209 1816 
Q 3506 1566 3506 1031 
Q 3506 472 3093 190 
Q 2681 -91 1863 -91 
Q 1516 -91 1145 -36 
Q 775 19 384 128 
L 384 978 
Q 719 816 1070 734 
Q 1422 653 1784 653 
Q 2113 653 2278 743 
Q 2444 834 2444 1013 
Q 2444 1163 2330 1236 
Q 2216 1309 1875 1350 
L 1678 1375 
Q 931 1469 631 1722 
Q 331 1975 331 2491 
Q 331 3047 712 3315 
Q 1094 3584 1881 3584 
Q 2191 3584 2531 3537 
Q 2872 3491 3272 3391 
z
" transform="scale(0.015625)"/>
       <path id="DejaVuSans-Bold-38" d="M 588 4666 
L 1791 4666 
L 1791 1869 
Q 1791 1291 1980 1042 
Q 2169 794 2597 794 
Q 3028 794 3217 1042 
Q 3406 1291 3406 1869 
L 3406 4666 
L 4609 4666 
L 4609 1869 
Q 4609 878 4112 393 
Q 3616 -91 2597 -91 
Q 1581 -91 1084 393 
Q 588 878 588 1869 
L 588 4666 
z
" transform="scale(0.015625)"/>
       <path id="DejaVuSans-Bold-51" d="M 4056 2131 
L 4056 0 
L 2931 0 
L 2931 347 
L 2931 1631 
Q 2931 2084 2911 2256 
Q 2891 2428 2841 2509 
Q 2775 2619 2662 2680 
Q 2550 2741 2406 2741 
Q 2056 2741 1856 2470 
Q 1656 2200 1656 1722 
L 1656 0 
L 538 0 
L 538 3500 
L 1656 3500 
L 1656 2988 
Q 1909 3294 2193 3439 
Q 2478 3584 2822 3584 
Q 3428 3584 3742 3212 
Q 4056 2841 4056 2131 
z
" transform="scale(0.015625)"/>
      </defs>
      <use xlink:href="#DejaVuSans-Bold-36"/>
      <use xlink:href="#DejaVuSans-Bold-53" transform="translate(72.015625 0)"/>
      <use xlink:href="#DejaVuSans-Bold-48" transform="translate(143.59375 0)"/>
      <use xlink:href="#DejaVuSans-Bold-48" transform="translate(211.421875 0)"/>
      <use xlink:href="#DejaVuSans-Bold-47" transform="translate(279.25 0)"/>
      <use xlink:href="#DejaVuSans-Bold-58" transform="translate(350.828125 0)"/>
      <use xlink:href="#DejaVuSans-Bold-53" transform="translate(422.015625 0)"/>
      <use xlink:href="#DejaVuSans-Bold-3" transform="translate(493.59375 0)"/>
      <use xlink:href="#DejaVuSans-Bold-29" transform="translate(528.40625 0)"/>
      <use xlink:href="#DejaVuSans-Bold-44" transform="translate(590.859375 0)"/>
      <use xlink:href="#DejaVuSans-Bold-46" transform="translate(658.34375 0)"/>
      <use xlink:href="#DejaVuSans-Bold-57" transform="translate(717.625 0)"/>
      <use xlink:href="#DejaVuSans-Bold-52" transform="translate(765.421875 0)"/>
      <use xlink:href="#DejaVuSans-Bold-55" transform="translate(834.125 0)"/>
      <use xlink:href="#DejaVuSans-Bold-3" transform="translate(883.4375 0)"/>
      <use xlink:href="#DejaVuSans-Bold-b" transform="translate(918.25 0)"/>
      <use xlink:href="#DejaVuSans-Bold-36" transform="translate(963.953125 0)"/>
      <use xlink:href="#DejaVuSans-Bold-52" transform="translate(1035.96875 0)"/>
      <use xlink:href="#DejaVuSans-Bold-55" transform="translate(1104.671875 0)"/>
      <use xlink:href="#DejaVuSans-Bold-57" transform="translate(1153.984375 0)"/>
      <use xlink:href="#DejaVuSans-Bold-48" transform="translate(1201.78125 0)"/>
      <use xlink:href="#DejaVuSans-Bold-47" transform="translate(1269.609375 0)"/>
      <use xlink:href="#DejaVuSans-Bold-3" transform="translate(1341.1875 0)"/>
      <use xlink:href="#DejaVuSans-Bold-59" transform="translate(1376 0)"/>
      <use xlink:href="#DejaVuSans-Bold-56" transform="translate(1441.1875 0)"/>
      <use xlink:href="#DejaVuSans-Bold-3" transform="translate(1500.703125 0)"/>
      <use xlink:href="#DejaVuSans-Bold-38" transform="translate(1535.515625 0)"/>
      <use xlink:href="#DejaVuSans-Bold-51" transform="translate(1616.71875 0)"/>
      <use xlink:href="#DejaVuSans-Bold-56" transform="translate(1687.90625 0)"/>
      <use xlink:href="#DejaVuSans-Bold-52" transform="translate(1747.421875 0)"/>
      <use xlink:href="#DejaVuSans-Bold-55" transform="translate(1816.125 0)"/>
      <use xlink:href="#DejaVuSans-Bold-57" transform="translate(1865.4375 0)"/>
      <use xlink:href="#DejaVuSans-Bold-48" transform="translate(1913.234375 0)"/>
      <use xlink:href="#DejaVuSans-Bold-47" transform="translate(1981.0625 0)"/>
      <use xlink:href="#DejaVuSans-Bold-c" transform="translate(2052.640625 0)"/>
     </g>
    </g>
   </g>
   <g id="line2d_19">
    <path d="M 86.300611 439.200992 
L 93.631826 380.205386 
L 111.959865 406.414375 
L 130.287903 403.395329 
L 148.615942 422.679644 
L 166.94398 430.223654 
L 185.272019 440.065669 
L 258.584172 465.462332 
L 350.224365 478.792364 
L 441.864557 497.421511 
L 625.144942 497.272702 
L 808.425327 497.960987 
" clip-path="url(#pd85edaa66c)" style="fill: none; stroke: #4c72b0; stroke-width: 2; stroke-linecap: round"/>
    <defs>
     <path id="m4f87974afe" d="M 0 4 
C 1.060812 4 2.078319 3.578535 2.828427 2.828427 
C 3.578535 2.078319 4 1.060812 4 0 
C 4 -1.060812 3.578535 -2.078319 2.828427 -2.828427 
C 2.078319 -3.578535 1.060812 -4 0 -4 
C -1.060812 -4 -2.078319 -3.578535 -2.828427 -2.828427 
C -3.578535 -2.078319 -4 -1.060812 -4 0 
C -4 1.060812 -3.578535 2.078319 -2.828427 2.828427 
C -2.078319 3.578535 -1.060812 4 0 4 
z
" style="stroke: #4c72b0"/>
    </defs>
    <g clip-path="url(#pd85edaa66c)">
     <use xlink:href="#m4f87974afe" x="86.300611" y="439.200992" style="fill: #4c72b0; stroke: #4c72b0"/>
     <use xlink:href="#m4f87974afe" x="93.631826" y="380.205386" style="fill: #4c72b0; stroke: #4c72b0"/>
     <use xlink:href="#m4f87974afe" x="111.959865" y="406.414375" style="fill: #4c72b0; stroke: #4c72b0"/>
     <use xlink:href="#m4f87974afe" x="130.287903" y="403.395329" style="fill: #4c72b0; stroke: #4c72b0"/>
     <use xlink:href="#m4f87974afe" x="148.615942" y="422.679644" style="fill: #4c72b0; stroke: #4c72b0"/>
     <use xlink:href="#m4f87974afe" x="166.94398" y="430.223654" style="fill: #4c72b0; stroke: #4c72b0"/>
     <use xlink:href="#m4f87974afe" x="185.272019" y="440.065669" style="fill: #4c72b0; stroke: #4c72b0"/>
     <use xlink:href="#m4f87974afe" x="258.584172" y="465.462332" style="fill: #4c72b0; stroke: #4c72b0"/>
     <use xlink:href="#m4f87974afe" x="350.224365" y="478.792364" style="fill: #4c72b0; stroke: #4c72b0"/>
     <use xlink:href="#m4f87974afe" x="441.864557" y="497.421511" style="fill: #4c72b0; stroke: #4c72b0"/>
     <use xlink:href="#m4f87974afe" x="625.144942" y="497.272702" style="fill: #4c72b0; stroke: #4c72b0"/>
     <use xlink:href="#m4f87974afe" x="808.425327" y="497.960987" style="fill: #4c72b0; stroke: #4c72b0"/>
    </g>
   </g>
   <g id="line2d_20">
    <path d="M 86.300611 422.612767 
L 93.631826 358.150053 
L 111.959865 348.620478 
L 130.287903 349.450315 
L 148.615942 363.533314 
L 166.94398 356.886835 
L 185.272019 361.496788 
L 258.584172 397.251675 
L 350.224365 407.166336 
L 441.864557 427.503252 
L 625.144942 424.964461 
L 808.425327 430.953848 
" clip-path="url(#pd85edaa66c)" style="fill: none; stroke: #dd8452; stroke-width: 2; stroke-linecap: round"/>
    <defs>
     <path id="m4c5ce43137" d="M 0 4 
C 1.060812 4 2.078319 3.578535 2.828427 2.828427 
C 3.578535 2.078319 4 1.060812 4 0 
C 4 -1.060812 3.578535 -2.078319 2.828427 -2.828427 
C 2.078319 -3.578535 1.060812 -4 0 -4 
C -1.060812 -4 -2.078319 -3.578535 -2.828427 -2.828427 
C -3.578535 -2.078319 -4 -1.060812 -4 0 
C -4 1.060812 -3.578535 2.078319 -2.828427 2.828427 
C -2.078319 3.578535 -1.060812 4 0 4 
z
" style="stroke: #dd8452"/>
    </defs>
    <g clip-path="url(#pd85edaa66c)">
     <use xlink:href="#m4c5ce43137" x="86.300611" y="422.612767" style="fill: #dd8452; stroke: #dd8452"/>
     <use xlink:href="#m4c5ce43137" x="93.631826" y="358.150053" style="fill: #dd8452; stroke: #dd8452"/>
     <use xlink:href="#m4c5ce43137" x="111.959865" y="348.620478" style="fill: #dd8452; stroke: #dd8452"/>
     <use xlink:href="#m4c5ce43137" x="130.287903" y="349.450315" style="fill: #dd8452; stroke: #dd8452"/>
     <use xlink:href="#m4c5ce43137" x="148.615942" y="363.533314" style="fill: #dd8452; stroke: #dd8452"/>
     <use xlink:href="#m4c5ce43137" x="166.94398" y="356.886835" style="fill: #dd8452; stroke: #dd8452"/>
     <use xlink:href="#m4c5ce43137" x="185.272019" y="361.496788" style="fill: #dd8452; stroke: #dd8452"/>
     <use xlink:href="#m4c5ce43137" x="258.584172" y="397.251675" style="fill: #dd8452; stroke: #dd8452"/>
     <use xlink:href="#m4c5ce43137" x="350.224365" y="407.166336" style="fill: #dd8452; stroke: #dd8452"/>
     <use xlink:href="#m4c5ce43137" x="441.864557" y="427.503252" style="fill: #dd8452; stroke: #dd8452"/>
     <use xlink:href="#m4c5ce43137" x="625.144942" y="424.964461" style="fill: #dd8452; stroke: #dd8452"/>
     <use xlink:href="#m4c5ce43137" x="808.425327" y="430.953848" style="fill: #dd8452; stroke: #dd8452"/>
    </g>
   </g>
   <g id="line2d_21">
    <path d="M 86.300611 397.476238 
L 93.631826 331.014104 
L 111.959865 335.421449 
L 130.287903 321.722609 
L 148.615942 332.999875 
L 166.94398 336.898556 
L 185.272019 344.850678 
L 258.584172 356.136005 
L 350.224365 383.149901 
L 441.864557 393.462114 
L 625.144942 412.113806 
L 808.425327 379.748775 
" clip-path="url(#pd85edaa66c)" style="fill: none; stroke: #55a868; stroke-width: 2; stroke-linecap: round"/>
    <defs>
     <path id="m3190c1ae3a" d="M 0 4 
C 1.060812 4 2.078319 3.578535 2.828427 2.828427 
C 3.578535 2.078319 4 1.060812 4 0 
C 4 -1.060812 3.578535 -2.078319 2.828427 -2.828427 
C 2.078319 -3.578535 1.060812 -4 0 -4 
C -1.060812 -4 -2.078319 -3.578535 -2.828427 -2.828427 
C -3.578535 -2.078319 -4 -1.060812 -4 0 
C -4 1.060812 -3.578535 2.078319 -2.828427 2.828427 
C -2.078319 3.578535 -1.060812 4 0 4 
z
" style="stroke: #55a868"/>
    </defs>
    <g clip-path="url(#pd85edaa66c)">
     <use xlink:href="#m3190c1ae3a" x="86.300611" y="397.476238" style="fill: #55a868; stroke: #55a868"/>
     <use xlink:href="#m3190c1ae3a" x="93.631826" y="331.014104" style="fill: #55a868; stroke: #55a868"/>
     <use xlink:href="#m3190c1ae3a" x="111.959865" y="335.421449" style="fill: #55a868; stroke: #55a868"/>
     <use xlink:href="#m3190c1ae3a" x="130.287903" y="321.722609" style="fill: #55a868; stroke: #55a868"/>
     <use xlink:href="#m3190c1ae3a" x="148.615942" y="332.999875" style="fill: #55a868; stroke: #55a868"/>
     <use xlink:href="#m3190c1ae3a" x="166.94398" y="336.898556" style="fill: #55a868; stroke: #55a868"/>
     <use xlink:href="#m3190c1ae3a" x="185.272019" y="344.850678" style="fill: #55a868; stroke: #55a868"/>
     <use xlink:href="#m3190c1ae3a" x="258.584172" y="356.136005" style="fill: #55a868; stroke: #55a868"/>
     <use xlink:href="#m3190c1ae3a" x="350.224365" y="383.149901" style="fill: #55a868; stroke: #55a868"/>
     <use xlink:href="#m3190c1ae3a" x="441.864557" y="393.462114" style="fill: #55a868; stroke: #55a868"/>
     <use xlink:href="#m3190c1ae3a" x="625.144942" y="412.113806" style="fill: #55a868; stroke: #55a868"/>
     <use xlink:href="#m3190c1ae3a" x="808.425327" y="379.748775" style="fill: #55a868; stroke: #55a868"/>
    </g>
   </g>
   <g id="line2d_22">
    <path d="M 86.300611 337.828174 
L 93.631826 234.335479 
L 111.959865 173.099038 
L 130.287903 142.298544 
L 148.615942 146.849286 
L 166.94398 139.033896 
L 185.272019 136.140681 
L 258.584172 122.567817 
L 350.224365 81.779181 
L 441.864557 46.415107 
L 625.144942 92.39451 
L 808.425327 101.185416 
" clip-path="url(#pd85edaa66c)" style="fill: none; stroke: #c44e52; stroke-width: 2; stroke-linecap: round"/>
    <defs>
     <path id="mfb60a3acf3" d="M 0 4 
C 1.060812 4 2.078319 3.578535 2.828427 2.828427 
C 3.578535 2.078319 4 1.060812 4 0 
C 4 -1.060812 3.578535 -2.078319 2.828427 -2.828427 
C 2.078319 -3.578535 1.060812 -4 0 -4 
C -1.060812 -4 -2.078319 -3.578535 -2.828427 -2.828427 
C -3.578535 -2.078319 -4 -1.060812 -4 0 
C -4 1.060812 -3.578535 2.078319 -2.828427 2.828427 
C -2.078319 3.578535 -1.060812 4 0 4 
z
" style="stroke: #c44e52"/>
    </defs>
    <g clip-path="url(#pd85edaa66c)">
     <use xlink:href="#mfb60a3acf3" x="86.300611" y="337.828174" style="fill: #c44e52; stroke: #c44e52"/>
     <use xlink:href="#mfb60a3acf3" x="93.631826" y="234.335479" style="fill: #c44e52; stroke: #c44e52"/>
     <use xlink:href="#mfb60a3acf3" x="111.959865" y="173.099038" style="fill: #c44e52; stroke: #c44e52"/>
     <use xlink:href="#mfb60a3acf3" x="130.287903" y="142.298544" style="fill: #c44e52; stroke: #c44e52"/>
     <use xlink:href="#mfb60a3acf3" x="148.615942" y="146.849286" style="fill: #c44e52; stroke: #c44e52"/>
     <use xlink:href="#mfb60a3acf3" x="166.94398" y="139.033896" style="fill: #c44e52; stroke: #c44e52"/>
     <use xlink:href="#mfb60a3acf3" x="185.272019" y="136.140681" style="fill: #c44e52; stroke: #c44e52"/>
     <use xlink:href="#mfb60a3acf3" x="258.584172" y="122.567817" style="fill: #c44e52; stroke: #c44e52"/>
     <use xlink:href="#mfb60a3acf3" x="350.224365" y="81.779181" style="fill: #c44e52; stroke: #c44e52"/>
     <use xlink:href="#mfb60a3acf3" x="441.864557" y="46.415107" style="fill: #c44e52; stroke: #c44e52"/>
     <use xlink:href="#mfb60a3acf3" x="625.144942" y="92.39451" style="fill: #c44e52; stroke: #c44e52"/>
     <use xlink:href="#mfb60a3acf3" x="808.425327" y="101.185416" style="fill: #c44e52; stroke: #c44e52"/>
    </g>
   </g>
   <g id="line2d_23">
    <path d="M 50.194375 468.022935 
L 844.531562 468.022935 
" clip-path="url(#pd85edaa66c)" style="fill: none; stroke-dasharray: 5.55,2.4; stroke-dashoffset: 0; stroke: #808080; stroke-opacity: 0.7; stroke-width: 1.5"/>
   </g>
   <g id="patch_3">
    <path d="M 50.194375 520.538281 
L 50.194375 23.837812 
" style="fill: none; stroke: #cccccc; stroke-width: 1.25; stroke-linejoin: miter; stroke-linecap: square"/>
   </g>
   <g id="patch_4">
    <path d="M 844.531562 520.538281 
L 844.531562 23.837812 
" style="fill: none; stroke: #cccccc; stroke-width: 1.25; stroke-linejoin: miter; stroke-linecap: square"/>
   </g>
   <g id="patch_5">
    <path d="M 50.194375 520.538281 
L 844.531563 520.538281 
" style="fill: none; stroke: #cccccc; stroke-width: 1.25; stroke-linejoin: miter; stroke-linecap: square"/>
   </g>
   <g id="patch_6">
    <path d="M 50.194375 23.837812 
L 844.531563 23.837812 
" style="fill: none; stroke: #cccccc; stroke-width: 1.25; stroke-linejoin: miter; stroke-linecap: square"/>
   </g>
   <g id="text_21">
    <!-- Sorted Insertion Speedup vs Unsorted -->
    <g style="fill: #262626" transform="translate(296.238437 17.837812) scale(0.14 -0.14)">
     <defs>
      <path id="DejaVuSans-Bold-2c" d="M 588 4666 
L 1791 4666 
L 1791 0 
L 588 0 
L 588 4666 
z
" transform="scale(0.015625)"/>
      <path id="DejaVuSans-Bold-4c" d="M 538 3500 
L 1656 3500 
L 1656 0 
L 538 0 
L 538 3500 
z
M 538 4863 
L 1656 4863 
L 1656 3950 
L 538 3950 
L 538 4863 
z
" transform="scale(0.015625)"/>
     </defs>
     <use xlink:href="#DejaVuSans-Bold-36"/>
     <use xlink:href="#DejaVuSans-Bold-52" transform="translate(72.015625 0)"/>
     <use xlink:href="#DejaVuSans-Bold-55" transform="translate(140.71875 0)"/>
     <use xlink:href="#DejaVuSans-Bold-57" transform="translate(190.03125 0)"/>
     <use xlink:href="#DejaVuSans-Bold-48" transform="translate(237.828125 0)"/>
     <use xlink:href="#DejaVuSans-Bold-47" transform="translate(305.65625 0)"/>
     <use xlink:href="#DejaVuSans-Bold-3" transform="translate(377.234375 0)"/>
     <use xlink:href="#DejaVuSans-Bold-2c" transform="translate(412.046875 0)"/>
     <use xlink:href="#DejaVuSans-Bold-51" transform="translate(449.25 0)"/>
     <use xlink:href="#DejaVuSans-Bold-56" transform="translate(520.4375 0)"/>
     <use xlink:href="#DejaVuSans-Bold-48" transform="translate(579.953125 0)"/>
     <use xlink:href="#DejaVuSans-Bold-55" transform="translate(647.78125 0)"/>
     <use xlink:href="#DejaVuSans-Bold-57" transform="translate(697.09375 0)"/>
     <use xlink:href="#DejaVuSans-Bold-4c" transform="translate(744.890625 0)"/>
     <use xlink:href="#DejaVuSans-Bold-52" transform="translate(779.171875 0)"/>
     <use xlink:href="#DejaVuSans-Bold-51" transform="translate(847.875 0)"/>
     <use xlink:href="#DejaVuSans-Bold-3" transform="translate(919.0625 0)"/>
     <use xlink:href="#DejaVuSans-Bold-36" transform="translate(953.875 0)"/>
     <use xlink:href="#DejaVuSans-Bold-53" transform="translate(1025.890625 0)"/>
     <use xlink:href="#DejaVuSans-Bold-48" transform="translate(1097.46875 0)"/>
     <use xlink:href="#DejaVuSans-Bold-48" transform="translate(1165.296875 0)"/>
     <use xlink:href="#DejaVuSans-Bold-47" transform="translate(1233.125 0)"/>
     <use xlink:href="#DejaVuSans-Bold-58" transform="translate(1304.703125 0)"/>
     <use xlink:href="#DejaVuSans-Bold-53" transform="translate(1375.890625 0)"/>
     <use xlink:href="#DejaVuSans-Bold-3" transform="translate(1447.46875 0)"/>
     <use xlink:href="#DejaVuSans-Bold-59" transform="translate(1482.28125 0)"/>
     <use xlink:href="#DejaVuSans-Bold-56" transform="translate(1547.46875 0)"/>
     <use xlink:href="#DejaVuSans-Bold-3" transform="translate(1606.984375 0)"/>
     <use xlink:href="#DejaVuSans-Bold-38" transform="translate(1641.796875 0)"/>
     <use xlink:href="#DejaVuSans-Bold-51" transform="translate(1723 0)"/>
     <use xlink:href="#DejaVuSans-Bold-56" transform="translate(1794.1875 0)"/>
     <use xlink:href="#DejaVuSans-Bold-52" transform="translate(1853.703125 0)"/>
     <use xlink:href="#DejaVuSans-Bold-55" transform="translate(1922.40625 0)"/>
     <use xlink:href="#DejaVuSans-Bold-57" transform="translate(1971.71875 0)"/>
     <use xlink:href="#DejaVuSans-Bold-48" transform="translate(2019.515625 0)"/>
     <use xlink:href="#DejaVuSans-Bold-47" transform="translate(2087.34375 0)"/>
    </g>
   </g>
   <g id="legend_1">
    <g id="patch_7">
     <path d="M 57.194375 122.842578 
L 161.156875 122.842578 
Q 163.156875 122.842578 163.156875 120.842578 
L 163.156875 30.837812 
Q 163.156875 28.837812 161.156875 28.837812 
L 57.194375 28.837812 
Q 55.194375 28.837812 55.194375 30.837812 
L 55.194375 120.842578 
Q 55.194375 122.842578 57.194375 122.842578 
z
" style="fill: #ffffff; opacity: 0.8; stroke: #cccccc; stroke-linejoin: miter"/>
    </g>
    <g id="text_22">
     <!-- Dataset Size -->
     <g style="fill: #262626" transform="translate(74.599531 41.196094) scale(0.11 -0.11)">
      <defs>
       <path id="DejaVuSans-27" d="M 1259 4147 
L 1259 519 
L 2022 519 
Q 2988 519 3436 956 
Q 3884 1394 3884 2338 
Q 3884 3275 3436 3711 
Q 2988 4147 2022 4147 
L 1259 4147 
z
M 628 4666 
L 1925 4666 
Q 3281 4666 3915 4102 
Q 4550 3538 4550 2338 
Q 4550 1131 3912 565 
Q 3275 0 1925 0 
L 628 0 
L 628 4666 
z
" transform="scale(0.015625)"/>
       <path id="DejaVuSans-44" d="M 2194 1759 
Q 1497 1759 1228 1600 
Q 959 1441 959 1056 
Q 959 750 1161 570 
Q 1363 391 1709 391 
Q 2188 391 2477 730 
Q 2766 1069 2766 1631 
L 2766 1759 
L 2194 1759 
z
M 3341 1997 
L 3341 0 
L 2766 0 
L 2766 531 
Q 2569 213 2275 61 
Q 1981 -91 1556 -91 
Q 1019 -91 701 211 
Q 384 513 384 1019 
Q 384 1609 779 1909 
Q 1175 2209 1959 2209 
L 2766 2209 
L 2766 2266 
Q 2766 2663 2505 2880 
Q 2244 3097 1772 3097 
Q 1472 3097 1187 3025 
Q 903 2953 641 2809 
L 641 3341 
Q 956 3463 1253 3523 
Q 1550 3584 1831 3584 
Q 2591 3584 2966 3190 
Q 3341 2797 3341 1997 
z
" transform="scale(0.015625)"/>
       <path id="DejaVuSans-57" d="M 1172 4494 
L 1172 3500 
L 2356 3500 
L 2356 3053 
L 1172 3053 
L 1172 1153 
Q 1172 725 1289 603 
Q 1406 481 1766 481 
L 2356 481 
L 2356 0 
L 1766 0 
Q 1100 0 847 248 
Q 594 497 594 1153 
L 594 3053 
L 172 3053 
L 172 3500 
L 594 3500 
L 594 4494 
L 1172 4494 
z
" transform="scale(0.015625)"/>
       <path id="DejaVuSans-56" d="M 2834 3397 
L 2834 2853 
Q 2591 2978 2328 3040 
Q 2066 3103 1784 3103 
Q 1356 3103 1142 2972 
Q 928 2841 928 2578 
Q 928 2378 1081 2264 
Q 1234 2150 1697 2047 
L 1894 2003 
Q 2506 1872 2764 1633 
Q 3022 1394 3022 966 
Q 3022 478 2636 193 
Q 2250 -91 1575 -91 
Q 1294 -91 989 -36 
Q 684 19 347 128 
L 347 722 
Q 666 556 975 473 
Q 1284 391 1588 391 
Q 1994 391 2212 530 
Q 2431 669 2431 922 
Q 2431 1156 2273 1281 
Q 2116 1406 1581 1522 
L 1381 1569 
Q 847 1681 609 1914 
Q 372 2147 372 2553 
Q 372 3047 722 3315 
Q 1072 3584 1716 3584 
Q 2034 3584 2315 3537 
Q 2597 3491 2834 3397 
z
" transform="scale(0.015625)"/>
       <path id="DejaVuSans-48" d="M 3597 1894 
L 3597 1613 
L 953 1613 
Q 991 1019 1311 708 
Q 1631 397 2203 397 
Q 2534 397 2845 478 
Q 3156 559 3463 722 
L 3463 178 
Q 3153 47 2828 -22 
Q 2503 -91 2169 -91 
Q 1331 -91 842 396 
Q 353 884 353 1716 
Q 353 2575 817 3079 
Q 1281 3584 2069 3584 
Q 2775 3584 3186 3129 
Q 3597 2675 3597 1894 
z
M 3022 2063 
Q 3016 2534 2758 2815 
Q 2500 3097 2075 3097 
Q 1594 3097 1305 2825 
Q 1016 2553 972 2059 
L 3022 2063 
z
" transform="scale(0.015625)"/>
       <path id="DejaVuSans-3" transform="scale(0.015625)"/>
       <path id="DejaVuSans-36" d="M 3425 4513 
L 3425 3897 
Q 3066 4069 2747 4153 
Q 2428 4238 2131 4238 
Q 1616 4238 1336 4038 
Q 1056 3838 1056 3469 
Q 1056 3159 1242 3001 
Q 1428 2844 1947 2747 
L 2328 2669 
Q 3034 2534 3370 2195 
Q 3706 1856 3706 1288 
Q 3706 609 3251 259 
Q 2797 -91 1919 -91 
Q 1588 -91 1214 -16 
Q 841 59 441 206 
L 441 856 
Q 825 641 1194 531 
Q 1563 422 1919 422 
Q 2459 422 2753 634 
Q 3047 847 3047 1241 
Q 3047 1584 2836 1778 
Q 2625 1972 2144 2069 
L 1759 2144 
Q 1053 2284 737 2584 
Q 422 2884 422 3419 
Q 422 4038 858 4394 
Q 1294 4750 2059 4750 
Q 2388 4750 2728 4690 
Q 3069 4631 3425 4513 
z
" transform="scale(0.015625)"/>
       <path id="DejaVuSans-4c" d="M 603 3500 
L 1178 3500 
L 1178 0 
L 603 0 
L 603 3500 
z
M 603 4863 
L 1178 4863 
L 1178 4134 
L 603 4134 
L 603 4863 
z
" transform="scale(0.015625)"/>
       <path id="DejaVuSans-5d" d="M 353 3500 
L 3084 3500 
L 3084 2975 
L 922 459 
L 3084 459 
L 3084 0 
L 275 0 
L 275 525 
L 2438 3041 
L 353 3041 
L 353 3500 
z
" transform="scale(0.015625)"/>
      </defs>
      <use xlink:href="#DejaVuSans-27"/>
      <use xlink:href="#DejaVuSans-44" transform="translate(77 0)"/>
      <use xlink:href="#DejaVuSans-57" transform="translate(138.28125 0)"/>
      <use xlink:href="#DejaVuSans-44" transform="translate(177.484375 0)"/>
      <use xlink:href="#DejaVuSans-56" transform="translate(238.765625 0)"/>
      <use xlink:href="#DejaVuSans-48" transform="translate(290.859375 0)"/>
      <use xlink:href="#DejaVuSans-57" transform="translate(352.390625 0)"/>
      <use xlink:href="#DejaVuSans-3" transform="translate(391.59375 0)"/>
      <use xlink:href="#DejaVuSans-36" transform="translate(423.375 0)"/>
      <use xlink:href="#DejaVuSans-4c" transform="translate(486.859375 0)"/>
      <use xlink:href="#DejaVuSans-5d" transform="translate(514.640625 0)"/>
      <use xlink:href="#DejaVuSans-48" transform="translate(567.125 0)"/>
     </g>
    </g>
    <g id="line2d_24">
     <path d="M 59.194375 52.937109 
L 69.194375 52.937109 
L 79.194375 52.937109 
" style="fill: none; stroke: #4c72b0; stroke-width: 2; stroke-linecap: round"/>
     <g>
      <use xlink:href="#m4f87974afe" x="69.194375" y="52.937109" style="fill: #4c72b0; stroke: #4c72b0"/>
     </g>
    </g>
    <g id="text_23">
     <!-- 100 intervals -->
     <g style="fill: #262626" transform="translate(87.194375 56.437109) scale(0.1 -0.1)">
      <defs>
       <path id="DejaVuSans-51" d="M 3513 2113 
L 3513 0 
L 2938 0 
L 2938 2094 
Q 2938 2591 2744 2837 
Q 2550 3084 2163 3084 
Q 1697 3084 1428 2787 
Q 1159 2491 1159 1978 
L 1159 0 
L 581 0 
L 581 3500 
L 1159 3500 
L 1159 2956 
Q 1366 3272 1645 3428 
Q 1925 3584 2291 3584 
Q 2894 3584 3203 3211 
Q 3513 2838 3513 2113 
z
" transform="scale(0.015625)"/>
       <path id="DejaVuSans-55" d="M 2631 2963 
Q 2534 3019 2420 3045 
Q 2306 3072 2169 3072 
Q 1681 3072 1420 2755 
Q 1159 2438 1159 1844 
L 1159 0 
L 581 0 
L 581 3500 
L 1159 3500 
L 1159 2956 
Q 1341 3275 1631 3429 
Q 1922 3584 2338 3584 
Q 2397 3584 2469 3576 
Q 2541 3569 2628 3553 
L 2631 2963 
z
" transform="scale(0.015625)"/>
       <path id="DejaVuSans-59" d="M 191 3500 
L 800 3500 
L 1894 563 
L 2988 3500 
L 3597 3500 
L 2284 0 
L 1503 0 
L 191 3500 
z
" transform="scale(0.015625)"/>
       <path id="DejaVuSans-4f" d="M 603 4863 
L 1178 4863 
L 1178 0 
L 603 0 
L 603 4863 
z
" transform="scale(0.015625)"/>
      </defs>
      <use xlink:href="#DejaVuSans-14"/>
      <use xlink:href="#DejaVuSans-13" transform="translate(63.625 0)"/>
      <use xlink:href="#DejaVuSans-13" transform="translate(127.25 0)"/>
      <use xlink:href="#DejaVuSans-3" transform="translate(190.875 0)"/>
      <use xlink:href="#DejaVuSans-4c" transform="translate(222.65625 0)"/>
      <use xlink:href="#DejaVuSans-51" transform="translate(250.4375 0)"/>
      <use xlink:href="#DejaVuSans-57" transform="translate(313.8125 0)"/>
      <use xlink:href="#DejaVuSans-48" transform="translate(353.015625 0)"/>
      <use xlink:href="#DejaVuSans-55" transform="translate(414.546875 0)"/>
      <use xlink:href="#DejaVuSans-59" transform="translate(455.65625 0)"/>
      <use xlink:href="#DejaVuSans-44" transform="translate(514.84375 0)"/>
      <use xlink:href="#DejaVuSans-4f" transform="translate(576.125 0)"/>
      <use xlink:href="#DejaVuSans-56" transform="translate(603.90625 0)"/>
     </g>
    </g>
    <g id="line2d_25">
     <path d="M 59.194375 67.937891 
L 69.194375 67.937891 
L 79.194375 67.937891 
" style="fill: none; stroke: #dd8452; stroke-width: 2; stroke-linecap: round"/>
     <g>
      <use xlink:href="#m4c5ce43137" x="69.194375" y="67.937891" style="fill: #dd8452; stroke: #dd8452"/>
     </g>
    </g>
    <g id="text_24">
     <!-- 500 intervals -->
     <g style="fill: #262626" transform="translate(87.194375 71.437891) scale(0.1 -0.1)">
      <use xlink:href="#DejaVuSans-18"/>
      <use xlink:href="#DejaVuSans-13" transform="translate(63.625 0)"/>
      <use xlink:href="#DejaVuSans-13" transform="translate(127.25 0)"/>
      <use xlink:href="#DejaVuSans-3" transform="translate(190.875 0)"/>
      <use xlink:href="#DejaVuSans-4c" transform="translate(222.65625 0)"/>
      <use xlink:href="#DejaVuSans-51" transform="translate(250.4375 0)"/>
      <use xlink:href="#DejaVuSans-57" transform="translate(313.8125 0)"/>
      <use xlink:href="#DejaVuSans-48" transform="translate(353.015625 0)"/>
      <use xlink:href="#DejaVuSans-55" transform="translate(414.546875 0)"/>
      <use xlink:href="#DejaVuSans-59" transform="translate(455.65625 0)"/>
      <use xlink:href="#DejaVuSans-44" transform="translate(514.84375 0)"/>
      <use xlink:href="#DejaVuSans-4f" transform="translate(576.125 0)"/>
      <use xlink:href="#DejaVuSans-56" transform="translate(603.90625 0)"/>
     </g>
    </g>
    <g id="line2d_26">
     <path d="M 59.194375 82.938672 
L 69.194375 82.938672 
L 79.194375 82.938672 
" style="fill: none; stroke: #55a868; stroke-width: 2; stroke-linecap: round"/>
     <g>
      <use xlink:href="#m3190c1ae3a" x="69.194375" y="82.938672" style="fill: #55a868; stroke: #55a868"/>
     </g>
    </g>
    <g id="text_25">
     <!-- 1000 intervals -->
     <g style="fill: #262626" transform="translate(87.194375 86.438672) scale(0.1 -0.1)">
      <use xlink:href="#DejaVuSans-14"/>
      <use xlink:href="#DejaVuSans-13" transform="translate(63.625 0)"/>
      <use xlink:href="#DejaVuSans-13" transform="translate(127.25 0)"/>
      <use xlink:href="#DejaVuSans-13" transform="translate(190.875 0)"/>
      <use xlink:href="#DejaVuSans-3" transform="translate(254.5 0)"/>
      <use xlink:href="#DejaVuSans-4c" transform="translate(286.28125 0)"/>
      <use xlink:href="#DejaVuSans-51" transform="translate(314.0625 0)"/>
      <use xlink:href="#DejaVuSans-57" transform="translate(377.4375 0)"/>
      <use xlink:href="#DejaVuSans-48" transform="translate(416.640625 0)"/>
      <use xlink:href="#DejaVuSans-55" transform="translate(478.171875 0)"/>
      <use xlink:href="#DejaVuSans-59" transform="translate(519.28125 0)"/>
      <use xlink:href="#DejaVuSans-44" transform="translate(578.46875 0)"/>
      <use xlink:href="#DejaVuSans-4f" transform="translate(639.75 0)"/>
      <use xlink:href="#DejaVuSans-56" transform="translate(667.53125 0)"/>
     </g>
    </g>
    <g id="line2d_27">
     <path d="M 59.194375 97.939453 
L 69.194375 97.939453 
L 79.194375 97.939453 
" style="fill: none; stroke: #c44e52; stroke-width: 2; stroke-linecap: round"/>
     <g>
      <use xlink:href="#mfb60a3acf3" x="69.194375" y="97.939453" style="fill: #c44e52; stroke: #c44e52"/>
     </g>
    </g>
    <g id="text_26">
     <!-- 5000 intervals -->
     <g style="fill: #262626" transform="translate(87.194375 101.439453) scale(0.1 -0.1)">
      <use xlink:href="#DejaVuSans-18"/>
      <use xlink:href="#DejaVuSans-13" transform="translate(63.625 0)"/>
      <use xlink:href="#DejaVuSans-13" transform="translate(127.25 0)"/>
      <use xlink:href="#DejaVuSans-13" transform="translate(190.875 0)"/>
      <use xlink:href="#DejaVuSans-3" transform="translate(254.5 0)"/>
      <use xlink:href="#DejaVuSans-4c" transform="translate(286.28125 0)"/>
      <use xlink:href="#DejaVuSans-51" transform="translate(314.0625 0)"/>
      <use xlink:href="#DejaVuSans-57" transform="translate(377.4375 0)"/>
      <use xlink:href="#DejaVuSans-48" transform="translate(416.640625 0)"/>
      <use xlink:href="#DejaVuSans-55" transform="translate(478.171875 0)"/>
      <use xlink:href="#DejaVuSans-59" transform="translate(519.28125 0)"/>
      <use xlink:href="#DejaVuSans-44" transform="translate(578.46875 0)"/>
      <use xlink:href="#DejaVuSans-4f" transform="translate(639.75 0)"/>
      <use xlink:href="#DejaVuSans-56" transform="translate(667.53125 0)"/>
     </g>
    </g>
    <g id="line2d_28">
     <path d="M 59.194375 112.940234 
L 69.194375 112.940234 
L 79.194375 112.940234 
" style="fill: none; stroke-dasharray: 5.55,2.4; stroke-dashoffset: 0; stroke: #808080; stroke-opacity: 0.7; stroke-width: 1.5"/>
    </g>
    <g id="text_27">
     <!-- No speedup -->
     <g style="fill: #262626" transform="translate(87.194375 116.440234) scale(0.1 -0.1)">
      <defs>
       <path id="DejaVuSans-31" d="M 628 4666 
L 1478 4666 
L 3547 763 
L 3547 4666 
L 4159 4666 
L 4159 0 
L 3309 0 
L 1241 3903 
L 1241 0 
L 628 0 
L 628 4666 
z
" transform="scale(0.015625)"/>
       <path id="DejaVuSans-52" d="M 1959 3097 
Q 1497 3097 1228 2736 
Q 959 2375 959 1747 
Q 959 1119 1226 758 
Q 1494 397 1959 397 
Q 2419 397 2687 759 
Q 2956 1122 2956 1747 
Q 2956 2369 2687 2733 
Q 2419 3097 1959 3097 
z
M 1959 3584 
Q 2709 3584 3137 3096 
Q 3566 2609 3566 1747 
Q 3566 888 3137 398 
Q 2709 -91 1959 -91 
Q 1206 -91 779 398 
Q 353 888 353 1747 
Q 353 2609 779 3096 
Q 1206 3584 1959 3584 
z
" transform="scale(0.015625)"/>
       <path id="DejaVuSans-53" d="M 1159 525 
L 1159 -1331 
L 581 -1331 
L 581 3500 
L 1159 3500 
L 1159 2969 
Q 1341 3281 1617 3432 
Q 1894 3584 2278 3584 
Q 2916 3584 3314 3078 
Q 3713 2572 3713 1747 
Q 3713 922 3314 415 
Q 2916 -91 2278 -91 
Q 1894 -91 1617 61 
Q 1341 213 1159 525 
z
M 3116 1747 
Q 3116 2381 2855 2742 
Q 2594 3103 2138 3103 
Q 1681 3103 1420 2742 
Q 1159 2381 1159 1747 
Q 1159 1113 1420 752 
Q 1681 391 2138 391 
Q 2594 391 2855 752 
Q 3116 1113 3116 1747 
z
" transform="scale(0.015625)"/>
       <path id="DejaVuSans-47" d="M 2906 2969 
L 2906 4863 
L 3481 4863 
L 3481 0 
L 2906 0 
L 2906 525 
Q 2725 213 2448 61 
Q 2172 -91 1784 -91 
Q 1150 -91 751 415 
Q 353 922 353 1747 
Q 353 2572 751 3078 
Q 1150 3584 1784 3584 
Q 2172 3584 2448 3432 
Q 2725 3281 2906 2969 
z
M 947 1747 
Q 947 1113 1208 752 
Q 1469 391 1925 391 
Q 2381 391 2643 752 
Q 2906 1113 2906 1747 
Q 2906 2381 2643 2742 
Q 2381 3103 1925 3103 
Q 1469 3103 1208 2742 
Q 947 2381 947 1747 
z
" transform="scale(0.015625)"/>
       <path id="DejaVuSans-58" d="M 544 1381 
L 544 3500 
L 1119 3500 
L 1119 1403 
Q 1119 906 1312 657 
Q 1506 409 1894 409 
Q 2359 409 2629 706 
Q 2900 1003 2900 1516 
L 2900 3500 
L 3475 3500 
L 3475 0 
L 2900 0 
L 2900 538 
Q 2691 219 2414 64 
Q 2138 -91 1772 -91 
Q 1169 -91 856 284 
Q 544 659 544 1381 
z
M 1991 3584 
L 1991 3584 
z
" transform="scale(0.015625)"/>
      </defs>
      <use xlink:href="#DejaVuSans-31"/>
      <use xlink:href="#DejaVuSans-52" transform="translate(74.8125 0)"/>
      <use xlink:href="#DejaVuSans-3" transform="translate(136 0)"/>
      <use xlink:href="#DejaVuSans-56" transform="translate(167.78125 0)"/>
      <use xlink:href="#DejaVuSans-53" transform="translate(219.875 0)"/>
      <use xlink:href="#DejaVuSans-48" transform="translate(283.359375 0)"/>
      <use xlink:href="#DejaVuSans-48" transform="translate(344.890625 0)"/>
      <use xlink:href="#DejaVuSans-47" transform="translate(406.421875 0)"/>
      <use xlink:href="#DejaVuSans-58" transform="translate(469.90625 0)"/>
      <use xlink:href="#DejaVuSans-53" transform="translate(533.28125 0)"/>
     </g>
    </g>
   </g>
  </g>
 </g>
 <defs>
  <clipPath id="pd85edaa66c">
   <rect x="50.194375" y="23.837812" width="794.337187" height="496.700469"/>
  </clipPath>
 </defs>
</svg>
